<svg class="jss8" xmlns="http://www.w3.org/2000/svg" width="238" height="72" viewBox="0 0 238 72" aria-hidden="true"><g fill="none" fill-rule="evenodd"><path fill="#ffe100" fill-rule="nonzero" d="M227.216 54.852H2.975L12.923 0h224.24z"></path><path fill="#C1002A" fill-rule="nonzero" d="M78.652 71.493H0l2.975-16.641h78.652z"></path><g fill="#002E61"><path fill-rule="nonzero" d="M224.055 71.493H78.652l2.975-16.641H227.03zM31.516 12.365c5.667 0 7.65 2.426 6.832 7.189l-.603 3.41c-.465 2.695-1.86 5.484-5.67 6.693 3.087.454 4.134 2.416 3.575 5.886l-.043.25-.186 1.023-.837 4.555c-.912 4.836-3.616 7.344-9.165 7.435l-.317.003H14.038l6.601-36.444h10.877zm-5.258 20.64l-1.9-.001-.651 3.812-.93 5.299 1.907-.001.265-.007c1.785-.082 2.16-.816 2.942-4.548 0-.279.093-.557.093-.743l.07-.46c.43-2.94-.044-3.334-1.796-3.351zm2.606-14.131l-1.996-.001-1.302 7.437h1.86l.262-.004c1.439-.053 2.057-.604 2.574-3.457l.126-.722c.423-2.596.036-3.22-1.524-3.253zM48.344 36.816l4.37-24.544h-7.438l-4.37 24.544-2.138 11.807h15.247l1.208-6.601h-7.809zM161.208 12.272h9.204c6.503 0 9.216 1.715 8.139 8.257l-.051.296-2.882 15.898-.65 3.347c-1.261 6.57-4.439 8.435-10.547 8.547l-.61.006h-9.204l2.138-11.9 4.463-24.451zm7.995 6.6h-1.766l-3.254 17.85-.93 5.3h1.767c1.437 0 2.18-.695 2.648-2.925l.048-.236.371-2.138 2.697-14.69c.45-2.341.028-3.112-1.436-3.158l-.145-.002zM200.069 18.873l1.208-6.601h-15.34l-4.369 24.544-2.138 11.9h15.247l1.208-6.694h-7.81l.93-5.206.651-3.812h7.53l1.21-6.6h-7.531l1.394-7.531zM207.32 12.272h9.483l.59.004c5.978.096 8.412 1.704 7.543 7.166l-.045.267-.743 4.37c-.372 2.231-1.86 4.927-5.3 5.578 2.821.455 3.95 2.424 3.212 6.865l-.05.294-1.395 7.902-.201 1.226c-.27 1.706-.294 2.262-.02 2.715l.035.057h-7.53c-.166-.496-.258-.992-.21-1.357l.024-.13 1.766-10.506.372-1.953c.268-1.162-.495-1.808-1.877-1.856l-.169-.003h-1.859l-.65 3.812-2.139 11.9h-7.437l2.138-11.9 4.462-24.451zm8.229 6.602l-2-.001-1.301 7.437h1.859l.25-.004c1.41-.054 2.104-.637 2.632-3.715l.098-.68c.303-2.34-.034-3-1.538-3.037zM80.232 12.365l-.279 24.45-.186 11.9h-7.716l.279-6.414h-5.114l-1.952 6.415h-7.716l4.183-11.9 8.646-24.451h9.855zm-5.95 6.043l-5.02 17.199h3.533l1.487-17.2zM77.071 2.51c2.231 0 3.905 1.86 3.44 4.277-.465 2.417-2.696 4.276-5.02 4.276-2.232 0-3.905-1.86-3.44-4.276.465-2.417 2.696-4.277 5.02-4.277zm-.465 2.51c-.93 0-1.766.744-1.952 1.674-.186.93.465 1.673 1.394 1.673.93 0 1.767-.744 1.953-1.673.093-.93-.465-1.674-1.395-1.674zM102.823 30.122l9.576-17.85h-7.902l-8.74 17.292 2.976-17.292h-7.438l-4.462 24.544-2.138 11.9h7.437l2.138-11.9 1.116-6.043.93 6.043 1.766 11.9h7.902l-2.045-11.9zM146.054 3.626h-4.834l-1.023 5.485h4.834zM148.657 9.11h4.834l1.023-5.484h-4.834zM151.167 12.365l-.279 24.45-.093 11.9h-7.716l.279-6.414h-5.113l-1.953 6.415h-7.716l4.183-11.9 8.553-24.451h9.855zm-5.857 6.043l-5.02 17.199h3.533l1.487-17.2zM119.837 36.816l4.37-24.544h-7.438l-4.37 24.544-2.231 11.9h15.34l1.208-6.694h-7.902z"></path><path d="M227.773 7.623v-.93h.558c.28 0 .651.094.651.466 0 .464-.279.464-.65.464h-.559zm0 .465h.465l.837 1.395h.65l-.929-1.395c.465-.093.837-.279.837-.836 0-.651-.465-.93-1.209-.93h-1.208v3.254h.557V8.088zm-1.673-.186c0-1.301 1.023-2.324 2.231-2.324 1.209 0 2.232.93 2.232 2.324 0 1.302-1.023 2.325-2.232 2.325-1.208-.093-2.231-1.023-2.231-2.325zm2.231 2.79c1.58 0 2.882-1.116 2.882-2.883 0-1.673-1.394-2.882-2.882-2.882-1.58 0-2.882 1.116-2.882 2.882 0 1.767 1.302 2.882 2.882 2.882z"></path></g><g fill="#FFF" fill-rule="nonzero"><path d="M111.098 64.334l1.952-5.95h1.86l-3.255 8.46h-2.23l.65-5.95-1.952 5.95h-2.139l.372-8.46h1.953l-.651 5.95 2.045-5.95h1.952zM123.184 64.334c-.093.465-.28 1.209-.93 1.209s-.558-.744-.465-1.209l.744-3.44c.093-.557.279-1.115.93-1.115.65 0 .557.65.464 1.116l-.743 3.44zm2.789-3.625c.372-1.674-.372-2.51-2.139-2.51-1.766 0-2.882.93-3.254 2.51l-.743 3.44c-.372 1.952.093 2.881 2.138 2.881s2.882-1.022 3.254-2.882l.744-3.44zM134.712 59.965c1.022 0 1.394 0 1.208 1.022-.093.558-.372 1.023-.93 1.023h-.65l.372-2.045zm-.744 3.533h.65c.466 0 .559.372.466.93-.093.557-.28 1.208-.372 1.952v.465h2.138v-.093c-.093-.093-.093-.186-.093-.28 0-.557.279-1.952.372-2.695.093-.558-.186-.93-.744-1.116.93-.372 1.302-1.023 1.488-1.952.372-1.674-.28-2.325-1.953-2.325h-2.882l-1.766 8.46h1.952l.744-3.346zM143.172 66.845l1.766-8.46h1.953l-.744 3.346 2.231-3.347h2.045l-2.603 3.72.93 4.74h-2.138l-.465-2.974-.65.836-.466 2.046h-1.86zM161.3 64.334l1.953-5.95h1.86l-3.254 8.46h-2.232l.651-5.95-1.952 5.95h-2.138l.371-8.46h1.953l-.651 5.95 2.045-5.95h1.953zM169.575 66.845l1.766-8.46h4.556l-.372 1.673h-2.603l-.372 1.58h2.51l-.372 1.674h-2.51l-.372 1.86h2.696l-.372 1.673zM184.729 63.777h-1.116l1.395-3.812-.28 3.812zm-2.231 3.068l.557-1.674h1.58l-.092 1.674h2.045v-8.46h-2.51l-3.626 8.46h2.046zM196.257 59.965c1.023 0 1.395 0 1.209 1.022-.093.558-.372 1.023-.93 1.023h-.65l.371-2.045zm-.837 3.533h.651c.465 0 .558.372.465.93-.093.557-.279 1.208-.372 1.952v.465h2.138v-.093c-.093-.093-.093-.186-.093-.28 0-.557.28-1.952.372-2.695.093-.558-.186-.93-.743-1.116.93-.372 1.301-1.023 1.487-1.952.372-1.674-.279-2.325-1.952-2.325h-2.882l-1.767 8.46h1.953l.743-3.346z"></path></g></g></svg>