<svg width="579" height="163" viewBox="0 0 579 163" fill="none" xmlns="http://www.w3.org/2000/svg">
<path d="M152.042 129.275C153.562 120.125 156.942 112.015 159.152 103.565C160.972 96.5645 162.692 89.5645 164.502 82.5645C165.502 78.6345 166.712 74.3846 162.012 72.2346C157.552 70.2346 150.952 73.7846 149.542 78.8046C146.035 91.2246 142.682 103.691 139.482 116.205C136.162 129.205 136.282 129.345 123.022 129.205C117.952 129.145 112.832 130.035 107.812 128.595C109.032 123.815 110.212 119.015 111.472 114.245C114.152 103.995 116.882 93.7445 119.592 83.5045C119.592 83.3445 119.712 83.1846 119.742 83.0246C121.312 76.5646 120.252 72.9446 116.522 72.0246C111.742 70.8446 106.572 74.2445 105.002 79.8145C101.148 93.4812 97.3484 107.175 93.6017 120.895C91.3217 129.225 91.3917 129.245 82.7017 129.245C77.5517 129.245 72.3817 129.055 67.2317 129.315C63.6117 129.495 62.9817 128.245 63.8817 124.985C67.5317 111.735 71.0417 98.4546 74.6117 85.1846C74.983 84.085 75.2968 82.9668 75.5517 81.8346C78.0117 66.2346 88.4017 58.7146 102.692 55.1546C105.552 54.4446 108.442 53.8446 111.372 53.1546C112.482 55.9846 109.992 58.2946 110.602 61.3046C113.232 60.5046 114.852 58.3946 116.822 56.9246C120.052 54.4307 123.761 52.6294 127.718 51.6331C131.676 50.6369 135.796 50.4672 139.822 51.1346C146.542 52.1946 151.052 56.3946 151.912 64.1346C156.912 59.9346 160.852 54.9046 166.802 53.1346C174.342 50.9446 181.902 49.1346 189.702 53.2946C196.192 56.7246 197.482 64.1746 195.812 71.5846C194.252 78.4846 192.812 85.4746 190.492 92.1346C186.552 103.505 185.322 115.585 180.902 126.835C180.172 128.695 179.712 129.145 178.102 129.145L152.042 129.275ZM110.182 62.1046C110.072 62.2146 109.872 62.3146 109.862 62.4246C109.852 62.5346 110.042 62.6645 110.142 62.7845C110.252 62.6745 110.442 62.5646 110.452 62.4546C110.462 62.3446 110.272 62.2046 110.182 62.1046V62.1046Z" fill="#646B71"/>
<path d="M137.771 15.8848C150.771 21.8848 160.981 30.1048 168.251 41.6748C168.921 42.7548 170.951 43.7848 168.921 45.3148C167.381 46.4848 166.001 46.1248 164.561 44.7248C157.138 37.5234 147.865 32.5184 137.771 30.2648C130.471 28.5348 123.151 28.6848 116.021 29.5048C90.1414 32.5048 68.4414 43.8648 51.0214 63.3048C41.2314 74.1948 33.8014 86.7148 30.3714 100.645C27.0014 114.345 27.1714 128.585 37.6114 140.365C44.0914 147.685 52.5614 151.365 61.8814 152.695C84.3614 155.785 105.251 150.455 124.881 139.485C127.881 137.825 128.301 137.715 133.461 138.185C122.247 146.876 109.548 153.46 95.9814 157.615C79.4314 162.845 62.5714 164.405 45.4414 160.675C31.4414 157.615 19.6114 150.585 11.5514 138.845C3.67139 127.355 2.02139 113.995 4.08139 100.285C5.30012 92.1674 7.77651 84.2895 11.4214 76.9348C12.5814 74.5748 13.5114 73.2048 16.0114 75.4948C19.0114 78.2748 20.9114 78.0648 23.4814 74.1248C41.0114 47.2248 64.9014 28.7448 96.5314 21.3948C108.251 18.6748 120.341 18.8448 132.211 20.4448C136.301 21.0148 137.491 19.9648 137.771 15.8848Z" fill="#646B71"/>
<path d="M403.052 61.5847C411.122 53.5847 419.932 50.0247 430.582 50.9047C440.372 51.7247 446.742 58.8247 444.942 68.3947C442.462 81.5947 438.452 94.3947 434.852 107.395C433.122 113.605 431.152 119.765 429.682 126.045C429.052 128.745 427.912 129.425 425.312 129.375C418.162 129.245 411.002 129.255 403.852 129.475C400.782 129.575 400.302 128.715 401.092 125.835C404.912 111.925 408.542 97.9747 412.242 84.0347C412.332 83.7147 412.492 83.4147 412.572 83.0947C414.102 77.2247 413.122 72.9547 410.062 72.0947C405.232 70.7447 398.712 74.7847 397.322 80.0047C393.322 95.0047 389.192 110.055 385.322 125.135C384.522 128.295 383.322 129.495 379.992 129.385C372.992 129.145 365.992 129.245 358.992 129.385C356.332 129.385 355.042 129.165 355.992 125.845C360.352 110.395 364.922 94.9847 368.532 79.3547C371.602 66.0547 380.922 60.0347 392.532 55.9347C393.794 55.5006 395.088 55.1662 396.402 54.9347C403.642 53.5847 403.642 53.5947 403.052 61.5847Z" fill="#646B71"/>
<path d="M228.771 131.905C222.931 132.105 217.771 131.805 212.991 129.695C200.321 124.135 195.491 114.225 197.331 97.8548C200.271 71.7648 224.491 49.8548 250.671 50.2148C275.161 50.5748 285.141 66.3048 280.741 88.0348C276.521 108.845 263.521 122.595 243.801 129.975C238.981 131.661 233.861 132.319 228.771 131.905V131.905ZM252.651 76.4548C252.051 73.3348 252.891 69.3748 248.481 67.8948C244.481 66.5448 241.481 68.3148 238.741 71.0748C236.799 73.1327 235.211 75.498 234.041 78.0748C230.101 86.0748 228.221 94.5848 226.911 103.315C226.231 107.805 226.301 112.315 230.701 114.645C235.431 117.095 238.701 113.475 241.801 110.385C242.395 109.792 242.904 109.119 243.311 108.385C248.518 98.4688 251.693 87.6135 252.651 76.4548V76.4548Z" fill="#646B71"/>
<path d="M498.971 98.0846C493.151 98.0846 487.321 97.9545 481.511 98.1345C478.381 98.2345 478.201 97.1345 479.351 94.6745C479.797 93.6962 480.446 92.8248 481.257 92.1192C482.068 91.4136 483.021 90.8902 484.051 90.5846C486.051 89.8946 488.111 89.1545 490.161 88.5045C491.858 87.9256 493.417 87.002 494.739 85.7918C496.062 84.5815 497.12 83.1107 497.847 81.4719C498.574 79.8331 498.954 78.0617 498.963 76.2689C498.973 74.4762 498.611 72.7009 497.901 71.0546C495.901 66.7746 488.511 66.3545 484.041 70.3545C481.378 72.855 479.325 75.9343 478.041 79.3545C475.27 86.4369 473.344 93.8212 472.301 101.355C470.791 110.945 477.041 117.125 486.701 115.855C493.551 114.955 499.841 112.475 504.891 107.655C508.891 103.825 513.651 105.715 518.091 105.655C519.991 105.655 519.011 107.405 518.351 108.215C509.091 119.465 498.221 128.315 483.351 130.975C475.921 132.315 468.471 132.435 461.351 129.365C450.511 124.665 444.891 116.025 445.521 104.265C446.571 84.3545 454.711 68.0245 471.811 57.2645C483.011 50.1745 495.271 47.6046 508.331 52.4646C517.971 56.0446 522.601 63.3346 523.831 73.0946C524.751 80.4246 523.521 87.6145 521.831 94.7645C521.221 97.3545 520.011 98.2046 517.381 98.1246C511.271 97.9546 505.121 98.0846 498.971 98.0846Z" fill="#646B71"/>
<path d="M578.431 20.8947C568.961 56.1347 559.621 90.8147 550.371 125.525C549.661 128.165 548.641 129.415 545.681 129.335C538.531 129.135 531.371 129.215 524.221 129.335C521.341 129.335 520.501 128.615 521.341 125.535C528.761 98.3747 535.971 71.1547 543.341 43.9847C546.241 33.3647 554.421 27.8147 563.971 24.1047C568.401 22.3547 573.011 20.7947 578.431 20.8947Z" fill="#646B71"/>
<path d="M292.401 129.334C289.069 129.186 285.731 129.21 282.401 129.404C278.271 129.834 278.251 128.094 279.131 124.884C286.491 97.8843 293.721 70.8843 301.051 43.9543C304.301 32.0243 313.461 26.3243 324.361 23.1843C336.311 19.7343 336.461 20.0843 333.201 32.0343C324.781 63.0343 316.201 93.9243 307.931 124.924C306.931 128.544 305.401 129.734 301.821 129.394C298.684 129.216 295.54 129.196 292.401 129.334V129.334Z" fill="#646B71"/>
<path d="M366.011 55.1945C359.501 79.4745 353.011 103.575 346.621 127.705C346.011 130.025 344.771 130.455 342.771 130.455C335.291 130.365 327.771 130.315 320.331 130.455C317.561 130.455 317.091 129.955 317.901 127.075C322.601 110.525 326.801 93.8245 331.571 77.2945C335.281 64.4445 345.791 59.2945 357.521 55.9845C359.961 55.2645 362.571 54.3145 366.011 55.1945Z" fill="#646B71"/>
<path d="M121.771 10.0544C111.863 8.58798 101.784 8.70273 91.9112 10.3944C68.0112 14.5244 47.9112 25.9144 30.5312 42.6244C25.2372 47.8869 20.3811 53.5724 16.0113 59.6244C13.8313 62.5344 11.4413 63.0543 8.92125 60.7543C7.07684 59.2406 5.06345 57.9453 2.92125 56.8944C-1.22875 54.5644 -0.458748 52.8944 2.14125 49.8944C18.2713 31.3444 37.2313 16.6344 60.2913 7.80437C80.0313 0.234365 100.451 -2.07565 121.371 1.96435C123.021 2.28435 125.941 1.91435 124.961 5.24435C124.381 7.28435 124.771 10.2344 121.771 10.0544Z" fill="#DA3B32"/>
<path d="M339.251 51.085C339.251 41.585 344.251 34.965 351.741 29.875C357.531 25.875 364.121 23.985 370.991 22.875C373.831 22.415 374.671 23.155 373.741 26.005C373.031 28.195 373.011 30.605 372.231 32.755C370.361 37.885 370.311 43.955 361.621 43.755C353.731 43.555 346.441 47.875 339.171 51.025L339.251 51.085Z" fill="#646B71"/>
<path d="M339.171 50.9741L338.681 51.6841L338.521 51.2441L339.251 51.0841L339.171 50.9741Z" fill="#646B71"/>
<path d="M110.181 62.105C110.271 62.205 110.451 62.335 110.451 62.455C110.451 62.575 110.251 62.675 110.141 62.785C110.041 62.665 109.861 62.545 109.861 62.425C109.861 62.305 110.071 62.215 110.181 62.105Z" fill="white"/>
<path d="M252.652 76.4544C251.695 87.6165 248.519 98.4753 243.312 108.394C242.904 109.128 242.396 109.801 241.802 110.394C238.732 113.484 235.432 117.104 230.702 114.654C226.302 112.364 226.232 107.814 226.912 103.324C228.222 94.5944 230.102 86.0444 234.042 78.0844C235.211 75.5076 236.799 73.1422 238.742 71.0844C241.492 68.3244 244.462 66.5544 248.482 67.9044C252.892 69.3444 252.052 73.3044 252.652 76.4544Z" fill="white"/>
</svg>
