<svg xmlns="http://www.w3.org/2000/svg" viewBox="0 0 1000 524"><defs><style>.cls-1{fill:#fff;}.cls-2{fill:#231f20;}.cls-3{fill:#eb5b27;}.cls-4{fill:#eb5c27;}.cls-5{fill:#eb5c28;}.cls-6{fill:#1c1919;}.cls-7{fill:#191516;}.cls-8{fill:#181415;}.cls-9{fill:#1c191a;}.cls-10{fill:#1d191a;}.cls-11{fill:#1a1718;}.cls-12{fill:#161314;}.cls-13{fill:#171314;}.cls-14{fill:#161213;}.cls-15{fill:#ea541e;}.cls-16{fill:#191517;}.cls-17{fill:#141012;}.cls-18{fill:#171415;}.cls-19{fill:#1a1617;}.cls-20{fill:#141112;}</style></defs><g id="Calque_2" data-name="Calque 2"><g id="Calque_1-2" data-name="Calque 1"><path class="cls-1" d="M500,523.91q-247.71,0-495.41.09C.84,524,0,523.16,0,519.42Q.17,262,0,4.58C0,.84.84,0,4.59,0Q500,.15,995.41,0c3.75,0,4.59.84,4.59,4.58q-.16,257.41,0,514.84c0,3.74-.84,4.58-4.59,4.58Q747.7,523.84,500,523.91Z"/><path class="cls-2" d="M588.54,236.58c.87-1.92,2.58-.94,3.84-.94q32.14-.12,64.31,0c12,0,19.51,7.61,19.54,19.57q0,9.47,0,18.92c0,12.22-6,18.94-18.92,20.62l16.42,19.49a17,17,0,0,1,1.91,2.28c2.22,3.91.46,6.33-3.83,7-11,1.74-18.86-2-24.8-11.45-3.48-5.57-8.5-10.17-12.68-15.32a5.64,5.64,0,0,0-5.07-2.32c-6.32.15-12.63.14-19,0-1.89,0-3.22.34-3.78,2.27-1.48,5-.3,10.12-.67,15.16-.27,3.78.53,7.61-.48,11.36-5.62-.24-11.33,1.33-16.86-.86a2.89,2.89,0,0,0,.33-.93q.14-42,0-83.9A3.09,3.09,0,0,0,588.54,236.58Z"/><path class="cls-2" d="M570.42,323.2c-4.65.05-9.32-.05-14,.23-3,.18-4.06-.64-3.93-3.82.26-6.81-.07-13.63.14-20.44.09-3.08-.55-4.3-4-4.25-14.14.21-28.29.19-42.43,0-3.16,0-3.92.93-3.83,3.94.22,7.14,0,14.29.13,21.44,0,2.36-.61,3.22-3.05,3.09-5.12-.25-11.68,1.6-15-.91-3.13-2.39-.86-9.32-.89-14.24-.12-17.45-.06-34.9-.05-52.36,0-13.27,7-20.36,20.13-20.37,16.64,0,33.28-.06,49.92,0,9.59,0,16.76,6.65,17.65,16-.8,3.11-.34,6.28-.35,9.41-.06,19,0,37.9,0,56.85C570.87,319.6,571.34,321.47,570.42,323.2Z"/><path class="cls-3" d="M852.89,194.82c-1.36,7.23-2.6,13.83-3.89,20.72,3.43-1,3.76-3.28,4.13-5.87,1.41-10.18,2.74-20.38,5.83-30.24a32.57,32.57,0,0,1,2.2-5.52,7.42,7.42,0,0,1,7.3-4.26c3.43.15,5.46,2.08,6.51,5.21q5,15.07,10.08,30.15c.37,1.09.83,2.15,1.26,3.24,3.47-1.53,4.37-3.62,2.78-7.16-2-4.37-3.34-9-5-13.51-.62-1.66-1.05-2.92,1.45-3.46,13.24-2.84,26.49-5,39.94-1.42,9.36,2.47,12.11,8.79,7.6,17.4A34.16,34.16,0,0,1,923.71,211c-19.76,15.65-42.81,23.63-67.12,28.6-10.32,2.11-20.72,3.1-31.18,1a32.81,32.81,0,0,1-7.11-2.15c-4.9-2.25-6.58-6.16-5.39-11.43A23,23,0,0,1,820,215.22C829.43,206.4,840.66,200.42,852.89,194.82Z"/><path class="cls-2" d="M763.17,235.72c9.76.77,16.82,7.73,16.93,17.36q.3,26.41,0,52.83a17.42,17.42,0,0,1-17,17.39c-22.79.19-45.58.07-68.36,0-.84,0-2.08.54-2.32-1,.72-1.77.37-3.61.37-5.42,0-25.24.11-50.48-.08-75.71,0-4.13,1.06-5.28,5.21-5.23,19.94.21,39.89.1,59.84.08C759.55,236.05,761.39,236.38,763.17,235.72Z"/><path class="cls-2" d="M352.53,295.47c-10.43-1-20.88-.33-31.31-.41-6.45,0-12.93-.56-19.37.4-1.43,5.46-.26,11-.63,16.53-.25,3.73.54,7.51-.48,11.21h-16c-.91-1.73-.45-3.6-.45-5.39,0-20.94,0-41.88-.05-62.83,0-1.81.33-3.65-.33-5.43,2.2-8.82,8.46-14,17.37-14,17.14-.07,34.28,0,51.42,0,8.87,0,14.74,4.39,17.75,13-.73,8.76-.23,17.54-.3,26.32-.09,13.43,0,26.86-.05,40.29,0,1.58.56,3.28-.47,4.75,1.11.1.54-.67.54-1.19q0-32.34,0-64.67c0-1-.2-2,.6-2.82.92,1.36.57,2.9.57,4.37,0,21.11-.06,42.23.09,63.34,0,3.37-.65,4.78-4.31,4.48-4.46-.36-9-.19-13.46-.24-1.07-7.49-.15-15-.51-22.53C353.08,298.94,353.83,297.07,352.53,295.47Z"/><path class="cls-2" d="M159.88,235.72c2.29,5.66.65,11.54.85,17.3.08,2.53-2.61,1.37-4,1.38-19.81.08-39.62.18-59.42-.05-4.19,0-5.63.69-5.5,5.29.38,13.46.3,26.94,0,40.4-.08,3.88,1.1,4.57,4.7,4.54,20-.19,40,0,59.92-.17,3.33,0,4.83.57,4.49,4.27a74.31,74.31,0,0,0,0,11.46c.17,2.72-.83,3.29-3.38,3.28-22.47-.09-44.94.05-67.4-.11a17.3,17.3,0,0,1-17-17.36q-.39-26.43,0-52.87c.12-9.79,7.09-16.61,16.9-17.36,5.26.77,10.55.35,15.82.32C123.86,235.91,141.88,236.52,159.88,235.72Z"/><path class="cls-4" d="M869.09,305.27h-34.2c4.75-19.83,9.43-39.27,14-58.73a2.51,2.51,0,0,1,2.58-2.32c15.15-1.56,29.4-6.22,43.38-13.1,5.73,24.07,11.36,47.7,17,71.33-.42,2.87-2.6,2.44-4.56,2.44-11.1,0-22.19,0-33.29,0C872.36,304.91,870.68,304.57,869.09,305.27Z"/><path class="cls-2" d="M247.78,289.45l-1.14-.93c-.88-1.19-2.14-.56-3.2-.56q-21.81-.07-43.62,0c-2,0-4.46-.65-5.45,2.15-.33,11,.58,22.08-.5,33.11h-16c-.84-1.39-.46-2.93-.46-4.39,0-25.93.05-51.86-.1-77.79,0-3.8.8-5.58,4.9-5,3.88.58,8.9-1.76,11.43,1,2.26,2.48.5,7.31.7,11.1.38,7.09-.77,14.22.59,21.29l1,.84c.88,1.14,2.14.67,3.23.67,15.08,0,30.16,0,45.24,0,.78,0,1.67.29,2.2-.63l1.18-.89c1.26-6.91.26-13.88.53-20.81.13-3.15.13-6.32,0-9.47-.1-2.39.83-3.25,3.19-3.15a83.07,83.07,0,0,0,10,0c3.2-.25,3.9,1,3.87,4-.13,13.46-.06,26.93-.06,40.39,0,12.63,0,25.26,0,37.89,0,1.63.42,3.33-.46,4.89h-16c-1.07-9.31-.15-18.65-.5-28C248.22,293.3,248.84,291.29,247.78,289.45Z"/><path class="cls-2" d="M435.58,323.2h-16c-.91-1.73-.45-3.59-.45-5.38,0-19.56,0-39.12-.08-58.68,0-1.49,1-3.31-.86-4.51-10-.06-20.07-.06-30.1-.24-1.41,0-3.26,1.16-4.3-.9.76-4.45.49-8.94.25-13.38-.21-4,1.79-4.09,4.81-4.08q38.11.12,76.23,0c1.81,0,3.65.33,5.43-.35,2.25,5.77.71,11.75.82,17.62,0,2-2.42,1.06-3.71,1.08-10.22.14-20.45.15-30.67.21-1.78,1.22-.85,3-.85,4.53-.07,19.56,0,39.12-.07,58.68C436,319.61,436.5,321.47,435.58,323.2Z"/><path class="cls-5" d="M871.4,309.56c-3.12,4.17-5.8,7.71-8.43,11.27a3.25,3.25,0,0,1-3.43,1.38c-3.77-.55-7.55-1.19-11.35-1.38-3.13-.16-4-1.77-3.88-4.45.06-1.83.17-3.65.17-5.47,0-2.53.91-3.29,3.65-3C855.55,308.68,863,309,871.4,309.56Z"/><path class="cls-5" d="M905.64,309.3c-2.51,2.32-1.75,5.75-1.61,8.95.12,2.72-.77,4.07-3.54,4a2.89,2.89,0,0,0-.5,0c-12.2,1.33-13.08.79-20.6-13Z"/><path class="cls-6" d="M763.17,235.72c-1.57,1.41-3.5.81-5.26.81-19.81,0-39.62.14-59.42-.06-4.16-.05-5.34,1.18-5.31,5.32.18,24.93.11,49.87.06,74.81,0,1.92.7,4-.84,5.74q-.09-42-.23-84c0-2.17.61-2.81,2.79-2.79C717.7,235.63,740.43,235.66,763.17,235.72Z"/><path class="cls-7" d="M264.78,323.2c0-27.05-.1-54.11.1-81.16,0-4.36-1.09-5.71-5.55-5.59-10.53.28-10.53.05-10.53,10.46,0,6,0,12,0,17.92,0,1.59.58,3.37-1,4.64,0-9.94.07-19.89-.12-29.83-.06-3,.48-4.55,4-4.15,4.73.55,11.09-2,13.8,1,2.32,2.6.65,8.82.65,13.45,0,22.87,0,45.74-.06,68.61C266,320.09,267.2,322.2,264.78,323.2Z"/><path class="cls-8" d="M194.94,269.46c-1.65-1.24-1-3-1.05-4.61-.06-8-.13-15.94,0-23.9.06-3-.63-4.41-4.09-4.48-11.94-.23-11.94-.36-11.94,11.54V323.2c-2.21-.27-1.31-2-1.31-3.09-.06-27.05,0-54.09-.11-81.14,0-2.93.93-3.62,3.64-3.47,4.78.27,11-1.56,14,.82s.78,9,.89,13.73C195.11,256.51,195,263,194.94,269.46Z"/><path class="cls-9" d="M470.52,235.71c-1.57,1.42-3.5.82-5.26.82-25.13,0-50.25.12-75.38-.06-4.12,0-5.5,1.1-5.36,5.29.13,3.88,1.07,7.93-.72,11.73-.07-5,0-9.93-.25-14.88-.09-2.28.45-3.14,3-3.12Q428.51,235.7,470.52,235.71Z"/><path class="cls-10" d="M588.54,236.58c1.25,1.22.84,2.79.84,4.24q0,38.64,0,77.28c0,1.45.41,3-.86,4.24Z"/><path class="cls-11" d="M370.78,251.25v70.88c-1.55-2-1.1-3.34-1.1-4.59q0-32.12,0-64.21c0-1.61-.51-3.35.78-4.76C370.57,249.46,370.67,250.36,370.78,251.25Z"/><path class="cls-12" d="M283.92,249.55c1.41,1.56.81,3.47.81,5.22q.06,34.21,0,68.43c-1.54,0-1.35-1.16-1.35-2.08q0-34.56.15-69.12A15.94,15.94,0,0,1,283.92,249.55Z"/><path class="cls-13" d="M570.42,323.2q0-33.22,0-66.44c0-1.75-.61-3.67.84-5.21q.12,34.95.22,69.89C571.51,322.2,571.67,323.16,570.42,323.2Z"/><path class="cls-10" d="M159.88,235.72c-1.07,1.1-2.45.83-3.76.83H93.77c-1.3,0-2.69.28-3.75-.83Z"/><path class="cls-8" d="M435.58,323.2c0-21.07,0-42.13,0-63.2,0-1.82-1-4.07,1.34-5.38,0,21.32,0,42.64-.18,64C436.78,320.1,438,322.21,435.58,323.2Z"/><path class="cls-14" d="M418.2,254.63c2.37,1.29,1.34,3.55,1.35,5.37.07,21.06,0,42.13,0,63.2-2.47-.95-1.24-3.08-1.24-4.59C418.22,297.29,418.22,276,418.2,254.63Z"/><path class="cls-8" d="M193.87,289.44a3.25,3.25,0,0,1,3.16-2l49.29,0c.13,0,.37.12.38.21a4.82,4.82,0,0,1-.06.84q-23.2.09-46.41.19c-1.79,0-3.68-.46-5.32.74C194.56,289.93,194.21,289.92,193.87,289.44Z"/><path class="cls-13" d="M246.58,270.36c.69,1.57-.63,1.1-1.22,1.1q-23.21,0-46.4,0c-1.16,0-2.36.07-3.05-1.17Z"/><path class="cls-15" d="M869.09,305.27c1.55-1.46,3.47-.83,5.22-.84q16.16-.09,32.32,0c2.06,0,4-.05,5.22-2,1.08,2.27.6,3.14-2.14,3.1C896.17,305.36,882.63,305.35,869.09,305.27Z"/><path class="cls-16" d="M247.78,289.45c1.66,1.43,1,3.37,1,5.1.06,9.55,0,19.1,0,28.65-2-.51-1-2.17-1-3.22C247.69,309.8,247.75,299.62,247.78,289.45Z"/><path class="cls-17" d="M193.87,289.44h1c0,10.19.09,20.37,0,30.55,0,1.05,1,2.72-1.07,3.2Z"/><path class="cls-18" d="M352.53,295.47c1.73,1.17,1.11,3,1.12,4.52.05,7.74,0,15.47,0,23.21-2.34-.84-1.08-2.79-1.1-4.15C352.44,311.19,352.52,303.33,352.53,295.47Z"/><path class="cls-16" d="M605.38,323.2q0-13.18,0-26.37c0-.11.18-.33.26-.32a6.73,6.73,0,0,1,.85.17q.15,12.27.29,24.53C606.83,322.17,606.87,323.27,605.38,323.2Z"/><path class="cls-8" d="M300.74,323.2c0-7.74,0-15.47,0-23.2,0-1.56-.6-3.35,1.09-4.54,0,7.85.09,15.71,0,23.57C301.78,320.39,303.05,322.33,300.74,323.2Z"/><path class="cls-1" d="M606.54,255.81c1-2,2.85-1.32,4.41-1.33,14.09,0,28.19.08,42.28-.1,3.27,0,4.39.86,4.07,4.12-.52,5.55,2.37,13-1.13,16.14-3.07,2.75-10.4.82-15.84.84q-14.43.07-28.86,0c-1.69,0-3.73.82-4.93-1.28A53.21,53.21,0,0,1,606.54,255.81Z"/><path class="cls-16" d="M606.54,255.81a111.56,111.56,0,0,1,0,18.37c-.4.38-1.07.41-1.07-.08-.07-6.07-.05-12.14,0-18.21,0-.1.19-.31.27-.3A5.2,5.2,0,0,1,606.54,255.81Z"/><path class="cls-1" d="M502.59,276.18c0-6.3,0-12.6-.15-18.89,0-2.1.5-2.9,2.76-2.88q22.4.14,44.8,0c2.38,0,2.68,1.05,2.63,3-.14,6.29-.18,12.58-.25,18.88A347.65,347.65,0,0,1,502.59,276.18Z"/><path class="cls-17" d="M502.59,276.18l49.79.1c-1,1.64-2.61,1.16-4,1.17q-20.91,0-41.81,0C505.13,277.44,503.47,277.93,502.59,276.18Z"/><path class="cls-19" d="M503.66,293.64h47.67v.48H503.8Z"/><path class="cls-1" d="M761.09,304.37c-15.62,0-31.25,0-46.87.18-2.7,0-3.3-.87-3.29-3.4.11-14.44.14-28.89,0-43.34,0-3.07,1.22-3.42,3.79-3.4,15.46.12,30.92.11,46.38.14,1,1.15.57,2.54.58,3.82q0,21.09,0,42.18C761.65,301.83,762.05,303.21,761.09,304.37Z"/><path class="cls-11" d="M710.08,255.85v47.23h-.48V255.65Z"/><path class="cls-10" d="M761.09,304.37q0-24.9,0-49.82c1.37.88,1.1,2.29,1.1,3.58q0,21.33,0,42.65C762.18,302.07,762.45,303.48,761.09,304.37Z"/><path class="cls-1" d="M302,254.6H352.4c1.39,6.92.93,13.85.24,20.78l-1,1c-2.37,1.14-4.89.5-7.32.52-12.25.07-24.5.05-36.75,0-1.61,0-3.31.47-4.84-.52l-1-1C301.07,268.5,300.65,261.54,302,254.6Z"/><path class="cls-20" d="M302.75,276.41h48.91c-.92,1.33-2.32,1.06-3.62,1.06q-20.84,0-41.67,0C305.08,277.46,303.68,277.73,302.75,276.41Z"/><path class="cls-19" d="M350.34,294.25H304.07v-.47h46.47Z"/><path class="cls-18" d="M352.64,275.38l-.24-20.78c2.46,2.14,1.1,5,1.2,7.45.19,4.43-.05,8.88-.14,13.32,0,.08-.24.2-.37.2A1.24,1.24,0,0,1,352.64,275.38Z"/><path class="cls-8" d="M302,254.6l-.21,20.86C300.19,268.49,299.86,261.53,302,254.6Z"/></g></g></svg>