<svg xmlns="http://www.w3.org/2000/svg" viewBox="0 0 845.30527 233.28023"><g id="fe2c7515-8ead-428e-8f38-84870c8e52df" data-name="Mode Isolation"><path d="M915.73668,67.432l-.01943-.02243a6.19387,6.19387,0,0,0-6.9153-1.67911c-3.68566,1.386-90.473,33.3833-112.93083-16.501a6.39287,6.39287,0,0,0-5.81183-3.67969h-.012a6.4919,6.4919,0,0,0-5.83575,3.64081c-9.502,20.90885-31.03135,30.09087-64.01991,27.28288C695.008,74.33229,672.15991,65.6093,671.206,65.24148a6.24083,6.24083,0,0,0-6.93772,1.68659,6.43793,6.43793,0,0,0-.9016,7.05285l46.227,87.44-.04636,27.2611a6.30489,6.30489,0,0,0,6.22751,6.35908l148.33862.296h.01345a6.185,6.185,0,0,0,4.43626-1.863,6.34486,6.34486,0,0,0,1.83012-4.46914l.04635-28.082,46.17471-86.44275A6.3669,6.3669,0,0,0,915.73668,67.432Zm-57.84025,99.09811-.02392,16.0516-135.80438-.27213.02393-16.0516ZM898.59424,82.375c-8.75589,17.21123-30.31665,55.24245-38.54622,71.44142l-140.429-.28109c-8.16378-16.23188-29.55558-54.34832-38.24269-71.59693,12.3623,3.62885,31.81932,8.18023,51.43632,7.83484,26.33642-.40221,45.56019-9.11921,57.21077-25.92375C801.60371,80.70034,820.79159,89.4936,847.12652,90.002,866.70913,90.42062,886.21848,85.95,898.59424,82.375Z" transform="translate(-71.99332 -44.53911)"/><path d="M328.25636,237.05274l45.81552-.065v-3.21162l-46.85822.03566c-11.53259,0-20.90459,9.88707-20.90459,22.01246,0,12.12334,9.372,22.01028,21.02441,21.97243l46.59113.021V274.688s-41.91463.02322-45.48352-.09455a18.62635,18.62635,0,0,1-18.65139-17.03743h64.25473v-3.54362H309.79381a18.4449,18.4449,0,0,1,18.46255-16.95969" transform="translate(-71.99332 -44.53911)"/><path d="M521.51289,233.90821v20.68l-51.19632.002a10.29915,10.29915,0,0,1-6.77217-2.6378c-2.01562-1.95468-3.037-4.92871-3.037-8.84231v-9.2019h-3.56273v9.2019c0,4.93718,1.39985,8.78561,4.15952,11.438a13.76677,13.76677,0,0,0,9.30273,3.60468h51.106v4.62186c0,3.9136-1.02166,6.88776-3.03523,8.84244a10.30259,10.30259,0,0,1-6.77192,2.63781l-44.49983-.00219v3.56261h44.40721a13.75763,13.75763,0,0,0,9.30478-3.60456c2.75762-2.6505,4.15952-6.49892,4.15952-11.43611V233.90821Z" transform="translate(-71.99332 -44.53911)"/><path d="M133.83962,253.87157l-47.50966.1093c-7.37537,0-10.91694-2.829-10.91694-8.4073,0-5.50254,3.59417-8.52494,10.91694-8.52494,3.58981-.11776,58.68715-.02732,58.68715-.02732l-.01052-3.21585-59.79066.02321c-8.23078,0-13.22261,5.17888-13.22261,11.7449,0,6.80155,4.99183,11.66934,13.28778,11.66934l47.50966-.11136c7.37511,0,10.91681,3.342,10.91681,8.92019,0,5.50048-3.592,8.52288-10.91681,8.52288-3.58994.11982-58.68715.02938-58.68715.02938l.01052,3.21367,59.7904-.02091c8.23309,0,13.22261-5.179,13.22261-11.745,0-6.80156-4.98952-12.18017-13.28752-12.18017" transform="translate(-71.99332 -44.53911)"/><polygon points="376.227 189.405 310.297 189.405 310.297 192.595 341.412 192.595 341.412 233.28 344.605 233.28 344.605 192.595 376.227 192.595 376.227 189.405"/><path d="M158.51861,254.05758V247.935c0-.721.62449-10.35992,15.22566-10.35992l30.20321-.03361c14.07392,0,14.986,9.49182,14.986,10.45652v6.05955Zm63.942-6.88558c0-.71249-.85977-13.16155-18.5131-13.16155l-30.20321.03362c-18.1072,0-18.75453,12.384-18.75453,13.15526v30.6195h3.52887V257.58876H218.9335v20.23007h3.53118Z" transform="translate(-71.99332 -44.53911)"/><path d="M237.42684,240.24858a10.362,10.362,0,0,1,6.80758-2.65448l55.0595.002v-3.57941H244.31858a13.83462,13.83462,0,0,0-9.34686,3.62149c-2.7743,2.66718-4.18056,7.741-4.18056,12.70332V277.8187h3.58378v-20.808h64.88332v-3.40918H234.37494v-3.26c0-3.93246,1.02551-8.12559,3.0519-10.093" transform="translate(-71.99332 -44.53911)"/><path d="M580.27059,70.97189l34.03689-6.69431,3.30617,16.8L566.76627,91.09278a17.13922,17.13922,0,0,1,13.50432-20.12089" transform="translate(-71.99332 -44.53911)"/><path d="M619.23774,195.12233H541.73731a46.26535,46.26535,0,1,1,0-92.5307H580.432a46.32607,46.32607,0,0,1,46.27786,46.02154v10.78238H519.26456a24.8825,24.8825,0,0,0,22.47275,14.27339s4.64084.1619,19.31359.1619h58.18684Zm-124.78944,0H468.95316a46.32918,46.32918,0,0,1-46.27786-46.28222V65.9526a21.4089,21.4089,0,0,1,21.409-21.41349V147.7892c0,14.87249,11.21341,25.87974,25.32068,25.87974,0,0,4.19954.08416,18.86613.1619h6.17719Zm-73.37888,0h-25.5226a46.33111,46.33111,0,0,1-46.27375-46.28222V65.9526a21.40825,21.40825,0,0,1,21.40515-21.41349V147.7892c0,14.87249,11.21111,25.87974,25.31863,25.87974,0,0,4.20981.08416,18.90154.1619h6.171Zm-125.788,0H256.58059a46.26535,46.26535,0,1,1,0-92.5307h38.70083a46.26535,46.26535,0,1,1,0,92.5307m-138.09184,0H118.49491a46.3342,46.3342,0,0,1-46.28209-46.28222V65.9526A21.4121,21.4121,0,0,1,93.62413,44.53911v65.32475a46.01445,46.01445,0,0,1,24.87078-7.27223h38.69467a46.26535,46.26535,0,1,1,0,92.5307M295.27526,124.0091s-4.64521-.15972-19.32206-.15972h-.04413c-14.68353,0-19.32848.15972-19.32848.15972a24.82994,24.82994,0,1,0,0,49.65984s4.645.1619,19.32848.1619h.04413c14.67685,0,19.32206-.1619,19.32206-.1619a24.83,24.83,0,1,0,0-49.65984m285.14825,0s-4.64085-.15972-19.32411-.15972h-.0485c-14.67275,0-19.31359.15972-19.31359.15972a24.89324,24.89324,0,0,0-22.61976,14.56781h83.91956a24.89187,24.89187,0,0,0-22.6136-14.56781m-423.236,0s-4.64726-.15972-19.32438-.15972H137.819c-14.6748,0-19.32411.15972-19.32411.15972a24.83,24.83,0,1,0,0,49.65984s4.64931.1619,19.32411.1619h.04413c14.67712,0,19.32438-.1619,19.32438-.1619a24.83,24.83,0,1,0,0-49.65984" transform="translate(-71.99332 -44.53911)"/></g></svg>