<svg version="1.0" xmlns="http://www.w3.org/2000/svg" viewBox="0 0 1576 583"><path d="M671.5 2.4c-29.6 6.5-47.3 17.1-94 56.1C549.4 82 526.8 101 521 106c-3 2.6-8.9 7.6-13.1 11.1-41.2 34.5-76.6 64.4-77.4 65.3-.5.7-6.4 5.7-13 11.2-31.3 26.1-57 47.8-57.5 48.4-.3.4-5.9 5.1-12.5 10.5s-12.4 10.4-13 11c-.5.7-14.9 12.8-32 27-17 14.2-31.7 26.6-32.6 27.4-.9.9-2.7 2.5-4 3.6-1.3 1.1-6.9 5.8-12.4 10.5-5.5 4.6-21 17.7-34.5 29s-28.8 24.1-34 28.5c-5.2 4.4-9.9 8.5-10.5 9.1-.5.6-13.5 11.6-28.7 24.3-15.3 12.8-27.8 23.5-27.8 23.7 0 .2 31.2.4 69.4.4h69.5l12.6-10.8c7-5.9 20.7-17.5 30.5-25.7 55.5-46.9 81-68.5 85-72.1 2.5-2.2 17.3-14.8 33-27.9 15.7-13.1 29-24.3 29.5-24.9 1-1.1 47.1-40 58.5-49.4 3-2.5 6-5.1 6.5-5.7.6-.6 15.4-13.2 33-28s32.5-27.4 33-28.1c2-2.1 32.1-27.1 37.1-30.7 11.1-8 19.3-9.6 27.4-5.5 2.4 1.3 5.3 3.6 6.4 5.1 2.1 2.8 2.1 3.7 2.4 101.8.1 54.4 0 98.9-.2 98.9-.3 0-4.7-1.8-9.8-4.1-11.6-5.1-27.7-12.2-43.3-19-28.5-12.3-42.6-18.5-68.7-29.8-6.2-2.7-17-7.4-23.9-10.5-7-3.1-13.2-5.6-13.7-5.6-1 0-19.4 14.9-21.7 17.6-.5.6-6.2 5.4-12.5 10.7-24.8 20.6-41.5 34.8-41.8 35.6-.2.7 10.6 6 53.3 26.1 5.5 2.6 14.5 6.9 20 9.5 5.5 2.6 18.6 8.8 29 13.7 19.6 9.2 22.6 10.7 47.9 22.7 8.1 3.9 15 7.1 15.2 7.1.1 0 9.6 4.5 21.1 10.1 25.5 12.4 28.6 13.6 39.3 16.1 14 3.2 26.7 3.5 40.1.8 17.7-3.5 29.7-8.8 41.9-18.6 13.4-10.7 20.7-20.9 26.3-36.7l2.2-6.2.2-167.9c.4-181.7.6-173.2-4.8-184.3C739.1 13 719.1 2.2 690.6.5c-6.3-.4-10.6 0-19.1 1.9zM834 .7c-27.9 3.4-45.9 15-53.7 34.8l-2.8 7-.3 168.5-.3 168.5 2.7 8.5c4.8 15.7 12.1 26.5 24.8 37.2 12.2 10.2 25.3 16.2 43.5 19.8 13.6 2.7 26.1 2.4 40.6-.9 10.4-2.3 12.1-3 39.3-16.2 11.2-5.5 20.5-9.9 20.7-9.9.2 0 6.3-2.9 13.7-6.4 12.4-5.9 18.5-8.8 37.8-17.9 4.1-1.9 13.4-6.3 20.5-9.7 7.2-3.4 16.8-8 21.5-10.2 4.7-2.2 12.6-6 17.5-8.3 5-2.4 13.3-6.3 18.5-8.7 22.6-10.5 36-17.2 35.8-17.9-.2-.3-11.1-9.8-24.3-20.9-13.2-11.2-24.2-20.6-24.5-21-1.4-1.8-26.3-22-27.2-22-.5 0-6.7 2.5-13.7 5.6-6.9 3.1-17.7 7.8-23.9 10.5-6.1 2.7-16.4 7.1-22.7 9.9-6.3 2.7-16.7 7.2-23 10-6.3 2.7-16.8 7.3-23.2 10.1-20.2 8.7-33.5 14.5-43.1 18.8-5.1 2.3-9.5 4.1-9.8 4.1-.2 0-.3-44.2-.2-98.3.3-111.1-.5-101 8.7-106.1 6.4-3.4 14.4-3.6 20.9-.4 3.6 1.8 48 37.8 50.2 40.7.3.4 14.9 12.8 32.5 27.6s32.5 27.4 33 28.1c.6.6 8 6.9 16.5 14 19.4 16.1 42.3 35.5 43 36.4.3.3 8.6 7.4 18.5 15.7 9.9 8.2 25 21 33.5 28.2 8.5 7.3 24.5 20.8 35.5 30.1s20.9 17.7 22 18.7c1.1 1 6.3 5.4 11.5 9.8s9.7 8.2 10 8.5c.3.3 10.1 8.7 21.8 18.5 11.8 9.9 25 21 29.3 24.7l8 6.8h69.7l69.7-.1-4-3.5c-2.2-2-14.5-12.4-27.4-23.2-12.8-10.9-28.4-24-34.5-29.2-6.2-5.2-19.5-16.5-29.7-25-26.8-22.5-45-37.9-48.4-40.9-1.6-1.5-8.6-7.4-15.5-13.2-6.9-5.7-22.4-18.7-34.5-28.9-12.1-10.1-22.2-18.7-22.5-19.1-.3-.3-5-4.4-10.6-9-21.6-17.9-79-66.3-79.9-67.3-.5-.7-20.8-17.7-45-38s-44.4-37.4-45-38c-.5-.7-16.3-13.9-35-29.6-18.7-15.6-35.1-29.4-36.5-30.7-4.2-3.8-27-21.3-35.5-27.2C884.9 7.9 854.3-1.7 834 .7zM79.3 491.9c-5.3 1.4-10.9 6.7-24.6 23.5-7.2 8.8-13.4 16.3-13.7 16.6-.3.3-4.4 5.2-9 11-6.9 8.7-23.7 29-29.8 36.2-1.4 1.7-.5 1.8 17 1.8h18.5l15.9-19.3c8.8-10.5 19.7-23.8 24.2-29.5 4.6-5.6 8.4-10.2 8.6-10.2.4 0 12.2 14.6 18.5 22.7l3.3 4.3H76.1l-9.6 11.2-9.6 11.3 34.9.3 35 .2 3.3 4.5 3.4 4.4 18.8.1c10.3 0 18.7-.3 18.7-.6s-3.6-4.9-7.9-10.2c-8.8-10.7-9.1-11.1-38-47.2-23.3-29.2-25.5-31.1-35.9-31.6-3.7-.2-8.1.1-9.9.5zm1140 .1c-5.1 1.2-10.8 6.4-21.6 19.9-5.6 6.9-17.6 21.6-26.7 32.6-22.8 27.6-29 35.2-29 35.9 0 .3 8.1.6 17.9.6h17.9l22.4-27.2c12.2-14.9 23.3-28.3 24.5-29.7 2.2-2.6 2.2-2.6 3.7-.6.8 1.1 5.5 7.2 10.5 13.5l9.2 11.5-16 .3-16 .2-6.7 8.3c-3.7 4.5-8.1 9.5-9.6 11.2l-2.9 3 34.9.3 35 .2 3.3 4.5 3.4 4.4 18.8.1c10.3 0 18.7-.2 18.7-.4 0-1.4-66.4-83.2-69.1-85.2-5.6-4.1-14.2-5.4-22.6-3.4zm302.6-.1c-6.8 1.3-16.5 6.6-21.7 11.9-10.4 10.7-13.2 25.3-7.3 37.7 9.9 20.7 38.3 29.4 60.6 18.4 11.6-5.7 19-15 21.6-26.9 3-14-6.6-30.1-22.4-37.6-6.3-3-8.5-3.5-16.7-3.9-5.2-.2-11.6 0-14.1.4zm28.2 8.6c23.3 11.7 25 40.3 3.2 53.1-18.9 11-43.4 5.1-53.9-13.1-3.8-6.6-4.1-17.7-.6-24.2 3.3-6.4 7.7-10.9 14-14.5 7.2-4.1 10.6-4.8 22.3-4.4 8 .3 10.5.8 15 3.1z"/><path d="M1519 528v21h6v-9c0-7.1.3-9 1.4-9 .8 0 4.9 4 9.1 9 7 8.3 7.9 9 11.3 9h3.6l-2.5-2.8c-9-9.8-12.9-14.5-12.9-15.2 0-.4 1.4-1 3-1.4 5.9-1.1 10-7.5 8.6-13.2-1.6-6.1-8.7-9.4-20.5-9.4h-7.1v21zm14-15.9c5.7 1.3 8 3.4 8 7.3 0 5.5-3.1 7.6-10.9 7.6h-5.1v-8c0-9-.2-8.8 8-6.9zM215.5 492.7c-18.6 3.9-26.2 6.7-34 12.6-6.1 4.6-9.3 8.6-13.1 16.2-3 6-3.4 7.9-3.4 14.5 0 6.3.5 8.5 3.1 14 5.6 12 14.4 19.9 27.9 25.4 11.3 4.6 20.6 5.6 53.1 5.6h29.7l9.8-10.8 9.9-10.7-40-.6c-22.9-.3-41.6-1-43.7-1.6-6.1-1.7-12.2-5.9-15.4-10.4-2.4-3.4-2.9-5.2-2.9-10 0-8.1 3.7-13.2 12.9-17.9l6.9-3.5 31.3-.3 31.3-.3 8.2-9.2c4.6-5.1 9.2-10.2 10.3-11.5l1.9-2.2-40.9.1c-22.5.1-41.8.3-42.9.6zm96.7 10.5-10 11.3 23.9.3 23.9.2v66h32v-66h36.9l2.8-3.4c1.5-1.8 6.1-7 10.2-11.5l7.3-8.1h-117l-10 11.2zM450 536.5V581h32v-89h-32v44.5zm45-43.9c0 .3 8.9 11.7 19.8 25.1 10.8 13.5 22.2 27.8 25.2 31.7 22.4 28.7 27.5 33 38.9 33 6.9 0 11.9-1.9 17.3-6.6 2.3-2 15.9-18.4 56.8-68.3 5.8-7.1 10.9-13.5 11.3-14.2.6-1.1-2.6-1.3-17.5-1.3h-18.3l-6.5 8.2c-10 12.7-41.2 50.3-42 50.6-.8.3-3.8-3.1-12-13.8-3-4-8.6-11.1-12.5-15.9-3.8-4.9-10.6-13.4-15-19l-8-10.1h-18.7c-10.4 0-18.8.3-18.8.6zm183 43.9V581h49.8l49.7-.1 9.4-10.7 9.5-10.7-43.5-.5-43.4-.5-.3-6.3-.3-6.2h64.6l8.6-9.8 8.7-9.7-40.9-.3-40.9-.2v-11h67.5l6-6.7c3.3-3.7 6.9-7.7 8-8.8 1.1-1.1 3.1-3.3 4.4-4.8l2.4-2.7H678v44.5zm237.5-43.8c-6.9.9-21.4 5.5-26.8 8.3-16.7 9.1-25.6 24.7-22.8 40.3 2.7 15.4 13.9 27.5 32.1 34.7 10.7 4.2 19.9 5 61.3 5H998v-55h-65.5l-9.5 9.5-9.5 9.5h53.6l-.3 6.7-.3 6.8-19 .3c-23.7.4-33.4-.8-40.7-5.1-6.6-4-9.8-9.2-9.8-16.1 0-10 6-17 17.8-20.6 5.8-1.8 9.3-2 36.2-2h29.9l2.8-3.4c1.5-1.8 6.1-7 10.2-11.5l7.3-8.1-41.3.1c-22.8.1-42.7.4-44.4.6zm101.5 43.8V581h99.5l9.7-10.8 9.6-10.7-43.4-.3-43.4-.2v-13h63.9l2.1-2.8c1.2-1.5 5-5.7 8.6-9.4 3.5-3.7 6.4-7 6.4-7.3 0-.3-18.2-.5-40.5-.5H1049v-11h66.8l7.5-8.3c4.1-4.5 8.7-9.7 10.2-11.5l2.7-3.2H1017v44.5zm327-43.8c0 .4-3 3.9-6.5 7.8-3.6 3.8-7.9 8.7-9.6 10.7l-3.1 3.8h47.2c32.7 0 48.5.4 51.1 1.1 5.2 1.6 8.3 5.1 8.3 9.3 0 4.2-1.7 6.4-6.9 8.7-3.7 1.7-7.8 1.9-52.2 1.9H1324v45h32v-23h49.6l11.4 11.5 11.3 11.5h20.6l20.6-.1-7.5-7.1c-4.1-3.9-11.4-10.4-16.1-14.3l-8.6-7.2 6.8-2.3c11.8-3.8 19.7-14.1 19.8-25.6.2-14.1-8.8-23.6-27.6-29.2-8.7-2.5-9.2-2.6-50.5-3-23-.2-41.8 0-41.8.5z"/></svg>