<svg width="510" height="106" viewBox="0 0 510 106" fill="none" xmlns="http://www.w3.org/2000/svg">
<path d="M83.5595 29.3999C80.7095 27.9899 78.2695 26.7899 75.8395 25.5599C67.4095 21.3199 58.9495 17.1099 50.5596 12.7899C49.8013 12.3402 48.9342 12.107 48.0526 12.1158C47.1711 12.1246 46.3088 12.3751 45.5596 12.8399C35.4063 18.1732 25.2196 23.4166 14.9996 28.5699C13.1796 29.4899 12.3796 30.4899 12.3896 32.6499C12.4763 46.2099 12.4563 59.763 12.3296 73.31C12.3296 75.44 12.8096 76.7 14.8996 77.72C25.0996 82.707 35.2363 87.817 45.3096 93.05C46.158 93.555 47.1271 93.822 48.1146 93.822C49.1021 93.822 50.0713 93.555 50.9196 93.05C60.6595 88.1 70.4695 83.29 80.2695 78.44C81.1995 77.97 82.1595 77.58 83.5695 76.96C83.5695 80.55 83.5695 83.78 83.5695 86.96C83.5695 88.32 82.6395 88.73 81.6895 89.21C70.9495 94.543 60.2165 99.877 49.4896 105.21C48.9811 105.469 48.4118 105.584 47.8427 105.543C47.2736 105.503 46.7263 105.308 46.2596 104.98C31.7063 97.32 17.1363 89.7 2.54962 82.12C1.88662 81.84 1.33273 81.352 0.971827 80.73C0.610927 80.107 0.462724 79.384 0.549624 78.67C0.609624 61.41 0.609624 44.1532 0.549624 26.8999C0.549624 24.9899 1.27963 24.1299 2.87963 23.3099C17.2396 15.9766 31.573 8.5832 45.8796 1.1299C46.5305 0.718402 47.2846 0.5 48.0546 0.5C48.8246 0.5 49.5788 0.718402 50.2296 1.1299C60.5095 6.6499 70.8195 12.1299 81.2295 17.4499C83.1395 18.4499 83.8495 19.5299 83.6995 21.6099C83.4195 23.9999 83.5595 26.4499 83.5595 29.3999Z" fill="#F5A32C"/>
<path d="M413.72 5.63031C413.72 8.63031 413.72 11.5503 413.87 14.5003C413.99 16.3403 413.15 16.5003 411.63 16.5003C405.26 16.4403 398.89 16.5003 392.52 16.4303C390.52 16.4303 389.84 16.9203 390.03 18.8903C390.33 22.0103 388.76 26.0803 390.7 27.9903C392.23 29.5003 396.33 28.3603 399.28 28.5103C402.23 28.6603 405.85 27.2603 407.48 29.1203C408.87 30.7003 407.77 34.3503 408.01 37.1203C408.22 39.5303 407.56 40.4703 404.93 40.3203C400.69 40.0903 396.43 40.3203 392.19 40.2303C390.51 40.2303 389.94 40.7503 390.03 42.4103C390.17 44.8416 390.17 47.279 390.03 49.7103C389.9 51.6103 390.43 52.2603 392.46 52.2103C398.72 52.0703 404.99 52.2103 411.26 52.1103C413.36 52.1103 414.05 52.6703 413.89 54.7603C413.66 57.7 414.82 61.54 413.35 63.37C411.88 65.2 407.78 63.93 404.84 63.97C396.77 64.06 388.7 63.97 380.63 63.97C379.07 63.97 378.1 63.97 378.11 61.84C378.19 43.3303 378.11 24.8403 378.11 6.29031C378.11 5.82031 377.91 5.20031 378.69 5.07031C387.69 5.59031 396.79 5.13031 405.84 5.32031C408.49 5.40031 411.13 5.00031 413.72 5.63031Z" fill="#32383C"/>
<path d="M193.19 17.5003C193.39 20.2188 193.45 22.9457 193.37 25.6703C193.19 28.1703 194.14 28.6703 196.37 28.5603C200.49 28.3803 204.62 28.6203 208.74 28.4703C210.74 28.3903 211.64 28.8803 211.43 31.0503C211.14 33.9603 212.6 37.7303 210.88 39.6003C209.16 41.4703 205.28 40.0003 202.36 40.2303C199.44 40.4603 196.25 39.7603 193.24 40.6403C192.13 42.7003 192.96 44.9203 192.72 47.0503C192.59 48.1903 192.92 49.3603 192.72 49.8603C193.04 47.3603 192.13 44.1303 193.11 41.0303C193.66 43.9603 193.36 46.9303 193.31 49.8703C193.31 51.6803 193.86 52.2003 195.64 52.1703C202.01 52.0703 208.38 52.1703 214.75 52.0903C216.64 52.0903 217.441 52.4603 217.291 54.5203C217.141 56.948 217.141 59.383 217.291 61.81C217.371 63.43 216.891 64.01 215.171 64C204.671 63.934 194.163 63.934 183.65 64C181.91 64 181.55 63.37 181.55 61.78C181.6 43.3803 181.55 24.9803 181.6 6.58031C181.6 6.04031 181.24 5.27031 182.21 5.08031C190.21 5.63031 198.21 5.23031 206.21 5.29031C209.67 5.29031 213.21 5.64031 216.61 5.07031C218.08 8.55031 217.05 12.1803 217.13 15.7403C217.13 17.0203 215.6 16.4603 214.77 16.4603C208.63 16.5203 202.48 16.4603 196.34 16.4603C195.25 16.4603 193.97 15.9903 193.14 17.2203C192.02 20.2203 193.14 23.3803 192.84 25.0003C193.11 23.5003 192.21 20.4503 193.19 17.5003Z" fill="#32383C"/>
<path d="M164.36 5.05957C167.86 5.75957 169.42 7.41957 169.5 10.7296C169.58 14.0396 169.45 17.2896 169.5 20.5696C169.55 22.0796 169.07 22.6396 167.5 22.5696C165.063 22.4196 162.618 22.4196 160.18 22.5696C158.07 22.7396 157.49 21.8196 157.82 19.9996C158.37 16.9996 157.03 16.1196 154.19 16.4496C151.35 16.7796 147.92 15.3296 146.19 16.9896C144.46 18.6496 145.69 22.1996 145.67 24.9096C145.6 33.1596 145.67 41.4096 145.6 49.6596C145.6 51.5496 145.98 52.3296 148.03 52.1696C150.359 51.9748 152.701 51.9748 155.03 52.1696C157.3 52.3496 158.16 51.5296 157.78 49.3396C157.37 46.9196 158.24 45.9696 160.78 46.2196C163.5 46.4896 167.18 45.3296 168.78 46.7096C170.64 48.3096 169.34 52.0496 169.38 54.8596C169.46 62.56 168.02 63.96 160.38 63.96C153.9 63.96 147.38 63.96 140.95 63.96C136.12 63.96 133.73 61.52 133.72 56.69C133.72 41.7829 133.72 26.8696 133.72 11.9496C133.72 7.61957 135.5 5.54957 139.41 5.05957C147.721 5.49807 156.049 5.49807 164.36 5.05957Z" fill="#32383C"/>
<path d="M336 5.07031C338.08 9.00031 338.22 13.4403 339.17 17.6603C341.34 27.2903 343.25 36.9903 345.83 46.7303C346.83 42.2003 347.78 37.6603 348.72 33.1203C350.49 24.6603 352.2 16.1803 354.05 7.74031C354.24 6.85031 353.84 5.55031 355.16 5.07031C358.29 5.65031 361.45 5.21031 364.59 5.30031C365.82 5.30031 366.94 5.30031 367.13 6.88031C362.057 25.3136 357.014 43.7436 352 62.17C351.62 63.54 351 63.94 349.56 64.01C339.78 64.45 339.82 64.48 337.25 55.1403C332.924 39.347 328.567 23.567 324.18 7.80031C324.067 7.29231 323.983 6.77811 323.93 6.26031C324.64 4.93031 325.93 5.39031 326.99 5.33031C330 5.16031 333 5.64031 336 5.07031Z" fill="#32383C"/>
<path d="M449.39 63.44C445.92 64.6 442.39 63.85 438.83 63.86C437.27 63.86 437.89 62.21 437.89 61.3C437.84 51.0298 437.89 40.7498 437.89 30.4798C437.89 26.6698 437.76 22.8498 437.94 19.0498C438.04 16.8698 437.26 16.3198 435.22 16.4498C432.79 16.6198 430.33 16.5098 427.89 16.4498C427.21 16.4498 426.02 16.7198 426.07 15.7598C426.23 12.1898 425.15 8.5498 426.6 5.0498C432.17 5.5898 437.75 5.2698 443.33 5.2598C449.22 5.2598 455.12 5.6098 461.01 5.0498C462.37 8.5398 461.4 12.1598 461.51 15.7098C461.51 16.8498 460.19 16.3698 459.43 16.4498C456.14 16.8198 452.76 15.7298 449.52 17.0498C449.229 17.6128 449.124 18.2534 449.22 18.8798C449.22 33.2131 449.22 47.5465 449.22 61.88C449.17 62.406 449.228 62.937 449.39 63.44Z" fill="#32383C"/>
<path d="M508.19 16.3696C505.753 16.5178 503.31 16.5412 500.87 16.4396C498.18 16.2096 497.28 16.8696 497.32 19.8196C497.51 33.4796 497.32 47.1396 497.47 60.82C497.47 63.53 496.7 64.34 494.1 64.04C492.196 63.83 490.274 63.83 488.37 64.04C486.03 64.28 485.58 63.3 485.59 61.16C485.68 47.3996 485.59 33.6396 485.59 19.8696C485.59 18.7296 485.91 17.5296 485.21 16.4696C484.3 14.0796 482.21 14.9996 480.55 14.8696C477.08 14.6196 475.73 13.5396 475.39 10.4996C474.91 6.13961 475.62 5.34961 480.05 5.34961C488.52 5.34961 497 5.42961 505.48 5.34961C507.92 5.34961 508.85 5.97961 508.85 8.51961C508.85 14.8396 508.97 14.8396 501.45 14.9396C503.41 15.5696 506.33 13.4896 508.19 16.3696Z" fill="#32383C"/>
<path d="M71.7505 70.61L57.7505 63.61C47.3505 58.52 37.0005 53.3399 26.6305 48.2999C24.8105 47.4199 24.1005 46.3799 24.2505 44.4099C24.3995 42.4126 24.3995 40.4071 24.2505 38.4099C24.0705 35.8499 25.0005 35.8699 26.9505 36.8499C36.2305 41.5199 45.5605 46.0799 54.8605 50.6899C59.8005 53.1299 64.7105 55.6899 69.6905 58C70.3815 58.229 70.9695 58.695 71.3515 59.315C71.7335 59.935 71.8855 60.669 71.7805 61.39C71.6505 64.22 71.7505 67.08 71.7505 70.61Z" fill="#F5A32C"/>
<path d="M68.51 72.1399C61.82 75.4899 55.51 78.6399 49.15 81.8299C47.85 82.4899 46.92 81.7699 45.91 81.2299C39.82 77.9899 33.8 74.6299 27.63 71.5499C25.14 70.2999 24.1 68.8399 24.21 65.9399C24.45 59.0399 24.28 59.0399 30.52 62.1299C35.66 64.6599 40.82 67.1299 45.93 69.7299C47.37 70.4599 48.7 70.8199 50.07 69.7299C54.94 65.9799 59.71 66.5399 64.5 69.9299C65.795 70.7409 67.133 71.4789 68.51 72.1399Z" fill="#F5A32C"/>
<path d="M71.75 46.9005C64.26 43.1905 57.32 39.8105 50.44 36.3305C48.9 35.5505 47.52 35.0905 46.02 36.2205C41.29 39.8305 36.61 39.5005 31.9 36.1305C30.4835 35.2684 29.0139 34.4969 27.5 33.8205C34.29 30.4405 40.69 27.2605 47.08 24.0505C48.08 23.5305 48.89 24.0505 49.73 24.4905C56.36 28.0005 63 31.6105 69.64 35.0805C70.368 35.3663 70.978 35.8912 71.368 36.5689C71.759 37.2467 71.908 38.0371 71.79 38.8105C71.64 41.3205 71.75 43.8405 71.75 46.9005Z" fill="#F5A32C"/>
<path d="M141.85 104.61C137.6 104.68 135.23 102.95 134.7 99.4001C134.56 98.4601 134.22 97.2301 135.7 97.3001C136.83 97.3601 138.7 96.2001 138.99 98.5001C139.25 100.34 140.16 101.5 142.09 101.39C142.735 101.429 143.37 101.215 143.859 100.792C144.348 100.37 144.654 99.7741 144.71 99.1301C145 97.0701 143.91 95.9701 142.16 95.2901C140.88 94.7801 139.55 94.3501 138.33 93.7401C135.45 92.3101 134.6 89.8301 135.04 86.8301C135.141 85.4891 135.73 84.2321 136.696 83.2961C137.661 82.3601 138.936 81.8101 140.28 81.7501C143.28 81.3901 146.08 81.5601 147.88 84.3601C148.58 85.4601 149.49 87.1501 147.88 87.9401C146.69 88.5301 144.69 88.8501 144.2 86.4201C143.96 85.1901 142.89 84.8501 141.73 84.9301C140.73 84.9901 139.78 85.3001 139.56 86.4201C139.34 87.5401 139.14 88.8701 140.32 89.6001C141.687 90.3961 143.103 91.1041 144.56 91.7201C148.76 93.6501 150.04 95.6501 149.32 99.2001C148.6 102.75 146.2 104.54 141.85 104.61Z" fill="#F5A32C"/>
<path d="M352.09 94.11C352.09 90.34 352.15 87.38 352.09 84.43C352.04 82.76 352.43 81.86 354.35 81.95C357.1 82.08 359.86 82.03 362.62 81.95C364.03 81.95 364.72 82.26 364.72 83.87C364.72 85.64 363.72 85.68 362.48 85.64C361.527 85.695 360.572 85.695 359.62 85.64C356.92 85.19 356.45 86.51 356.55 88.85C356.62 90.6 357.32 91.02 358.86 90.91C360.02 90.82 361.2 90.91 362.36 90.91C363.82 90.81 364.11 91.54 364.13 92.82C364.15 94.1 363.57 94.71 362.24 94.6C361.5 94.54 360.74 94.7 360.02 94.6C357.2 94.12 356.39 95.23 356.51 98.03C356.6 100.32 357.34 101.03 359.51 100.8C360.77 100.67 362.05 100.8 363.32 100.8C364.59 100.8 365.14 101.41 365.13 102.72C365.12 104.03 364.46 104.37 363.33 104.28C363.12 104.28 362.9 104.28 362.69 104.28C359.32 104.2 354.69 105.43 352.87 103.72C350.53 101.48 352.48 96.84 352.09 94.11Z" fill="#F5A32C"/>
<path d="M281.61 93.1602C281.61 90.1602 281.7 87.2302 281.61 84.2802C281.53 82.4402 282.21 81.8702 283.99 81.9602C286.64 82.0802 289.3 82.0502 291.99 81.9602C293.5 81.9602 293.99 82.4302 293.99 83.9602C293.99 85.4902 293.23 85.7202 291.99 85.6602C290.931 85.7152 289.869 85.7152 288.81 85.6602C286.32 85.3002 285.69 86.4202 285.81 88.6602C285.9 90.2202 286.22 91.0402 287.96 90.9002C289.23 90.7902 290.51 90.9002 291.78 90.9002C293.35 90.8202 293.4 91.7902 293.43 92.9502C293.46 94.1102 292.86 94.4802 291.7 94.6102C289.79 94.8102 287.23 93.5202 286.14 95.4302C285.32 96.8902 285.89 99.1402 285.86 101.04C285.86 102.69 286.3 104.56 283.45 104.25C282.09 104.11 281.59 103.72 281.62 102.37C281.65 99.2902 281.61 96.2202 281.61 93.1602Z" fill="#F5A32C"/>
<path d="M493.33 82.3299C496.78 81.3299 498.78 82.0799 499.33 85.5699C499.791 87.3179 500.39 89.0269 501.12 90.6799C502.12 87.8999 503.03 85.8099 503.72 83.6799C504.55 81.0899 506.6 82.0399 508.22 82.1399C509.15 82.1899 508.61 83.1399 508.39 83.6299C507.57 85.5699 506.83 87.5599 505.87 89.4499C503.93 93.2999 502.71 97.2699 503.23 101.64C503.4 103.1 503.32 104.26 501.23 104.26C499.14 104.26 498.85 103.32 499.09 101.74C499.83 96.8599 497.86 92.6399 495.93 88.3899C495.05 86.4699 494.26 84.5199 493.33 82.3299Z" fill="#F5A32C"/>
<path d="M427.09 94.83C427.09 92.61 426.98 90.38 427.09 88.17C427.22 86.29 426.71 85.4 424.65 85.62C423.45 85.75 422.1 85.99 422.06 83.9C422.06 81.62 423.49 81.99 424.82 81.99C427.9 81.99 430.98 81.99 434.06 81.99C435.46 81.99 436.56 81.99 436.52 83.93C436.52 85.67 435.44 85.84 434.2 85.65C431.68 85.26 431.51 86.65 431.56 88.65C431.67 93.09 431.56 97.53 431.63 101.97C431.63 103.79 431.05 104.28 429.28 104.31C427.35 104.31 426.95 103.57 427.03 101.88C427.17 99.49 427.09 97.16 427.09 94.83Z" fill="#F5A32C"/>
<path d="M508.19 16.3703C505.46 15.1203 502.57 16.1403 499.77 15.7903C498.94 15.6803 497.54 16.2303 497.61 14.7903C497.61 13.6303 498.9 13.9803 499.68 13.9603C501.582 13.8503 503.488 13.8503 505.39 13.9603C507.69 14.1503 508.3 13.1803 508.24 11.0303C508.06 4.6603 508.85 5.7203 502.81 5.6803C494.96 5.6203 487.12 5.6803 479.28 5.6803C477.54 5.6803 476 5.6803 476.28 8.1003C476.56 10.5203 475.19 13.5503 479.21 13.9303C480.68 14.0703 482.21 13.8703 483.66 14.0003C485.11 14.1303 486.66 14.4903 485.22 16.5103C482.22 15.7703 479.12 16.3003 476.08 16.2203C474.59 16.2203 474.08 15.7503 474.08 14.2203C474.08 11.3903 474.42 8.5403 473.84 5.7203C474.34 4.4303 475.46 5.0503 476.26 5.0503C486.45 5.0503 496.64 5.0503 506.83 4.9703C508.9 4.9703 509.64 5.4603 509.47 7.5803C509.28 10.0003 509.47 12.4403 509.42 14.8703C509.38 15.5903 509.63 16.6303 508.19 16.3703Z" fill="#32383C"/>
<path d="M277.35 10.0898C278.18 10.8598 277.91 11.8698 277.91 12.7898C277.91 27.0765 277.91 41.3698 277.91 55.6698C277.91 56.59 278.18 57.6 277.35 58.36V10.0898Z" fill="#32383C"/>
<path d="M449.39 63.44C448.7 62.75 448.88 61.86 448.88 61.04C448.88 47.2667 448.88 33.5034 448.88 19.7501C448.88 18.8301 448.6 17.8201 449.48 17.0801C449.61 32.5301 449.8 48.0001 449.39 63.44Z" fill="#32383C"/>
<path d="M413.72 5.62966C403.167 5.62966 392.613 5.62966 382.06 5.62966C380.94 5.62966 379.72 6.01966 378.73 5.10966L412.57 4.99966C413.07 4.99966 413.65 4.86966 413.72 5.62966Z" fill="#32383C"/>
<path d="M461 5.08008C460.43 5.72008 459.66 5.63008 458.93 5.63008H428.64C427.9 5.63008 427.14 5.72008 426.57 5.08008H461Z" fill="#32383C"/>
<path d="M216.67 5.07031C216.11 5.71031 215.34 5.63031 214.6 5.63031H184.33C183.59 5.63031 182.82 5.72031 182.26 5.08031L216.67 5.07031Z" fill="#32383C"/>
<path d="M259.41 5.05957C249.66 6.00957 239.84 6.00957 230.09 5.05957H259.41Z" fill="#32383C"/>
<path d="M307.25 5.05957C306.49 5.88957 305.48 5.61957 304.55 5.61957C298.07 5.61957 291.59 5.61957 285.11 5.61957C284.18 5.61957 283.17 5.88957 282.4 5.05957H307.25Z" fill="#32383C"/>
<path d="M164.36 5.05957C163.6 5.88957 162.59 5.61957 161.66 5.61957C155.18 5.61957 148.696 5.61957 142.21 5.61957C141.29 5.61957 140.28 5.88957 139.51 5.05957H164.36Z" fill="#32383C"/>
<path d="M240.83 63.44C239.73 61.81 240.35 59.98 240.32 58.26C240.22 53.3396 240.27 48.4196 240.32 43.4996C240.32 42.4996 239.94 41.3696 241 40.5996C241 48.2196 241.29 55.8296 240.83 63.44Z" fill="#32383C"/>
<path d="M473.81 5.63965C475.03 8.11965 474.27 10.7596 474.33 13.3196C474.33 15.2496 475.05 15.7696 476.92 15.8596C479.69 15.9896 482.56 15.0396 485.23 16.4296C481.98 16.4296 478.72 16.4296 475.46 16.5196C474.09 16.5196 473.61 16.1197 473.66 14.7397C473.78 11.7097 473.77 8.66965 473.81 5.63965Z" fill="#32383C"/>
<path d="M367.09 6.88038C366.32 5.61038 365.09 5.69037 363.8 5.60037C360.91 5.39037 357.94 6.31038 355.12 5.07038C358.68 5.07038 362.25 5.07038 365.8 4.91038C367.58 4.84038 367.8 5.49038 367.09 6.88038Z" fill="#32383C"/>
<path d="M336 5.06989C333.6 6.25989 331 5.37989 328.56 5.61989C327.01 5.75989 325.38 5.33989 323.93 6.25989C323.05 4.86989 324.08 4.93989 324.93 4.94989C328.6 4.99989 332.28 4.99989 336 5.06989Z" fill="#32383C"/>
<path d="M193.19 17.4999V27.8099H192.48C192.48 24.2999 192.48 20.8099 192.48 17.2899C192.48 17.2299 192.6 17.0999 192.65 17.1099C192.834 17.1446 193.015 17.1948 193.19 17.2599V17.4999Z" fill="#32383C"/>
<path d="M193.18 40.9999V51.3399H192.37C193.02 47.7999 191.37 44.1399 193.28 40.6699C193.296 40.698 193.305 40.729 193.309 40.761C193.312 40.793 193.309 40.8253 193.3 40.8561C193.291 40.8869 193.275 40.9155 193.255 40.9402C193.234 40.9649 193.209 40.9852 193.18 40.9999Z" fill="#32383C"/>
<path fill-rule="evenodd" clip-rule="evenodd" d="M282.35 5.08984C279.3 5.32984 277.68 7.08984 277.35 10.0898C277.638 10.9112 277.707 11.7937 277.55 12.6498V55.9498C277.677 56.784 277.591 57.638 277.3 58.43C277.86 62.17 279.77 64.01 283.66 64.01C291.193 64.11 298.73 64.11 306.27 64.01C310.28 63.96 312.78 61.73 312.78 57.73C312.88 42.1832 312.88 26.6365 312.78 11.0898C312.76 7.27984 310.89 5.55984 307.2 5.08984C298.922 5.52484 290.627 5.52484 282.35 5.08984ZM300.986 39.6404C300.993 37.9104 301 36.18 301 34.4496C301 32.7707 300.987 31.0908 300.975 29.4098C300.948 25.9043 300.922 22.3943 301.01 18.8796C301.07 16.8696 300.42 16.3096 298.49 16.4496C296.159 16.6142 293.82 16.6142 291.49 16.4496C289.39 16.2896 288.81 16.9896 288.81 19.0896C288.91 29.2496 288.89 39.4096 288.81 49.5796C288.8 51.4196 289.11 52.2996 291.22 52.1496C293.764 51.9896 296.316 51.9896 298.86 52.1496C300.55 52.2396 301 51.6896 301 50.0096C300.96 46.5567 300.973 43.0993 300.986 39.6404Z" fill="#32383C"/>
<path d="M301.87 58.35C301.986 58.35 302.08 47.5375 302.08 34.1998C302.08 20.8621 301.986 10.0498 301.87 10.0498C301.754 10.0498 301.66 20.8621 301.66 34.1998C301.66 47.5375 301.754 58.35 301.87 58.35Z" fill="#32383C"/>
<path d="M144.89 58.37C144.978 58.37 145.05 47.589 145.05 34.29C145.05 20.9909 144.978 10.21 144.89 10.21C144.802 10.21 144.73 20.9909 144.73 34.29C144.73 47.589 144.802 58.37 144.89 58.37Z" fill="#32383C"/>
<path fill-rule="evenodd" clip-rule="evenodd" d="M265.03 10.6205C264.97 7.18047 262.98 5.44047 259.41 5.06047C258.405 5.36397 257.342 5.42227 256.31 5.23047C253.108 5.17917 249.907 5.21237 246.706 5.24567C241.168 5.30317 235.632 5.36067 230.1 4.98047C229.063 5.44317 229.217 6.24007 229.362 6.98867C229.412 7.24317 229.46 7.49207 229.46 7.72047V29.2305C229.46 32.7964 229.454 36.3579 229.449 39.9168C229.438 47.0268 229.427 54.1264 229.46 61.23C229.46 61.431 229.426 61.669 229.391 61.919C229.268 62.791 229.125 63.8 230.33 63.8C231.302 63.803 232.276 63.861 233.251 63.919C235.794 64.071 238.338 64.222 240.84 63.39C240.463 59.987 240.527 56.573 240.591 53.1597C240.616 51.8596 240.64 50.5597 240.64 49.2605C240.643 48.4564 240.605 47.6493 240.567 46.8414C240.468 44.7355 240.368 42.6247 240.99 40.5505C242.093 40.1475 243.278 40.0238 244.44 40.1905C246.033 40.1905 247.627 40.2038 249.22 40.2171C252.407 40.2438 255.593 40.2705 258.78 40.1905C262.62 40.1005 264.96 38.0505 265.03 34.4305C265.17 26.4905 265.17 18.5538 265.03 10.6205ZM253.486 20.1038C253.521 19.2393 253.555 18.3747 253.58 17.5102L253.56 17.2802C249.38 15.9602 245.17 16.2402 240.96 17.0902C240.51 20.8802 240.15 24.6702 241.15 28.4402C242.167 28.4495 243.186 28.4453 244.206 28.4411C246.464 28.4318 248.724 28.4224 250.97 28.5602C253.07 28.6802 253.42 27.8102 253.37 26.0002C253.328 24.0347 253.407 22.0693 253.486 20.1038Z" fill="#32383C"/>
<path d="M253.58 17.5099V17.2799C253.83 17.0299 254.27 16.9899 254.27 17.2799C254.421 20.8004 254.196 24.327 253.6 27.7999L253.58 17.5099Z" fill="#32383C"/>
<path d="M241 17.0898C241.06 20.8698 241.12 24.6598 241.19 28.4398C239.62 24.6798 240 20.8898 241 17.0898Z" fill="#32383C"/>
<path fill-rule="evenodd" clip-rule="evenodd" d="M218.35 101.02C218.73 104.76 220.89 104.44 223.59 103.94C223.11 102.125 222.622 100.319 222.136 98.5168C220.852 93.7558 219.577 89.0288 218.46 84.2698C217.962 82.1038 216.793 82.0368 215.203 81.9448C215.068 81.9378 214.931 81.9298 214.79 81.9198C212.73 81.7898 212.04 82.7098 211.59 84.4698C210.662 88.0748 209.705 91.6638 208.748 95.2518C208.21 97.2668 207.673 99.2818 207.14 101.3C206.42 104.04 207.25 104.81 209.98 104.18C211.34 103.857 211.414 102.819 211.479 101.9C211.491 101.738 211.502 101.58 211.52 101.43C211.73 99.6698 212.67 99.2998 214.16 99.5498C214.59 99.6218 215.099 99.5628 215.613 99.5028C216.88 99.3558 218.172 99.2058 218.35 101.02ZM213.52 92.2698C212.73 96.0798 212.75 96.0798 217.28 95.6698C217.037 94.5828 216.798 93.5158 216.562 92.4608C216.13 90.5278 215.707 88.6358 215.28 86.7398C214.451 88.4968 213.859 90.3568 213.52 92.2698Z" fill="#F5A32C"/>
</svg>
