<svg width="85" height="44" viewBox="0 0 85 44" fill="none" xmlns="http://www.w3.org/2000/svg">
<path fill-rule="evenodd" clip-rule="evenodd" d="M80.7078 8.40497C82.8201 8.40497 84.5336 6.69451 84.5336 4.58297C84.5336 2.46729 82.8201 0.756836 80.7078 0.756836C78.5942 0.756836 76.8779 2.46729 76.8779 4.58297C76.8779 6.69451 78.5942 8.40497 80.7078 8.40497ZM77.758 4.59675C77.758 2.94556 79.0975 1.60724 80.7532 1.60724C82.402 1.60724 83.7401 2.94556 83.7401 4.59675C83.7401 6.24519 82.402 7.58489 80.7532 7.58489C79.0975 7.58489 77.758 6.24519 77.758 4.59675Z" fill="black"/>
<path fill-rule="evenodd" clip-rule="evenodd" d="M80.2158 4.48552H80.8992C81.221 4.48552 81.4521 4.29531 81.4521 3.98382C81.4521 3.67646 81.2444 3.47937 80.8085 3.47937H80.2158V4.48552ZM79.5859 2.92529H80.9804C81.6913 2.92529 82.108 3.34981 82.108 3.93696C82.108 4.68537 81.6061 4.86179 81.4452 4.92106L82.1905 6.26903H81.4644L80.8181 5.03821H80.2158V6.26903H79.5859V2.92529Z" fill="black"/>
<path fill-rule="evenodd" clip-rule="evenodd" d="M42.7937 4.6001H47.7801V17.8868H60.1691V4.6001H73.1192V43.3287H60.1224V29.7801H47.7361V43.3287H35.2715L42.7937 4.6001Z" fill="black"/>
<path fill-rule="evenodd" clip-rule="evenodd" d="M30.488 43.3292H25.5002V30.0425H13.1112V43.3292H0.161133V4.60059H13.1552V18.1492H25.5428V4.60059H38.0487L30.488 43.3292Z" fill="black"/>
</svg>
