<svg width="987" height="461" viewBox="0 0 987 461" fill="none" xmlns="http://www.w3.org/2000/svg">
<path d="M956 14H31V447H956V14Z" fill="black"/>
<path d="M0 237.5V461H986.5V0H0V237.5ZM173 93C184.9 94.5 193.4 96.9 201.4 101L208.9 104.8L212.8 101.1C224.8 89.6 240 90.5 251.5 103.2C256.1 108.3 258 112.9 258 119.1C258 123.2 256.9 124.5 252.5 125.6C247.9 126.7 240.5 130.7 236.5 134.1C234.2 136.1 231.3 140.7 228.4 146.7C221.1 162 214.6 167.1 196.4 171.6C186.1 174.2 181.9 176.6 179.5 181.6C176.8 187.4 177.2 188.8 185.8 200.2C195.5 213.2 200.2 227.6 200.2 245.2C200.3 254.9 200 256.5 197.6 261.4C196.1 264.5 193.2 268.3 191.2 270C186 274.3 173.7 280.5 171.8 279.7C170.3 279.2 165.5 270 164.4 265.4C163.9 263.4 164.6 262.7 169.8 260.1C173.1 258.5 177 255.6 178.5 253.8C181 250.8 181.2 250.1 180.7 244.1C180.3 238.6 179.8 237.2 177.5 235.3C175 233.1 174.1 233 159 233C149.2 233 142.1 233.4 140.6 234.1C137.5 235.5 136 239.6 136 246.5C136 251 136.4 252 139.3 254.7C141 256.4 144.5 258.8 147 260C149.5 261.3 151.8 262.7 152.2 263.3C152.9 264.5 151.2 269.8 148 275.9C146.2 279.6 145.5 280.1 143.4 279.6C142.1 279.3 139.9 278.7 138.6 278.4C136.7 277.9 136 278.3 135.5 280C133.2 287.2 160.6 310 178.6 316C182.1 317.2 185 318.6 185 319.1C185 320.2 179.1 323.2 167.6 328.1L158.7 331.8L152.2 329.4C142.2 325.6 126.2 317.8 115.7 311.6C69 284.1 46.3 245.3 49.5 198.1C50.7 180.1 57.8 157.4 66 145.5C69.2 140.8 69.2 140.8 67.2 138.7C60.1 130.7 57.2 119 60.4 110.6C62.5 105 68.8 98.6 75.4 95.3C84.4 90.8 95.7 93 103.9 101L107.8 104.8L115.7 100.9C120 98.8 126.3 96.3 129.7 95.5C141.8 92.4 160 91.4 173 93ZM377 94.5C395.1 99.2 408.8 111.2 414.9 127.6C418.4 136.7 419.3 136 399 140.3C389 142.4 380.5 143.8 380.1 143.5C379.6 143.3 378.9 141.8 378.5 140.3C376.8 133.2 368.5 127.1 360.7 127C352.3 127 344.2 133 341.4 141.3C337.5 152.9 341.8 165.9 351 170.6C356.2 173.3 363.4 173.7 368.3 171.6C372.4 169.9 377.4 164.2 379 159.6C379.6 157.6 380.3 156 380.6 156C380.8 156 389 157.6 398.7 159.5C408.5 161.4 416.6 163 416.8 163C418 163 415.6 171.9 412.8 177.8C409.1 185.7 399.3 196 391.4 200.2C381.3 205.6 373.6 207.4 360.5 207.4C350.2 207.4 347.3 207 340.4 204.7C330.6 201.5 322.2 196.1 315.4 188.9C304.8 177.5 300.5 166.2 300.7 149.5C300.8 140.5 301.3 137.2 303.3 131.3C310 112.3 326.4 98 346 94.1C349 93.5 352.4 92.8 353.5 92.6C357 91.7 370.8 92.9 377 94.5ZM505.1 97C518.5 101.5 528.4 108.5 535.7 118.7C542.3 127.9 545.1 136.3 545.7 148.5C546.7 166.2 541.6 179.6 529.5 191.7C515 206 494.9 211.7 472.1 207.9C463.6 206.5 449 199.5 442.3 193.6C424.4 177.7 419.1 149.4 429.8 126.6C436.7 111.9 452.8 99.4 469.1 96.1C472.1 95.5 475.4 94.8 476.5 94.6C481.3 93.4 498.9 94.9 505.1 97ZM731.3 95.5C746.1 98.6 759.9 109.1 766.4 122.4C771.1 131.9 772.9 139.5 773.2 151.5L773.5 161.5L735.8 161.8C705 162 698 162.3 698 163.4C698 165.5 702.2 171.1 706.3 174.4C709.7 177.1 710.8 177.4 716.8 177.4C724.5 177.4 729 175.5 733.5 170.5L736.5 167.2L754.3 170.8C764 172.7 772 174.8 772 175.3C772 177.9 763.5 190.2 758.7 194.6C747.8 204.6 735.2 209 718 209C699 209 685.7 203.8 674 192C662.8 180.8 657.8 168.2 657.9 151.6C658 135.1 663.1 122.1 674 111.1C687.9 96.9 709.9 90.9 731.3 95.5ZM867 108.3C867 115.1 866.7 124.8 866.4 129.8L865.7 139H857.5C842.2 139 832.8 143.8 827.5 154.5L824.5 160.5L824.2 183.2L823.8 206H783V97H824V116.3L826.9 112.3C829.9 108.1 836.7 102.2 841 100C846 97.3 851.7 96.1 859.3 96.1L867 96V108.3ZM587 116.7C591.1 127.6 596.1 140.8 598.1 146L601.8 155.5L603.3 152C604.1 150.1 609.2 136.9 614.5 122.7L624.3 97H645.7C657.4 97 667 97.2 667 97.4C667 97.6 663.6 106 659.4 116.1C649.3 140.8 636.8 171 631.1 185C628.4 191.3 625.4 198.6 624.4 201.2L622.5 206H581.2L580.2 203.2C579.6 201.7 576.5 194 573.2 186C566.1 168.9 552.5 135.9 543.4 113.9C539.9 105.3 537 97.9 537 97.6C537 97.3 546.6 97 558.3 97H579.5L587 116.7ZM904.8 250.7L904.5 328.5L884.3 328.8L864 329V324.9C864 320.8 864 320.8 861.8 322.4C843.2 335.7 816.1 334.4 798.5 319.3C794.7 316 787.8 306.6 785.8 302C781.3 291.7 780.5 287.8 780.5 274C780.5 262.4 780.8 259.5 782.9 253.1C788.3 236.9 799.6 224.8 814.6 219.4C830.5 213.6 847.8 215.7 861.3 225.2L864 227.1V173H905L904.8 250.7ZM363.5 217.1C369.4 218.2 378 221.9 381.3 224.8C383.1 226.4 383 226.6 383.4 221C383.5 219.7 386.4 219.5 403.5 219.5H423.5L423.8 271C423.9 301.5 423.6 324.6 423 327.8C419.9 344.8 405.9 358.9 385.5 365.7C378.1 368.2 376.2 368.4 360.5 368.4C344.8 368.5 342.9 368.3 335.8 365.9C331.6 364.4 325 361.2 321.1 358.6C314.1 353.9 305 344 305 341C305 340.1 306.6 338.8 308.8 338.1C310.8 337.3 318.1 334.5 324.9 331.9C331.7 329.2 337.6 327 338.1 327C338.6 327 340 328.2 341.3 329.6C342.5 331 345.5 333.4 347.9 334.8C353.7 338.2 365.3 338.4 371.6 335.2C377.1 332.4 381.8 326.9 382.5 322.3C382.9 320.2 383.4 317.8 383.6 317C384.4 313.6 382.5 313 378.9 315.4C373.2 319.3 366.1 321.3 355.9 321.8C344.2 322.3 337.2 321 327.9 316.3C319.3 312 311.7 304.6 307.2 296.2C302.1 286.7 300.7 280.8 300.7 269C300.6 253.3 304.8 242.2 314.4 232.2C326.7 219.2 344.9 213.6 363.5 217.1ZM628.2 219.6C631.7 221 635.9 223.3 637.7 224.6L640.9 227L641.2 223.3L641.5 219.5H681.5V328.5H641.5L641 324.8L640.5 321.1L635.5 324.4C628.1 329.4 620.3 331.5 609 331.4C585.4 331.2 567.1 317.1 559.8 293.5C556.8 284.1 556.7 264.5 559.4 255.5C564.7 238.3 575.5 225.7 590.1 219.9C598.3 216.7 602.7 216 612.7 216.5C619.7 216.8 623.4 217.6 628.2 219.6ZM775.8 218.9C776.8 219.5 777 223.9 776.4 240.2L775.7 260.7L766.1 261.2C753.5 261.9 746.5 264.5 741.1 270.6C734.5 278.2 733.7 281.5 733.2 306.8L732.8 329L712.7 328.8L692.5 328.5V219.5H732.5L732.8 228.7C732.9 233.8 733.5 238 734 238C734.6 238 735 237.5 735 236.9C735 235 745.4 224.8 749.5 222.7C751.7 221.6 755.5 220.1 758 219.4C763.2 218 773.9 217.6 775.8 218.9ZM475 252.5C475.6 289.1 475.5 288.9 482.3 293C490.4 298 501.2 293.5 505.6 283.5C506.1 282.4 506.7 267.5 507 250.5L507.5 219.5H547.5V328.5H507.5L507 323.7L506.5 318.9L502.8 322C486.3 335.7 459.3 334.7 445.4 319.8C440.2 314.3 436.5 306.8 435 299C434.4 296.1 434 277.3 434 256.3V219L454.3 219.2L474.5 219.5L475 252.5ZM928.5 308.4C931.1 309.5 932.1 310.8 933.1 313.8C936.1 324.1 926.9 332.1 919.4 325.7C917.1 323.7 916.6 322.5 916.6 318.3C916.5 312.3 919.4 308.3 924.8 307.1C924.9 307 926.6 307.6 928.5 308.4ZM542.5 356C545.3 358.7 545.7 360.8 543.5 361.6C542.6 362 541.2 361.2 539.9 359.6C538.5 357.8 536.9 357 534.6 357C530.8 357 529 358.5 529 361.7C529 363.9 529.6 364.2 539.3 366.6C545.4 368 547.5 374.9 543.1 379.3C541.1 381.4 534.4 382.6 530.5 381.6C527.2 380.8 524 377.5 524 375C524 372.4 527.6 372.3 528.5 374.9C529.8 379.2 538.8 380.1 541 376.1C543.1 372.2 541.5 371 530.8 368.6C526.8 367.7 525 365.3 525 361C525 358 525.6 356.7 527.8 355C531.4 352.1 538.9 352.6 542.5 356ZM563.8 354.2C565 355.8 576 380 576 381.1C576 381.6 575.2 382 574.2 382C573.1 382 571.7 380.6 570.7 378.5L569 375H554.9L553.4 378.5C552.5 380.8 551.3 382 550 382C548.9 382 548 381.8 548 381.6C548 381.4 550.3 376.2 553 370.1C555.8 364 558 358.8 558 358.5C558 357.4 561.2 353 562 353C562.4 353 563.2 353.6 563.8 354.2ZM599.4 353.6C600.3 353.9 601 354.8 601 355.6C601 356.7 599.1 357 592.5 357H584V366H591.5C598.3 366 599 366.2 599 368C599 369.8 598.3 370 591.5 370H584V376C584 381.3 583.8 382 582 382C580.1 382 580 381.3 580 368.2C580 360.6 580.3 354 580.7 353.7C581.5 352.8 597.3 352.8 599.4 353.6ZM625 355C625 356.8 624.3 357 617 357C609.4 357 609 357.1 608.4 359.4C607.1 364.8 607.9 365.5 616.3 365.8C622.9 366 624 366.3 624 367.9C624 369.5 623.1 369.7 616.3 369.6L608.5 369.5V377.5L617 378C623.7 378.4 625.5 378.8 625.5 380C625.5 381.2 623.6 381.6 615.3 381.8L605 382.1V353H615C624.3 353 625 353.1 625 355ZM652.8 355.2C653.1 356.7 652.4 357 648.1 357H643.1L642.8 369.2C642.5 379.9 642.3 381.5 640.8 381.8C639.2 382.1 639 380.8 638.8 369.8L638.5 357.5L633.8 357.2C629.8 356.9 629 356.6 629 354.9C629 353 629.6 353 640.7 353.2C651 353.5 652.5 353.7 652.8 355.2ZM662.8 360C665.1 363.6 667.4 366.6 667.8 366.7C668.2 366.9 670.4 363.8 672.8 360C675.9 355 677.7 353 679.2 353C681.7 353 681.5 353.7 675.1 363.9C670.7 370.8 670 372.7 670 377C670 381.3 669.7 382 668 382C666.3 382 666 381.3 666 377C666 372.7 665.3 371 660.5 363.5C657.5 358.9 655 354.5 655 353.9C655 351.1 658.9 354.2 662.8 360ZM714.4 355.9C718.8 358.7 721.4 364.1 720.7 369.2C719.6 377.5 714.6 381.1 703.3 381.8L696 382.3V352.7L703.5 353.3C708.6 353.7 712.1 354.5 714.4 355.9ZM746.8 355.2C747.1 356.7 746 357 738.8 357.2L730.5 357.5V365.5L738.3 365.8C744.2 366 746 366.4 746 367.5C746 368.7 744.5 369 739.3 369C731 369 729.8 369.7 730.2 374.1L730.5 377.5L738.8 377.8C746.2 378.1 747 378.3 747 380.1C747 382 746.4 382.1 736.8 381.8L726.5 381.5L726.2 368.6C726.1 361.4 726.1 355.1 726.4 354.5C726.6 353.8 730.4 353.4 736.6 353.5C745.1 353.5 746.5 353.8 746.8 355.2ZM770.1 355.9C773.3 359.2 773.7 360.8 771.5 361.6C770.6 362 769.2 361.2 767.9 359.6C764.4 355.2 757 356.2 757 361.1C757 364 757.1 364.1 767.2 366.5C773.5 368.1 775.4 375.6 770.5 379.7C767.4 382.4 760.5 382.8 756.1 380.6C753.4 379.2 750.6 374.7 751.7 373.6C753.1 372.2 755.8 373.2 756.8 375.4C758.1 378.3 762.5 379.5 766.3 378.1C768.4 377.3 769 376.4 769 374.1C769 371.5 768.5 371 765.3 370.1C763.2 369.5 760.7 369 759.8 369C758.9 369 756.8 367.8 755.1 366.4C751.1 363.1 751.1 359.8 754.9 355.9C757.3 353.5 758.7 353 762.5 353C766.3 353 767.7 353.5 770.1 355.9ZM782.8 367.8C783 381.5 783 382 781 382C779.1 382 779 381.4 779 368.2C779 360.6 779.3 354 779.7 353.6C781.8 351.5 782.5 354.6 782.8 367.8ZM811 355.2C815.5 358.3 817 360.8 815 362C813.9 362.7 813.1 362.4 812 361.1C809.8 358.4 806.6 357 802.5 357C794 357 789.8 368 795.6 374.9C797.8 377.6 798.8 378 803.1 378C807.2 378 808.5 377.5 810.5 375.4C814.4 371.2 813.8 370.1 807.3 369.8C802.7 369.6 801.4 369.1 801.2 367.7C800.9 366.2 801.8 366 808.9 366H817V369.2C817 373.5 813.9 378.5 810.1 380.5C806 382.6 799.2 382.4 795.3 380C785.5 374.1 786.8 358.3 797.5 353.9C801.4 352.3 807.6 352.9 811 355.2ZM833.5 362.3C844.9 376.3 844 376.2 844 363.6C844 353.9 844.2 352.9 845.8 353.2C847.3 353.5 847.5 355 847.5 367.5C847.5 379.9 847.3 381.5 845.8 381.5C844.9 381.5 840.4 377 835.8 371.5L827.5 361.6L827.2 371.8C827 381.2 826.8 382 825 382C823.1 382 823 381.2 823 367.4C823 349.7 823.2 349.6 833.5 362.3ZM875 355.1C875 356.7 873.9 357 866.8 357.2L858.5 357.5V365.5L866.3 365.8C872.9 366 874.1 366.3 873.8 367.7C873.6 369 872.1 369.4 866.6 369.6C862.9 369.7 859.3 370.3 858.8 370.8C858.3 371.3 858 373 858.2 374.6C858.5 377.5 858.5 377.5 866.8 378C871.3 378.3 875 378.8 875 379.2V381C875 381.6 871 382 865 382H855V352.9L865 353.1C873.8 353.3 875 353.6 875 355.1ZM900.3 355.3C905.4 358.6 904.3 366.1 898.4 369.1L895.3 370.6L899.6 375.6C904.5 381.1 904.8 382 902.1 382C901 382 897.9 379.5 894.9 376C891.3 371.8 889 370 887.4 370C885.1 370 885 370.4 885 376C885 381.3 884.8 382 883 382C881.1 382 881 381.3 881 368.2C881 360.6 881.3 354 881.8 353.6C883.1 352.2 897.7 353.5 900.3 355.3Z" fill="white"/>
<path d="M111.1 172.6C108.9 174.2 108.8 174.7 109.4 180.7C110.4 190.2 111.2 191.7 116.2 193.1C122.9 194.9 136.2 192.4 137.9 189.1C139.4 186.4 137.3 180.1 134 177C128.9 172.2 115.3 169.6 111.1 172.6ZM478.6 129.4C469.8 132.7 463.9 141.5 463.9 151.5C463.9 180.2 501.8 183.6 506.5 155.2C509.2 138.9 493.2 124 478.6 129.4ZM708.4 127.9C704.8 129.5 701.1 133.2 698.6 137.7C698 138.7 701.8 139 716 139H734.1L731.8 134.7C727.5 126.9 717.2 123.9 708.4 127.9ZM831.5 253.3C829.2 254.6 826.3 257.5 824.5 260.4C821.8 264.9 821.5 266.1 821.5 273.9C821.5 281.5 821.8 283.1 824.3 287.2C828.2 294 833.8 297 842.2 297C848 297 849.4 296.6 853.6 293.7C867.7 284.2 866.8 260.6 852 253C846.4 250.2 836.8 250.3 831.5 253.3ZM354.2 249.1C352.4 249.6 349.2 251.8 347.2 253.8C335.6 265.4 341.2 285.5 356.9 288.9C371.5 292 384.2 281.4 382.8 267.1C381.7 256 374.7 249 363.9 248.4C360.4 248.2 356 248.5 354.2 249.1ZM615 251C597.5 254.1 591.9 280.2 606 292.7C609.7 296 614.5 297.3 621 296.8C628.4 296.3 633.9 292.8 637.7 286.3C640.1 282.2 640.5 280.4 640.5 274C640.5 268.3 639.9 265.5 638.3 262.5C633.6 253.7 624.6 249.2 615 251ZM921 312C918.4 314.6 918.3 321 920.8 323.3C923.2 325.5 927.3 325.4 929.3 323.2C933.1 319 930.1 310 925 310C923.9 310 922.1 310.9 921 312ZM927 313C928.4 313.8 928.9 315 928.7 318C928.6 322 927.4 323 925.2 320.8C924.3 319.9 924 319.9 924 320.8C924 321.5 923.4 322 922.7 322C921.8 322 921.4 320.8 921.4 318.2C921.6 312.3 923.1 310.9 927 313Z" fill="white"/>
<path d="M924 316C924 316.5 924.5 317 925 317C925.6 317 926 316.5 926 316C926 315.4 925.6 315 925 315C924.5 315 924 315.4 924 316ZM559.6 365L557 370.5L561.6 370.8C564.1 371 566.4 370.9 566.6 370.7C566.9 370.5 566 367.8 564.7 364.9L562.3 359.5L559.6 365ZM700 367.5V378H705C709 378 710.6 377.5 713.1 375.2C715.7 372.9 716.3 371.6 716.3 368.4C716.3 366.2 715.7 363.4 715.1 362.1C713.6 359.3 708.3 357 703.5 357H700V367.5ZM885 361.5V366.1L891.1 365.8C896.1 365.6 897.5 365.1 898.7 363.3C900 361.4 899.9 360.9 898.1 359.1C896.5 357.5 894.7 357 890.5 357H885V361.5Z" fill="white"/>
</svg>
