<svg width="529" height="178" viewBox="0 0 529 178" fill="none" xmlns="http://www.w3.org/2000/svg">
<path d="M484.22 1.26005C493.006 1.28185 501.589 3.90884 508.882 8.80875C516.175 13.7087 521.851 20.6614 525.193 28.7875C528.534 36.9137 529.39 45.8482 527.653 54.4611C525.916 63.074 521.664 70.9783 515.435 77.1744C509.205 83.3704 501.278 87.5798 492.656 89.2701C484.034 90.9605 475.104 90.0559 466.996 86.6707C458.888 83.2855 451.966 77.5718 447.105 70.2523C442.245 62.9328 439.664 54.3363 439.69 45.5501C439.701 39.7166 440.861 33.9424 443.106 28.558C445.35 23.1735 448.635 18.2845 452.771 14.1708C456.907 10.057 461.813 6.79925 467.21 4.58388C472.606 2.3685 478.387 1.23901 484.22 1.26005V1.26005ZM481.22 58.8201C485.54 58.8201 489.85 58.8201 494.17 58.8201C497.56 58.8201 499.8 56.7701 499.81 53.7201C499.82 50.6701 497.54 48.56 494.22 48.55H468.32C464.98 48.55 462.7 50.6601 462.68 53.6801C462.66 56.7001 464.92 58.8101 468.27 58.8201C472.56 58.8401 476.88 58.8201 481.19 58.8201H481.22ZM481.3 60.0901C476.98 60.0901 472.67 60.0901 468.36 60.0901C465 60.0901 462.71 62.1601 462.68 65.1701C462.65 68.1801 464.91 70.3401 468.25 70.3501C476.917 70.3501 485.603 70.3501 494.31 70.3501C497.55 70.3501 499.78 68.2301 499.81 65.2701C499.84 62.3101 497.55 60.1101 494.24 60.0901C489.89 60.0801 485.58 60.0901 481.27 60.0901H481.3ZM484.37 71.6401C480.99 71.6401 477.61 71.6401 474.23 71.6401C470.85 71.6401 468.48 73.7701 468.46 76.8401C468.44 79.9101 470.79 82.07 474.2 82.08C480.867 82.08 487.51 82.08 494.13 82.08C497.52 82.08 499.85 79.8601 499.81 76.7801C499.77 73.7001 497.48 71.6501 494.17 71.6401C490.86 71.6301 487.61 71.6401 484.34 71.6401H484.37ZM484.2 47.3101C487.52 47.3101 490.85 47.3101 494.2 47.3101C497.55 47.3101 499.81 45.2401 499.84 42.1901C499.87 39.1401 497.51 37.0001 494.2 37.0001C487.487 37.0001 480.78 37.0001 474.08 37.0001C470.73 37.0001 468.45 39.1101 468.43 42.1301C468.41 45.1501 470.71 47.28 474.03 47.3C477.35 47.32 480.79 47.3101 484.17 47.3101H484.2ZM497.54 22.5101V15.3401C497.54 13.7488 496.908 12.2226 495.783 11.0974C494.658 9.97221 493.131 9.34006 491.54 9.34006C489.949 9.34006 488.423 9.97221 487.297 11.0974C486.172 12.2226 485.54 13.7488 485.54 15.3401C485.5 20.1801 485.5 25.0167 485.54 29.8501C485.54 31.4414 486.172 32.9675 487.297 34.0927C488.423 35.2179 489.949 35.8501 491.54 35.8501C493.131 35.8501 494.658 35.2179 495.783 34.0927C496.908 32.9675 497.54 31.4414 497.54 29.8501C497.54 27.4001 497.51 25.0001 497.51 22.5101H497.54Z" fill="#CF1D1E"/>
<path d="M163.34 62.9998V60.9998C163.34 42.3332 163.34 23.6665 163.34 4.99985C163.34 3.58985 163.62 3.07984 165.13 3.11984C168.92 3.23984 172.72 3.19984 176.51 3.11984C177.61 3.11984 178.02 3.34984 178.02 4.55984C177.973 31.8932 177.953 59.2265 177.96 86.5598C177.96 87.6398 177.66 87.9598 176.58 87.9398C172.44 87.8798 168.3 87.8698 164.16 87.9398C163.648 87.985 163.135 87.8746 162.687 87.623C162.239 87.3714 161.878 86.9903 161.65 86.5298C154.117 74.5232 146.567 62.5065 139 50.4799C134.56 43.4199 130.113 36.3698 125.66 29.3298C125.36 28.8498 125.19 28.2598 124.61 27.9698C124.13 28.3398 124.39 28.8398 124.39 29.2598C124.39 48.2065 124.39 67.1532 124.39 86.0999C124.39 87.6499 124.02 88.0998 122.47 88.0298C118.8 87.9098 115.12 87.9198 111.47 88.0298C110.03 88.0298 109.75 87.5898 109.75 86.2498C109.803 59.6565 109.823 33.0699 109.81 6.48985C109.81 3.16985 109.81 3.16984 113.07 3.16984C116.8 3.16984 120.54 3.22984 124.27 3.16984C124.809 3.12288 125.349 3.24376 125.816 3.5159C126.283 3.78804 126.655 4.19811 126.88 4.68985C138.587 23.6898 150.33 42.6898 162.11 61.6898C162.35 62.0898 162.45 62.8198 163.34 62.9998Z" fill="#090A0A"/>
<path d="M252 80.9999C242 89.4499 230.77 91.6299 218.59 89.3499C204.24 86.6599 195.2 77.3499 190.67 64.0999C185.79 49.8499 186.51 35.4599 193.52 21.8199C206.32 -3.05006 237.06 -3.68007 253.59 9.71993C260.17 15.0399 263.59 22.1399 264.59 30.4999C264.71 31.4999 264.43 31.8099 263.41 31.7999C259.41 31.7499 255.48 31.7999 251.51 31.7999C250.63 31.7999 250.14 31.6199 249.93 30.6499C247.17 18.2799 237.06 14.1999 226.1 14.8799C215.56 15.5299 208.93 21.6799 205.58 31.2699C202.043 41.4643 202.177 52.5741 205.96 62.6799C208.72 70.4499 214.46 75.0999 222.69 76.3299C230.44 77.4799 237.84 76.7799 244.14 71.4099C249.14 67.1399 251.03 61.4799 251.39 55.1399C251.45 54.1399 250.97 54.1399 250.25 54.1399C246.25 54.1399 242.32 54.0399 238.35 54.1399C237.02 54.1399 236.67 53.7499 236.7 52.4499C236.79 48.9599 236.76 45.4499 236.7 41.9599C236.7 40.9599 236.94 40.6299 237.98 40.6399C246.84 40.7333 255.707 40.7933 264.58 40.8199C265.49 40.8199 265.77 41.0699 265.77 41.9999C265.77 56.9799 265.77 71.9633 265.77 86.9499C265.77 87.9499 265.38 88.0999 264.53 88.0999C260.737 88.0599 256.944 88.0599 253.15 88.0999C252.24 88.0999 251.93 87.8399 251.96 86.9099C252 84.9999 252 83.1699 252 80.9999Z" fill="#090A0A"/>
<path d="M355.12 45.4199C355.12 31.9499 355.12 18.4799 355.12 5.00989C355.12 3.68989 355.38 3.22991 356.82 3.23991C368.9 3.30991 380.97 3.2399 393.05 3.2999C398.025 3.20095 402.97 4.08801 407.6 5.9099C416.15 9.4999 420.28 16.1599 420.76 25.2499C421.23 34.1099 418.63 41.5999 410.82 46.6199C409.82 47.2799 410.24 47.9399 410.51 48.6899L424.08 86.1599C424.78 88.0799 424.78 88.0799 422.75 88.0799C418.9 88.0799 415.05 88.0299 411.2 88.0799C410.694 88.1634 410.175 88.049 409.75 87.7605C409.326 87.472 409.029 87.0314 408.92 86.5299C405.06 75.8499 401.1 65.2099 397.24 54.5299C397.137 53.9733 396.822 53.4784 396.361 53.15C395.9 52.8215 395.33 52.6852 394.77 52.7699C389.18 52.8599 383.57 52.7699 377.97 52.7699C376.73 52.7699 376.39 52.4299 376.44 51.1999C376.58 47.9399 376.64 44.6699 376.61 41.4099C376.61 40.1899 377.04 39.9999 378.12 39.9899C383.66 39.9299 389.2 40.2399 394.74 39.7899C396.307 39.6825 397.851 39.3456 399.32 38.7899C400.76 38.2856 402.046 37.4175 403.052 36.2698C404.057 35.1222 404.749 33.7339 405.06 32.2399C405.648 29.6732 405.682 27.0108 405.16 24.4299C404.37 20.4299 401.87 18.0099 397.89 17.1099C396.228 16.7755 394.535 16.6246 392.84 16.6599C385.9 16.6599 378.96 16.6599 372.02 16.5999C370.5 16.5999 370.02 16.9199 370.07 18.4999C370.07 40.9999 370.07 63.4999 370.13 86.0099C370.13 87.6799 369.73 88.1899 368.03 88.1299C364.3 87.9999 360.56 88.0199 356.83 88.1299C355.44 88.1299 355.08 87.7699 355.08 86.3699C355.14 72.7299 355.08 59.0899 355.08 45.4499L355.12 45.4199Z" fill="#090A0A"/>
<path d="M279.8 45.6402C279.8 32.1102 279.8 18.5802 279.8 5.0602C279.8 3.6402 280.13 3.2002 281.61 3.2002C301.45 3.2602 321.287 3.27687 341.12 3.2502C342.38 3.2502 342.85 3.50019 342.8 4.87019C342.69 8.25019 342.65 11.6402 342.8 15.0102C342.88 16.7502 342.21 17.0102 340.71 17.0102C326.13 16.9502 311.54 17.0102 296.95 16.9102C295.06 16.9102 294.68 17.4602 294.72 19.2202C294.833 24.6402 294.833 30.0602 294.72 35.4802C294.72 37.1602 294.98 37.7302 296.85 37.7102C310.27 37.6202 323.69 37.7102 337.11 37.6502C338.57 37.6502 339.11 37.8802 339.11 39.5202C338.96 42.8902 338.99 46.2802 339.11 49.6602C339.11 51.0302 338.78 51.4102 337.39 51.4102C323.85 51.3502 310.31 51.4102 296.78 51.3302C295.14 51.3302 294.78 51.7702 294.78 53.3302C294.86 59.8035 294.86 66.2735 294.78 72.7402C294.78 74.0902 295.16 74.3702 296.45 74.3702C311.5 74.3702 326.56 74.3702 341.61 74.3202C343.26 74.3202 343.61 74.7802 343.61 76.3202C343.49 79.5802 343.46 82.8602 343.61 86.1202C343.69 87.8502 343.02 88.1202 341.52 88.0702C323.173 88.0235 304.877 88.0002 286.63 88.0002C284.88 88.0002 283.13 87.9102 281.38 88.0002C280.05 88.0802 279.73 87.6302 279.73 86.3302C279.73 72.7402 279.73 59.1602 279.73 45.5702L279.8 45.6402Z" fill="#090A0A"/>
<path d="M59.2099 30.8C57.2799 30.8 55.3499 30.8 53.4299 30.8C52.4299 30.8 52.1199 30.5399 52.0899 29.5399C52.0808 28.2572 51.9298 26.9795 51.6399 25.73C51.1852 23.399 50.1088 21.2343 48.5244 19.4651C46.9401 17.6959 44.9068 16.388 42.6399 15.6799C37.0607 13.7998 31.0191 13.7998 25.4399 15.6799C19.9099 17.4899 17.2099 21.8899 17.7599 27.6799C17.8315 28.8213 18.1945 29.9253 18.8142 30.8864C19.434 31.8475 20.2898 32.6337 21.2999 33.17C22.8516 33.9827 24.5118 34.5686 26.2299 34.91C33.7899 36.64 41.3499 38.36 48.8999 40.13C50.5453 40.5157 52.1624 41.0135 53.7399 41.62C69.7399 47.87 74.0299 69.22 61.7399 81.17C58.118 84.596 53.6701 87.0249 48.8299 88.22C39.5174 90.9143 29.6254 90.8657 20.3399 88.0799C7.80986 84.1899 -0.410142 73.8599 0.339858 58.7399C0.339858 57.9499 0.68986 57.7399 1.39986 57.7399C5.39986 57.7399 9.39986 57.7399 13.4699 57.7399C14.3799 57.7399 14.7099 58.0399 14.6799 58.9599C14.6184 60.4147 14.7022 61.8719 14.9299 63.31C15.2679 65.8755 16.3103 68.2971 17.9414 70.306C19.5725 72.3148 21.7284 73.8323 24.1699 74.69C31.5583 77.528 39.7441 77.4815 47.0999 74.56C52.7999 72.41 55.0999 67.7399 53.8199 61.7699C53.5413 60.5401 52.9706 59.3954 52.1559 58.4328C51.3413 57.4702 50.3068 56.718 49.1399 56.2399C45.2461 54.5308 41.1744 53.2597 36.9999 52.45C31.9999 51.27 26.9999 50.13 21.9999 48.98C20.178 48.5721 18.3896 48.0272 16.6499 47.35C6.64986 43.41 1.88986 35.27 3.26986 24.63C4.98986 11.42 13.9299 2.75996 27.2699 1.31996C33.8309 0.548218 40.4787 1.0301 46.8599 2.73996C58.1999 5.84996 64.9499 13.89 66.1599 25.59C66.2899 26.86 66.3199 28.15 66.4799 29.42C66.6199 30.48 66.2999 30.88 65.1699 30.83C63.1799 30.74 61.1899 30.8 59.2099 30.8Z" fill="#090A0A"/>
<path d="M95.0802 45.5699C95.0802 59.0899 95.0802 72.6199 95.0802 86.1399C95.0802 87.5499 94.7802 88.0499 93.2802 88.0099C89.4869 87.8965 85.6969 87.8965 81.9102 88.0099C80.4602 88.0099 80.0702 87.6299 80.0702 86.1699C80.1202 64.3099 80.0702 42.4499 80.1502 20.5899C80.1502 18.9499 79.8402 18.3299 78.0902 18.4599C75.8302 18.6299 73.5402 18.4599 71.2702 18.5199C70.2702 18.5199 69.8102 18.3599 69.8302 17.1999C69.9035 13.0132 69.9035 8.81654 69.8302 4.60987C69.8302 3.45987 70.1402 3.12987 71.2902 3.13987C78.7002 3.18987 86.1102 3.19987 93.5202 3.13987C94.8902 3.13987 95.1202 3.58986 95.1202 4.83986C95.0802 18.4199 95.0802 32.0032 95.1202 45.5899L95.0802 45.5699Z" fill="#090A0A"/>
<path d="M446.08 177C446.29 175.997 446.669 175.037 447.2 174.16C450.3 167.453 453.433 160.75 456.6 154.05C456.816 153.651 456.929 153.204 456.929 152.75C456.929 152.296 456.816 151.849 456.6 151.45C451.6 140.81 446.6 130.13 441.6 119.5C440.92 118.07 441.13 117.89 442.66 117.78C444.72 117.63 445.66 118.38 446.54 120.25C450.44 128.84 454.54 137.35 458.54 145.89C458.76 146.36 459 146.81 459.37 147.55C459.75 146.82 460.05 146.31 460.3 145.78L472.84 119.22C473.36 118.1 476.5 117.22 477.49 117.92C478.14 118.4 477.49 118.85 477.27 119.25C473.87 126.583 470.45 133.917 467.01 141.25C461.76 152.49 456.46 163.71 451.29 174.99C450.57 176.56 449.76 177.29 448.05 176.99C447.394 176.937 446.735 176.941 446.08 177V177Z" fill="#090A0A"/>
<path d="M286.1 148C286.128 151.029 285.072 153.968 283.122 156.286C281.173 158.604 278.459 160.148 275.47 160.64C272.386 161.12 269.233 160.476 266.585 158.823C263.938 157.171 261.973 154.621 261.05 151.64C260.31 149.05 261.28 147.87 264.05 147.98C265.05 147.98 264.66 148.82 264.74 149.28C264.912 150.515 265.345 151.699 266.011 152.753C266.676 153.808 267.559 154.709 268.599 155.395C269.64 156.082 270.815 156.54 272.046 156.737C273.277 156.934 274.537 156.867 275.74 156.54C277.257 156.179 278.643 155.402 279.742 154.296C280.841 153.19 281.609 151.799 281.96 150.28C282.414 148.787 282.433 147.195 282.015 145.691C281.597 144.188 280.759 142.834 279.6 141.79C277.681 140.087 275.578 138.605 273.33 137.37C271.105 136.206 269.033 134.772 267.16 133.1C265.473 131.422 264.418 129.212 264.175 126.845C263.932 124.477 264.515 122.099 265.825 120.113C267.136 118.127 269.093 116.655 271.365 115.947C273.636 115.239 276.083 115.339 278.29 116.23C279.837 116.791 281.199 117.769 282.226 119.056C283.253 120.342 283.905 121.887 284.11 123.52C284.25 124.52 281.87 126.36 281.01 125.92C280.43 125.62 280.57 124.92 280.41 124.36C279.71 121.96 278.41 120.13 275.8 119.64C274.627 119.354 273.397 119.418 272.261 119.825C271.125 120.232 270.134 120.964 269.41 121.93C268.441 123.155 267.966 124.698 268.077 126.256C268.188 127.814 268.877 129.274 270.01 130.35C271.598 131.815 273.373 133.063 275.29 134.06C277.401 135.188 279.408 136.5 281.29 137.98C282.813 139.163 284.04 140.684 284.875 142.423C285.71 144.162 286.129 146.071 286.1 148V148Z" fill="#090A0A"/>
<path d="M423.63 136.38C423.63 132.07 423.56 127.75 423.63 123.44C423.63 122 423.18 121.56 421.86 121.77C421.745 121.795 421.625 121.795 421.51 121.77C420.8 121.64 419.72 122.2 419.45 121.4C419.199 120.381 419.179 119.318 419.39 118.29C419.51 117.48 420.39 117.85 420.87 117.84C423.59 117.77 423.6 117.84 423.6 115.05C423.6 108.93 423.68 102.81 423.54 96.6901C423.54 94.6901 424.6 95.1301 425.73 95.0501C427.04 94.9601 427.73 95.1301 427.67 96.7601C427.56 103.23 427.67 109.7 427.59 116.17C427.59 117.43 427.85 117.94 429.22 117.85C431.14 117.73 433.07 117.85 434.99 117.8C435.99 117.8 436.45 118.03 436.41 119.15C436.3 122.32 436.76 121.72 433.85 121.77C432.22 121.77 430.58 121.82 428.95 121.77C428.01 121.77 427.6 121.97 427.61 123.01C427.61 131.75 427.53 140.5 427.67 149.24C427.675 150.531 427.982 151.803 428.566 152.954C429.149 154.105 429.994 155.104 431.033 155.871C432.072 156.637 433.275 157.15 434.547 157.369C435.819 157.588 437.125 157.506 438.36 157.13C440.58 156.53 439.87 158.49 440.36 159.3C441.08 160.39 440.09 160.51 439.36 160.71C437.515 161.294 435.556 161.429 433.648 161.102C431.74 160.776 429.938 159.998 428.392 158.834C426.846 157.669 425.601 156.152 424.76 154.408C423.919 152.664 423.508 150.745 423.56 148.81C423.61 144.66 423.63 140.52 423.63 136.38Z" fill="#090A0A"/>
<path d="M350.66 141.12C350.66 135.3 350.6 129.47 350.66 123.64C350.66 122.04 350.18 121.51 348.66 121.78C348.604 121.785 348.547 121.785 348.49 121.78C346.29 121.78 345.49 120.6 346.18 118.41C346.44 117.57 347.1 117.85 347.62 117.83C350.62 117.74 350.62 117.75 350.62 114.74C350.62 112 350.62 109.26 350.62 106.53C350.637 104.609 351.109 102.719 351.998 101.015C352.887 99.3121 354.168 97.8439 355.734 96.7312C357.3 95.6186 359.108 94.8934 361.01 94.615C362.911 94.3366 364.851 94.5131 366.67 95.1299C367.55 95.4099 367.67 95.7499 367.43 96.6299C366.68 98.8599 366.72 98.8799 364.43 98.4199C363.277 98.2309 362.098 98.2832 360.966 98.5737C359.834 98.8642 358.775 99.3864 357.856 100.107C356.937 100.828 356.177 101.732 355.625 102.762C355.073 103.792 354.741 104.925 354.65 106.09C354.44 109.64 354.65 113.2 354.57 116.76C354.57 117.62 354.9 117.85 355.71 117.84C357.71 117.84 359.79 117.84 361.83 117.84C362.91 117.84 363.38 118.03 363.36 119.26C363.31 121.82 363.36 121.82 360.75 121.82C359.23 121.82 357.75 121.91 356.2 121.82C354.87 121.71 354.54 122.16 354.55 123.47C354.61 131.1 354.55 138.74 354.55 146.37C354.55 150.63 354.46 154.89 354.6 159.14C354.65 160.88 353.79 160.84 352.6 160.78C351.41 160.72 350.5 161.05 350.54 159.21C350.75 153.14 350.66 147.13 350.66 141.12Z" fill="#090A0A"/>
<path d="M437.25 10.2501C437.289 11.8474 436.853 13.4204 435.997 14.7693C435.14 16.1183 433.902 17.1822 432.44 17.826C430.978 18.4698 429.357 18.6645 427.784 18.3853C426.21 18.106 424.756 17.3655 423.604 16.2577C422.453 15.1499 421.657 13.7249 421.317 12.1637C420.977 10.6024 421.109 8.97539 421.696 7.48923C422.282 6.00307 423.298 4.72486 424.612 3.81694C425.927 2.90902 427.482 2.41237 429.08 2.39008C431.2 2.36826 433.244 3.17963 434.772 4.64961C436.3 6.11959 437.19 8.13067 437.25 10.2501V10.2501ZM435.8 10.3501C435.733 8.6428 435.008 7.02756 433.777 5.84314C432.546 4.65872 430.903 3.99713 429.195 3.99713C427.486 3.99713 425.844 4.65872 424.613 5.84314C423.381 7.02756 422.656 8.6428 422.59 10.3501C422.555 11.2391 422.7 12.1259 423.017 12.9575C423.333 13.789 423.814 14.5481 424.431 15.1893C425.048 15.8305 425.787 16.3406 426.606 16.6891C427.425 17.0375 428.305 17.2171 429.195 17.2171C430.085 17.2171 430.965 17.0375 431.784 16.6891C432.602 16.3406 433.342 15.8305 433.959 15.1893C434.576 14.5481 435.057 13.789 435.373 12.9575C435.689 12.1259 435.834 11.2391 435.8 10.3501Z" fill="#090A0A"/>
<path d="M481.19 58.8198C476.88 58.8198 472.56 58.8198 468.19 58.8198C464.84 58.8198 462.58 56.7098 462.6 53.6798C462.62 50.6498 464.9 48.5598 468.24 48.5498H494.14C497.46 48.5498 499.75 50.6998 499.73 53.7198C499.71 56.7398 497.48 58.8098 494.09 58.8198C489.82 58.8398 485.51 58.8198 481.19 58.8198Z" fill="white"/>
<path d="M481.27 60.0899C485.58 60.0899 489.89 60.0899 494.21 60.0899C497.52 60.0899 499.82 62.2599 499.78 65.2699C499.74 68.2799 497.52 70.3399 494.28 70.3499C485.614 70.3499 476.927 70.3499 468.22 70.3499C464.88 70.3499 462.62 68.1899 462.65 65.1699C462.68 62.1499 464.97 60.0999 468.33 60.0899C472.64 60.0799 477 60.0899 481.27 60.0899Z" fill="white"/>
<path d="M484.34 71.6402C487.61 71.6402 490.87 71.6402 494.14 71.6402C497.41 71.6402 499.75 73.7602 499.78 76.7802C499.81 79.8002 497.49 82.0702 494.1 82.0802C487.434 82.0802 480.79 82.0802 474.17 82.0802C470.76 82.0802 468.42 79.9102 468.43 76.8402C468.44 73.7702 470.78 71.6502 474.2 71.6402C477.62 71.6302 481 71.6402 484.34 71.6402Z" fill="white"/>
<path d="M484.17 47.3098C480.79 47.3098 477.41 47.3098 474.03 47.3098C470.65 47.3098 468.42 45.1498 468.43 42.1398C468.44 39.1298 470.73 37.0198 474.08 37.0098C480.787 37.0098 487.494 37.0098 494.2 37.0098C497.51 37.0098 499.81 39.1698 499.78 42.1798C499.75 45.1898 497.51 47.2798 494.14 47.2998C490.77 47.3198 487.49 47.3098 484.17 47.3098Z" fill="white"/>
<path d="M497.51 22.5098C497.51 24.9598 497.51 27.3999 497.51 29.8499C497.51 31.4412 496.878 32.9673 495.753 34.0925C494.627 35.2177 493.101 35.8499 491.51 35.8499C489.919 35.8499 488.393 35.2177 487.267 34.0925C486.142 32.9673 485.51 31.4412 485.51 29.8499C485.47 25.0099 485.47 20.1732 485.51 15.3398C485.51 13.7485 486.142 12.2224 487.267 11.0972C488.393 9.972 489.919 9.33984 491.51 9.33984C493.101 9.33984 494.627 9.972 495.753 11.0972C496.878 12.2224 497.51 13.7485 497.51 15.3398V22.5098Z" fill="white"/>
<path fill-rule="evenodd" clip-rule="evenodd" d="M336.834 121.843C336.827 122.357 336.82 122.892 336.82 123.46C334.714 120.768 332.068 118.546 329.051 116.939C326.035 115.331 322.715 114.373 319.306 114.126C315.897 113.88 312.474 114.349 309.257 115.506C306.041 116.662 303.102 118.479 300.63 120.84C296.351 125.061 293.811 130.733 293.513 136.736C293.215 142.74 295.18 148.636 299.02 153.26C302.72 157.935 308.105 160.972 314.02 161.72C323.25 162.89 330.78 159.74 336.86 152.2V159.48C336.86 159.568 336.849 159.667 336.837 159.769C336.799 160.105 336.757 160.47 337.11 160.57C338.238 160.885 339.432 160.885 340.56 160.57C341.115 160.42 341.034 159.859 340.959 159.339C340.934 159.166 340.91 158.997 340.91 158.85V120.19C340.91 118.891 341.031 118.298 340.791 118.03C340.548 117.759 339.937 117.82 338.46 117.82H338.11C337.13 117.68 336.76 118.08 336.82 119.08C336.859 119.982 336.847 120.875 336.834 121.843ZM336.813 134.287C336.975 135.513 336.984 136.757 336.82 138C338.119 147.735 328.439 157.84 317.436 157.73C317.407 157.73 317.378 157.73 317.349 157.73C312.126 157.711 307.121 155.628 303.426 151.934C299.715 148.222 297.63 143.189 297.63 137.94C297.63 132.691 299.715 127.658 303.426 123.946C307.138 120.235 312.171 118.15 317.42 118.15C317.536 118.148 317.651 118.148 317.767 118.149C327.243 118.204 335.694 125.808 336.813 134.287Z" fill="#090A0A"/>
<path fill-rule="evenodd" clip-rule="evenodd" d="M372.89 135.71C377.626 135.798 382.356 135.784 387.085 135.77C388.827 135.765 390.568 135.76 392.31 135.76C394.133 135.76 395.959 135.758 397.786 135.756C402.666 135.75 407.558 135.744 412.44 135.78C413.64 135.79 413.91 135.41 413.82 134.28C413.596 130.28 412.159 126.443 409.7 123.28C403.53 115.54 395.25 112.51 385.79 114.46C376.33 116.41 369.94 122.36 367.53 131.77C365.05 141.46 367.8 149.81 375.46 156.46C383.83 163.73 399.89 165.23 410.12 152.23C410.64 151.58 410.74 151.27 409.82 150.89L409.663 150.826C406.89 149.699 406.869 149.691 404.67 151.89L404.05 152.5C401.212 155.119 397.67 156.85 393.86 157.48C390.051 158.111 386.14 157.613 382.61 156.048C379.08 154.484 376.084 151.92 373.993 148.674C371.902 145.428 370.806 141.641 370.84 137.78C370.89 136.27 371.2 135.71 372.89 135.71ZM389.394 131.71C389.786 131.71 390.178 131.71 390.57 131.71H390.622L407.52 131.75C408.484 131.75 408.964 131.75 409.111 131.529C409.148 131.472 409.164 131.4 409.16 131.31C409.167 131.056 408.994 130.64 408.71 129.96C407.401 126.878 405.317 124.197 402.674 122.171C402.246 121.842 401.804 121.53 401.348 121.236C398.065 119.125 394.221 118.056 390.32 118.17C386.45 118.229 382.681 119.416 379.475 121.585C378.446 122.281 377.488 123.069 376.614 123.936C374.756 125.774 373.269 127.968 372.25 130.4C371.75 131.67 372.25 131.73 373.25 131.73C375.595 131.718 377.948 131.712 380.304 131.71H389.394Z" fill="#090A0A"/>
<path d="M435.8 10.3501C435.818 11.6611 435.445 12.9478 434.73 14.0466C434.015 15.1454 432.989 16.0066 431.782 16.5207C430.576 17.0348 429.245 17.1786 427.956 16.9339C426.668 16.6891 425.482 16.0667 424.549 15.146C423.615 14.2252 422.977 13.0477 422.714 11.7631C422.452 10.4785 422.577 9.14483 423.075 7.93176C423.573 6.71869 424.42 5.681 425.508 4.95062C426.597 4.22025 427.879 3.8302 429.19 3.83008C430.925 3.83764 432.589 4.52418 433.824 5.74275C435.059 6.96133 435.769 8.61511 435.8 10.3501V10.3501ZM425.68 10.0901C425.68 11.0201 425.63 11.9501 425.68 12.8801C425.68 13.4701 425.23 14.4401 426.39 14.4901C427.55 14.5401 427.19 13.5601 427.2 12.9601C427.2 11.4501 427.2 9.96007 427.2 8.42007C427.2 7.93007 427.06 7.18008 427.84 7.25008C428.84 7.35008 430.31 6.54008 430.64 8.13008C430.97 9.72008 429.64 9.46008 428.64 9.52008C428.468 9.51658 428.297 9.5507 428.14 9.62007C428.015 9.69397 427.916 9.8049 427.857 9.93748C427.798 10.0701 427.781 10.2177 427.81 10.3601C427.81 10.6401 428.01 10.8401 428.24 10.8101C430.33 10.4901 430.24 12.2601 430.75 13.4401C431.05 14.1801 431.41 14.8101 432.23 14.4401C433.05 14.0701 432.34 13.4401 432.23 12.9801C431.79 11.6401 431.13 10.5001 432.23 8.98007C433.04 7.83007 432.05 6.18007 430.59 5.98007C429.13 5.78007 427.26 5.33008 426 6.11008C425.13 6.65008 425.81 8.39008 425.7 9.58008C425.67 9.74008 425.68 9.91007 425.68 10.0901Z" fill="white"/>
<path d="M425.68 10.0901C425.68 9.91006 425.68 9.74006 425.68 9.56006C425.79 8.37006 425.11 6.63006 425.98 6.09006C427.24 5.31006 429.04 5.69007 430.57 5.96007C432.1 6.23007 433.02 7.86007 432.21 8.96007C431.15 10.4701 431.81 11.6101 432.21 12.9601C432.35 13.3901 433.13 14.0401 432.21 14.4201C431.29 14.8001 431.03 14.1401 430.73 13.4201C430.25 12.2401 430.31 10.4701 428.22 10.7901C427.99 10.7901 427.8 10.6201 427.79 10.3401C427.762 10.1977 427.778 10.05 427.837 9.91747C427.896 9.78489 427.995 9.67397 428.12 9.60007C428.277 9.53069 428.448 9.49656 428.62 9.50006C429.62 9.44006 430.93 9.65006 430.62 8.11006C430.31 6.57006 428.8 7.33006 427.82 7.23006C427.04 7.16006 427.19 7.91006 427.18 8.40006C427.18 9.91006 427.18 11.4001 427.18 12.9401C427.18 13.5401 427.55 14.5201 426.37 14.4701C425.19 14.4201 425.7 13.4701 425.66 12.8601C425.63 12.0001 425.68 11.0001 425.68 10.0901Z" fill="#090A0A"/>
</svg>
