<?xml version="1.0" encoding="utf-8"?>
<!-- Generator: Adobe Illustrator 18.1.1, SVG Export Plug-In . SVG Version: 6.00 Build 0)  -->
<!DOCTYPE svg PUBLIC "-//W3C//DTD SVG 1.1//EN" "http://www.w3.org/Graphics/SVG/1.1/DTD/svg11.dtd">
<svg version="1.1" id="Layer_1" xmlns="http://www.w3.org/2000/svg" xmlns:xlink="http://www.w3.org/1999/xlink" x="0px" y="0px"
	  viewBox="-134 236.9 922.9 368" enable-background="new -134 236.9 922.9 368"
	 xml:space="preserve">
<rect x="-134" y="236.4" fill="#0C96D0" width="922.9" height="368.5"/>
<g>
	<path fill="#FFFFFF" d="M2.6,430.6c-0.4-0.2-0.8-0.3-1.2-0.4c-12.9-5-39.8-12.9-39.8-48.2c0-26.7,20.8-47.8,49.1-47.8
		c19.5,0,48,13.5,49.5,47.8H30.5c-1.3-15-12.4-18.8-20.8-18.8c-9.7,0-17.2,7-17.2,17c0,8.4,3.6,13,10,16.5L2.6,430.6z M15.9,402
		c1.4,0.5,3,1,4.5,1.5c13.8,4.5,43.9,15.1,43.9,51.6c0,36.2-28,53.4-54.3,53.4c-21.5,0-50.8-14.5-52.6-51.3h30.7
		c1.6,16.7,12.7,22.4,22.2,22.4c12.2,0,23.1-8.4,23.1-21.1s-6-17.7-17.4-22.6L15.9,402z"/>
	<path fill="#FFFFFF" d="M338.3,414.5c-3.5-49.2-44.4-86.1-92.6-86.1s-89.2,36.9-92.6,86.1H186c3-31.1,28.4-55.4,59.7-55.4
		c31.2,0,56.5,24.3,59.7,55.4H338.3z M305.2,428.4c-3.5,29.7-28.2,54.2-59.6,54.2c-31.3,0-56.1-24.5-59.5-54.2H153
		c3.6,47.6,43.9,84.9,92.6,84.9s89-37.3,92.6-84.8L305.2,428.4z"/>
	<rect x="93.9" y="335.4" fill="#FFFFFF" width="32.8" height="171.1"/>
	<rect x="364.1" y="335.4" fill="#FFFFFF" width="31.6" height="171.3"/>
	<rect x="408.4" y="475" fill="#FFFFFF" width="72.5" height="31.6"/>
	<rect x="408.4" y="406.4" fill="#FFFFFF" width="72.5" height="31.6"/>
	<rect x="408.4" y="335.4" fill="#FFFFFF" width="72.5" height="31.6"/>
	<polygon fill="#FFFFFF" points="673.4,510.4 673.4,336.5 641.8,336.5 641.8,438.1 519.8,330.6 519.8,372.9 	"/>
	<polygon fill="#FFFFFF" points="519.8,388.8 519.8,506.5 552.4,506.5 552.4,418 	"/>
</g>
</svg>
