<svg width="980" height="312" viewBox="0 0 980 312" fill="none" xmlns="http://www.w3.org/2000/svg">
<rect width="980" height="312" fill="white"/>
<path d="M823.4 50.1098C837.71 50.2198 852.02 49.7798 866.32 50.6898C872.311 50.9538 878.233 52.0683 883.91 53.9998C894 57.6998 898.74 65.6998 897.19 76.2998C896.19 82.9098 893.91 89.1498 891.4 95.2998C890.4 97.7798 888.58 98.7698 885.94 98.7698C875.13 98.7698 864.31 98.6998 853.49 98.7698C850.1 98.7698 849.32 97.5698 849.71 94.2698C850.63 86.5198 849.61 84.7698 841.8 84.4698C820.69 83.6398 799.55 83.0798 778.47 84.8998C769.98 85.6298 764.29 90.8998 760.08 97.8998C754.53 107.25 751.08 117.5 747.35 127.6C745.664 132.104 744.229 136.697 743.05 141.36C741.55 147.36 744.3 151.81 750.32 153.42C752.568 154.024 754.883 154.336 757.21 154.35C774.85 154.403 792.49 154.38 810.13 154.28C818.81 154.23 826.13 151.45 830.6 143.4C833.44 138.29 833.08 137.5 827.34 137.48C814.34 137.41 801.34 137.48 788.4 137.36C782.87 137.36 782.62 136.77 784.67 131.53C787.1 125.35 789.67 119.21 791.87 112.97C793.08 109.62 795.11 108.53 798.63 108.55C826.59 108.643 854.547 108.643 882.5 108.55C885.01 108.55 887.12 108.65 885.73 112.02C878.65 129.19 873.31 147.07 864 163.3C857.1 175.3 846.5 182.11 833.3 185.22C824.512 187.154 815.538 188.113 806.54 188.08C782.54 188.35 758.62 188.3 734.65 188.22C727.489 188.327 720.349 187.404 713.45 185.48C698.12 180.94 691.82 171.1 694.45 155.38C695.65 149.012 697.517 142.787 700.02 136.81C706.1 121.54 711.9 106.15 718.58 91.1498C730.31 64.7898 751.58 52.1498 779.95 50.7798C794.437 50.0932 808.92 49.8698 823.4 50.1098Z" fill="black"/>
<path d="M630.22 50.8299C643.86 50.2099 657.51 49.7599 671.14 50.7299C678 51.2099 684.7 52.2999 690.98 55.2199C698.72 58.8099 702.43 65.8898 701.04 74.3398C699.93 80.2167 698.217 85.9636 695.93 91.4899C695.545 92.7724 694.731 93.8836 693.624 94.6374C692.517 95.3911 691.185 95.7415 689.85 95.6299C678.85 95.5599 667.85 95.4999 656.85 95.6299C652.85 95.6899 652.55 93.9099 653.2 90.6299C654.45 84.4099 652.79 81.9699 646.28 81.9099C627.14 81.7099 608 81.7099 588.86 82.0499C582.86 82.1599 577.63 84.6999 574.47 90.4399C571 96.7499 572.31 100.16 579.47 101.2C587.37 102.36 595.38 102.14 603.37 102.31C624.96 102.79 646.67 100.88 668.08 105.23C683.08 108.23 688.19 116.34 684.64 131.23C681.938 142.227 677.681 152.783 672 162.58C664.56 175.58 653.22 182.87 638.63 185.42C627.798 187.271 616.829 188.208 605.84 188.22C583.54 188.34 561.237 188.34 538.93 188.22C531.45 188.17 523.99 187.59 516.79 185.1C506.38 181.49 501.79 173.94 503.93 163.1C505.13 156.88 507.45 151 509.8 145.1C510.137 143.98 510.848 143.009 511.815 142.351C512.781 141.692 513.944 141.384 515.11 141.48C526.763 141.593 538.43 141.66 550.11 141.68C553.45 141.68 554.03 142.78 552.85 145.93C550.28 152.73 552.57 156.33 559.71 156.55C580.33 157.19 600.96 157.24 621.57 156.46C625.187 156.384 628.674 155.096 631.472 152.803C634.27 150.509 636.217 147.342 637 143.81C637.81 140.33 636.9 138.01 633.22 136.98C629.681 136.031 626.034 135.541 622.37 135.52C604.9 135.18 587.43 134.95 569.97 134.52C562.97 134.35 555.97 133.87 549.04 133.39C546.717 133.189 544.414 132.808 542.15 132.25C526.44 128.77 521.99 121.58 526.15 105.98C528.743 96.1733 532.545 86.7274 537.47 77.8599C548.55 57.9999 567.28 51.9099 588.3 50.9999C602.25 50.3099 616.24 50.8299 630.22 50.8299Z" fill="black"/>
<path d="M432.58 51.7601H489C494.832 51.6377 500.65 52.3688 506.27 53.9301C516.2 56.9301 521.71 65.0501 520.13 75.2201C517.69 90.8701 511.52 105.22 502.82 118.31C498.3 125.11 491.51 129.43 483.7 132.04C482.51 132.43 480.6 132.18 480.4 133.75C480.2 135.32 482.1 135.54 483.25 135.93C488.51 137.71 489.87 142.11 490.54 146.81C491.03 150.32 490.07 153.74 489.11 157.1C486.59 165.89 482.99 174.28 479.6 182.75C478.54 185.37 476.82 186.69 473.91 186.65C462.76 186.49 451.62 186.35 440.47 186.33C436.24 186.33 436.34 184.46 437.6 181.33C439.87 175.63 442.12 169.89 443.82 164.01C446.17 155.89 443.73 152.64 435.39 152.51C415.09 152.19 394.79 152.09 374.5 151.79C370.64 151.73 368.5 153.04 367.19 156.9C364.14 165.67 360.48 174.22 357.09 182.9C356.09 185.41 354.76 186.9 351.6 186.82C340.45 186.53 329.3 186.51 318.15 186.51C314.79 186.51 313.67 185.75 315.09 182.14C331.697 139.913 348.18 97.6767 364.54 55.4301C365.9 51.9301 368.2 51.7301 371.18 51.7401C391.653 51.7801 412.12 51.7867 432.58 51.7601ZM419.08 117.43V117.5C423.73 117.5 428.38 117.5 433.03 117.5C437.68 117.5 442.33 117.5 447.03 117.5C461.58 117.34 465.03 114.99 470.57 101.5C475.1 90.5001 472.71 86.7801 460.83 86.7301C440.73 86.6501 420.63 86.8301 400.54 86.5501C395.99 86.4901 393.92 88.4101 392.49 92.2201C389.863 99.1867 387.133 106.117 384.3 113.01C383.03 116.11 383.45 117.56 387.24 117.51C397.82 117.34 408.45 117.43 419.08 117.43Z" fill="black"/>
<path d="M33.9402 85.9399C34.2302 88.6299 32.6402 90.1099 31.5902 91.6799C20.3502 108.49 33.2802 130.68 47.7902 135.68C61.2602 140.31 75.0102 139.82 88.7402 137.81C118.58 133.43 147.43 124.58 176.79 117.99C195.61 113.75 214.5 109.76 233.93 109.74C258.63 109.74 280.01 118.62 298.93 134.06C299.316 134.383 299.653 134.76 299.93 135.18C300.109 135.609 300.233 136.06 300.3 136.52C296.5 136.29 293.41 134.32 290.24 133.05C259.82 120.82 228.91 120.05 197.24 127.45C166.62 134.59 136.56 143.88 105.85 150.62C90.3102 154.03 74.6302 156.04 58.8502 153.56C40.6002 150.69 25.9202 141.98 17.7402 124.8C10.8002 110.45 19.3702 90.3399 33.9402 85.9399Z" fill="black"/>
<path d="M298.1 153.71C289.575 151.654 280.923 150.167 272.2 149.26C231.51 145.71 192.2 150.99 154.38 166.72C137.45 173.72 120.46 180.57 102.09 182.87C73.7901 186.43 48.0901 181.04 26.8701 160.66C20.6522 154.856 15.9018 147.659 13.0101 139.66C12.7101 138.81 12.0101 137.85 12.9101 136.87C14.3801 136.94 14.7301 138.23 15.2601 139.17C23.6701 153.96 37.2601 161.29 53.0901 165.35C76.6601 171.4 99.6801 167.35 122.58 161.47C146.92 155.25 170.32 145.86 194.73 139.84C213.63 135.18 232.73 132.49 252.05 136.55C267.74 139.85 282.55 145.92 297.44 151.68C297.881 151.883 298.306 152.12 298.71 152.39L298.1 153.71Z" fill="black"/>
<path d="M114.78 85.1901C109.64 86.8301 104.5 88.4767 99.3599 90.1301C98.0899 90.5501 96.8499 91.0301 95.6299 91.5501C94.1299 92.1701 92.9699 93.1701 93.3899 94.9501C93.8799 97.0701 95.6599 96.5601 97.0599 96.3001C103.93 95.0101 110.78 93.6401 117.63 92.3001C119.88 91.6873 122.231 91.5377 124.54 91.8601C124.06 94.0001 122.33 94.0701 121.02 94.4901C115.96 96.1101 110.87 97.6567 105.75 99.1301C99.3999 100.96 93.2999 102.67 88.0899 107.55C86.7729 108.844 85.1703 109.811 83.4112 110.373C81.6521 110.934 79.7856 111.075 77.9623 110.783C76.1389 110.491 74.4097 109.775 72.9137 108.692C71.4178 107.61 70.1971 106.191 69.3499 104.55C68.9199 103.69 68.0699 102.76 68.8399 101.85C69.6099 100.94 70.6799 101.66 71.5499 102.06C72.4199 102.46 73.2999 103.06 74.2099 103.44C76.0776 104.392 78.2375 104.597 80.2508 104.014C82.2642 103.43 83.9801 102.103 85.0499 100.3C86.1173 98.596 86.5331 96.5636 86.2207 94.5773C85.9084 92.5909 84.8889 90.7843 83.3499 89.4901C78.1199 84.8901 72.4899 85.4101 66.6099 88.1401C61.0799 90.7001 57.2299 94.4201 57.1499 100.93C57.0199 112.38 64.8499 120.5 76.2899 120.66C90.2899 120.86 103.48 116.27 116.81 112.83C142.81 106.14 168.81 100 195.95 100.77C197.44 100.77 198.95 100.84 200.42 100.99C200.83 100.99 201.2 101.46 201.57 101.7C201.19 103.42 199.76 103.13 198.76 103.3C165.332 109.164 132.257 116.889 99.6899 126.44C88.6899 129.63 77.4199 132.01 65.7799 131.66C50.6899 131.21 41.6499 123.05 40.2099 108.47C38.7999 94.1601 46.8799 83.0001 60.7399 79.6701C71.1299 77.2001 80.9199 77.0901 88.9999 85.5801C90.9999 87.7601 93.5399 87.1101 95.9999 86.6401C102.14 85.4601 108.22 83.7601 114.54 83.8901L114.78 85.1901Z" fill="black"/>
<path d="M914.84 74.9996C914.877 69.2936 917.172 63.8345 921.224 59.8166C925.276 55.7986 930.754 53.5489 936.46 53.5596C949.05 53.5596 958.56 63.3196 958.46 76.1996C958.46 86.3396 947.22 96.8796 936.56 96.8296C925.41 96.7696 914.87 86.1996 914.84 74.9996ZM935.56 91.7496C944.99 91.7496 953.75 83.4096 953.84 74.3096C953.92 65.8396 945.91 57.9196 937.24 57.8596C928.32 57.8596 920.12 65.6796 920.03 74.3796C919.93 83.7496 927.07 91.7296 935.56 91.7496V91.7496Z" fill="black"/>
<path d="M936.93 62.7897C939.476 62.6504 941.987 63.4352 944 64.9997C947.11 67.4797 948.35 70.4597 945.42 73.8997C943.35 76.3497 942.07 78.8097 943.9 81.9597C944.48 82.9597 945.12 84.2497 943.68 84.9597C942.24 85.6697 941.14 84.5297 940.47 83.3797C939.8 82.2297 939.31 80.6397 938.63 79.3797C938.376 78.7598 937.935 78.2342 937.369 77.8759C936.803 77.5176 936.139 77.3442 935.47 77.3797C933.81 77.4797 933.4 78.7297 933.16 80.1197C932.84 81.9397 933.39 84.6897 930.34 84.3097C927.63 83.9697 928.15 81.4197 928.1 79.5097C928.01 76.5097 927.95 73.5697 928.1 70.5997C928.3 64.6897 930.65 62.5997 936.93 62.7897ZM938.93 72.8497C940.21 72.2097 943.46 73.7097 943.2 70.1697C942.99 67.1697 940.39 66.1697 937.77 66.1697C935.56 66.1697 933.23 67.0697 933.29 69.7897C933.39 73.1397 936.15 72.8197 939 72.8497H938.93Z" fill="black"/>
<path d="M55.4375 252.5V255.469H41.1875V281H37.625V255.469H23.375V252.5H55.4375ZM102.576 251.906C104.753 251.906 106.584 252.042 108.068 252.314C109.565 252.574 110.796 252.976 111.761 253.521C112.725 254.052 113.468 254.727 113.987 255.543C114.507 256.359 114.884 257.318 115.119 258.419C115.366 259.52 115.509 260.763 115.546 262.148C115.595 263.534 115.62 265.068 115.62 266.75C115.62 268.432 115.595 269.966 115.546 271.352C115.509 272.737 115.366 273.98 115.119 275.081C114.884 276.182 114.507 277.141 113.987 277.957C113.468 278.773 112.725 279.454 111.761 279.998C110.796 280.53 109.565 280.926 108.068 281.186C106.584 281.458 104.753 281.594 102.576 281.594H91.8514C89.6744 281.594 87.8375 281.458 86.3407 281.186C84.8563 280.926 83.6317 280.53 82.6669 279.998C81.702 279.454 80.9537 278.773 80.4218 277.957C79.9022 277.141 79.5188 276.182 79.2714 275.081C79.0363 273.98 78.9003 272.737 78.8632 271.352C78.8261 269.966 78.8075 268.432 78.8075 266.75C78.8075 265.068 78.8261 263.534 78.8632 262.148C78.9003 260.763 79.0363 259.52 79.2714 258.419C79.5188 257.318 79.9022 256.359 80.4218 255.543C80.9537 254.727 81.702 254.052 82.6669 253.521C83.6317 252.976 84.8563 252.574 86.3407 252.314C87.8375 252.042 89.6744 251.906 91.8514 251.906H102.576ZM102.576 278.625C104.147 278.625 105.471 278.582 106.547 278.495C107.635 278.396 108.532 278.204 109.237 277.92C109.942 277.635 110.487 277.227 110.87 276.695C111.253 276.163 111.532 275.458 111.705 274.58C111.878 273.702 111.977 272.626 112.002 271.352C112.039 270.065 112.058 268.531 112.058 266.75C112.058 264.969 112.039 263.441 112.002 262.167C111.977 260.881 111.878 259.798 111.705 258.92C111.532 258.042 111.253 257.337 110.87 256.805C110.487 256.273 109.942 255.865 109.237 255.58C108.544 255.296 107.654 255.11 106.565 255.023C105.489 254.924 104.159 254.875 102.576 254.875H91.8514C90.2681 254.875 88.9322 254.924 87.8436 255.023C86.7675 255.11 85.8768 255.296 85.1718 255.58C84.4667 255.865 83.9224 256.273 83.5389 256.805C83.1555 257.337 82.8772 258.042 82.704 258.92C82.5308 259.798 82.4319 260.881 82.4071 262.167C82.3824 263.441 82.37 264.969 82.37 266.75C82.37 268.531 82.3824 270.065 82.4071 271.352C82.4442 272.626 82.5494 273.702 82.7225 274.58C82.8957 275.458 83.1679 276.163 83.5389 276.695C83.9224 277.227 84.4667 277.635 85.1718 277.92C85.8768 278.204 86.7675 278.396 87.8436 278.495C88.9322 278.582 90.2681 278.625 91.8514 278.625H102.576ZM171.053 252.5V255.469H156.803V281H153.24V255.469H138.99V252.5H171.053ZM214.016 274.469H191.454L187.891 281H183.735L200.36 252.5H205.11L221.735 281H217.579L214.016 274.469ZM212.235 271.5L202.735 254.875L193.235 271.5H212.235ZM245.105 281V252.5H248.668V278.031H271.23V281H245.105ZM354.189 281H350.626V275.656C350.626 274.79 350.608 274.048 350.571 273.43C350.546 272.799 350.441 272.261 350.255 271.815C350.082 271.37 349.804 271.011 349.42 270.739C349.037 270.467 348.492 270.257 347.787 270.108C347.082 269.96 346.185 269.861 345.097 269.812C344.021 269.75 342.691 269.719 341.108 269.719H325.095V281H321.533V252.5H341.701C343.879 252.5 345.709 252.58 347.194 252.741C348.69 252.89 349.921 253.118 350.886 253.428C351.863 253.737 352.612 254.12 353.131 254.578C353.663 255.036 354.046 255.574 354.282 256.192C354.529 256.811 354.671 257.504 354.708 258.271C354.758 259.037 354.783 259.885 354.783 260.812C354.783 262 354.696 263.045 354.523 263.948C354.362 264.839 354.084 265.6 353.688 266.23C353.292 266.861 352.766 267.368 352.111 267.752C351.455 268.123 350.632 268.383 349.643 268.531C350.632 268.68 351.424 268.939 352.018 269.311C352.612 269.682 353.069 270.164 353.391 270.758C353.713 271.352 353.923 272.057 354.022 272.873C354.133 273.689 354.189 274.617 354.189 275.656V281ZM325.095 266.75H341.701C343.285 266.75 344.615 266.725 345.691 266.676C346.779 266.614 347.676 266.509 348.381 266.36C349.086 266.212 349.63 266.002 350.014 265.729C350.397 265.457 350.676 265.099 350.849 264.653C351.034 264.208 351.14 263.676 351.164 263.058C351.201 262.427 351.22 261.678 351.22 260.812C351.22 260.008 351.201 259.316 351.164 258.734C351.14 258.153 351.034 257.664 350.849 257.269C350.676 256.873 350.397 256.557 350.014 256.322C349.63 256.087 349.086 255.908 348.381 255.784C347.676 255.648 346.779 255.562 345.691 255.524C344.615 255.487 343.285 255.469 341.701 255.469H325.095V266.75ZM379.34 281V252.5H407.84V255.469H382.902V264.969H406.652V267.938H382.902V278.031H407.84V281H379.34ZM449.171 264.969C451.125 264.969 452.801 265.049 454.199 265.21C455.597 265.371 456.772 265.612 457.725 265.934C458.69 266.243 459.456 266.632 460.025 267.103C460.594 267.573 461.034 268.111 461.343 268.717C461.652 269.311 461.85 269.979 461.937 270.721C462.036 271.463 462.085 272.267 462.085 273.133C462.085 273.999 462.005 274.815 461.844 275.582C461.695 276.337 461.423 277.029 461.027 277.66C460.632 278.291 460.093 278.854 459.413 279.349C458.733 279.843 457.867 280.264 456.815 280.61C455.764 280.957 454.496 281.216 453.012 281.39C451.54 281.575 449.814 281.668 447.835 281.668H443.085C441.304 281.668 439.745 281.6 438.409 281.464C437.073 281.328 435.923 281.124 434.958 280.852C433.993 280.567 433.195 280.215 432.565 279.794C431.934 279.361 431.426 278.86 431.043 278.291C430.672 277.71 430.412 277.054 430.264 276.324C430.115 275.582 430.041 274.766 430.041 273.875H433.604C433.604 274.988 433.764 275.86 434.086 276.491C434.408 277.122 434.94 277.598 435.682 277.92C436.424 278.229 437.395 278.427 438.595 278.514C439.807 278.588 441.304 278.625 443.085 278.625H447.835C449.913 278.625 451.639 278.526 453.012 278.328C454.385 278.13 455.48 277.815 456.296 277.382C457.112 276.949 457.688 276.386 458.022 275.693C458.356 274.988 458.523 274.135 458.523 273.133C458.523 272.131 458.405 271.296 458.17 270.628C457.947 269.96 457.496 269.428 456.815 269.032C456.148 268.636 455.201 268.358 453.977 268.197C452.752 268.024 451.15 267.938 449.171 267.938H444.273C442.095 267.938 440.228 267.857 438.669 267.696C437.123 267.535 435.824 267.307 434.773 267.01C433.721 266.701 432.88 266.323 432.249 265.878C431.618 265.42 431.136 264.901 430.802 264.319C430.48 263.738 430.27 263.095 430.171 262.39C430.072 261.672 430.023 260.899 430.023 260.07C430.023 259.204 430.097 258.4 430.245 257.658C430.406 256.916 430.697 256.248 431.117 255.654C431.538 255.048 432.113 254.51 432.843 254.04C433.573 253.57 434.507 253.18 435.645 252.871C436.795 252.549 438.174 252.308 439.782 252.147C441.39 251.987 443.283 251.906 445.46 251.906H449.023C450.804 251.906 452.362 251.974 453.698 252.11C455.034 252.234 456.185 252.438 457.149 252.723C458.114 252.995 458.912 253.341 459.543 253.762C460.186 254.17 460.693 254.665 461.065 255.246C461.448 255.815 461.714 256.465 461.862 257.194C462.011 257.924 462.085 258.734 462.085 259.625H458.523C458.523 258.512 458.362 257.64 458.04 257.009C457.718 256.378 457.187 255.908 456.444 255.599C455.702 255.277 454.725 255.079 453.513 255.005C452.301 254.918 450.804 254.875 449.023 254.875H445.46C443.085 254.875 441.131 254.962 439.597 255.135C438.063 255.296 436.851 255.574 435.96 255.97C435.069 256.366 434.451 256.897 434.105 257.565C433.758 258.233 433.585 259.068 433.585 260.07C433.585 260.689 433.628 261.239 433.715 261.722C433.801 262.204 433.975 262.631 434.234 263.002C434.507 263.361 434.884 263.664 435.366 263.911C435.849 264.159 436.486 264.363 437.277 264.523C438.069 264.684 439.034 264.802 440.172 264.876C441.322 264.938 442.689 264.969 444.273 264.969H449.171ZM486.643 252.5H508.055C509.824 252.5 511.314 252.58 512.526 252.741C513.751 252.89 514.759 253.118 515.551 253.428C516.342 253.737 516.949 254.12 517.369 254.578C517.802 255.036 518.117 255.574 518.315 256.192C518.513 256.811 518.625 257.504 518.649 258.271C518.686 259.037 518.705 259.885 518.705 260.812C518.705 261.777 518.68 262.668 518.631 263.484C518.594 264.301 518.451 265.043 518.204 265.711C517.969 266.367 517.586 266.948 517.054 267.455C516.534 267.95 515.786 268.364 514.809 268.698C513.844 269.032 512.613 269.286 511.116 269.459C509.632 269.632 507.801 269.719 505.624 269.719H490.205V281H486.643V252.5ZM490.205 266.75H505.624C507.207 266.75 508.537 266.725 509.613 266.676C510.702 266.614 511.599 266.509 512.304 266.36C513.009 266.212 513.553 266.002 513.936 265.729C514.32 265.457 514.598 265.099 514.771 264.653C514.957 264.208 515.062 263.676 515.087 263.058C515.124 262.427 515.143 261.678 515.143 260.812C515.143 260.008 515.124 259.316 515.087 258.734C515.062 258.153 514.957 257.664 514.771 257.269C514.598 256.873 514.32 256.557 513.936 256.322C513.553 256.087 513.009 255.908 512.304 255.784C511.599 255.648 510.702 255.562 509.613 255.524C508.537 255.487 507.207 255.469 505.624 255.469H490.205V266.75ZM542.075 252.5H545.638V281H542.075V252.5ZM604.039 281H600.476V275.656C600.476 274.79 600.458 274.048 600.421 273.43C600.396 272.799 600.291 272.261 600.105 271.815C599.932 271.37 599.654 271.011 599.27 270.739C598.887 270.467 598.342 270.257 597.637 270.108C596.932 269.96 596.036 269.861 594.947 269.812C593.871 269.75 592.541 269.719 590.958 269.719H574.945V281H571.383V252.5H591.551C593.729 252.5 595.559 252.58 597.044 252.741C598.54 252.89 599.771 253.118 600.736 253.428C601.713 253.737 602.462 254.12 602.981 254.578C603.513 255.036 603.897 255.574 604.132 256.192C604.379 256.811 604.521 257.504 604.558 258.271C604.608 259.037 604.633 259.885 604.633 260.812C604.633 262 604.546 263.045 604.373 263.948C604.212 264.839 603.934 265.6 603.538 266.23C603.142 266.861 602.616 267.368 601.961 267.752C601.305 268.123 600.482 268.383 599.493 268.531C600.482 268.68 601.274 268.939 601.868 269.311C602.462 269.682 602.919 270.164 603.241 270.758C603.563 271.352 603.773 272.057 603.872 272.873C603.983 273.689 604.039 274.617 604.039 275.656V281ZM574.945 266.75H591.551C593.135 266.75 594.465 266.725 595.541 266.676C596.629 266.614 597.526 266.509 598.231 266.36C598.936 266.212 599.48 266.002 599.864 265.729C600.247 265.457 600.526 265.099 600.699 264.653C600.884 264.208 600.99 263.676 601.014 263.058C601.051 262.427 601.07 261.678 601.07 260.812C601.07 260.008 601.051 259.316 601.014 258.734C600.99 258.153 600.884 257.664 600.699 257.269C600.526 256.873 600.247 256.557 599.864 256.322C599.48 256.087 598.936 255.908 598.231 255.784C597.526 255.648 596.629 255.562 595.541 255.524C594.465 255.487 593.135 255.469 591.551 255.469H574.945V266.75ZM657.096 274.469H634.534L630.971 281H626.815L643.44 252.5H648.19L664.815 281H660.659L657.096 274.469ZM655.315 271.5L645.815 254.875L636.315 271.5H655.315ZM719.06 252.5V255.469H704.81V281H701.247V255.469H686.997V252.5H719.06ZM766.199 251.906C768.376 251.906 770.206 252.042 771.691 252.314C773.187 252.574 774.418 252.976 775.383 253.521C776.348 254.052 777.09 254.727 777.61 255.543C778.129 256.359 778.506 257.318 778.742 258.419C778.989 259.52 779.131 260.763 779.168 262.148C779.218 263.534 779.242 265.068 779.242 266.75C779.242 268.432 779.218 269.966 779.168 271.352C779.131 272.737 778.989 273.98 778.742 275.081C778.506 276.182 778.129 277.141 777.61 277.957C777.09 278.773 776.348 279.454 775.383 279.998C774.418 280.53 773.187 280.926 771.691 281.186C770.206 281.458 768.376 281.594 766.199 281.594H755.474C753.297 281.594 751.46 281.458 749.963 281.186C748.479 280.926 747.254 280.53 746.289 279.998C745.325 279.454 744.576 278.773 744.044 277.957C743.525 277.141 743.141 276.182 742.894 275.081C742.659 273.98 742.523 272.737 742.486 271.352C742.449 269.966 742.43 268.432 742.43 266.75C742.43 265.068 742.449 263.534 742.486 262.148C742.523 260.763 742.659 259.52 742.894 258.419C743.141 257.318 743.525 256.359 744.044 255.543C744.576 254.727 745.325 254.052 746.289 253.521C747.254 252.976 748.479 252.574 749.963 252.314C751.46 252.042 753.297 251.906 755.474 251.906H766.199ZM766.199 278.625C767.77 278.625 769.093 278.582 770.169 278.495C771.258 278.396 772.155 278.204 772.86 277.92C773.565 277.635 774.109 277.227 774.492 276.695C774.876 276.163 775.154 275.458 775.327 274.58C775.501 273.702 775.6 272.626 775.624 271.352C775.661 270.065 775.68 268.531 775.68 266.75C775.68 264.969 775.661 263.441 775.624 262.167C775.6 260.881 775.501 259.798 775.327 258.92C775.154 258.042 774.876 257.337 774.492 256.805C774.109 256.273 773.565 255.865 772.86 255.58C772.167 255.296 771.276 255.11 770.188 255.023C769.112 254.924 767.782 254.875 766.199 254.875H755.474C753.891 254.875 752.555 254.924 751.466 255.023C750.39 255.11 749.499 255.296 748.794 255.58C748.089 255.865 747.545 256.273 747.161 256.805C746.778 257.337 746.5 258.042 746.326 258.92C746.153 259.798 746.054 260.881 746.03 262.167C746.005 263.441 745.992 264.969 745.992 266.75C745.992 268.531 746.005 270.065 746.03 271.352C746.067 272.626 746.172 273.702 746.345 274.58C746.518 275.458 746.79 276.163 747.161 276.695C747.545 277.227 748.089 277.635 748.794 277.92C749.499 278.204 750.39 278.396 751.466 278.495C752.555 278.582 753.891 278.625 755.474 278.625H766.199ZM836.456 281H832.894V275.656C832.894 274.79 832.875 274.048 832.838 273.43C832.813 272.799 832.708 272.261 832.523 271.815C832.349 271.37 832.071 271.011 831.688 270.739C831.304 270.467 830.76 270.257 830.055 270.108C829.35 269.96 828.453 269.861 827.364 269.812C826.288 269.75 824.959 269.719 823.375 269.719H807.362V281H803.8V252.5H823.969C826.146 252.5 827.977 252.58 829.461 252.741C830.958 252.89 832.189 253.118 833.154 253.428C834.131 253.737 834.879 254.12 835.399 254.578C835.931 255.036 836.314 255.574 836.549 256.192C836.796 256.811 836.939 257.504 836.976 258.271C837.025 259.037 837.05 259.885 837.05 260.812C837.05 262 836.963 263.045 836.79 263.948C836.629 264.839 836.351 265.6 835.955 266.23C835.559 266.861 835.034 267.368 834.378 267.752C833.723 268.123 832.9 268.383 831.91 268.531C832.9 268.68 833.692 268.939 834.285 269.311C834.879 269.682 835.337 270.164 835.658 270.758C835.98 271.352 836.19 272.057 836.289 272.873C836.401 273.689 836.456 274.617 836.456 275.656V281ZM807.362 266.75H823.969C825.552 266.75 826.882 266.725 827.958 266.676C829.047 266.614 829.944 266.509 830.649 266.36C831.354 266.212 831.898 266.002 832.281 265.729C832.665 265.457 832.943 265.099 833.116 264.653C833.302 264.208 833.407 263.676 833.432 263.058C833.469 262.427 833.487 261.678 833.487 260.812C833.487 260.008 833.469 259.316 833.432 258.734C833.407 258.153 833.302 257.664 833.116 257.269C832.943 256.873 832.665 256.557 832.281 256.322C831.898 256.087 831.354 255.908 830.649 255.784C829.944 255.648 829.047 255.562 827.958 255.524C826.882 255.487 825.552 255.469 823.969 255.469H807.362V266.75ZM860.42 252.5H865.17L878.233 266.453L891.295 252.5H896.045L880.014 269.125V281H876.451V269.125L860.42 252.5Z" fill="black"/>
</svg>
