<svg width="601" height="147" viewBox="0 0 601 147" fill="none" xmlns="http://www.w3.org/2000/svg">
<g clip-path="url(#clip0_448_750)">
<path d="M126.1 2.60001L135.3 108.4H104L97.6 44.4L82.6 108.4H53.4L38.2 43.2L31.8 108.4H0.5L11.2 2.60001H55.2L67.9 57.7L82.5 2.60001H126.1ZM265.3 68.6V2.60001H235.4V77.4C235.4 91.7 242.9 108.4 264.2 108.4H293.3V81.6H279.5C266.3 81.6 265.3 76.7 265.3 68.6ZM588.7 108.4H552.4L533.5 80.6L514.6 108.4H497.4H478.3H452.4C431.9 108.4 401.5 91.6 401.5 55.4C401.5 19.3 431.8 2.60001 452.4 2.60001H480.4H497.4H514.6L533.5 29.5L552.3 2.60001H586.5L551.1 54.7L588.7 108.4ZM515.9 54.6L496.9 26.7H464.8C448.5 26.7 438.6 31.6 435.6 41.3L434.6 44.4H471.3V65.6H434.3L435.6 68.9C438.2 75.8 443.9 83.7 464.8 83.7H495.5L515.9 54.6ZM593.4 14.8C596.6 14.8 599.1 12.3 599.1 9.10001C599.1 5.90001 596.5 3.39999 593.4 3.39999C590.2 3.39999 587.7 6.00001 587.7 9.10001C587.7 12.3 590.2 14.8 593.4 14.8ZM593.4 16.2C589.5 16.2 586.3 13 586.3 9.10001C586.3 5.20001 589.5 2 593.4 2C597.3 2 600.5 5.20001 600.5 9.10001C600.5 13 597.3 16.2 593.4 16.2ZM596.9 12.9H595.2L593.5 9.70001H592V12.9H590.5V5.3H594.2C594.8 5.3 595.7 5.30001 596.3 5.60001C597 6.00001 597.2 6.80001 597.2 7.60001C597.2 9.00001 596.5 9.60001 595.1 9.70001L596.9 12.9ZM594.2 8.5C595 8.5 595.6 8.3 595.6 7.3C595.6 6.3 594.5 6.3 593.8 6.3H592V8.5H594.2Z" fill="#6480AE"/>
<path d="M183.5 0.899902C150.9 0.899902 129 29.1999 129 55.6999C129 69.5999 134.5 83.3999 144 93.5999C154.2 104.4 168.2 110.4 183.5 110.4C218.9 110.4 238 82.1999 238 55.6999C238 29.3999 217.1 0.899902 183.5 0.899902ZM183.5 80.1999C169.8 80.1999 159.2 69.3999 159.2 55.6999C159.2 43.7999 168.5 30.9999 183.5 30.9999C196.6 30.9999 208.1 42.4999 208.1 55.6999C208.1 68.9999 196.8 80.1999 183.5 80.1999ZM355.4 2.59991C371.9 2.59991 384.4 8.0999 392.7 18.7999C401.6 30.2999 403.4 44.9999 403.4 55.2999C403.4 89.9999 384.4 108.4 348.6 108.4H301.1V81.0999H333.2H347.3C364.8 80.9999 373.7 71.4999 373.7 52.6999C373.7 46.2999 371.6 25.3999 344.2 25.3999H330.8V70.9999H301.1V2.69991H355.4V2.59991ZM241.3 119.2H244.8V145.6H241.3V119.2ZM268 119.2H264.9V129H264.8C263.4 126.7 260.6 126 258.6 126C252.8 126 249.9 130.5 249.9 135.9C249.9 141.3 252.8 145.9 258.7 145.9C261.3 145.9 263.8 145 264.8 142.9H264.9V145.5H268V119.2V119.2ZM259.1 143.3C255 143.3 253.2 139.8 253.2 136.2C253.2 132.5 254.6 128.8 258.9 128.8C263.2 128.8 264.9 132.3 264.9 136C264.9 139.7 263.3 143.3 259.1 143.3ZM286.7 139.5C286.1 142 284.3 143.2 281.7 143.2C277.5 143.2 275.7 140.3 275.8 136.9H290.1C290.3 132.3 288.2 126 281.5 126C276.3 126 272.5 130.2 272.5 135.9C272.7 141.7 275.6 145.9 281.7 145.9C286 145.9 289 143.6 289.9 139.4H286.7V139.5ZM275.8 134.2C276 131.3 278 128.8 281.3 128.8C284.4 128.8 286.7 131.2 286.8 134.2H275.8ZM311 143.1C310.6 143.2 310.3 143.3 310 143.3C309 143.3 309 142.6 309 141.2V131.4C309 126.9 305.3 126.2 301.8 126.2C297.6 126.2 293.9 127.9 293.7 132.6H296.8C297 129.8 298.9 129 301.6 129C303.6 129 305.9 129.4 305.9 132.2C305.9 134.6 302.9 134.3 299.5 135C296.3 135.6 293 136.5 293 140.9C293 144.7 295.8 146.3 299.3 146.3C302 146.3 304.3 145.4 306 143.4C306 145.5 307 146.3 308.7 146.3C309.7 146.3 310.4 146.1 311 145.8V143.1V143.1ZM305.9 139C305.9 140.7 304.2 143.3 300.1 143.3C298.2 143.3 296.4 142.6 296.4 140.5C296.4 138.2 298.2 137.4 300.2 137.1C302.3 136.7 304.7 136.7 305.9 135.8V139ZM313.5 139.6C313.7 144.3 317.3 146.1 321.6 146.1C325.5 146.1 329.7 144.6 329.7 140.1C329.7 136.4 326.6 135.4 323.4 134.7C320.5 134 317.2 133.6 317.2 131.4C317.2 129.5 319.4 129 321.3 129C323.4 129 325.5 129.8 325.7 132.2H328.8C328.5 127.5 325.2 126.2 321 126.2C317.7 126.2 313.9 127.8 313.9 131.6C313.9 135.3 317 136.3 320.1 137C323.2 137.7 326.3 138.1 326.3 140.5C326.3 142.9 323.6 143.3 321.7 143.3C319.1 143.3 316.7 142.4 316.6 139.6H313.5ZM349.3 120.8H346.2V126.5H342.9V129.3H346.2V141.4C346.2 144.9 347.5 145.6 350.7 145.6H353.1V142.8H351.7C349.7 142.8 349.3 142.5 349.3 141.1V129.3H353.1V126.5H349.3V120.8ZM357.3 145.6H360.4V134.8C360.4 131.4 362.3 128.8 366.1 128.8C368.5 128.8 370 130.3 370 132.6V145.5H373.1V133C373.1 128.9 371.6 126 366.5 126C364.2 126 361.5 127 360.5 129.2H360.4V119.1H357.3V145.6V145.6ZM395.7 143.1C395.3 143.2 395 143.3 394.7 143.3C393.7 143.3 393.7 142.6 393.7 141.2V131.4C393.7 126.9 390 126.2 386.5 126.2C382.2 126.2 378.6 127.9 378.4 132.6H381.5C381.6 129.8 383.6 129 386.3 129C388.3 129 390.6 129.4 390.6 132.2C390.6 134.6 387.6 134.3 384.2 135C380.9 135.6 377.7 136.5 377.7 140.9C377.7 144.7 380.5 146.3 384 146.3C386.7 146.3 389 145.4 390.7 143.4C390.7 145.5 391.7 146.3 393.4 146.3C394.4 146.3 395.1 146.1 395.7 145.8V143.1V143.1ZM390.6 139C390.6 140.7 388.9 143.3 384.8 143.3C382.9 143.3 381.1 142.6 381.1 140.5C381.1 138.2 382.9 137.4 384.9 137.1C387 136.7 389.4 136.7 390.6 135.8V139ZM403.7 120.8H400.6V126.5H397.3V129.3H400.6V141.4C400.6 144.9 401.9 145.6 405.1 145.6H407.5V142.8H406C404 142.8 403.6 142.5 403.6 141.1V129.3H407.4V126.5H403.6V120.8H403.7ZM447.7 126.5H444.5L440.2 142.1H440.1L436.1 126.5H432.7L428.9 142.1H428.8L424.5 126.5H421L427.1 145.6H430.5L434.3 130.4H434.4L438.3 145.6H441.6L447.7 126.5ZM464.2 139.5C463.6 142 461.8 143.2 459.2 143.2C455 143.2 453.1 140.3 453.3 136.9H467.6C467.8 132.3 465.7 126 459 126C453.8 126 450 130.2 450 135.9C450.2 141.7 453.1 145.9 459.2 145.9C463.5 145.9 466.5 143.6 467.4 139.4H464.2V139.5ZM453.4 134.2C453.6 131.3 455.6 128.8 458.9 128.8C462 128.8 464.3 131.2 464.4 134.2H453.4ZM488.6 143.1C488.2 143.2 487.9 143.3 487.6 143.3C486.6 143.3 486.6 142.6 486.6 141.2V131.4C486.6 126.9 482.9 126.2 479.4 126.2C475.1 126.2 471.5 127.9 471.3 132.6H474.4C474.6 129.8 476.5 129 479.2 129C481.2 129 483.5 129.4 483.5 132.2C483.5 134.6 480.5 134.3 477.1 135C473.8 135.6 470.6 136.5 470.6 140.9C470.6 144.7 473.4 146.3 476.9 146.3C479.6 146.3 481.9 145.4 483.6 143.4C483.6 145.5 484.6 146.3 486.3 146.3C487.3 146.3 488 146.1 488.6 145.8V143.1V143.1ZM483.4 139C483.4 140.7 481.7 143.3 477.6 143.3C475.7 143.3 473.9 142.6 473.9 140.5C473.9 138.2 475.7 137.4 477.7 137.1C479.8 136.7 482.2 136.7 483.4 135.8V139ZM492.3 145.6H495.4V137.1C495.4 132.3 497.3 129.4 502.3 129.4V126.1C498.9 126 496.8 127.5 495.3 130.6H495.2V126.6H492.2V145.6H492.3ZM541.4 126.5H538.1L533.8 142.1L529.8 126.5H526.4L522.6 142.1H522.5L518.2 126.5H514.7L520.8 145.6H524.2L528 130.4H528.1L532 145.6H535.3L541.4 126.5ZM558 139.5C557.4 142 555.6 143.2 553 143.2C548.8 143.2 546.9 140.3 547.1 136.9H561.4C561.6 132.3 559.5 126 552.8 126C547.6 126 543.8 130.2 543.8 135.9C544 141.7 546.9 145.9 553 145.9C557.3 145.9 560.3 143.6 561.2 139.4H558V139.5ZM547.1 134.2C547.3 131.3 549.3 128.8 552.6 128.8C555.7 128.8 558 131.2 558.1 134.2H547.1ZM565.7 145.6H568.8V119.2H565.7V145.6ZM575 145.6H578.1V119.2H575V145.6ZM584.5 145.6H588.6V141.5H584.5V145.6ZM583.3 123.2C583.3 125.2 585 126.9 587 126.9C589 126.9 590.7 125.3 590.7 123.2C590.7 121.2 589 119.5 587 119.5C584.9 119.5 583.3 121.2 583.3 123.2ZM589.9 123.2C589.9 124.9 588.6 126.2 586.9 126.2C585.2 126.2 583.9 124.9 583.9 123.2C583.9 121.5 585.2 120.2 586.9 120.2C588.6 120.2 589.9 121.5 589.9 123.2ZM587.8 123.5C588.5 123.5 588.9 123.2 588.9 122.4C588.9 122 588.8 121.6 588.4 121.4C588.1 121.2 587.7 121.2 587.3 121.2H585.4V125.2H586.2V123.5H587L587.9 125.2H588.8L587.8 123.5ZM586.2 122.9V121.8H587.2C587.6 121.8 588.1 121.8 588.1 122.3C588.1 122.8 587.8 122.9 587.4 122.9H586.2Z" fill="#6480AE"/>
</g>
<defs>
<clipPath id="clip0_448_750">
<rect width="600" height="145.4" fill="white" transform="translate(0.5 0.899902)"/>
</clipPath>
</defs>
</svg>
