<svg xmlns="http://www.w3.org/2000/svg" width="190" height="82.256"><g data-name="Group 56"><g data-name="Group 46" fill="#8fc547"><path data-name="Path 82" d="M.057 79.812l3.223-7.047a.586.586 0 01.567-.4h.045a.572.572 0 01.556.4L7.67 79.8a.6.6 0 01.057.223.431.431 0 01-.431.431.489.489 0 01-.442-.329l-.828-1.827H1.668l-.828 1.85a.446.446 0 01-.431.306.407.407 0 01-.409-.4.53.53 0 01.057-.242zm5.617-2.326l-1.827-4.062-1.826 4.062z"/><path data-name="Path 83" d="M9.305 72.506a.442.442 0 01.431-.442.447.447 0 01.442.442v7.511a.427.427 0 01-.41.442h-.021a.437.437 0 01-.442-.431v-7.522z"/><path data-name="Path 84" d="M13.548 80.095l-1.782-4.959a.818.818 0 01-.057-.238.432.432 0 01.442-.419.458.458 0 01.442.363l1.476 4.4 1.49-4.414a.448.448 0 01.431-.352h.045a.464.464 0 01.454.352l1.475 4.414 1.5-4.425a.429.429 0 01.419-.34.419.419 0 01.431.407.794.794 0 01-.057.238l-1.792 4.97a.521.521 0 01-.477.4h-.034a.489.489 0 01-.477-.4l-1.464-4.278-1.475 4.278a.489.489 0 01-.477.4h-.022a.521.521 0 01-.491-.397z"/><path data-name="Path 85" d="M21.185 78.699v-.023c0-1.237 1.021-1.895 2.508-1.895a6.206 6.206 0 011.8.25v-.2c0-1.055-.647-1.6-1.748-1.6a3.666 3.666 0 00-1.52.329.435.435 0 01-.159.034.388.388 0 01-.386-.372.4.4 0 01.238-.363 4.631 4.631 0 011.917-.4 2.572 2.572 0 011.895.647 2.317 2.317 0 01.6 1.713v3.211a.415.415 0 01-.4.431h-.022a.4.4 0 01-.419-.384v-.558a2.57 2.57 0 01-2.122 1.01 1.979 1.979 0 01-2.182-1.83zm4.32-.454v-.568a6.139 6.139 0 00-1.724-.25c-1.1 0-1.713.477-1.713 1.214v.023c0 .737.681 1.169 1.475 1.169a1.774 1.774 0 001.964-1.56v-.029z"/><path data-name="Path 86" d="M27.801 82.081a.4.4 0 01-.273-.372.379.379 0 01.372-.372.686.686 0 01.216.045 1.793 1.793 0 00.635.1c.545 0 .862-.328 1.18-1.043l.045-.091-2.451-5.2a.625.625 0 01-.057-.238.434.434 0 01.436-.431h.006a.462.462 0 01.442.34l2.042 4.607 1.816-4.618a.438.438 0 01.419-.329.431.431 0 01.431.43.717.717 0 01-.045.216l-2.292 5.469c-.511 1.214-1.078 1.657-1.963 1.657a2.757 2.757 0 01-.959-.17z"/><path data-name="Path 87" d="M34.088 79.777a.4.4 0 01-.159-.318.381.381 0 01.386-.372.354.354 0 01.215.068 3.291 3.291 0 001.862.624c.7 0 1.214-.363 1.214-.93v-.023c0-.59-.692-.819-1.464-1.032-.919-.261-1.94-.579-1.94-1.657v-.022a1.776 1.776 0 012-1.68 4.087 4.087 0 011.873.5.423.423 0 01.216.363.38.38 0 01-.386.372.435.435 0 01-.193-.045 3.179 3.179 0 00-1.532-.454c-.692 0-1.134.363-1.134.851v.022c0 .556.726.772 1.509 1.01.908.273 1.884.624 1.884 1.68v.022a1.847 1.847 0 01-2.086 1.759 4.052 4.052 0 01-2.265-.738z"/><path data-name="Path 88" d="M43.034 72.86a.45.45 0 11.9 0v7.151a.45.45 0 11-.9 0z"/><path data-name="Path 89" d="M45.654 74.921a.442.442 0 01.431-.442.436.436 0 01.442.429v.649a2.223 2.223 0 012.011-1.146 2.142 2.142 0 012.247 2.349v3.256a.433.433 0 01-.424.443h-.007a.437.437 0 01-.442-.431v-3.055a1.564 1.564 0 00-1.343-1.757 1.521 1.521 0 00-.279-.013 1.726 1.726 0 00-1.762 1.689v3.121a.427.427 0 01-.41.443h-.022a.437.437 0 01-.442-.431v-.013z"/><path data-name="Path 90" d="M52.372 74.921a.441.441 0 01.431-.442.436.436 0 01.442.429v.649a2.223 2.223 0 012.011-1.146 2.142 2.142 0 012.247 2.349v3.256a.434.434 0 01-.425.443h-.006a.437.437 0 01-.442-.431v-3.055a1.563 1.563 0 00-1.34-1.759 1.548 1.548 0 00-.287-.013 1.726 1.726 0 00-1.762 1.689v3.121a.427.427 0 01-.41.443h-.021a.437.437 0 01-.443-.431v-.013z"/><path data-name="Path 91" d="M58.75 77.497v-.025a3.037 3.037 0 013.009-3.064h.055a3.015 3.015 0 013.054 2.977v.087a3.046 3.046 0 01-3.028 3.064h-.047a3.006 3.006 0 01-3.043-2.968zm5.219 0v-.025a2.22 2.22 0 00-2.146-2.291h-.033a2.165 2.165 0 00-2.147 2.184v.107a2.2 2.2 0 002.12 2.28h.047a2.165 2.165 0 002.159-2.171.47.47 0 000-.084z"/><path data-name="Path 92" d="M68.306 80.496h-.041a.543.543 0 01-.5-.372l-2.2-4.97a.933.933 0 01-.057-.238.441.441 0 01.442-.43.447.447 0 01.442.34l1.9 4.584 1.929-4.607a.419.419 0 01.408-.317.431.431 0 01.431.43.6.6 0 01-.045.216l-2.212 4.991a.528.528 0 01-.497.373z"/><path data-name="Path 93" d="M71.823 78.699v-.023c0-1.237 1.021-1.895 2.508-1.895a6.23 6.23 0 011.8.25v-.2c0-1.055-.647-1.6-1.747-1.6a3.667 3.667 0 00-1.52.329.446.446 0 01-.159.034.387.387 0 01-.386-.372.4.4 0 01.238-.363 4.637 4.637 0 011.918-.4 2.572 2.572 0 011.9.647 2.317 2.317 0 01.6 1.713v3.211a.415.415 0 01-.4.431h-.022a.4.4 0 01-.419-.386v-.556a2.57 2.57 0 01-2.122 1.01 1.978 1.978 0 01-2.189-1.83zm4.32-.454v-.568a6.143 6.143 0 00-1.724-.25c-1.1 0-1.713.477-1.713 1.214v.023c0 .737.681 1.169 1.475 1.169a1.774 1.774 0 001.961-1.564z"/><path data-name="Path 94" d="M78.745 78.847v-3.54h-.477a.4.4 0 01-.386-.386.39.39 0 01.386-.386h.477v-1.388a.434.434 0 01.425-.442h.007a.451.451 0 01.442.442v1.385h1.52a.4.4 0 01.4.386.392.392 0 01-.4.386h-1.52v3.427a.868.868 0 00.987.976 2.434 2.434 0 00.533-.079.378.378 0 01.372.372.364.364 0 01-.25.34 2.191 2.191 0 01-.863.159 1.489 1.489 0 01-1.654-1.305 1.452 1.452 0 01.001-.347z"/><path data-name="Path 95" d="M82.842 72.697a.472.472 0 01.477-.466h.034a.475.475 0 01.519.427.323.323 0 010 .038v.149a.482.482 0 01-.5.467h-.024a.479.479 0 01-.509-.446v-.168zm.08 2.224a.442.442 0 01.431-.442.436.436 0 01.442.429v5.111a.427.427 0 01-.41.442h-.021a.436.436 0 01-.443-.429v-5.113z"/><path data-name="Path 96" d="M85.394 74.921a.442.442 0 01.431-.442.436.436 0 01.442.429v.649a2.223 2.223 0 012.011-1.146 2.142 2.142 0 012.247 2.349v3.256a.434.434 0 01-.425.443h-.006a.437.437 0 01-.442-.431v-3.055a1.563 1.563 0 00-1.343-1.757 1.522 1.522 0 00-.279-.013 1.726 1.726 0 00-1.762 1.689v3.121a.427.427 0 01-.41.443h-.022a.437.437 0 01-.442-.431v-.013z"/><path data-name="Path 97" d="M92.26 81.547a.406.406 0 01-.223-.363.417.417 0 01.4-.386.354.354 0 01.193.057 3.7 3.7 0 002.077.635 1.929 1.929 0 002.133-2.086v-.692a2.78 2.78 0 01-2.3 1.237 2.713 2.713 0 01-2.756-2.669v-.1a2.725 2.725 0 012.681-2.769h.075a2.75 2.75 0 012.292 1.181v-.67a.434.434 0 01.425-.442h.007a.447.447 0 01.442.442v4.459a2.829 2.829 0 01-.749 2.077 3.082 3.082 0 01-2.235.783 4.593 4.593 0 01-2.462-.694zm4.6-4.357v-.019a2.055 2.055 0 00-2.121-1.987h-.035a1.937 1.937 0 00-2.029 1.84v.157a1.986 1.986 0 001.974 2h.057a2.071 2.071 0 002.155-1.983z"/><path data-name="Path 98" d="M99.385 79.154a.521.521 0 01.533.51v.251a.528.528 0 01-.511.545h-.022a.531.531 0 01-.544-.517v-.255a.521.521 0 01.509-.533z"/><path data-name="Path 99" d="M104.725 72.868a.447.447 0 01.442-.442h.125a.549.549 0 01.454.261l4.822 6.15v-5.991a.448.448 0 01.442-.442.441.441 0 01.431.442v7.171a.4.4 0 01-.385.42h-.069a.614.614 0 01-.466-.272l-4.924-6.3v6.15a.446.446 0 01-.442.442.441.441 0 01-.431-.442z"/><path data-name="Path 100" d="M115.562 80.537a2.916 2.916 0 01-2.93-2.9v-.175a2.894 2.894 0 012.728-3.05h.086a2.762 2.762 0 012.732 2.793c0 .06 0 .121-.008.181a.406.406 0 01-.405.408h-4.25a2.049 2.049 0 002.065 1.986 2.4 2.4 0 001.691-.681.386.386 0 01.25-.1.381.381 0 01.386.372.374.374 0 01-.136.284 2.978 2.978 0 01-2.209.882zm1.736-3.393a1.931 1.931 0 00-1.865-2h-.008a2.024 2.024 0 00-1.906 2z"/><path data-name="Path 101" d="M121.576 80.496h-.045a.543.543 0 01-.5-.372l-2.2-4.97a.9.9 0 01-.057-.238.442.442 0 01.443-.43.447.447 0 01.442.34l1.895 4.584 1.929-4.607a.417.417 0 01.408-.317.431.431 0 01.431.43.6.6 0 01-.045.216l-2.212 4.991a.526.526 0 01-.489.373z"/><path data-name="Path 102" d="M127.886 80.537a2.916 2.916 0 01-2.93-2.9v-.175a2.894 2.894 0 012.728-3.05h.086a2.763 2.763 0 012.731 2.794c0 .06 0 .12-.008.18a.406.406 0 01-.405.408h-4.25a2.048 2.048 0 002.066 1.979 2.4 2.4 0 001.691-.681.377.377 0 01.635.27.369.369 0 01-.136.284 2.98 2.98 0 01-2.208.891zm1.736-3.393a1.931 1.931 0 00-1.865-2h-.007a2.023 2.023 0 00-1.906 2z"/><path data-name="Path 103" d="M131.812 74.921a.441.441 0 01.431-.442.436.436 0 01.442.429v1.114a2.429 2.429 0 012.02-1.566.421.421 0 01.432.408v.034a.433.433 0 01-.386.443 2.388 2.388 0 00-2.065 2.678v2a.433.433 0 01-.425.442h-.006a.437.437 0 01-.442-.431v-5.109z"/><path data-name="Path 104" d="M139.384 72.86a.45.45 0 11.9 0v7.151a.45.45 0 11-.9 0z"/><path data-name="Path 105" d="M141.869 74.922a.442.442 0 01.431-.443.436.436 0 01.443.429v.615a2.144 2.144 0 011.895-1.112 1.993 1.993 0 011.884 1.169 2.339 2.339 0 012.065-1.169 2.109 2.109 0 012.179 2.36v3.245a.433.433 0 01-.424.443h-.007a.437.437 0 01-.443-.431v-3.055c0-1.134-.568-1.77-1.52-1.77a1.634 1.634 0 00-1.621 1.648 1.582 1.582 0 00.01.168v3a.435.435 0 01-.428.443h-.014a.434.434 0 01-.431-.437v-3.07c0-1.1-.579-1.748-1.509-1.748a1.7 1.7 0 00-1.639 1.758c0 .031 0 .061.005.092v2.962a.427.427 0 01-.41.443h-.024a.437.437 0 01-.442-.431v-5.107z"/><path data-name="Path 106" d="M152.207 72.697a.473.473 0 01.478-.466h.033a.475.475 0 01.519.427.337.337 0 010 .038v.149a.482.482 0 01-.5.467h-.025a.479.479 0 01-.51-.445v-.169zm.08 2.224a.441.441 0 01.431-.442.436.436 0 01.442.429v5.111a.427.427 0 01-.41.442h-.021a.437.437 0 01-.442-.431v-5.111z"/><path data-name="Path 107" d="M155.385 78.847v-3.54h-.477a.4.4 0 01-.386-.386.39.39 0 01.386-.386h.477v-1.388a.434.434 0 01.424-.442h.007a.447.447 0 01.442.442v1.385h1.52a.4.4 0 01.4.386.392.392 0 01-.4.386h-1.52v3.427a.868.868 0 00.743.977.845.845 0 00.245 0 2.434 2.434 0 00.533-.079.378.378 0 01.372.372.363.363 0 01-.25.34 2.194 2.194 0 01-.863.159 1.489 1.489 0 01-1.654-1.3 1.462 1.462 0 01.001-.353z"/><path data-name="Path 108" d="M158.947 78.699v-.023c0-1.237 1.021-1.895 2.508-1.895a6.206 6.206 0 011.8.25v-.2c0-1.055-.646-1.6-1.747-1.6a3.667 3.667 0 00-1.52.329.435.435 0 01-.159.034.388.388 0 01-.386-.372.4.4 0 01.238-.363 4.631 4.631 0 011.917-.4 2.572 2.572 0 011.895.647 2.314 2.314 0 01.6 1.713v3.211a.415.415 0 01-.4.431h-.022a.4.4 0 01-.419-.386v-.556a2.571 2.571 0 01-2.121 1.009 1.976 1.976 0 01-2.184-1.829zm4.32-.454v-.568a6.143 6.143 0 00-1.724-.25c-1.1 0-1.713.477-1.713 1.214v.023c0 .737.681 1.169 1.475 1.169a1.773 1.773 0 001.962-1.562v-.027z"/><path data-name="Path 109" d="M166.032 78.847v-3.54h-.477a.4.4 0 01-.386-.386.39.39 0 01.386-.386h.477v-1.388a.434.434 0 01.425-.442h.007a.447.447 0 01.442.442v1.385h1.52a.4.4 0 01.4.386.392.392 0 01-.4.386h-1.52v3.427a.868.868 0 00.743.977.846.846 0 00.245 0 2.434 2.434 0 00.533-.079.378.378 0 01.372.372.363.363 0 01-.25.34 2.192 2.192 0 01-.863.159 1.489 1.489 0 01-1.654-1.3 1.466 1.466 0 010-.353z"/><path data-name="Path 110" d="M170.079 72.697a.472.472 0 01.478-.466h.033a.475.475 0 01.519.427.323.323 0 010 .038v.149a.482.482 0 01-.5.467h-.025a.479.479 0 01-.51-.445v-.169zm.08 2.224a.441.441 0 01.431-.442.436.436 0 01.442.429v5.111a.427.427 0 01-.41.442h-.021a.436.436 0 01-.443-.429v-5.113z"/><path data-name="Path 111" d="M172.591 74.921a.442.442 0 01.431-.442.436.436 0 01.443.429v.649a2.223 2.223 0 012.011-1.146 2.142 2.142 0 012.247 2.349v3.256a.433.433 0 01-.424.443h-.008a.437.437 0 01-.443-.431v-3.055a1.566 1.566 0 00-1.624-1.772 1.726 1.726 0 00-1.762 1.689v3.121a.427.427 0 01-.41.443h-.022a.437.437 0 01-.442-.431v-5.1z"/><path data-name="Path 112" d="M179.452 81.547a.4.4 0 01-.224-.363.417.417 0 01.4-.386.354.354 0 01.193.057 3.7 3.7 0 002.076.635 1.929 1.929 0 002.133-2.086v-.692a2.78 2.78 0 01-2.3 1.237 2.713 2.713 0 01-2.756-2.669v-.1a2.725 2.725 0 012.68-2.769h.076a2.75 2.75 0 012.292 1.181v-.67a.434.434 0 01.425-.442h.007a.447.447 0 01.442.442v4.459a2.829 2.829 0 01-.749 2.077 3.082 3.082 0 01-2.235.783 4.592 4.592 0 01-2.46-.694zm4.6-4.357v-.019a2.055 2.055 0 00-2.121-1.987h-.035a1.94 1.94 0 00-2.029 1.847v.149a1.987 1.987 0 001.975 2h.057a2.071 2.071 0 002.156-1.981v-.005z"/><path data-name="Path 113" d="M186.716 79.154a.521.521 0 01.533.51v.251a.528.528 0 01-.511.545h-.022a.531.531 0 01-.545-.517v-.255a.522.522 0 01.509-.533z"/></g><g data-name="Group 55"><g data-name="Group 51"><g data-name="Group 47"><path data-name="Path 114" d="M103.299 44.782a1.162 1.162 0 011.161 1.161v5.574a2.322 2.322 0 104.644 0v-5.574a5.81 5.81 0 00-5.8-5.8h-26.22a5.811 5.811 0 00-5.8 5.8v5.574a2.322 2.322 0 002.321 2.323 2.321 2.321 0 002.321-2.323v-5.574a1.163 1.163 0 011.161-1.161z" fill="#8fc547"/></g><g data-name="Group 50"><path data-name="Path 115" d="M90.189 0a2.322 2.322 0 00-2.322 2.321v32.744a2.322 2.322 0 004.644 0V2.319A2.321 2.321 0 0090.189 0z" fill="#8fc547"/><g data-name="Group 48"><path data-name="Path 116" d="M77.079 32.742a1.162 1.162 0 01-1.161-1.161v-9.142a2.321 2.321 0 00-4.643 0v9.14a5.81 5.81 0 005.8 5.81h1.33a5.81 5.81 0 005.806-5.81V6.574a2.322 2.322 0 00-4.644 0v25.005a1.161 1.161 0 01-1.161 1.161z" fill="#8fc547"/></g><g data-name="Group 49"><path data-name="Path 117" d="M101.964 32.742a1.163 1.163 0 01-1.161-1.161V6.574a2.321 2.321 0 10-4.641 0v25.005a5.811 5.811 0 005.8 5.8h1.33a5.81 5.81 0 005.8-5.8V15.507a2.322 2.322 0 00-2.322-2.322 2.323 2.323 0 00-2.322 2.322v16.072a1.161 1.161 0 01-1.161 1.161z" fill="#8fc547"/></g></g></g><g data-name="Group 54"><path data-name="Path 118" d="M27.327 64.34H2.463a2.322 2.322 0 010-4.644h24.864a1.162 1.162 0 001.161-1.161v-2.992a1.153 1.153 0 00-1.156-1.15H5.951A5.8 5.8 0 01.141 48.6v-2.658a5.811 5.811 0 015.8-5.8h24.865a2.321 2.321 0 110 4.643H5.942a1.161 1.161 0 00-1.16 1.16v2.658a1.153 1.153 0 001.156 1.15h21.383a5.8 5.8 0 015.81 5.792v2.991a5.81 5.81 0 01-5.804 5.804z" fill="#212020"/><path data-name="Path 119" d="M68.697 42.461a2.321 2.321 0 00-2.321-2.321 2.323 2.323 0 00-2.323 2.321v6.14a1.1 1.1 0 01-1.015 1.14H41.511a5.849 5.849 0 00-1.161.115v-7.4a2.321 2.321 0 00-4.643 0v19.558a2.321 2.321 0 002.321 2.321 2.322 2.322 0 002.322-2.321v-6.475a1.1 1.1 0 011.014-1.14h21.527a5.79 5.79 0 001.161-.118v7.73a2.322 2.322 0 004.644 0z" fill="#212020"/><g data-name="Group 52"><path data-name="Path 120" d="M77.079 59.652a1.162 1.162 0 01-1.161-1.161 2.321 2.321 0 00-2.321-2.321 2.321 2.321 0 00-2.322 2.32 5.81 5.81 0 005.8 5.8h26.22a5.81 5.81 0 005.8-5.8 2.322 2.322 0 00-4.644 0 1.161 1.161 0 01-1.161 1.161z" fill="#212020"/></g><path data-name="Path 121" d="M156.725 62.019a2.321 2.321 0 01-4.643 0V45.944a5.81 5.81 0 015.8-5.8h21.378a5.81 5.81 0 015.8 5.8V62.02a2.321 2.321 0 01-2.321 2.321 2.322 2.322 0 01-2.322-2.321v-7.731a5.774 5.774 0 01-1.16.118h-21.519a1.1 1.1 0 00-1.015 1.14zm23.7-16.076a1.162 1.162 0 00-1.16-1.161h-21.376a1.164 1.164 0 00-1.162 1.161v3.913a5.849 5.849 0 011.161-.115h21.525a1.1 1.1 0 001.014-1.14z" fill="#212020"/><path data-name="Path 122" d="M127.11 59.697a5.9 5.9 0 011.161.115V42.434a2.321 2.321 0 114.643 0v17.378a5.911 5.911 0 011.162-.115h9.625a1.161 1.161 0 001.16-1.161V42.461a2.322 2.322 0 014.644 0v16.075a5.809 5.809 0 01-5.8 5.8h-26.224a5.81 5.81 0 01-5.8-5.8V42.461a2.322 2.322 0 014.644 0v16.075a1.161 1.161 0 001.161 1.161z" fill="#212020"/><g data-name="Group 53"><path data-name="Path 123" d="M187.22 61.433h-.348a.161.161 0 110-.322h1.06a.161.161 0 010 .322h-.348v1.128a.182.182 0 01-.364 0zm1.18-.166a.175.175 0 01.173-.177h.045a.188.188 0 01.161.094l.422.691.431-.691a.167.167 0 01.156-.094h.042a.174.174 0 01.171.177v1.3a.172.172 0 01-.343 0v-.837l-.312.483a.164.164 0 01-.145.094.169.169 0 01-.149-.094l-.307-.473v.827a.172.172 0 01-.343 0z" fill="#212020"/></g></g></g></g></svg>