<?xml version="1.0" encoding="UTF-8" standalone="no"?>
<!-- Generator: Adobe Illustrator 12.0.0, SVG Export Plug-In . SVG Version: 6.00 Build 51448)  -->
<svg
   xmlns:dc="http://purl.org/dc/elements/1.1/"
   xmlns:cc="http://creativecommons.org/ns#"
   xmlns:rdf="http://www.w3.org/1999/02/22-rdf-syntax-ns#"
   xmlns:svg="http://www.w3.org/2000/svg"
   xmlns="http://www.w3.org/2000/svg"
   xmlns:sodipodi="http://sodipodi.sourceforge.net/DTD/sodipodi-0.dtd"
   xmlns:inkscape="http://www.inkscape.org/namespaces/inkscape"
   version="1.0"
   id="Layer_1"
   width="180"
   height="50"
   viewBox="0 0 175.748 45.375"
   overflow="visible"
   enable-background="new 0 0 175.748 45.375"
   xml:space="preserve"
   sodipodi:version="0.32"
   inkscape:version="0.46"
   sodipodi:docname="Logo_Vinci.svg"
   inkscape:output_extension="org.inkscape.output.svg.inkscape"
   style="overflow:visible"><metadata
   id="metadata22"><rdf:RDF><cc:Work
       rdf:about=""><dc:format>image/svg+xml</dc:format><dc:type
         rdf:resource="http://purl.org/dc/dcmitype/StillImage" /></cc:Work></rdf:RDF></metadata><defs
   id="defs20" /><sodipodi:namedview
   inkscape:window-height="531"
   inkscape:window-width="640"
   inkscape:pageshadow="2"
   inkscape:pageopacity="0.0"
   guidetolerance="10.0"
   gridtolerance="10.0"
   objecttolerance="10.0"
   borderopacity="1.0"
   bordercolor="#666666"
   pagecolor="#ffffff"
   id="base"
   showgrid="false"
   inkscape:zoom="3.1408608"
   inkscape:cx="102.92878"
   inkscape:cy="22.6875"
   inkscape:window-x="88"
   inkscape:window-y="116"
   inkscape:current-layer="Layer_1" />
<g
   id="g3"
   transform="matrix(0.9716994,0,0,0.9716994,2.486905,0.642085)">
	<path
   clip-rule="evenodd"
   d="M 77.833,16.851 L 77.833,31.09 C 77.833,31.09 83.017,32.377 91.136,32.377 C 99.2,32.377 104.439,31.096 104.439,31.096 L 104.439,26.262 C 104.439,26.262 98.808,27.366 91.082,27.366 C 87.334,27.366 84.848,26.926 83.514,26.788 C 83.508,25.629 83.517,22.334 83.514,21.158 C 85.009,21.01 87.522,20.578 91.137,20.578 C 98.658,20.605 104.44,21.725 104.44,21.725 L 104.44,16.852 C 104.44,16.852 99.279,15.568 91.137,15.568 C 82.934,15.567 77.833,16.851 77.833,16.851 L 77.833,16.851 z"
   id="path5"
   style="fill:#004990;fill-rule:evenodd" />
	<polygon
   clip-rule="evenodd"
   points="110.756,32.057 116.583,32.057 116.583,15.832 110.756,15.832 110.756,32.057 "
   id="polygon7"
   style="fill:#004990;fill-rule:evenodd" />
	<polygon
   clip-rule="evenodd"
   points="32.805,32.057 38.631,32.057 38.631,15.832 32.805,15.832 32.805,32.057 "
   id="polygon9"
   style="fill:#004990;fill-rule:evenodd" />
	<path
   clip-rule="evenodd"
   d="M 65.747,25.919 C 65.747,25.919 61.538,22.803 55.346,19.595 C 49.926,16.788 45.158,15.859 45.158,15.859 L 45.158,32.057 L 50.797,32.057 L 50.797,23.4 C 52.151,23.95 53.609,24.543 55.338,25.441 C 61.53,28.65 65.743,32.057 65.743,32.057 L 71.402,32.057 L 71.402,15.832 L 65.748,15.832 L 65.748,25.919 L 65.747,25.919 z"
   id="path11"
   style="fill:#004990;fill-rule:evenodd" />
	<path
   clip-rule="evenodd"
   d="M 14.462,25.278 C 13.161,24.062 4.326,15.555 4.326,15.555 L 0,19.497 L 14.462,32.49 L 28.917,19.506 L 24.603,15.555 C 24.603,15.555 15.769,24.062 14.462,25.278 L 14.462,25.278 z"
   id="path13"
   style="fill:#004990;fill-rule:evenodd" />
	<path
   clip-rule="evenodd"
   d="M 156.667,13.316 C 157.918,13.316 158.931,12.305 158.931,11.056 L 158.931,2.263 C 158.931,1.012 157.918,0 156.667,0 L 147.879,0 C 146.63,0 145.621,1.012 145.621,2.263 C 145.621,2.263 145.621,8.991 145.621,9.002 C 145.621,11.096 144.024,12.895 143.34,13.608 C 142.648,14.327 140.795,15.837 137.833,15.842 L 129.727,15.842 L 129.727,29.207 L 143.088,29.207 L 143.088,21.1 C 143.098,18.137 144.598,16.285 145.318,15.596 C 146.035,14.908 147.831,13.316 149.922,13.316 C 149.936,13.316 156.667,13.316 156.667,13.316 L 156.667,13.316 z"
   id="path15"
   style="fill:#ed1b2d;fill-rule:evenodd" />
	<path
   clip-rule="evenodd"
   d="M 173.508,17.48 C 172.121,16.082 170.186,15.234 168.04,15.234 C 163.645,15.234 160.14,18.811 160.14,23.082 C 160.14,23.865 160.479,25.339 160.479,25.97 C 160.479,29.335 157.755,32.057 154.395,32.057 L 147.879,32.057 C 146.63,32.057 145.621,33.071 145.621,34.321 L 145.621,43.113 C 145.621,44.363 146.63,45.376 147.879,45.376 L 156.667,45.376 C 157.918,45.376 158.931,44.363 158.931,43.113 C 158.931,39.803 158.931,36.593 158.931,36.593 C 158.931,33.233 161.657,30.507 165.018,30.507 C 165.646,30.507 167.123,30.846 167.907,30.846 C 172.176,30.846 175.749,27.344 175.749,22.951 C 175.748,20.801 174.884,18.885 173.508,17.48 L 173.508,17.48 z"
   id="path17"
   style="fill:#ed1b2d;fill-rule:evenodd" />
</g>
</svg>