<?xml version="1.0" encoding="utf-8"?>
<!-- Generator: Adobe Illustrator 18.1.1, SVG Export Plug-In . SVG Version: 6.00 Build 0)  -->
<svg width="200px" height="52px" version="1.1" xmlns="http://www.w3.org/2000/svg" xmlns:xlink="http://www.w3.org/1999/xlink" x="0px" y="0px"
	 viewBox="0 0 470.7 121.5" enable-background="new 0 0 470.7 121.5" xml:space="preserve">
<g id="Lager_1">
	<g>
		<path fill="#003976" d="M226.6,49.8l-0.8-0.5c-2.7,3.6-6.4,6.8-11.3,6.8c-2.8,0-5.3-1.1-7.6-2.9c0.3-2.1,0.5-4.6,0.5-6.1
			c0-4.1-1.1-8.8-5.9-8.8c-3.2,0-4.9,2.5-4.9,5.3c0,2.1,0.8,3.6,1.6,4.9c-0.7,9.9-12.7,29.5-24,29.5c-2.7,0-4-2-4-4.7
			c0-8.9,13.9-25.9,18.7-33.7l-11.6,0.4c-2.2,3.1-6.7,11.1-11.7,19.1c-7.3,11.6-13.1,17.6-18.4,17.6c-2.6,0-3.6-2.1-3.6-4.4
			c0-9.1,13.5-24.9,18.6-32.6l-11.5,0.4c-3.9,5.9-11.3,15.3-14.4,23.6c-0.7,0.7-1.4,1.4-2.1,2c-7.4,6.8-15,10.6-21,10.6
			c-6.2,0-9.9-4.3-9.9-10.5c0-1.3,0.2-2.6,0.5-3.9c7.6-1.6,31.2-6.2,31.2-16.7c0-4.3-3.7-6.8-9.9-6.8c-13.5,0-32.3,14.5-32.3,28.4
			c0,7.8,5.1,13.2,13.3,13.2c8,0,17.3-2.8,27.3-11.8c0.6-0.6,1.2-1.2,1.9-1.7c-0.3,1.3-0.5,2.6-0.5,3.8c0,5.1,2.5,9.1,7.9,9.1
			c8.7,0,15-6.9,19.7-13.9l0.2,0.2c-0.2,0.7-0.4,2-0.4,3.3c0,6,3.5,10.4,11.3,10.4c14.5,0,28.5-10.7,32.8-24.7
			c2.1,1.6,4.7,2.8,7.8,2.8C219.4,57.4,223.8,53.9,226.6,49.8z M123.8,39.7c1.7,0,2.9,0.9,2.9,2.8c0,7-10.5,15.9-22.3,18.3
			C106.3,53.5,116.6,39.7,123.8,39.7z"/>
		<path fill="#003976" d="M128.9,7.4c5.5,0,8.5,3.3,8.5,6.9c0,4.8-3,7.3-6.8,8.1v0.7c6.2-0.2,13.3-5,13.3-12.2
			c0-5.7-4.3-9.1-10.5-9.1c-22.4,0-42.2,43.3-49.2,60.6h-0.2c0.2-1.5,0.3-3.1,0.3-4.7c0-8.8-1.5-17-3-24.9C79.5,24.8,78,17.2,78,9.9
			c0-7.3,1.6-7.9,1.6-9c0-0.5-0.3-0.9-1.1-0.9c-2.1,0-7.7,3.1-9.4,15l-3.9,8.2C56.6,41,40.1,77.4,16.8,77.4c-6,0-9.5-3.3-9-9.4
			c2.7-0.5,4.2-2.3,4.2-5.1c0-2.6-2.3-4.7-5.4-4.7c-4,0-6.6,3.3-6.6,7.6c0,8.3,7,13.5,14.8,13.5c27.7,0,44.3-41.2,54.3-61.8h0.2
			c0.4,18.6,7.5,36.4,7.5,55.3c0,2.5-0.3,5.1-0.5,7.6l1.5,0.2C92.9,41.6,111.1,7.4,128.9,7.4z"/>
		<path fill="#003976" d="M469.9,49.1c-3.9,5-9.3,11.3-15,16.6c-7.4,6.8-15,10.6-21,10.6c-6.2,0-9.9-4.3-9.9-10.5
			c0-1.3,0.2-2.6,0.5-3.9c7.6-1.6,31.2-6.2,31.2-16.7c0-4.3-3.7-6.8-9.9-6.8c-9.8,0-22.4,7.7-28.6,17.2c-1,0.3-2,0.5-3.2,0.5
			c-3,0-5.6-0.8-8.6-3.1c0.2-1.3,0.4-3.3,0.4-5.1c0.2-6.3-1.8-9.4-5.4-9.4c-3.1,0-5,2.5-5,4.9c0,1.5,0.3,3,0.9,4.2
			C396.3,59.1,384.4,78,373.5,78c-3.6,0-4.9-1.7-4.9-4.9c0-8.8,13.8-26,18.7-33.5l-11.8,0.4c-6.7,10.2-11.2,16.5-13.4,22
			c-1.3,1.5-2.7,2.9-4,4.3c-6.5,6.6-12.9,11.1-16.4,11.1c-1.6,0-2.7-0.8-2.7-2.7c0-7.7,15.4-26.9,19.4-34.6l-11.3,0.7l-2.7,4.3
			c-1.8-4.6-4.6-6.7-9.5-6.7c-13.4,0-30.7,15.7-30.7,29.8c0,6.1,2.6,11.8,9.6,11.8c6.4,0,12.2-4,16.7-9h0.2
			c-0.3,0.5-0.4,1.7-0.4,2.8c0,3.5,2.7,6.2,7.3,6.2c6.6,0,13.4-4.9,20.3-11.8c1.2-1.2,2.3-2.4,3.4-3.5c-0.4,1.4-0.5,2.7-0.5,4.1
			c0,7.8,5.4,10.6,12.5,10.6c14.7,0,28.6-11.4,32.1-25c2.6,1.8,5.6,3,8.7,3c0.8,0,1.7-0.1,2.5-0.3c-1.8,3.1-2.8,6.4-2.8,9.7
			c0,7.8,5.1,13.2,13.3,13.2c8,0,17.3-2.8,27.3-11.8c7-6.4,11.9-12.4,16.4-18.3L469.9,49.1z M320.1,76.3c-4.4,0-5.4-3.7-5.4-7.8
			c0-8.8,11.3-28.8,21.2-28.8c4.1,0,5.3,2.3,5.3,6.2C341.3,54,329.3,75.6,320.1,76.3z M444.2,39.7c1.7,0,2.9,0.9,2.9,2.8
			c0,7-10.5,15.9-22.3,18.3C426.7,53.5,437,39.7,444.2,39.7z"/>
		<path fill="#003976" d="M330.9,9.9c0-4.2-1.8-8.1-6.5-8.1c-3.4,0-5.6,2.7-5.6,6c0,2.1,1.4,3.7,3.3,4.6
			c-1.2,24.9-33.9,50.6-54.7,61.9l-0.2-0.2c16.3-21.7,13.8-47.5,24.9-61.4c3.1-3.9,9.1-7,9.1-9.1c0-1.1-0.5-1.6-1.6-1.6
			c-2.8,0-14.4,7.3-19.8,17.6c-1.5,2.8-3.3,7.3-5.4,10.2c-6.9,9.3-22.2,25.8-38.1,39.6l-0.2-0.2c13.9-19.4,15.5-58.2,33.4-66.9
			l-0.4-0.9c-29.3,10.8-58.5,12.6-58.5,31.5c0,6.4,5.6,10.5,11.6,10.5c10.5,0,13.8-8.2,13.8-17.1h-1.3c0,9.1-3.1,15.2-10.4,15.2
			c-4.4,0-7.4-3.9-7.4-8.1c0-17.3,29.3-23.1,41.9-27.4l0.2,0.2c-19.4,14.5-19.6,39.1-28.6,62.2c-3.1,8.1-8.3,7.2-8.3,9.9
			c0,0.9,0.8,1.4,1.5,1.4c4.2,0,6.4-3.1,11.4-7.5c14.2-12.2,30.7-28.6,39.8-40.7l0.2,0.2c-5.1,15.6-7.7,33.5-17.9,48l1,0.7
			C275.5,73.3,330.9,36.8,330.9,9.9z"/>
		<rect x="9.3" y="90.1" fill="#003976" width="451" height="2.5"/>
	</g>
</g>
<g id="Lager_2">
	<path fill="#003976" d="M20.2,100.8l14.2,14.8v-13.9h2.3v19.6l-14.1-14.8v14h-2.4V100.8z"/>
	<path fill="#003976" d="M48.3,101.7h10.1v2.1h-7.8v5.3h7.6v2.1h-7.6v7.1h7.8v2.2H48.3V101.7z"/>
	<path fill="#003976" d="M75.3,115.2l5.3-13.9l5.3,13.9l5.3-13.5h2.5L86,121.3l-5.3-13.8l-5.3,13.8l-7.8-19.6h2.5L75.3,115.2z"/>
	<path fill="#003976" d="M124.7,115.2l5.3-13.9l5.3,13.9l5.3-13.5h2.5l-7.8,19.6l-5.3-13.8l-5.3,13.8l-7.8-19.6h2.6L124.7,115.2z"/>
	<path fill="#003976" d="M160.8,113.7h-6.7l3.4-7.6L160.8,113.7z M161.8,115.8l2.2,4.7h2.5l-9-19.7l-9,19.7h2.5l2.1-4.7H161.8z"/>
	<path fill="#003976" d="M179.5,115.6l5.6-13.9h2.6l-8.2,19.8l-8.2-19.8h2.6L179.5,115.6z"/>
	<path fill="#003976" d="M197.5,101.7h10.1v2.1h-7.8v5.3h7.5v2.1h-7.5v7.1h7.8v2.2h-10.1V101.7z"/>
	<path fill="#003976" d="M236.6,103.8v5.3h6.6v2.2h-6.6v9.2h-2.4v-18.8h9.1v2.1H236.6z"/>
	<path fill="#003976" d="M256.7,103.8h0.6c2.3,0,5.1,0.4,5.1,3.4c0,3-2.6,3.5-5,3.5h-0.8V103.8z M260.1,112.3
		c2.7-0.3,4.5-2.6,4.5-5.3c0-1.8-0.9-3.6-2.5-4.5c-1.5-0.9-3.3-0.9-5-0.9h-2.8v18.8h2.3v-8h1l5.5,8h2.9L260.1,112.3z"/>
	<path fill="#003976" d="M286.5,113.7h-6.7l3.3-7.6L286.5,113.7z M287.5,115.8l2.2,4.7h2.5l-9-19.7l-9,19.7h2.5l2.1-4.7H287.5z"/>
	<path fill="#003976" d="M301.8,100.8l14.2,14.8v-13.9h2.3v19.6l-14.1-14.8v14h-2.4V100.8z"/>
	<path fill="#003976" d="M343.6,105.3c-1.3-1.2-3.2-1.8-5-1.8c-4.2,0-7.5,3.5-7.5,7.7c0,4.1,3.2,7.7,7.4,7.7c1.9,0,3.6-0.7,5-2v2.8
		c-1.5,0.8-3.3,1.3-5,1.3c-5.4,0-9.8-4.3-9.8-9.7c0-5.6,4.5-9.9,10-9.9c1.7,0,3.3,0.4,4.8,1.3V105.3z"/>
	<path fill="#003976" d="M354.6,101.7h10.1v2.1H357v5.3h7.5v2.1H357v7.1h7.8v2.2h-10.1V101.7z"/>
	<path fill="#003976" d="M399.8,105.3c-0.7-1.2-1.6-1.8-3-1.8c-1.5,0-3.2,1-3.2,2.7c0,1.5,1.5,2.2,2.6,2.7l1.4,0.5
		c2.7,1.1,4.7,2.5,4.7,5.7c0,3.4-2.7,5.9-6,5.9c-3,0-5.4-2.2-5.8-5.3l2.4-0.5c0,2.1,1.6,3.6,3.6,3.6c2,0,3.5-1.7,3.5-3.7
		c0-2-1.6-2.9-3.2-3.6l-1.3-0.5c-2.1-0.9-4.1-2.2-4.1-4.8c0-3,2.7-4.9,5.5-4.9c2.1,0,3.8,1,4.9,2.8L399.8,105.3z"/>
	<path fill="#003976" d="M423.4,113.7h-6.7l3.3-7.6L423.4,113.7z M424.4,115.8l2.2,4.7h2.5l-9-19.7l-9,19.7h2.5l2.2-4.7H424.4z"/>
	<path fill="#003976" d="M447.2,105.3c-0.7-1.2-1.6-1.8-3-1.8c-1.5,0-3.2,1-3.2,2.7c0,1.5,1.5,2.2,2.6,2.7l1.3,0.5
		c2.7,1.1,4.7,2.5,4.7,5.7c0,3.4-2.7,5.9-6,5.9c-3,0-5.4-2.2-5.8-5.3l2.4-0.5c0,2.1,1.6,3.6,3.7,3.6c2,0,3.5-1.7,3.5-3.7
		c0-2-1.6-2.9-3.2-3.6l-1.3-0.5c-2.2-0.9-4.1-2.2-4.1-4.8c0-3,2.7-4.9,5.6-4.9c2.1,0,3.8,1,4.8,2.8L447.2,105.3z"/>
</g>
</svg>
