<svg width="1173" height="418" viewBox="0 0 1173 418" fill="none" xmlns="http://www.w3.org/2000/svg">
<rect width="1173" height="418" fill="black"/>
<path d="M1012.31 60.9099C1000.36 69.4199 991.81 80.5599 982.05 90.4999C972.29 100.44 963.94 111.07 958.46 123.9C959.55 124.47 960.2 123.71 960.79 122.9C974.54 102.9 993.51 87.9699 1010.72 71.3199C1011.78 70.5051 1012.76 69.6054 1013.67 68.6299C1020.28 59.7199 1029.15 57.6999 1039.84 58.4999C1051.19 59.3499 1062.66 58.6899 1074.99 58.6899C1071.06 64.1349 1066.65 69.2184 1061.81 73.8799C1043.54 91.8799 1025.27 109.88 1006.98 127.88C999.584 135.246 993.241 143.598 988.13 152.7C989.39 153.45 990.07 152.7 990.74 151.93C1009.29 129.93 1030.65 110.93 1052.95 92.9299C1061.45 86.0399 1068.95 77.8699 1076.61 69.9299C1083.99 62.3199 1092.61 58.4899 1103.31 58.7799C1114.4 59.0799 1125.52 58.4699 1137.72 59.5099C1133.64 64.6399 1129.62 68.5099 1124.72 71.1199C1110.6 78.5299 1099.45 89.2099 1088.96 101.02C1078.9 112.34 1067.83 122.75 1057.24 133.6C1048.15 142.92 1040.13 153.06 1034.13 164.75C1035.83 165.75 1036.39 164.17 1037.13 163.22C1050.52 147.053 1065.32 132.101 1081.34 118.54C1087.83 113.048 1093.9 107.078 1099.49 100.68C1106.98 92.1683 1115.78 84.9098 1125.56 79.1799C1129.26 76.9499 1132.66 74.2399 1136.23 71.7999C1137.5 70.9399 1138.23 68.4199 1140.05 69.4799C1141.44 70.2899 1140.83 72.5299 1140.88 74.1499C1141.09 81.4699 1141.08 88.7999 1141.42 96.1499C1141.57 97.6181 1141.36 99.1011 1140.8 100.468C1140.25 101.836 1139.36 103.045 1138.23 103.99C1125.68 115.452 1114.11 127.939 1103.63 141.32C1099.26 146.81 1095.7 152.78 1091.97 158.73C1093.72 159.73 1094.37 158.38 1095.16 157.38C1107.56 141.61 1122.53 128.28 1136.46 113.96C1137.14 113.27 1137.77 112.22 1138.88 112.56C1139.99 112.9 1139.88 114.17 1139.97 115.12C1141.75 127.72 1140.97 140.39 1140.97 153.03C1141.25 192.17 1141.16 231.31 1141.43 270.45C1141.43 275.02 1140.67 276.63 1135.6 276.62C1073.95 276.47 1012.31 276.62 950.66 276.62C943.5 276.62 936.33 276.32 929.18 276.53C925.93 276.62 925.4 275.45 925.41 272.53C925.49 233.39 925.49 194.25 925.41 155.11C925.41 125.963 925.41 96.8133 925.41 67.6599C925.41 58.6599 925.31 58.6599 934.15 58.7199C957.64 58.8599 981.15 58.2799 1004.62 59.0799C1007 59.0899 1009.36 58.9999 1012.31 60.9099Z" fill="white"/>
<path d="M752.33 219.88C739.33 219.88 726.33 219.74 713.33 219.96C709.72 220.02 708.91 218.87 709.06 215.48C709.395 209.324 709.375 203.154 709 197C708.71 192.94 710.45 192.32 713.81 192.29C724.81 192.21 735.81 191.98 746.81 191.73C755.52 191.53 756.19 190.34 752.08 182.84C743.2 166.66 720.47 165.36 709.45 180.33C705.06 186.33 702.52 192.7 702.93 200.25C703.19 205.25 703.14 210.25 702.93 215.25C702.6 224.2 706.3 231.69 710.93 238.92C718.34 250.37 744.86 251.81 753.01 237.4C754.74 234.34 756.63 233.98 759.78 234.33C769.04 235.33 778.34 236.33 787.65 236.65C792.54 236.82 792.16 238.65 790.75 241.96C784.57 256.68 774.12 267.16 759.27 272.87C730.88 283.79 704.5 280.78 682.09 259.22C676.962 254.306 672.863 248.421 670.032 241.907C667.201 235.394 665.695 228.382 665.6 221.28C665.33 211 663.98 200.46 666.65 190.45C674.55 160.76 698.03 139.97 731.65 140.85C747.2 141.25 761.23 145.09 772.65 156.06C781.52 164.59 786.36 175.5 789.89 187.06C792.82 196.66 793.58 206.62 794.75 216.53C795.09 219.43 794.63 220.53 791.22 220.46C778.22 220.2 765.22 220.36 752.22 220.36L752.33 219.88Z" fill="white"/>
<path d="M499.18 175V215C498.86 222.55 498.72 230.1 499.99 237.58C500.58 241.09 501.86 244.2 505.99 244.85L511.76 245.11C515.34 246.39 519.3 244.41 522.76 246.41C522.76 246.94 522.84 247.47 522.87 247.99C522.87 255.64 522.87 263.29 522.87 270.93C522.87 273.69 521.99 274.98 518.87 275.18C508.243 276.025 497.57 276.115 486.93 275.45C473.05 274.4 463.39 264.14 463.05 250.2C462.463 225.74 462.013 201.277 461.7 176.81C461.65 173.18 461.17 171.48 456.91 171.74C452.65 172 446.99 173.74 444.58 170.85C442.51 168.38 444.02 162.85 443.98 158.74C443.98 155.08 444.17 151.4 443.92 147.74C443.72 144.93 444.84 144.43 447.33 144.55C451.15 144.74 454.99 144.44 458.81 144.61C461.05 144.72 461.65 143.99 461.59 141.81C461.44 136.16 461.66 130.49 461.45 124.81C461.35 121.94 461.9 120.74 465.18 120.81C475.33 121.03 485.48 121 495.63 120.81C498.72 120.74 499.1 122 499.03 124.57C498.87 130.23 499.08 135.89 498.92 141.57C498.86 143.98 499.63 144.74 502.03 144.67C507.85 144.51 513.68 144.67 519.49 144.53C522.06 144.46 522.95 145.16 522.87 147.86C522.68 154.68 522.52 161.52 522.93 168.32C523.14 171.83 521.52 172.13 518.93 172.08C513.19 172.01 507.44 172.08 501.7 171.81C499.18 171.7 498.61 172.78 499.18 175Z" fill="white"/>
<path d="M263 182C263 179 263.57 175.72 259.46 174.7L259.37 174.61C249.37 166.28 229.94 170.32 225.14 182.02C223.73 185.45 221.78 186.53 218.49 186.47C210.85 186.34 203.21 185.97 195.59 186.29C191.23 186.47 189.59 185.37 190.79 181L191.13 178.2L191.57 177.08L191.91 175.01C196.27 161.74 204.03 151.29 217.4 146.15C231.633 140.731 247.107 139.441 262.04 142.43C266.6 143.31 271.091 144.513 275.48 146.03C288.08 150.32 295.48 159.81 300.67 171.38C301.37 172.94 301.18 174.96 301.22 176.77C301.86 203.19 302.39 229.62 303.13 256.03C303.28 261.27 303.13 266.72 306.13 271.44C307.25 273.16 306.28 273.95 304.77 274.19C302.158 274.668 299.514 274.959 296.86 275.06C288.71 275.14 280.55 274.87 272.4 275.06C267.84 275.18 266.17 273.17 266.04 268.88C265.76 259.57 265.28 250.27 264.88 240.96L264.83 234.96C264.83 232.63 264.78 230.29 264.75 227.96L264.63 221.96C264.856 217.914 264.665 213.856 264.06 209.85C264.06 209.22 264.01 208.59 263.98 207.96L263.89 200.96L263.83 194.96L263.7 187.96C263.7 187.27 263.62 186.58 263.57 185.9C263.788 184.869 263.599 183.793 263.04 182.9C263.149 182.772 263.205 182.609 263.198 182.442C263.19 182.275 263.12 182.117 263 182V182Z" fill="white"/>
<path d="M94.0002 235C93.8902 246.81 93.5802 258.62 93.8002 270.42C93.8802 274.54 92.5102 275.31 88.8002 275.23C78.8002 275.01 68.8002 275.07 58.8002 275.3C55.6702 275.38 54.9702 274.49 54.9702 271.44C55.0702 217 55.0702 162.563 54.9702 108.13C54.9702 105.23 55.8102 104.55 58.6002 104.6C68.9202 104.78 79.2502 104.88 89.6002 104.6C93.3302 104.51 93.8102 105.86 93.8002 109.16C93.6936 147.107 93.6936 185.057 93.8002 223.01C93.8002 224.66 93.9702 226.32 94.0602 228.01C93.5667 230.312 93.5463 232.69 94.0002 235V235Z" fill="white"/>
<path d="M106.08 217C100.08 217.1 99.08 213.78 99.52 208.5C100.11 201.71 100.05 194.86 99.96 188.03C99.96 185.03 100.68 184.12 103.83 184.1C112.29 184.04 120.83 184.89 129.21 183.1C140.86 180.59 146.98 172.95 147.21 160.31C147.42 147.07 142.28 140.31 129.86 137.42C121.33 135.42 112.64 135.82 104 136C100.64 136.07 99.82 135 99.91 131.81C100.14 123.81 100 115.81 99.98 107.81C99.98 106.09 99.77 104.6 102.39 104.6C118.54 104.6 134.71 104.18 150.56 108.09C165.47 111.77 175.33 121.37 180.77 135.34C188.42 154.99 188.08 174.34 176.68 192.69C169.06 204.94 157.88 212.11 143.47 214.07C142 214.27 140.56 214.71 139.1 215.07L133.1 215.43L126.1 216.2L120.1 216.48C117.758 216.207 115.386 216.363 113.1 216.94L106.08 217Z" fill="white"/>
<path d="M534.94 188C534.94 169.2 534.94 150.4 534.94 131.61C534.94 123.8 534.83 115.98 534.57 108.18C534.49 105.58 535.72 105.02 537.85 105.02C547.68 105.02 557.51 105.13 567.33 105.02C570.99 104.96 571.19 106.97 571.18 109.79C571.11 128.43 571.18 147.07 571.18 165.72C571.18 200.15 571.07 234.59 571.29 269.03C571.29 273.95 569.83 275.25 565.14 275.09C556.49 274.79 547.81 274.88 539.14 275.2C535.6 275.33 535.14 273.98 535.14 270.93C535.21 258.93 535.04 246.93 534.96 235V195C534.947 192.673 534.94 190.34 534.94 188Z" fill="white"/>
<path d="M364.17 182C362.57 173.017 362.532 163.825 364.06 154.83C364.4 152.75 366.06 151.45 367.69 150.25C384.19 138.08 409.95 140.25 424.69 154.6C432.96 162.67 436.45 172.44 437.07 183.6C438.66 212.6 437.76 241.53 438.15 270.49C438.2 274.2 437.32 275.23 433.55 275.11C423.9 274.83 414.23 274.86 404.55 275.11C401.04 275.21 400.55 273.89 400.55 270.85C400.45 248.7 400.2 226.56 399.96 204.41C400.059 197.924 399.479 191.445 398.23 185.08C397.869 183.378 397.135 181.777 396.08 180.394C395.025 179.011 393.676 177.879 392.13 177.08C384.56 172.76 373.41 173.93 367.05 179.73C366.31 180.44 365.51 181 364.17 182Z" fill="white"/>
<path d="M578.13 180.14C578.13 170.96 578.13 162.21 578.13 153.46C578.111 152.895 578.241 152.334 578.505 151.834C578.77 151.334 579.162 150.912 579.64 150.61C596.47 137.61 624.81 137.88 639.23 151.82C643.14 155.445 646.256 159.841 648.382 164.731C650.508 169.621 651.597 174.898 651.58 180.23C651.91 210.84 652.13 241.45 652.48 272.05C652.48 274.5 651.77 275.14 649.39 275.12C638.9 275.02 628.39 274.95 617.93 275.19C614.2 275.28 615.03 273.01 615.02 271C614.94 246.87 614.92 222.74 614.75 198.61C614.831 194.117 614.453 189.627 613.62 185.21C611.71 176.34 603.62 171.92 593.52 173.3C587.74 174.1 583.06 177.13 578.13 180.14Z" fill="white"/>
<path d="M319.8 275.07C320.13 260.42 320.65 246.17 320.75 231.92C320.94 204.32 321.01 176.72 320.82 149.13C320.82 144.7 322.05 144.02 326.09 144.27C335.22 144.83 344.38 144.93 353.53 144.95C356.4 144.95 357.6 145.43 357.6 148.67C357.674 189.763 357.824 230.853 358.05 271.94C358.05 273.63 358.31 275.14 355.65 275.12C343.54 275 331.42 275.07 319.8 275.07Z" fill="white"/>
<path d="M804.55 209.74C804.55 189.43 804.66 169.12 804.44 148.81C804.44 145.08 805.61 144.47 808.92 144.54C818.58 144.753 828.247 144.753 837.92 144.54C841.14 144.46 842.06 145.2 842.06 148.54C842.06 179.473 842.147 210.41 842.32 241.35C842.37 251.12 842.55 260.88 842.2 270.65C842.09 273.72 841.01 274.89 838.2 274.91C827.87 274.97 817.54 274.91 807.2 275.13C803.73 275.2 804.57 272.98 804.57 271.18C804.537 250.7 804.53 230.22 804.55 209.74Z" fill="white"/>
<path d="M183.61 237.91C183.05 211.73 199.2 203.02 219.05 198.24C230.66 195.44 242.52 193.65 254.23 191.24C257.87 190.49 259.43 191.24 259.3 195.31C259.11 201.13 259.3 206.97 259.55 212.79C259.68 215.55 258.55 216.48 256 217.01C246.43 219.01 236.58 220.09 227.86 225.01C219.14 229.93 218.4 239.73 225.92 246.4C226.683 247.262 227.623 247.95 228.675 248.416C229.728 248.882 230.869 249.115 232.02 249.1C237.25 251.1 242.43 250.27 247.53 248.68C251.29 247.5 254.96 246.04 259.17 244.53C259.23 252.36 259.84 259.61 259.17 266.9C258.91 269.9 257.46 271.67 254.98 273.17C249.808 276.243 243.983 278.052 237.98 278.45C222.06 279.74 206.68 278.82 194.26 266.74C190.74 263.31 188.58 259.05 186.09 254.97C184.902 252.818 184.218 250.424 184.09 247.97C183.95 245.643 183.817 243.31 183.69 240.97L183.61 237.91Z" fill="white"/>
<path d="M673.09 344.5C670.73 352.25 671.09 359.75 671.19 367.21C671.19 370.47 670.59 371.41 667.19 371.09C660.51 370.47 660.46 370.71 660.53 363.83C660.67 352.18 660.8 340.52 661.05 328.83C661.05 326.7 659.89 323.54 663.17 322.99C666.45 322.44 669.91 321.99 672.17 325.55C676.057 331.936 680 338.3 684 344.64C685.37 346.82 686.81 348.95 688.9 352.15C690.13 343.15 689.9 335.45 689.69 327.73C689.62 325.32 688.69 322.51 693.03 323.06C696.03 323.44 699.47 321.82 699.36 327.58C699.1 340.89 699.53 354.23 699.92 367.58C700.01 370.75 699.15 371.19 696.07 371.22C690.74 371.29 687.36 369.3 684.86 364.66C681.12 357.79 677 351.19 673.09 344.5Z" fill="white"/>
<path d="M76.3903 371.08C74.2303 371.08 72.0603 371.08 69.9003 371.08C62.3903 370.91 60.4103 369.51 57.6803 362.56C57.6203 362.4 57.4803 362.24 57.5003 362.1C57.7603 360.17 53.3603 359.3 55.9103 357.28C57.1084 356.34 58.5634 355.787 60.0829 355.692C61.6024 355.597 63.1149 355.966 64.4203 356.75C66.4203 357.89 68.0103 359.66 69.7803 361.17C73.5303 364.36 79.9603 364.67 83.6503 361.7C86.2403 359.61 87.0003 357.31 83.2803 355.7C78.5703 353.65 73.7703 351.79 68.9603 349.99C60.3503 346.77 57.5203 342.99 58.0503 334.99C58.4403 328.99 63.5103 323.91 71.0503 322.5C79.3803 320.94 86.9903 322.75 93.0503 328.91C95.3603 331.25 97.6403 334.28 94.8703 337.64C92.7503 340.22 87.1603 339.33 84.8703 335.73C81.8703 330.92 77.7203 330.88 73.1403 332.08C71.2503 332.57 69.1403 333.45 69.1403 335.9C69.1403 337.96 70.9003 339.1 72.6503 339.71C75.3103 340.64 78.0803 341.26 80.7803 342.06C84.1613 342.927 87.4008 344.274 90.4003 346.06C95.8403 349.54 98.4003 355.41 96.7403 360.96C94.7403 367.69 90.7403 370.83 83.8203 371.04C81.3303 371.11 78.8203 371.04 76.3303 371.04L76.3903 371.08Z" fill="white"/>
<path d="M555.5 371C552.84 371 550.17 370.89 547.5 371C541.31 371.31 538.13 367.6 535.97 362.54C535.19 360.73 534.21 358.64 536.21 357.05C537.065 356.374 538.089 355.946 539.17 355.814C540.251 355.682 541.348 355.85 542.34 356.3C544.365 357.087 546.165 358.361 547.58 360.01C551.13 364.19 555.58 364.15 560.36 363.01C561.428 362.762 562.397 362.2 563.143 361.396C563.888 360.592 564.375 359.583 564.54 358.5C564.84 356.63 562.92 355.29 561.16 354.68C557.25 353.31 553.29 352.06 549.31 350.9C540.65 348.39 536.47 343.69 536.72 336.53C536.97 328.95 541.8 323.9 550.89 322.48C559.02 321.22 566.52 322.89 572.12 329.41C573.96 331.55 576.71 334.55 573.84 337.23C570.97 339.91 567.31 339.07 564.28 336.6C563.375 335.863 562.542 335.043 561.79 334.15C560.963 333.215 559.935 332.479 558.784 331.996C557.633 331.513 556.387 331.295 555.14 331.36C552.14 331.3 548.85 332.19 548.14 335.04C547.39 338.23 550.89 339.04 553.3 339.97C558.39 341.97 563.85 342.97 568.61 345.86C573.87 349.02 577.23 355.51 575.61 360.52C573.87 366 570.24 372 562 371.11C559.838 371 557.672 371 555.51 371.11L555.5 371Z" fill="white"/>
<path d="M853.22 370.75C842.11 371.61 830.99 370.58 819.88 370.81C817.97 370.81 817.8 369.81 817.75 368.29C817.34 354.65 816.83 341.01 817.25 327.36C817.35 324.04 818.87 322.97 821.82 322.95C831.31 322.95 840.82 322.95 850.28 322.73C853.05 322.67 853.53 324.07 853 326.05C852.39 328.3 855.46 332.28 850.41 332.56C844.41 332.89 838.41 332.97 832.41 332.99C830.05 332.99 828.59 333.37 828.95 336.22C829.25 338.68 827.95 341.77 832.32 342.02C837.47 342.32 842.65 341.55 847.77 342.61C849.66 343.01 852.01 342.61 851.91 345.69C851.83 348.55 850.61 350.55 847.6 350.81C842.803 351.372 837.979 351.676 833.15 351.72C829.59 351.65 828.36 352.72 828.97 356.21C829.176 357.535 829.176 358.885 828.97 360.21C828.58 362.82 829.85 363.21 832.09 363.16C837.25 363.01 842.45 363.45 847.57 362.99C851.98 362.6 853.65 363.99 853.05 368.35C852.98 369.175 852.98 370.005 853.05 370.83L853.22 370.75Z" fill="white"/>
<path d="M165.47 371.06C161.95 371.86 159.47 370.37 158.47 366.06C157.22 360.74 152.76 361.73 149.12 362.01C145.73 362.27 141.62 361.66 140.88 367.07C140.41 370.48 130.55 372.96 128.31 370.48C127.55 369.64 127.98 368.54 128.31 367.64C133.09 354.22 138.03 340.86 142.64 327.38C144.55 321.81 148.97 323.22 152.91 322.75C157.09 322.25 156.64 325.75 157.43 327.89C161.9 340.19 166.26 352.54 170.61 364.89C172.66 370.89 172.62 370.9 165.47 371.06ZM149.52 337.64C147.47 340.92 147.02 344.4 146.3 347.71C146.02 349.01 144.3 350.89 146.49 352.07C148.68 353.25 151.07 354.4 153.04 353.56C155.01 352.72 153.13 350.32 153.04 348.66C152.773 344.756 151.565 340.976 149.52 337.64V337.64Z" fill="white"/>
<path d="M275.9 346.6C275.9 339.77 276 332.95 275.84 326.13C275.78 323.58 276.39 322.69 279.12 322.74C288.61 322.93 298.12 322.93 307.59 322.8C313.27 322.73 310.22 326.9 310.84 329.19C311.54 331.79 310.52 333 307.5 332.87C302.02 332.64 296.5 332.87 291.02 332.87C287.78 332.87 286.12 334 286.02 337.49C285.9 341.3 287.85 342.49 291.2 342.41C295.36 342.33 299.52 342.11 303.67 342.25C306.52 342.34 309.36 342.7 309.2 346.89C309.05 350.89 306.2 350.74 303.62 350.95C299.15 351.3 294.62 351.42 290.18 351.85C288.67 351.99 285.93 350.85 286.26 354.02C286.59 357.19 284.26 361.28 289.04 363.02C292.91 364.45 296.96 363.58 300.92 363.84C303.4 364.01 305.92 364.11 308.36 364.44C309.96 364.66 311.67 364.87 311.36 367.44C311.1 369.35 310.49 370.8 308.49 370.83C298.177 370.97 287.844 371.03 277.49 371.01C274.99 371.01 275.95 368.82 275.93 367.6C275.85 360.58 275.91 353.59 275.9 346.6Z" fill="white"/>
<path d="M758.91 371C751.3 372.23 744.11 369.79 739.35 361.27C734.59 352.75 735.97 337.38 742.87 329.54C749.41 322.11 761.26 320.21 771.34 324.79C775.7 326.79 778.34 330.1 780.27 334.34C781.61 337.27 780.44 338.34 777.79 338.77C775.98 339.092 774.119 338.96 772.373 338.384C770.627 337.808 769.052 336.806 767.79 335.47C764.39 332.16 760.66 330.6 756.07 332.65C751.31 334.77 749.19 338.72 748.94 343.73C748.8 346.73 748.94 349.73 749.01 352.73C749.17 358 751.91 361.52 756.82 363.12C761.73 364.72 766.19 363.23 768.99 358.91C771.31 355.33 774.19 354.78 777.93 355.46C780.82 355.99 781.83 357.03 780.62 360.15C777.51 368.15 774.01 370.83 765.36 371.02C763.69 371 762 371 758.91 371Z" fill="white"/>
<path d="M882 159C882 163.32 881.8 167.65 882.07 171.95C882.25 174.95 881.07 175.64 878.4 175.51C876.09 175.39 873.76 175.69 871.4 175.76C864.45 175.98 857.91 177.38 852.4 181.99C850.64 183.47 849.17 183.99 848.9 180.8C848.039 172.036 848.18 163.202 849.32 154.47C850.15 148.73 854.93 145.59 860.26 144.07C866.375 142.481 872.687 141.784 879 142C881.45 142 882.08 142.78 882 145.12C881.84 149.72 882 154.37 882 159Z" fill="white"/>
<path d="M1062.58 371H1058.58C1054.25 371.06 1050.1 370.45 1047.97 366.09C1045.55 361.09 1044.42 355.89 1047.97 350.98C1049.82 348.39 1049.97 346.18 1048.97 343.19C1046.15 335.19 1048.07 329.78 1054.54 326.19C1061.01 322.6 1071.38 323.87 1075.72 329.08C1079.27 333.33 1080.01 337.93 1077.26 342.93C1076.26 344.77 1075.11 346.34 1076.96 348.74C1081.21 354.19 1080.62 360.32 1077.74 366.12C1075.15 371.36 1069.96 371.04 1065.09 371.04L1062.58 371ZM1062.95 351.18C1058.76 351.24 1055.3 354.33 1055.24 358.06C1055.24 361.46 1059.52 365.01 1063.61 364.91C1067.11 364.84 1070.1 361.16 1070.05 356.98C1070 353.36 1067.24 351.09 1063 351.16L1062.95 351.18ZM1062.88 332.85C1058.8 332.85 1056.88 334.32 1056.82 337.18C1056.81 338.012 1056.98 338.836 1057.3 339.603C1057.62 340.371 1058.09 341.065 1058.69 341.645C1059.28 342.225 1059.99 342.679 1060.77 342.979C1061.54 343.279 1062.37 343.419 1063.2 343.39C1066.57 343.32 1069.34 341.71 1069.34 338.22C1069.33 334 1065.71 333.28 1062.88 332.83V332.85Z" fill="white"/>
<path d="M1000.11 371C995.21 371.48 989.96 371.3 987.7 364.8C987.26 363.54 986.33 362.19 987.27 361.05C988.21 359.91 989.9 360.18 991.43 360.55C993.975 361.308 996.422 362.362 998.72 363.69C1000.03 364.457 1001.58 364.719 1003.07 364.426C1004.56 364.133 1005.9 363.306 1006.82 362.1C1008.32 360.42 1010.82 358.41 1009.52 356.23C1008.38 354.33 1005.95 356.44 1004.13 356.89C998.22 358.37 992.5 356.56 988.94 351.96C985.05 346.96 984.37 337.61 987.72 332.16C991.23 326.44 996.47 323.52 1003.21 324.16C1012.14 325 1016.08 328.8 1018.01 337.65C1019.66 344.652 1019.57 351.952 1017.74 358.91C1015.56 366.76 1012.11 372.25 1000.11 371ZM1001.64 332.85C997.43 333 995.39 336.41 995.53 342.42C995.62 346.47 997.45 348.69 1001.46 348.7C1006.03 348.7 1009.02 345.32 1008.89 340.59C1008.77 336.12 1005.59 332.72 1001.64 332.86V332.85Z" fill="white"/>
<path d="M207.21 346.69C207.21 339.87 207.3 333.04 207.16 326.21C207.1 323.61 207.44 322.4 210.59 322.54C219.74 322.93 228.91 323.15 238.06 322.97C243.45 322.86 241.34 326.76 241.98 329.17C242.81 332.28 240.91 332.71 238.38 332.71C232.89 332.71 227.38 333.01 221.9 332.95C219.24 332.95 217.3 333.25 217.25 336.47C217.19 339.47 217.64 342.33 221.38 342.61C225.85 342.95 230.38 343.06 234.84 343.07C237.34 343.07 239.27 342.93 239.24 346.51C239.24 349.73 238.51 351.75 235.04 351.86C231.04 351.98 227.04 352.4 223.04 351.91C218.53 351.35 217.25 353.02 217.44 357.21C217.6 360.85 216.91 364.54 217.15 368.21C217.37 371.51 215.36 371.56 213.46 371C211.29 370.37 207.19 373.56 207.19 368.17V346.69H207.21Z" fill="white"/>
<path d="M1141.12 370.76C1131.65 371.64 1122.23 370.83 1112.82 369.92C1109.62 369.61 1108.82 367.58 1110.43 365.02C1111.74 363.101 1113.26 361.328 1114.95 359.73C1119.34 355.19 1123.83 350.73 1128.23 346.2C1129.1 345.414 1129.79 344.457 1130.27 343.39C1130.74 342.323 1130.99 341.169 1131 340C1130.93 337.52 1131.18 334.61 1127.91 334.05C1124.64 333.49 1121.46 333.52 1120.22 337.61C1119.7 339.33 1119.41 341.24 1117.36 342C1113.31 343.51 1110.09 340.94 1110.79 336.69C1111.71 331.2 1114.57 326.57 1119.84 325.15C1125.97 323.51 1132.63 323.43 1137.65 328.53C1141.99 332.94 1141.78 338.37 1139.87 343.87C1138.03 349.07 1134.81 353.671 1130.56 357.18C1128.74 358.73 1126.38 359.92 1125.72 362.84C1128.88 363.958 1132.28 364.183 1135.56 363.49C1140.22 362.33 1141.56 364.12 1141.07 368.34C1140.98 369.16 1140.99 369.99 1140.95 370.81L1141.12 370.76Z" fill="white"/>
<path d="M414.39 323.19C425.47 322.51 425.45 322.53 429.99 331.56C431.62 334.81 433.15 338.13 435.57 341C438.02 339.2 438.66 336.31 440.04 333.9C441.59 331.16 442.97 328.32 444.58 325.61C447 321.53 451.37 322.03 454.34 323.36C457.73 324.89 454.65 328.11 453.7 330.15C450.76 336.46 447.38 342.56 444.08 348.69C440.96 354.5 440.77 360.78 441.08 367.11C441.21 369.79 440.67 371.2 437.62 370.8C435.957 370.639 434.283 370.639 432.62 370.8C430.84 370.91 429.62 370.49 429.99 368.39C432.09 356.84 426.39 347.46 421.52 337.84C419.15 333.14 416.9 328.37 414.39 323.19Z" fill="white"/>
<path d="M359.39 332.74C354.79 332.74 350.96 332.97 347.16 332.69C341.62 332.28 344.98 327.87 344.27 325.36C343.37 322.19 345.78 322.61 347.84 322.65C358.65 322.84 369.46 323.19 380.27 322.96C385.67 322.84 383.48 326.49 384.09 328.96C384.93 332.27 383.21 332.74 380.45 332.96C377.04 333.2 372.37 331.52 370.55 334.03C368.85 336.37 369.93 340.74 369.83 344.22C369.61 352.03 369.15 359.85 369.34 367.65C369.44 371.82 367.02 371.19 364.6 371.15C362.18 371.11 359.23 372.15 359.31 367.62C359.54 356.1 359.39 344.65 359.39 332.74Z" fill="white"/>
<path d="M947.47 349.45C947.47 355.61 947.56 361.77 947.47 367.93C947.37 373.3 943.06 370.1 940.77 370.93C937.96 371.99 938.05 369.93 938.03 367.93C937.93 360.44 937.62 352.93 937.68 345.45C937.68 342.12 937.2 339.88 933.19 340.45C933.03 340.495 932.861 340.495 932.7 340.45C930.8 339.56 927.53 341.23 927.04 337.84C926.55 334.45 928.87 333.27 931.63 332.32C934.016 331.546 936.109 330.063 937.63 328.07C938.887 326.506 940.66 325.443 942.63 325.07C945.47 324.43 947.49 324.86 947.44 328.54C947.33 335.54 947.44 342.54 947.44 349.54L947.47 349.45Z" fill="white"/>
<path d="M611.16 346.43C611.16 339.43 611.31 332.49 611.08 325.53C610.99 322.95 611.69 322.66 614.08 322.77C621.95 323.13 621.95 323 621.95 330.69C621.95 342.47 621.75 354.25 622.08 366.02C622.19 370.02 620.87 370.77 617.18 371.11C612.34 371.56 610.6 370.53 611.05 365.33C611.57 359.07 611.16 352.73 611.16 346.43Z" fill="white"/>
<path d="M173.08 252.94C173.4 259.07 173.63 265.2 174.08 271.32C174.3 274.26 173.08 275.01 170.38 274.97C164.28 274.87 158.17 275.04 152.07 275.11V253.18L160.07 252.81H166.07L173.08 252.94Z" fill="#E42420"/>
<path d="M152.08 253.18V275.11L131.16 274.7C130.8 267.506 130.444 260.32 130.09 253.14L152.08 253.18Z" fill="white"/>
<path d="M131 253.14L131 275C123.599 275 117.91 275 110.87 275C110.87 272.66 110.76 270.32 110.71 268C110.79 263.94 111.06 257.19 110.87 253.14C112.41 253.14 112.4 253.19 114.41 253.14H126.91H131Z" fill="#67B32F"/>
</svg>
