<svg width="765" height="250" viewBox="0 0 765 250" fill="none" xmlns="http://www.w3.org/2000/svg">
<rect width="764.43" height="249.86" fill="black"/>
<path d="M145.93 121C152.45 143.58 183.2 151.51 199.62 135C201.95 132.67 203.11 133 205.07 135.1C208.33 138.66 211.81 142.02 215.24 145.42C216.37 146.54 216.64 147.33 215.24 148.65C195.88 167.49 165.87 169.65 144.85 153.15C128.08 139.96 120.65 122.3 124.69 101.25C128.98 78.8701 142.69 63.8801 165.1 58.4901C172.272 56.7513 179.728 56.5275 186.991 57.8332C194.254 59.1388 201.165 61.945 207.282 66.0727C213.399 70.2003 218.588 75.5585 222.517 81.805C226.446 88.0515 229.029 95.0489 230.1 102.35C230.845 107.315 230.986 112.351 230.52 117.35C230.22 120.35 229.07 120.93 226.27 120.92C200.27 120.79 174.2 120.82 148.17 120.82C147.54 120.86 146.82 120.93 145.93 121ZM177.25 100.47V100.56C186.82 100.56 196.39 100.47 205.96 100.62C208.72 100.62 208.82 99.8501 207.89 97.6201C205.323 91.6135 201.041 86.497 195.582 82.91C190.122 79.3231 183.727 77.4248 177.194 77.4526C170.662 77.4803 164.283 79.4328 158.854 83.066C153.425 86.6992 149.187 91.8519 146.67 97.8801C145.8 100 146.34 100.51 148.55 100.49C158.11 100.41 167.68 100.46 177.25 100.46V100.47Z" fill="#FDFDFD"/>
<path d="M420.17 120.87C428.22 144.29 456.69 151.09 473.85 135.29C476.75 132.62 476.72 132.58 479.58 135.43C482.86 138.7 486.12 141.98 489.42 145.22C490.58 146.36 491.16 147.22 489.61 148.69C470.16 167.45 440.27 169.76 419.42 153.36C402.37 140 394.79 122 399.17 100.6C403.69 78.5403 417.44 63.8403 439.61 58.4903C473.06 50.4003 505.43 76.3103 505.32 110.49C505.32 112.95 504.88 115.4 504.8 117.86C504.72 120.32 503.66 120.92 501.32 120.86C475.473 120.78 449.63 120.754 423.79 120.78L420.17 120.87ZM451.46 100.47V100.56C461.13 100.56 470.8 100.49 480.46 100.56C483.11 100.56 483.1 99.7103 482.27 97.7003C479.73 91.6845 475.473 86.551 470.032 82.9417C464.59 79.3323 458.205 77.4073 451.675 77.4073C445.145 77.4073 438.76 79.3323 433.318 82.9417C427.877 86.551 423.62 91.6845 421.08 97.7003C420.08 100.05 420.75 100.48 423.08 100.46C432.53 100.41 442 100.47 451.46 100.47V100.47Z" fill="#FDFDFD"/>
<path d="M25.4398 114.27C25.4398 99.6036 25.4398 84.9136 25.4398 70.2003C25.4398 68.4603 25.5698 67.1303 27.6598 66.4403C46.9998 60.0003 66.6098 58.2003 86.5098 63.0003C94.5257 64.9005 101.707 69.3542 106.972 75.6903C112.237 82.0265 115.3 89.902 115.7 98.1303C116.78 115.47 115.97 132.84 116.19 150.19C116.19 153.19 116.19 156.19 116.29 159.13C116.37 160.76 115.74 161.41 114.22 161.42L95.6998 161.55C93.5198 161.55 93.9498 159.99 93.9498 158.72C93.9498 147.42 93.9498 136.12 93.8898 124.82C93.8898 117.82 93.6698 110.82 93.6098 103.87C93.4798 89.7303 84.5098 83.2003 73.4198 81.0003C65.9398 79.5003 58.4898 80.1403 51.0798 81.7903C49.0798 82.2303 48.2398 82.9403 48.2498 85.2403C48.3398 109.89 48.2498 134.54 48.2498 159.24C48.2498 160.9 47.7398 161.48 46.2498 161.49C39.9698 161.49 33.6898 161.57 27.4098 161.67C25.1198 161.67 25.4098 160.14 25.4098 158.67C25.4098 144.49 25.3865 130.314 25.3398 116.14V114.29L25.4398 114.27Z" fill="#FDFDFD"/>
<path d="M603.74 109.76C603.74 124.35 603.74 138.94 603.74 153.53C603.74 155.64 603.09 156.66 601.08 157.26C587.08 161.5 572.94 164.36 558.29 163.42C543.05 162.42 529.92 156.97 520.77 144.12C515.681 136.956 512.964 128.378 513 119.59C512.86 101.41 512.94 83.23 512.9 65.05C512.9 63.5 513.01 62.58 515.02 62.65C520.88 62.85 526.75 62.9 532.62 62.85C534.67 62.85 535.4 63.23 535.38 65.55C535.227 82.09 535.197 98.63 535.29 115.17C535.29 120.17 535.47 125.25 538.07 129.82C543.27 138.99 551.8 142.3 561.71 142.99C566.957 143.192 572.211 142.857 577.39 141.99C580.01 141.63 580.96 140.61 580.94 137.82C580.83 113.89 580.94 89.95 580.84 66.01C580.84 63.33 581.3 62.25 584.37 62.46C589.91 62.82 595.48 62.72 601.04 62.6C603.2 62.6 603.84 63.11 603.82 65.33C603.72 80.13 603.77 94.92 603.77 109.71L603.74 109.76Z" fill="#FDFDFD"/>
<path d="M697.509 109.9C697.139 118.315 696.241 126.698 694.819 135C693.592 142.162 691.854 149.226 689.619 156.14C685.913 166.77 681.163 177.007 675.439 186.7C674.689 187.99 673.959 188 672.729 187.28C664.389 182.44 656.026 177.647 647.639 172.9C645.819 171.9 645.579 170.85 646.699 169.01C652.298 160.043 656.62 150.34 659.539 140.18C661.924 131.639 663.343 122.858 663.769 114C664.629 95.8701 660.479 78.9301 652.819 62.6901C650.899 58.6901 648.689 54.7401 646.429 50.8701C645.329 48.9601 645.759 48.0501 647.589 47.0101C655.529 42.5201 663.449 38.0101 671.269 33.2501C673.489 31.9101 674.469 32.1801 675.739 34.4601C682.119 45.8701 687.999 57.4401 691.659 70.0001C695.44 82.9667 697.409 96.394 697.509 109.9V109.9Z" fill="#EF7D0C"/>
<path d="M379.9 121.43C379.9 133.86 379.82 146.29 379.98 158.71C379.98 160.93 379.14 161.4 377.37 161.41C371.37 161.47 365.43 161.41 359.46 161.58C357.14 161.64 357.12 160.36 357.12 158.64C357.16 136.554 357.16 114.47 357.12 92.3904C357.12 89.6104 356.99 86.8404 357.05 84.0704C357.05 82.4704 356.59 81.8604 354.91 82.0704C352.91 82.2704 350.8 82.1505 348.74 82.2905C347.21 82.4005 346.51 81.9705 346.54 80.2905C346.65 74.9505 346.66 69.6105 346.62 64.2905C346.62 62.8605 347.21 62.5305 348.49 62.6505C350.44 62.8405 352.39 62.9105 354.34 63.0205C356.29 63.1305 357.23 62.3505 357.2 60.1505C357.12 54.8305 356.98 49.5205 359.01 44.3805C363.22 33.7305 371.19 27.9705 382.26 26.1705C386.75 25.5686 391.283 25.3512 395.81 25.5205C397.58 25.5205 398.15 26.1104 398.12 27.8304C398.04 33.0704 398.02 38.3104 398.12 43.5504C398.12 45.1404 397.41 45.4004 396.12 45.4604C393.136 45.4727 390.162 45.808 387.25 46.4604C382.71 47.6704 380.5 50.2004 380.03 54.8704C379.27 62.4504 379.27 62.4904 386.95 62.7604C390.03 62.8604 393.12 62.9104 396.2 62.7604C397.82 62.6804 398.2 63.3105 398.15 64.6905C398.15 69.8205 398.02 74.9604 398.15 80.0904C398.15 82.0004 397.32 82.3004 395.74 82.2804C391.21 82.2104 386.68 82.2805 382.15 82.1905C380.6 82.1905 379.87 82.2604 379.89 84.2704C380.02 96.6904 379.96 109.12 379.96 121.55L379.9 121.43Z" fill="#FDFDFD"/>
<path d="M345.511 110.3C346.961 113.3 345.921 116.39 345.401 119.3C342.291 136.65 333.4 150.3 317.55 158.4C287.31 173.91 255.881 160 243.551 133.57C240.033 126.346 238.376 118.357 238.731 110.33C244.851 109.73 250.991 110.18 257.121 110.24C259.001 110.24 259.611 109.56 259.501 107.87C259.328 110.2 259.305 112.538 259.431 114.87C260.701 126.06 266.641 134.38 276.131 140.07C279.526 142.183 283.316 143.585 287.269 144.19C291.223 144.795 295.258 144.591 299.131 143.59C311.461 140.59 319.621 133.16 323.821 121.25C324.991 117.95 324.821 114.44 325.651 111.09C332.261 109.22 338.911 110.3 345.511 110.3Z" fill="#EF7D0C"/>
<path d="M345.509 110.3C338.909 110.3 332.259 109.22 325.729 111.09C325.549 110.19 325.289 109.3 325.189 108.39C323.269 91.1101 311.069 79.3201 293.709 77.9901C277.019 76.7101 260.409 91.2301 259.549 107.85C259.659 109.54 259.049 110.23 257.169 110.22C251.039 110.16 244.899 109.71 238.779 110.31C238.299 102.85 240.339 95.8901 243.429 89.3101C251.169 72.7101 263.929 61.8901 282.029 58.5101C314.999 52.3001 342.799 75.2301 345.999 106.78C346.129 108 346.509 109.25 345.509 110.3Z" fill="#FDFDFD"/>
</svg>
