<?xml version="1.0" encoding="utf-8"?>
<!-- Generator: Adobe Illustrator 23.0.2, SVG Export Plug-In . SVG Version: 6.00 Build 0)  -->
<svg version="1.1" id="Layer_1" xmlns="http://www.w3.org/2000/svg" xmlns:xlink="http://www.w3.org/1999/xlink" x="0px" y="0px"
	 viewBox="0 0 156.6 31.7" style="enable-background:new 0 0 156.6 31.7;" xml:space="preserve">
<style type="text/css">
	.st0{fill:#E30613;}
</style>
<rect x="1.4" y="25.2" class="st0" width="20.6" height="4.8"/>
<rect x="1.4" y="17.3" class="st0" width="20.6" height="4.8"/>
<rect x="1.4" y="9.3" class="st0" width="20.6" height="4.8"/>
<polygon class="st0" points="8.9,1.4 4.1,6.2 25.2,6.2 25.2,27.3 30,22.5 30,1.4 "/>
<path d="M137.3,12.9c-1.3-1-3.2-1.7-5.1-1.7c-4.9,0-7.6,5.1-7.6,9.9c0,2.6,0.6,6.7,4.8,6.7c0.6,0,1.2-0.1,1.7-0.2l1-6.9h5.4l-1.1,8
	c-2.5,1-4.7,1.4-7.4,1.4c-6.1,0-9.8-3.1-9.8-9c0-6.2,4.3-12.2,12.8-12.2c2.2,0,4.1,0.5,6,1.4L137.3,12.9z"/>
<polygon points="62.4,30 65.3,9.3 59.9,9.3 57,30 "/>
<polygon points="54.9,11.6 55.2,9.3 43.2,9.3 40.3,30 52.3,30 52.6,27.7 46,27.7 47,20.3 53.1,20.3 53.4,18.3 47.3,18.3 48.2,11.6 
	"/>
<polygon points="154.9,11.6 155.2,9.3 143.2,9.3 140.3,30 152.3,30 152.6,27.7 146,27.7 147,20.3 153.1,20.3 153.4,18.3 147.3,18.3 
	148.2,11.6 "/>
<polygon points="82.5,11.6 82.9,9.3 70.9,9.3 68,30 73.3,30 74.7,20.3 80.8,20.3 81.1,18.3 75,18.3 75.9,11.6 "/>
<polygon points="98.9,11.6 99.2,9.3 87.2,9.3 84.3,30 89.7,30 91.1,20.3 97.2,20.3 97.5,18.3 91.4,18.3 92.3,11.6 "/>
<path d="M104.5,21.4l3.6-6.4l1.4,6.4H104.5z M111.3,30h5.1l-4.3-20.6h-3.7L96.7,30h2.9l3.7-6.6h6.6L111.3,30z"/>
</svg>
