<svg xmlns="http://www.w3.org/2000/svg" viewBox="0 0 851.73 229.45"><g id="Calque_2" data-name="Calque 2"><g id="Calque_1-2" data-name="Calque 1"><path d="M470.61,229.45a121.46,121.46,0,0,1-14.52-2.89c-22.22-6.59-35.06-21.77-40.3-43.88a101.2,101.2,0,0,1-2.48-20.84c-.74-29.29-.21-58.58-.26-87.87,0-10.2.85-20.37,3.95-30.22,7.25-23,22.76-37.06,46.38-41.83A89,89,0,0,1,504.69,3c23,6.25,36.88,21.54,42.78,44.35a95,95,0,0,1,2.9,23.91c0,29.85.14,59.71,0,89.57-.09,13.19-2.41,26.05-8.66,37.89-8.8,16.65-23.09,25.75-41.21,29.43-2.57.52-5.18.89-7.77,1.32ZM502.13,114.5c0-14.92.09-29.85-.05-44.77a40,40,0,0,0-3.26-15.82c-2.38-5.41-6.3-8.88-12.32-9.83a38.07,38.07,0,0,0-6.21-.31c-8.21.08-14,4.23-16.65,12a48.48,48.48,0,0,0-2.4,15.77q-.18,42.5,0,85A49.25,49.25,0,0,0,464,173.63c2,5.45,5.63,9.21,11.48,10.48a29.57,29.57,0,0,0,8.34.61c7.5-.5,12.76-4.05,15.46-11.21a42.32,42.32,0,0,0,2.78-14.72C502.21,144,502.13,129.26,502.13,114.5Z"/><path d="M0,3.84c3.67,0,7.35-.15,11-.15q16.67,0,33.33,0c3.28,0,3.3,0,3.3,3.31V177c0,.72.06,1.44,0,2.15-.15,1.64.49,2.31,2.19,2.25,2.63-.1,5.27,0,7.91,0,14.63,0,29.26,0,43.89,0,2.36,0,3.18.59,3.16,3.07-.12,13-.08,26,0,39,0,1.93-.37,2.87-2.62,2.87q-50.24-.1-100.49-.05c-.55,0-1.11-.11-1.66-.16Z"/><path d="M668.1,115.39V7.15c0-3.46,0-3.47,3.36-3.47,12.55,0,25.11,0,37.66-.05,2.27,0,3,.62,3,3q-.09,108.36,0,216.74c0,2.29-.67,3-3,3q-17.86-.15-35.74,0a3.55,3.55,0,0,1-3.8-2.41Q645,170.11,620.36,116.38a5,5,0,0,0-1.35-1.92V222.72c0,3.54,0,3.54-3.55,3.54-12.55,0-25.1,0-37.66.05-2.38,0-3.19-.63-3.19-3.09q.09-108.24,0-216.5c0-2.44.8-3.11,3.19-3.09q18.23.17,36.46,0c2.33,0,3.35.86,4.25,2.86q24,53.41,48.06,106.76c.35.78.76,1.54,1.14,2.31Z"/><path d="M191.85,3.68c7.6,0,15.2.06,22.79,0,2,0,2.85.57,3.28,2.5q9.32,41.54,18.75,83,8.47,37.44,17,74.85,6.75,29.73,13.51,59.46c.46,2,.23,2.85-2.15,2.83q-21.46-.13-42.94,0c-1.93,0-2.81-.48-3.17-2.54-1.25-7-2.82-14.06-4.09-21.11-.39-2.18-1.3-2.83-3.47-2.81q-18.94.14-37.9,0c-2.24,0-3.21.55-3.59,2.93-1.1,6.92-2.57,13.78-3.79,20.69-.37,2-1.17,2.88-3.43,2.86-14.15-.11-28.3,0-42.45-.06-3,0-3-.1-2.37-3q9.8-44.24,19.6-88.47Q150,78,162.47,21.31c1.12-5.06,2.29-10.1,3.32-15.18.36-1.79,1.13-2.51,3-2.49C176.5,3.73,184.18,3.68,191.85,3.68Zm.35,74.86-.46,0c-.07.54-.13,1.08-.22,1.62L178.8,153.63c-.45,2.6-.21,2.94,2.44,3,7.27,0,14.55,0,21.82,0,2.11,0,2.79-.52,2.38-2.79-2.1-11.35-4-22.74-6-34.11Q195.81,99.12,192.2,78.54Z"/><path d="M283.94,114.73V7.92c0-.88,0-1.75,0-2.63a1.45,1.45,0,0,1,1.66-1.59c.64,0,1.28,0,1.92,0h100.5c3.52,0,3.52,0,3.53,3.59,0,12.77,0,25.54,0,38.31,0,2.27-.66,3-3,3-17.83-.08-35.65,0-53.48-.1-2.43,0-3.14.65-3.11,3.09q.17,18.91,0,37.84c0,2.34.74,3,3,2.95,16.71-.09,33.42,0,50.13,0,3.42,0,3.45,0,3.45,3.49q0,19.29,0,38.56c0,3.14-.09,3.23-3.23,3.23H335.28c-3.17,0-3.18,0-3.18,3.17v81.9c0,3.58,0,3.58-3.53,3.58H288c-4.1,0-4.1,0-4.1-4Z"/><path d="M816.18,137.45q0,42.63,0,85.25c0,3.56,0,3.56-3.52,3.56q-20.5,0-41,0c-3.27,0-3.28,0-3.28-3.31V52.21c0-3.65,0-3.65-3.62-3.65-9.68,0-19.35-.05-29,0-2.15,0-2.92-.58-2.9-2.82q.13-19.64,0-39.28c0-2.17.64-2.87,2.85-2.86q56.61.07,113.2,0c2.21,0,2.87.68,2.86,2.86q-.13,19.63,0,39.27c0,2.25-.75,2.85-2.9,2.83-9.91-.09-19.82,0-29.74-.09-2.32,0-3,.67-3,3Q816.24,94.47,816.18,137.45Z"/></g></g></svg>