<svg width="687" height="97" viewBox="0 0 687 97" fill="none" xmlns="http://www.w3.org/2000/svg">
<path d="M85.0177 0.963514C110.777 0.963514 136.536 0.963514 162.295 0.963514C164.165 0.963514 166.045 1.15359 167.925 1.12358C168.775 1.12358 169.535 1.33366 169.595 2.12396C169.624 2.48248 169.543 2.84122 169.365 3.15347C169.187 3.46572 168.918 3.71703 168.595 3.87463C168.495 3.92465 168.385 3.92466 168.295 3.97468C163.175 6.97582 162.965 7.10587 166.445 11.9777C176.105 25.5929 185.965 39.0681 195.734 52.6033C198.544 56.4948 201.394 60.3662 204.114 64.3278C205.294 66.0484 206.114 66.1284 207.334 64.3978C215.334 53.2135 223.504 42.1793 231.333 30.875C235.253 25.1928 238.803 19.2705 243.553 14.1986C245.413 12.1978 245.173 10.5972 242.823 9.06662C239.063 6.61568 234.823 5.22514 230.673 3.61452C229.254 3.07431 226.574 2.7642 227.114 0.903493C227.584 -0.697119 230.054 0.253248 231.593 0.563367C240.063 2.24401 256.993 5.96517 256.993 5.96517C256.993 5.96517 269.495 8.5764 275.492 11.4673C277.922 12.6977 278.542 14.4887 276.842 16.6295C262.463 34.9365 248.13 53.2769 233.843 71.6506C230.643 75.7621 227.454 79.8737 224.444 84.1153C223.858 85.0803 223.019 85.8653 222.017 86.3842C221.015 86.903 219.889 87.1356 218.764 87.0565C209.134 87.0565 199.504 87.1165 189.875 86.8264C189.097 86.8884 188.317 86.7564 187.603 86.4421C186.889 86.1278 186.264 85.6411 185.785 85.0257C175.075 70.7902 163.495 57.3851 152.436 43.4998C146.656 36.227 140.616 29.1543 134.866 21.8515C132.156 18.4102 128.766 16.8496 124.537 16.1593C113.887 14.5087 103.177 13.3183 92.5374 11.9777C70.2181 9.18667 47.8087 7.30595 25.3894 5.6053C17.8696 5.03509 10.3898 4.24477 2.87001 3.5545C1.63004 3.44446 0.00733241 3.25041 2.42314e-05 1.96364C-0.00728395 0.676873 1.64004 0.983267 2.87001 0.963259C20.2595 0.753179 55.1885 0.933503 55.1885 0.933503C65.1882 1.08356 75.0879 0.933503 85.0376 0.933503L85.0177 0.963514Z" fill="#3D9939"/>
<path d="M379.625 15.9682C379.625 23.271 379.625 30.3437 379.625 37.4164C379.625 40.9778 379.945 44.5391 379.895 48.0905C379.895 51.1817 381.315 52.6823 384.225 53.1524C385.805 53.4125 388.434 53.4726 388.224 55.1532C388.014 56.8339 385.355 56.1536 383.805 56.0035C378.909 55.4899 373.97 55.5369 369.085 56.1436C368.085 56.2837 366.525 56.8539 366.305 55.1432C366.135 53.8227 367.395 53.5326 368.445 53.3325C371.615 52.7323 372.915 51.1017 372.855 47.6003C372.645 33.685 372.755 19.7497 372.795 5.82433C372.795 4.53384 372.095 2.66314 373.525 2.09292C374.955 1.5227 376.185 2.97324 377.295 3.88359C386.105 11.1164 394.934 18.3391 403.674 25.6619C409.674 30.6639 415.574 35.8959 421.493 41.0378C422.343 41.8086 423.317 42.4308 424.373 42.8785C424.373 37.2964 424.443 31.7042 424.373 26.1121C424.303 20.52 423.973 15.2379 423.913 9.79585C423.913 7.49497 423.013 6.37454 420.713 6.07443C419.024 5.85434 416.414 5.76431 416.764 3.54346C417.014 1.90283 419.444 2.90321 420.884 2.94322C425.267 3.22502 429.665 3.19161 434.043 2.84321C435.043 2.73317 436.653 2.22295 436.823 3.94361C436.963 5.46419 435.823 6.17446 434.353 6.13445C432.143 6.06442 431.593 7.13485 431.583 9.21564C431.583 22.0906 431.263 34.9655 431.263 47.8404C431.263 47.8404 431.288 52.8677 431.288 55.4844C431.288 56.5201 430.713 56.9539 429.723 56.4437C428.59 55.9225 427.494 55.3242 426.443 54.653C410.794 43.7288 396.664 30.954 382.385 18.3691C381.425 17.5188 380.535 16.7085 379.625 15.9682Z" fill="#2F2D2F"/>
<path d="M340.49 24.3423C340.49 19.4204 340.37 14.4985 340.49 9.58665C340.59 6.68554 339.76 4.92485 336.62 4.82481C336.102 4.75452 335.59 4.64075 335.09 4.48469C334.18 4.31462 333.44 3.86448 333.53 2.85409C333.63 1.61361 334.71 1.85369 335.47 1.90371C341.001 2.27387 346.549 2.27387 352.08 1.90371C352.66 1.90371 353.62 1.70362 353.54 2.51393C353.46 3.32424 353.29 4.41466 352.4 4.5147C347.26 5.28499 348.4 9.27652 348.35 12.5178C348.18 20.4708 348.23 28.4239 348.12 36.3769C348.135 40.6755 346.565 44.8285 343.71 48.0414C336.08 56.6447 323.901 58.6554 314.621 56.3846C309.401 55.2267 304.575 52.7229 300.621 49.1218C296.461 45.2103 294.082 40.5885 294.161 34.7263C294.271 26.253 294.092 17.7698 294.161 9.29653C294.161 6.85559 293.851 5.19496 290.952 5.295C290.326 5.23178 289.714 5.06619 289.142 4.80482C288.272 4.51471 287.072 4.38465 287.302 3.11417C287.532 1.84368 288.642 2.3739 289.392 2.41392C295.555 2.7458 301.735 2.62205 307.881 2.04375C308.631 1.97372 309.731 1.61361 309.881 2.81407C309.898 3.19072 309.772 3.55985 309.526 3.84614C309.281 4.13242 308.936 4.3143 308.561 4.35466C303.791 5.35505 304.161 8.94641 304.151 12.4978C304.151 20.871 303.991 29.2442 304.011 37.6174C304.011 44.8101 307.011 49.0318 313.711 51.6228C322.311 54.894 332.57 52.6231 337.95 46.3507C339.609 44.5828 340.538 42.2528 340.55 39.8282C340.5 34.6963 340.55 29.5643 340.55 24.4423L340.49 24.3423Z" fill="#2F2D2F"/>
<path d="M595.403 1.96407C601.693 1.96407 607.653 1.96407 613.622 1.96407C614.752 1.96407 615.062 1.87404 615.082 3.37461C615.082 6.03563 613.302 8.04638 613.232 10.5773C613.221 10.7904 613.165 10.9988 613.069 11.1893C612.973 11.3798 612.838 11.5484 612.674 11.6846C612.51 11.8207 612.319 11.9215 612.114 11.9806C611.909 12.0397 611.694 12.0558 611.482 12.0279C610.413 12.0279 609.483 11.5977 609.413 10.5273C609.133 6.87594 606.193 6.97598 603.823 6.71588C600.713 6.37575 597.543 6.60584 594.413 6.46579C592.933 6.40576 592.643 7.09602 592.643 8.3365C592.643 13.3384 592.703 18.4004 592.643 23.4223C592.643 25.1629 593.273 25.6331 594.843 25.423C600.423 24.8528 606.163 26.1533 611.592 23.8124C613.362 23.0421 613.852 24.1225 613.592 25.7032C613.102 28.2541 612.092 30.705 612.162 33.3761C612.162 34.2564 611.622 34.6266 610.743 34.6666C609.483 34.7266 608.543 34.1664 608.543 32.9759C608.543 29.7647 606.463 29.5946 604.093 29.5946C601.163 29.5946 598.233 29.5946 595.303 29.4346C593.603 29.3445 592.803 29.8147 592.823 31.6654C592.87 36.7941 592.85 41.926 592.763 47.0613C592.763 49.7623 594.033 51.0028 596.553 51.523C599.641 52.0938 602.773 52.3917 605.913 52.4133C609.733 52.5434 612.092 50.4126 613.862 47.2614C614.232 46.6011 614.682 45.4407 615.602 45.7208C616.702 46.0609 616.352 47.2414 616.272 48.1617C615.642 55.0343 614.952 56.0347 608.093 56.1648C598.573 56.3849 589.093 56.0948 579.513 55.9947C578.843 55.9947 577.873 56.0747 577.783 55.0744C577.77 54.8874 577.794 54.6997 577.853 54.5221C577.913 54.3445 578.008 54.1806 578.132 54.0399C578.255 53.8993 578.406 53.7848 578.575 53.703C578.743 53.6213 578.926 53.5739 579.113 53.5638C582.853 53.2837 582.803 50.6827 582.793 47.9316C582.743 35.3568 582.613 22.792 582.793 10.2272C582.853 6.87595 581.643 5.33535 578.603 4.74513C578.223 4.6751 577.863 4.46502 577.483 4.405C577.276 4.39983 577.072 4.35372 576.883 4.26933C576.694 4.18494 576.523 4.06394 576.381 3.9133C576.239 3.76266 576.128 3.58537 576.055 3.39161C575.981 3.19786 575.947 2.99149 575.953 2.78439C576.023 1.52391 577.133 1.88405 577.893 1.88405C583.793 1.96408 589.753 2.47426 595.403 1.96407Z" fill="#2F2D2F"/>
<path d="M514.805 1.70361C514.605 3.51431 513.505 3.85445 512.725 3.90447C509.625 4.11455 510.085 5.64513 510.845 7.80596C515.075 19.7505 521.505 30.6747 526.635 42.1991C527.365 43.8498 528.255 43.7997 528.985 42.3592C534.575 31.405 541.305 20.991 544.984 9.13648C546.304 4.89486 546.154 4.85484 542.055 3.75442C541.718 3.73032 541.393 3.62137 541.11 3.43771C540.826 3.25404 540.594 3.00162 540.435 2.704C541.955 1.4035 543.814 2.02373 545.434 2.07375C549.724 2.2038 553.994 2.54394 558.274 1.96372C559.044 1.85368 560.154 1.60358 560.464 2.61397C560.774 3.62435 559.644 4.17457 558.974 4.30462C555.504 4.96487 554.094 7.71592 552.654 10.3669C545.434 23.682 538.285 37.0371 531.085 50.3823C530.145 52.1229 529.085 53.8236 527.985 55.4642C526.055 58.3253 525.335 58.2853 523.425 55.2741C520.275 50.3323 517.875 44.9902 515.275 39.7482C510.485 30.1245 506.196 20.2607 500.836 10.9172C498.836 7.48585 496.446 4.91486 492.306 4.31463C491.416 4.18458 490.126 3.94447 490.306 2.79403C490.486 1.64359 491.796 2.00375 492.656 2.00375C499.966 1.96373 507.276 2.33385 514.805 1.70361Z" fill="#2F2D2F"/>
<path d="M671.711 55.4545C670.111 56.4549 668.411 56.3849 666.791 56.4549C661.351 56.555 655.911 56.585 650.472 56.575C649.652 56.575 648.332 57.1152 648.142 55.7647C647.992 54.6943 648.972 54.054 649.972 54.004C653.421 53.8139 653.671 51.6831 653.651 48.852C653.541 36.0771 653.511 23.3123 653.721 10.5374C653.781 7.58624 652.721 6.986 650.202 7.08604C647.062 7.20609 643.922 7.01601 640.782 7.08604C637.922 7.08604 635.142 7.17609 633.722 10.4774C633.409 11.1026 632.885 11.5959 632.241 11.8691C631.598 12.1422 630.879 12.1773 630.212 11.9679C628.582 11.4577 629.642 9.91711 629.822 9.01677C630.336 6.851 631.005 4.72479 631.822 2.65435C632.182 1.65397 633.002 1.4439 634.112 1.60396C648.362 3.67475 662.701 2.67437 677.001 2.85444C679.091 2.85444 681.181 2.73439 683.271 2.60434C687.16 2.37426 687.17 2.36424 686.901 6.12568C686.811 7.37616 686.641 8.61664 686.461 9.85712C686.311 10.9175 686.8 12.4881 685.141 12.5982C683.921 12.6682 682.361 12.0979 682.141 10.7975C681.491 6.7459 678.551 7.10605 675.731 7.15607C672.381 7.20609 669.041 7.42617 665.731 7.39616C664.191 7.39616 663.731 7.91635 663.731 9.39692C663.771 23.1022 663.771 36.8141 663.731 50.5327C663.731 52.4534 664.491 53.2637 666.441 53.5938C668.211 53.8039 670.481 53.1537 671.711 55.4545Z" fill="#2F2D2F"/>
<path d="M463.656 56.1245C460.197 56.1245 456.747 56.1245 453.297 56.1245C452.407 56.1245 451.207 56.3345 451.237 54.904C451.237 53.7135 452.177 53.5435 453.237 53.4134C458.237 52.7932 458.667 52.413 458.687 47.4111C458.687 35.1564 458.597 22.8917 458.757 10.637C458.757 7.30576 457.657 5.32499 454.597 4.22457C453.787 3.93446 452.377 3.80441 452.597 2.63397C452.817 1.46352 454.187 1.87365 454.987 1.98369C460.712 2.61891 466.491 2.61891 472.216 1.98369C472.956 1.92367 474.096 1.38347 474.376 2.4939C474.586 3.35423 473.736 4.15453 472.926 4.27458C468.816 4.89482 468.756 7.77592 468.766 10.9972C468.766 23.1518 468.686 35.3065 468.686 47.4511C468.686 52.0729 469.166 54.0637 474.096 53.8236C475.096 53.8236 476.546 53.8236 476.396 55.2741C476.276 56.5146 474.896 56.1145 474.046 56.1245C470.596 56.1845 467.136 56.1245 463.686 56.1245H463.656Z" fill="#2F2D2F"/>
<path d="M298.634 71.2383C300.876 71.2383 302.612 71.9294 303.844 73.3115C305.076 74.6865 305.692 76.6273 305.692 79.1338C305.692 81.7262 305.083 83.7207 303.866 85.1172C302.648 86.5065 300.904 87.2012 298.634 87.2012C296.35 87.2012 294.595 86.5101 293.371 85.1279C292.153 83.7386 291.544 81.7406 291.544 79.1338C291.544 76.613 292.16 74.6686 293.392 73.3008C294.624 71.9258 296.371 71.2383 298.634 71.2383ZM298.634 73.2148C297.052 73.2148 295.841 73.7233 295.003 74.7402C294.166 75.75 293.747 77.2145 293.747 79.1338C293.747 81.096 294.169 82.6035 295.014 83.6562C295.859 84.7018 297.066 85.2246 298.634 85.2246C300.203 85.2246 301.402 84.6982 302.233 83.6455C303.071 82.5856 303.49 81.0817 303.49 79.1338C303.49 77.2288 303.071 75.7679 302.233 74.751C301.402 73.7269 300.203 73.2148 298.634 73.2148ZM320.874 71.4102C322.607 71.4102 323.932 71.804 324.849 72.5918C325.765 73.3724 326.224 74.5039 326.224 75.9863C326.224 77.4544 325.758 78.5895 324.827 79.3916C323.896 80.1865 322.578 80.584 320.874 80.584H318.393V86.9863H316.276V71.4102H320.874ZM320.874 78.7148C322.972 78.7148 324.022 77.8053 324.022 75.9863C324.022 75.0768 323.764 74.4001 323.248 73.9561C322.74 73.5049 321.948 73.2793 320.874 73.2793H318.393V78.7148H320.874ZM345.52 73.2793H340.965V86.9863H338.849V73.2793H334.026V71.4102H345.52V73.2793ZM355.256 71.4102H357.372V86.9863H355.256V71.4102ZM375.347 71.2383C376.142 71.2383 376.93 71.3493 377.711 71.5713C378.498 71.7861 379.236 72.1048 379.923 72.5273L379.043 74.2461C378.369 73.8809 377.736 73.6195 377.141 73.4619C376.547 73.2972 375.949 73.2148 375.347 73.2148C373.693 73.2148 372.415 73.7305 371.512 74.7617C370.61 75.7858 370.159 77.2503 370.159 79.1553C370.159 81.0745 370.603 82.557 371.491 83.6025C372.379 84.641 373.643 85.1602 375.283 85.1602C376.586 85.1602 377.915 84.8522 379.268 84.2363L380.042 86.041C379.325 86.3776 378.538 86.6462 377.678 86.8467C376.819 87.04 375.992 87.1367 375.197 87.1367C372.848 87.1367 371.054 86.4528 369.815 85.085C368.576 83.71 367.957 81.7334 367.957 79.1553C367.957 77.5153 368.25 76.1009 368.837 74.9121C369.425 73.7233 370.27 72.8138 371.373 72.1836C372.483 71.5534 373.808 71.2383 375.347 71.2383ZM391.969 82.4746L390.422 86.9863H388.295L393.655 71.4102H396.298L401.862 86.9863H399.8L398.189 82.4746H391.969ZM394.955 73.5908L392.603 80.6055H397.533L395.095 73.5908H394.955ZM420.89 86.9863H411.663V71.4102H413.779V85.1172H420.89V86.9863ZM452.125 73.2793H447.57V86.9863H445.454V73.2793H440.631V71.4102H452.125V73.2793ZM463.977 77.8984H470.401V79.7676H463.977V85.1172H471.367V86.9863H461.861V71.4102H471.131V73.2793H463.977V77.8984ZM488.053 71.2383C488.848 71.2383 489.636 71.3493 490.417 71.5713C491.204 71.7861 491.942 72.1048 492.63 72.5273L491.749 74.2461C491.076 73.8809 490.442 73.6195 489.847 73.4619C489.253 73.2972 488.655 73.2148 488.053 73.2148C486.399 73.2148 485.121 73.7305 484.218 74.7617C483.316 75.7858 482.865 77.2503 482.865 79.1553C482.865 81.0745 483.309 82.557 484.197 83.6025C485.085 84.641 486.349 85.1602 487.989 85.1602C489.292 85.1602 490.621 84.8522 491.974 84.2363L492.748 86.041C492.032 86.3776 491.244 86.6462 490.384 86.8467C489.525 87.04 488.698 87.1367 487.903 87.1367C485.554 87.1367 483.76 86.4528 482.521 85.085C481.282 83.71 480.663 81.7334 480.663 79.1553C480.663 77.5153 480.956 76.1009 481.544 74.9121C482.131 73.7233 482.976 72.8138 484.079 72.1836C485.189 71.5534 486.514 71.2383 488.053 71.2383ZM512.807 71.4102H514.923V86.9863H512.807V79.832H504.847V86.9863H502.731V71.4102H504.847V77.9629H512.807V71.4102ZM530.922 78.5859C530.248 77.6191 529.443 76.3408 528.505 74.751V86.9863H526.496V71.4102H528.279L534.048 79.5957C534.621 80.4049 535.48 81.7406 536.626 83.6025V71.4102H538.624V86.9863H536.841L530.922 78.5859ZM556.298 71.2383C558.54 71.2383 560.276 71.9294 561.508 73.3115C562.74 74.6865 563.356 76.6273 563.356 79.1338C563.356 81.7262 562.747 83.7207 561.53 85.1172C560.312 86.5065 558.568 87.2012 556.298 87.2012C554.014 87.2012 552.259 86.5101 551.034 85.1279C549.817 83.7386 549.208 81.7406 549.208 79.1338C549.208 76.613 549.824 74.6686 551.056 73.3008C552.288 71.9258 554.035 71.2383 556.298 71.2383ZM556.298 73.2148C554.715 73.2148 553.505 73.7233 552.667 74.7402C551.829 75.75 551.41 77.2145 551.41 79.1338C551.41 81.096 551.833 82.6035 552.678 83.6562C553.523 84.7018 554.73 85.2246 556.298 85.2246C557.866 85.2246 559.066 84.6982 559.897 83.6455C560.735 82.5856 561.154 81.0817 561.154 79.1338C561.154 77.2288 560.735 75.7679 559.897 74.751C559.066 73.7269 557.866 73.2148 556.298 73.2148ZM583.168 86.9863H573.94V71.4102H576.056V85.1172H583.168V86.9863ZM599.037 71.2383C601.279 71.2383 603.016 71.9294 604.247 73.3115C605.479 74.6865 606.095 76.6273 606.095 79.1338C606.095 81.7262 605.486 83.7207 604.269 85.1172C603.051 86.5065 601.308 87.2012 599.037 87.2012C596.753 87.2012 594.998 86.5101 593.774 85.1279C592.556 83.7386 591.948 81.7406 591.948 79.1338C591.948 76.613 592.563 74.6686 593.795 73.3008C595.027 71.9258 596.774 71.2383 599.037 71.2383ZM599.037 73.2148C597.455 73.2148 596.244 73.7233 595.407 74.7402C594.569 75.75 594.15 77.2145 594.15 79.1338C594.15 81.096 594.572 82.6035 595.417 83.6562C596.262 84.7018 597.469 85.2246 599.037 85.2246C600.606 85.2246 601.805 84.6982 602.636 83.6455C603.474 82.5856 603.893 81.0817 603.893 79.1338C603.893 77.2288 603.474 75.7679 602.636 74.751C601.805 73.7269 600.606 73.2148 599.037 73.2148ZM627.991 86.041C627.275 86.3776 626.462 86.6462 625.553 86.8467C624.643 87.04 623.769 87.1367 622.931 87.1367C620.582 87.1367 618.789 86.4528 617.55 85.085C616.311 83.71 615.691 81.7334 615.691 79.1553C615.691 77.5153 615.985 76.1009 616.572 74.9121C617.159 73.7233 618.004 72.8138 619.107 72.1836C620.217 71.5534 621.542 71.2383 623.082 71.2383C623.891 71.2383 624.707 71.3493 625.531 71.5713C626.362 71.7861 627.146 72.1048 627.884 72.5273L627.003 74.2461C626.301 73.8952 625.635 73.6374 625.005 73.4727C624.374 73.3008 623.734 73.2148 623.082 73.2148C621.428 73.2148 620.149 73.7305 619.247 74.7617C618.345 75.7858 617.893 77.2503 617.893 79.1553C617.893 81.0745 618.337 82.557 619.225 83.6025C620.113 84.641 621.377 85.1602 623.017 85.1602C623.956 85.1602 624.912 85.0133 625.886 84.7197V79.2412H627.991V86.041ZM638.726 71.4102H640.842V86.9863H638.726V71.4102ZM654.531 77.8984H660.955V79.7676H654.531V85.1172H661.922V86.9863H652.415V71.4102H661.685V73.2793H654.531V77.8984ZM676.567 71.2383C677.813 71.2311 679.102 71.5068 680.434 72.0654L679.908 74.0098C678.576 73.4941 677.448 73.2363 676.524 73.2363C675.586 73.2363 674.841 73.4189 674.289 73.7842C673.738 74.1494 673.462 74.6579 673.462 75.3096C673.462 75.7822 673.559 76.1761 673.752 76.4912C673.953 76.7992 674.289 77.0785 674.762 77.3291C675.235 77.5798 675.894 77.8304 676.739 78.0811C678.25 78.5179 679.324 79.0944 679.961 79.8105C680.599 80.5195 680.917 81.4827 680.917 82.7002C680.917 84.0967 680.448 85.1924 679.51 85.9873C678.572 86.7822 677.283 87.1797 675.643 87.1797C674.232 87.1797 672.664 86.8145 670.938 86.084L671.572 84.1719C672.538 84.5514 673.308 84.8164 673.881 84.9668C674.454 85.11 675.041 85.1816 675.643 85.1816C676.595 85.1816 677.347 84.9632 677.899 84.5264C678.45 84.0824 678.726 83.4808 678.726 82.7217C678.726 82.2347 678.622 81.8301 678.414 81.5078C678.207 81.1855 677.849 80.8955 677.34 80.6377C676.839 80.3799 676.126 80.1257 675.203 79.875C673.792 79.4954 672.782 78.9727 672.173 78.3066C671.564 77.6406 671.26 76.7419 671.26 75.6104C671.26 74.2282 671.729 73.154 672.667 72.3877C673.613 71.6214 674.912 71.2383 676.567 71.2383Z" fill="black"/>
</svg>
