<svg id="Calque_1" data-name="Calque 1" xmlns="http://www.w3.org/2000/svg" xmlns:xlink="http://www.w3.org/1999/xlink" viewBox="0 0 1082.52 320.35"><defs><style>.cls-1{fill:url(#Dégradé_sans_nom_69);}.cls-2{fill:url(#Dégradé_sans_nom_69-2);}.cls-3{fill:url(#Dégradé_sans_nom_69-3);}.cls-4{fill:url(#Dégradé_sans_nom_69-4);}.cls-5{fill:url(#Dégradé_sans_nom_69-5);}.cls-6{fill:url(#Dégradé_sans_nom_69-6);}.cls-7{fill:#2b2b2b;}.cls-8{fill:#2556ae;}</style><linearGradient id="Dégradé_sans_nom_69" x1="282.34" y1="228.3" x2="505.57" y2="228.3" gradientUnits="userSpaceOnUse"><stop offset="0" stop-color="#133696"/><stop offset="1" stop-color="#3776c6"/></linearGradient><linearGradient id="Dégradé_sans_nom_69-2" x1="208.74" y1="322.73" x2="437.28" y2="322.73" xlink:href="#Dégradé_sans_nom_69"/><linearGradient id="Dégradé_sans_nom_69-3" x1="218.41" y1="370.45" x2="420.75" y2="370.45" xlink:href="#Dégradé_sans_nom_69"/><linearGradient id="Dégradé_sans_nom_69-4" x1="242.98" y1="414.25" x2="401.8" y2="414.25" xlink:href="#Dégradé_sans_nom_69"/><linearGradient id="Dégradé_sans_nom_69-5" x1="274.87" y1="450.59" x2="378.18" y2="450.59" xlink:href="#Dégradé_sans_nom_69"/><linearGradient id="Dégradé_sans_nom_69-6" x1="209.35" y1="358.87" x2="529.07" y2="358.87" xlink:href="#Dégradé_sans_nom_69"/></defs><path class="cls-1" d="M505.57,248.72c0,6.06-.19,12.08-.53,18.06l-17.2-11-2-1.3c0-1,0-2.07,0-3.11,0-.84,0-1.68,0-2.52,0-2.92,0-5.85-.13-8.76A285.5,285.5,0,0,0,304,214.69l-21.61-15.52A305.63,305.63,0,0,1,504.86,227.8Q505.56,238.17,505.57,248.72Z" transform="translate(-208.74 -189.83)"/><path class="cls-2" d="M437.28,376.52a5.17,5.17,0,0,1-.35,1.86.36.36,0,0,0,0,.11c-.17.29-.33.58-.47.85l-.06.08c-.77,1.38-1.54,2.74-2.33,4.11q-2.2,3.81-4.54,7.54L253.71,320.2l-18.08-7.28-10-4-.09,0-2.53-1-.07,0a20.42,20.42,0,0,1-11.07-14.69s0,0,0-.07,0-.05,0-.08v0c-.06-.44-.11-.9-.19-1.35v0s0,0,0,0a304.32,304.32,0,0,1-2.91-37.1l20.06,10.45h0l16.42,8.54v0L434.54,372l.14.08A5.08,5.08,0,0,1,437.28,376.52Z" transform="translate(-208.74 -189.83)"/><path class="cls-3" d="M420.75,403.25a3.2,3.2,0,0,1-.34,1.42s0,0,0,0l-.44.6,0,0q-3.71,5.17-7.66,10.17l-133.9-35.21-20.63-5.43-16.07-4.22-.62-.16h0a17.28,17.28,0,0,1-10.62-8.74.19.19,0,0,0,0-.08v0l0,0s0,0,0,0c-.38-.92-.75-1.85-1.09-2.78,0,0,0,0,0-.05a299.67,299.67,0,0,1-10.77-33.4L241.34,334l10.06,3.77.14,0a.61.61,0,0,0,.17.07l.08,0,8.57,3.22,158.25,59.24.28.11A3.05,3.05,0,0,1,420.75,403.25Z" transform="translate(-208.74 -189.83)"/><path class="cls-4" d="M401.8,427.16a2,2,0,0,1-.58,1.4c-3.29,3.66-6.68,7.25-10.18,10.72l-78.78-11.56-23.42-3.44-20.91-3.07h-.09L266.5,421l-.05,0a12.77,12.77,0,0,1-7.33-4.42l0,0,0-.06c-.5-.74-1-1.5-1.46-2.25l0-.05a.11.11,0,0,1,0-.05l0,0A286.57,286.57,0,0,1,243,389.22l25.79,5.91,21.9,5h0l109.56,25.08A2,2,0,0,1,401.8,427.16Z" transform="translate(-208.74 -189.83)"/><path class="cls-5" d="M299.81,462.25h0a10.52,10.52,0,0,1-5.88-2.29h0c-.66-.67-1.3-1.35-1.94-2v0q-9-9.45-17.08-19.64l28.45,3.11,24.8,2.71,48.76,5.35.27,0a1.29,1.29,0,0,1,1,1.27,1.27,1.27,0,0,1-.38.92.83.83,0,0,1-.2.16q-6.6,5.79-13.6,11.11l-13.95-.14-25.14-.26L301,462.26h0" transform="translate(-208.74 -189.83)"/><path class="cls-6" d="M529.07,327.86a17.38,17.38,0,0,1-.92,5.62,25.74,25.74,0,0,0-19.21-8.61c-.94,0-1.86.05-2.78.14v0l-9.65,11h0l-.53.6-5.07,5.77-4.54,5.17-3.14,3.56h0v12.34s0,.06,0,.09q-3.35,8.22-7.17,16.2A305.63,305.63,0,0,1,357.12,510.17a304,304,0,0,1-47.41-35h30.67q8.14,6.21,16.74,11.86,8.58-5.64,16.73-11.86a286.63,286.63,0,0,0,73.8-83.79Q453.71,381,458.86,370l-13.74-7.81L249.37,251.06l-3-1.72-.33-.18,0,0s0,0-.06,0l-16.26-9.22-20.31-11.54a.34.34,0,0,1,0-.1,297.86,297.86,0,0,1,40.31-18.74l.27-.13c.62-.24,1.22-.46,1.84-.67l.25-.09a22.75,22.75,0,0,1,19,2.57l.1.07,1.83,1.32.28.21,9.47,6.8,16.86,12.11L430.21,325.5l14.38-9,19.8-12.4,6.67-4.16.77.2,8,2-6.57-4.92-6.67-5-13.34-10a0,0,0,0,1,0,0s-2.27-1.69-2.29-1.72a23,23,0,0,1-8.11-16.88v-1.53l0-16.59,4.91,3.14,22,14.11,15.13,9.71,1.57,1,17,10.93,5.09,3.27a25.91,25.91,0,0,1,12.78,25.49A17.71,17.71,0,0,1,529.07,327.86Z" transform="translate(-208.74 -189.83)"/><path class="cls-7" d="M627.81,336.82c-8.79,0-13.85-3.87-14-13.1l.75-.75a32.07,32.07,0,0,0,5.36.3c12.8,0,20.69-8.93,20.69-21.29,0-13-8.48-20-21.14-20a54.09,54.09,0,0,0-8.49.74V374.2H587V269.67c12.36-.6,24.86-1.05,37.37-1.05,21,0,40.51,7.15,40.51,31.57C664.89,320.29,647.61,336.82,627.81,336.82Z" transform="translate(-208.74 -189.83)"/><path class="cls-7" d="M756.76,374.2V326H711.05V374.2h-24V269.07h24v40.5h45.71v-40.5h24.12V374.2Z" transform="translate(-208.74 -189.83)"/><path class="cls-7" d="M855.64,377c-34.1,0-52.57-26.06-52.57-58.52,0-31.87,23.08-52.27,54-52.27,31.57,0,53.46,18,53.46,50.78C910.58,350.22,889.73,377,855.64,377Zm1.19-96c-21.89,0-29,20-29,38.42s6.7,42.89,29.33,42.89c21.89,0,28.74-25.62,28.74-43C885.86,301.38,878.12,281,856.83,281Z" transform="translate(-208.74 -189.83)"/><path class="cls-7" d="M956.74,285.45v27.4h13c10.12,0,22.48-.6,25.31-1.19l.75.89c-.3,11.47-5.66,15.93-14.6,15.93H956.74v28.89h18.77c10.12,0,22.48-.59,25.31-1.19l.74.89c-.29,11.47-5.66,17.13-14.74,17.13H932.77V269.07H996.5v16.38Z" transform="translate(-208.74 -189.83)"/><path class="cls-7" d="M1103.12,374.2l-41.7-52.12a137.26,137.26,0,0,1-11.76-17.27h-.45V374.2h-18.46V288c0-3.42-1.34-6.4-5.21-6.4a6.87,6.87,0,0,0-3,.74l-.89-.89c0-8.79,7-13.7,15.93-13.7s15.19,4.17,21.44,12.36l29.63,37.67c5.51,7.3,10.87,15.19,14.15,21.89h.45V269.07h18.46V374.2Z" transform="translate(-208.74 -189.83)"/><path class="cls-7" d="M1153,374.2V269.07h24V374.2Z" transform="translate(-208.74 -189.83)"/><path class="cls-7" d="M1258.87,374.2c-6.7-13-13.4-26.06-19.95-39h-.3c-7.74,19.06-15.18,39.76-30.07,39.76a12.86,12.86,0,0,1-13-12.95,10,10,0,0,1,.6-3.87l1.34-.75a7.23,7.23,0,0,0,3.72,1c9.53,0,15.63-16.23,26.06-37.67l-29.19-51.67h28l18.61,37.38h.3c7.74-18.77,14.59-38.27,29-38.27,7.6,0,12.07,5.51,12.07,11.76a11.4,11.4,0,0,1-.45,3.87l-1.34,1.19a7.78,7.78,0,0,0-3.72-1c-8.94,0-15.79,16.68-24.57,35.59,10.27,18.31,20.69,36.48,31,54.65Z" transform="translate(-208.74 -189.83)"/><path class="cls-8" d="M601.12,440,587.6,404H593l11.08,30.73L614.89,404h5l-13.16,35.85Z" transform="translate(-208.74 -189.83)"/><path class="cls-8" d="M628.21,426.87c0-7.79,4.76-12.91,11.9-12.91,6.38,0,10.58,4.71,9.72,13.27H632.77c0,6.07,3.75,9.42,9.52,9.42a19,19,0,0,0,7.85-1.72l-.15,3.54a18.19,18.19,0,0,1-8.26,2C632.92,440.55,628.21,435,628.21,426.87Zm17.32-16.15-6.18-5.92L633,410.67l-2.38-2.23,9.12-8.25,8.65,8.15Zm-.1,13.27c.05-4.15-2.38-6.69-6-6.69-3.24,0-6.28,2.33-6.58,6.74Z" transform="translate(-208.74 -189.83)"/><path class="cls-8" d="M665.23,432.14V418.72h-3.9v-3.19l4.1-.45.71-5.17,3.7-.05v5.22h7.75l-.21,3.64h-7.54v13c0,3.95,2.18,4.87,4.4,4.87a11.54,11.54,0,0,0,4.21-.86l-.05,3.59a12.81,12.81,0,0,1-5.07,1.11C668.88,440.39,665.23,438.57,665.23,432.14Z" transform="translate(-208.74 -189.83)"/><path class="cls-8" d="M690.1,426.87c0-7.79,4.76-12.91,11.9-12.91,6.38,0,10.58,4.71,9.72,13.27H694.65c0,6.07,3.75,9.42,9.52,9.42a19,19,0,0,0,7.85-1.72l-.15,3.54a18.15,18.15,0,0,1-8.25,2C694.81,440.55,690.1,435,690.1,426.87ZM707.31,424c.05-4.15-2.38-6.69-6-6.69-3.24,0-6.28,2.33-6.59,6.74Z" transform="translate(-208.74 -189.83)"/><path class="cls-8" d="M726.61,439.94V414.67l4.15-.4.15,3.14h.1a9.85,9.85,0,0,1,7.75-3.4,8,8,0,0,1,7.44,4.1,10.81,10.81,0,0,1,8.71-4.1c6.08,0,9,3.7,9,10.64v15.29h-4.61V425.66c0-4.41-1-7.7-5.62-7.7a8.33,8.33,0,0,0-6.43,3.19,23.19,23.19,0,0,1,.3,4.41v14.38H743V425.66c0-4.41-1-7.7-5.57-7.7a8.68,8.68,0,0,0-6.22,2.89v19.09Z" transform="translate(-208.74 -189.83)"/><path class="cls-8" d="M777.86,426.87c0-7.79,4.76-12.91,11.9-12.91,6.38,0,10.58,4.71,9.72,13.27H782.42c0,6.07,3.74,9.42,9.51,9.42a18.94,18.94,0,0,0,7.85-1.72l-.15,3.54a18.12,18.12,0,0,1-8.25,2C782.57,440.55,777.86,435,777.86,426.87ZM795.07,424c.06-4.15-2.38-6.69-6-6.69-3.24,0-6.28,2.33-6.58,6.74Z" transform="translate(-208.74 -189.83)"/><path class="cls-8" d="M814.37,439.94V414.67l4.15-.4.16,3.14h.1a9.83,9.83,0,0,1,7.74-3.4c6,0,8.92,3.7,8.92,10.64v15.29h-4.61V425.66c0-4.41-1-7.7-5.62-7.7a8.68,8.68,0,0,0-6.23,2.89v19.09Z" transform="translate(-208.74 -189.83)"/><path class="cls-8" d="M851.24,432.14V418.72h-3.9v-3.19l4.1-.45.71-5.17,3.7-.05v5.22h7.74l-.2,3.64h-7.54v13c0,3.95,2.17,4.87,4.4,4.87a11.5,11.5,0,0,0,4.2-.86l-.05,3.59a12.73,12.73,0,0,1-5.06,1.11C854.88,440.39,851.24,438.57,851.24,432.14Z" transform="translate(-208.74 -189.83)"/><path class="cls-8" d="M876.56,438.77l-.1-3.79a17,17,0,0,0,7.24,1.72c3.54,0,5.06-2.08,5.06-3.8,0-1.32-.56-2.74-4.1-3.95l-2.38-.81c-4.15-1.42-5.72-3.9-5.72-6.89s2.53-7.24,9.26-7.24a16.64,16.64,0,0,1,6.69,1.32l-.31,3.54a17.58,17.58,0,0,0-6.22-1.21c-3.5,0-4.86,1.87-4.86,3.34,0,1.32.86,2.58,4,3.65l2.38.81c4.7,1.62,6,4.7,6,7.14,0,3.39-2.58,7.79-9.67,7.79A17.7,17.7,0,0,1,876.56,438.77Z" transform="translate(-208.74 -189.83)"/><path class="cls-8" d="M955.86,440.85a54.77,54.77,0,0,1-7.54-4.91,17.74,17.74,0,0,1-11.91,4.5c-8.86,0-13.11-5.26-13.11-10.53,0-3.59,1.82-7,7.24-9.72-3.44-3.24-4.61-5.82-4.61-8.3,0-4.76,4-8.41,9.78-8.41s9.21,3.6,9.21,8c0,2.58-1,6.48-7.54,9.57a120.45,120.45,0,0,0,10.48,9c2.08-2.78,2.78-6.17,2.78-9.87a26.21,26.21,0,0,0-.6-5.77h4.3a21.36,21.36,0,0,1-2.94,18.18,63.28,63.28,0,0,0,8.16,5.16Zm-11-7.55c-3.69-2.93-7.39-6.27-11.85-10.48-3.74,1.78-5,4.36-5,6.64,0,3.54,2.94,7,8.66,7A12,12,0,0,0,944.87,433.3Zm-4.25-21.52c0-2.83-2.08-4.7-5.12-4.7s-5.11,1.77-5.11,4.65c0,1.93.66,3.55,4.25,6.89C939.76,416.29,940.62,413.41,940.62,411.78Z" transform="translate(-208.74 -189.83)"/><path class="cls-8" d="M990.35,439.94V404h7c9.06,0,15.29,3.69,15.29,11.49,0,7.19-5.37,11.7-12.66,11.7a14.15,14.15,0,0,1-2-.15v-3.9h1.21c5.11,0,8.46-2.64,8.46-7.29,0-5.68-4.46-7.65-10.59-7.65h-1.82v31.75Z" transform="translate(-208.74 -189.83)"/><path class="cls-8" d="M1026.1,439.94V414.67l4.26-.4.05,3.54h.1a6.47,6.47,0,0,1,6.33-3.8,9.44,9.44,0,0,1,3,.46l-.36,4.1a11.29,11.29,0,0,0-3-.41,6.46,6.46,0,0,0-5.72,3.35v18.43Z" transform="translate(-208.74 -189.83)"/><path class="cls-8" d="M1064,440.44c-6.78,0-12.2-5-12.2-13.36S1057.2,414,1064.49,414c7,0,12,4.76,12,12.66C1076.44,435.58,1070.77,440.44,1064,440.44Zm.1-22.73c-4.45,0-7.64,3.19-7.64,9.11,0,5.52,3,9.88,7.54,9.88h.41c4.3,0,7.34-3.8,7.34-9.67C1071.73,421.61,1069,417.71,1064.08,417.71Z" transform="translate(-208.74 -189.83)"/><path class="cls-8" d="M1091.18,432.14V418.72h-3.9v-3.19l4.1-.45.71-5.17,3.7-.05v5.22h7.74l-.2,3.64h-7.54v13c0,3.95,2.17,4.87,4.4,4.87a11.5,11.5,0,0,0,4.2-.86l-.05,3.59a12.73,12.73,0,0,1-5.06,1.11C1094.82,440.39,1091.18,438.57,1091.18,432.14Z" transform="translate(-208.74 -189.83)"/><path class="cls-8" d="M1116,426.87c0-7.79,4.76-12.91,11.9-12.91,6.38,0,10.59,4.71,9.72,13.27H1120.6c0,6.07,3.75,9.42,9.52,9.42a19,19,0,0,0,7.85-1.72l-.15,3.54a18.19,18.19,0,0,1-8.26,2C1120.75,440.55,1116,435,1116,426.87Zm17.22-2.88c0-4.15-2.38-6.69-6-6.69-3.24,0-6.28,2.33-6.58,6.74Z" transform="translate(-208.74 -189.83)"/><path class="cls-8" d="M1151.39,427.48c0-9,5.32-13.52,12.51-13.52a16.89,16.89,0,0,1,6.68,1.32l-.4,3.8a15.83,15.83,0,0,0-6.13-1.22c-4.51,0-8,2.69-8,9,0,6.48,3.7,9.73,8.4,9.73a15.48,15.48,0,0,0,6.54-1.62l-.1,3.84a16.1,16.1,0,0,1-7,1.67C1156,440.44,1151.39,435.18,1151.39,427.48Z" transform="translate(-208.74 -189.83)"/><path class="cls-8" d="M1186.23,432.14V418.72h-3.9v-3.19l4.1-.45.71-5.17,3.7-.05v5.22h7.75l-.21,3.64h-7.54v13c0,3.95,2.18,4.87,4.4,4.87a11.54,11.54,0,0,0,4.21-.86l0,3.59a12.81,12.81,0,0,1-5.07,1.11C1189.88,440.39,1186.23,438.57,1186.23,432.14Z" transform="translate(-208.74 -189.83)"/><path class="cls-8" d="M1211.65,405.91a2.94,2.94,0,0,1,3.14-3,2.88,2.88,0,0,1,3.09,3,3,3,0,0,1-3.14,3A2.9,2.9,0,0,1,1211.65,405.91Zm.81,34V415l4.61-.4v25.37Z" transform="translate(-208.74 -189.83)"/><path class="cls-8" d="M1243.51,440.44c-6.79,0-12.21-5-12.21-13.36S1236.72,414,1244,414c7,0,12,4.76,12,12.66C1256,435.58,1250.29,440.44,1243.51,440.44Zm.1-22.73c-4.46,0-7.65,3.19-7.65,9.11,0,5.52,3,9.88,7.55,9.88h.4c4.3,0,7.34-3.8,7.34-9.67C1251.25,421.61,1248.47,417.71,1243.61,417.71Z" transform="translate(-208.74 -189.83)"/><path class="cls-8" d="M1270.2,439.94V414.67l4.15-.4.15,3.14h.1a9.85,9.85,0,0,1,7.75-3.4c6,0,8.91,3.7,8.91,10.64v15.29h-4.61V425.66c0-4.41-1-7.7-5.62-7.7a8.71,8.71,0,0,0-6.23,2.89v19.09Z" transform="translate(-208.74 -189.83)"/></svg>