<svg xmlns="http://www.w3.org/2000/svg" viewBox="0 0 541.59 286.13"><defs><style>.cls-1{fill:#fefefe;}.cls-2{fill:#2b2e5e;}.cls-3{fill:#ed732b;}</style></defs><g id="Calque_2" data-name="Calque 2"><g id="Calque_1-2" data-name="Calque 1"><path class="cls-1" d="M.59,286.11c-.16-.12-.55.26-.53-.27,0-.7,0-1.4,0-2.11Q.07,143.12,0,2.52C0,.26.6,0,2.63,0Q270.7.1,538.76,0c2.35,0,2.66.63,2.65,2.75q-.09,78.35,0,156.7c-1.22,1.16-2.37-.14-3.54-.19-23-1.09-45.62-4.84-68.35-8a7,7,0,0,1-3.36-1.31c-9.87-7.36-19.88-14.53-29.62-22-3.89-3-7.92-5.14-12.82-5.41-5.31-.31-9.2-2.76-12.68-6.8-3.93-4.57-7.76-9.35-12.84-12.81-4.07-2.77-8.22-5.43-12.16-8.37a11.18,11.18,0,0,0-7.3-2.18c-5.88,0-11.79,1-17.64-.07-7.88-1.38-15.71-3-23.59-4.41a7.77,7.77,0,0,1-4.29-2.26c-9.61-9.28-19.29-18.49-28.86-27.82-5-4.84-10.25-9.36-14.83-14.6,1.1-.54.88-1.64,1-2.54a32.31,32.31,0,0,0-4-20.33C276.11,1.66,251.05-5.06,232,5.59c-17.69,9.87-24.25,30-15.2,47.11,2.38,4.49,5.33,8.63,9.93,11.24-.85.88-1.67,1.8-2.57,2.63-8,7.39-16,14.8-24.09,22.12-1.41,1.28-1.63,1.79.26,2.78,11,5.72,21.78,11.87,32.94,17.23,4.72,2.26,4.83,5.89,5.6,10.17-3.9-2-7.47-3.64-9.65-7.23a6.7,6.7,0,0,0-4.39-3c-2.95-.76-6-1.32-8.75-2.81q-18.44-10-36.93-19.85a9,9,0,0,0-10.57,1.25c-17.38,15-34.87,29.84-52,45.06-4.15,3.67-8,5.5-13.57,4.16a22.29,22.29,0,0,0-12.51.13c-8.9,3-17.84,5.93-26.78,8.82-3.06,1-6,2.37-9.45,1.8s-6.68-.49-10-1.06c-5.08-.87-9.26,1.24-12.83,4.17C22.11,157.91,13.09,165.9,4,173.75c-1,.83-1.9,1.7-3.05,2.74a7.85,7.85,0,0,0,1.06.35c11.94,1.55,23.87,3.21,35.83,4.6,5.67.66,11.28,2.13,17,1.71,6.85-.49,13.67-1.26,20.51-1.79,9.82-.76,19.59-2.33,29.45-2.27,13.9.09,27.79.59,41.69.88q29.15.6,58.31,1.15c1.33,0,2.66,0,4,0-8.42-1.71-17.08-2.12-26-3.78,4.15-3.78,8-7.21,11.76-10.79a3.71,3.71,0,0,1,3.75-1c18.61,3.76,37.23,7.45,55.85,11.19a8.06,8.06,0,0,0,4.63-.36c8.13-3.11,16.26-6.2,24.44-9.17,3-1.07,5.76-2.76,9-3,7.2-.42,14.41-.71,21.62-1,12.38-.53,24.79-.77,37-3.21,4.82-1,9.68-2.13,14.6-2.14,11.43,0,22.87.33,34.3.38,5.54,0,11.12.71,16.6-.13,6.43-1,12.75-2.56,19.15-3.71,3.12-.57,6.14-1.66,9.5-.19,6.2,2.71,12.66,4.8,18.88,7.46A29,29,0,0,0,476.93,164c3.86-.17,7.74.06,11.61,0,9.32-.11,18.68.8,27.94-.45,8.07-1.09,16.2-2.07,24.11-4.16.39-.1.66.15.77.54q0,62-.05,124c0,.66,1.09,2.27-1,2.11,0-3.52,0-7,.07-10.55,0-4.08,0-4.08-4-4.08H3.76a6.13,6.13,0,0,1-1,0c-1.81-.28-2.2.58-2.15,2.24C.66,277.84.59,282,.59,286.11ZM334.68,235l-.68.06c-4.15-11-8.35-21.92-12.45-32.91-1.7-4.53-.75-5.84,4.1-6.3.67-.06,1.78.4,1.84-.87s-1.07-.92-1.74-.92q-13.72,0-27.45,0c-.64,0-1.56-.31-1.58.82s.89.9,1.55.93c3.09.18,5,2,6.19,4.63,1.64,3.78,3.13,7.63,4.71,11.44a3,3,0,0,1,0,2.53c-3.13,7.45-6.24,14.9-9.41,22.51a3.57,3.57,0,0,1-.57-.72c-4.56-11.42-9.18-22.82-13.59-34.29-1.55-4-.74-5.08,3.65-6.09.63-.14,1.28-.17,1.2-1s-.84-.72-1.4-.73l-24.8-.14c-.64,0-1.28-.07-1.36.81s.36,1.05,1.09,1.14c2.15.28,3.38,1.71,4.22,3.56.74,1.59,1.51,3.18,2.16,4.8q10.59,26.26,21.17,52.53c.36.9.35,2.29,1.73,2.37s1.43-1.37,1.81-2.25c3.12-7.26,6.17-14.55,9.26-21.83,2.34-5.52,4.69-11,7.28-17.12,1,2.64,1.8,4.66,2.57,6.69q6.21,16.38,12.44,32.75c.28.75.28,1.82,1.56,1.81s1.33-1,1.64-1.77c.69-1.71,1.3-3.45,2-5.17q9.94-25.8,19.91-51.61c.82-2.13,2-3.92,4.35-4.59.69-.2,1.47-.25,1.26-1.27s-1-.62-1.51-.62c-4.48,0-9,0-13.46,0-.61,0-1.58-.33-1.58.81s.89.85,1.56.94c2.28.3,4.42.81,4.68,3.67a9.29,9.29,0,0,1-.57,4.15Q340.61,219.4,334.68,235Zm-180-41.32c-6.33,0-12.66,0-19,0-.72,0-2-.58-2,.89s1.1.79,1.76.86c5.86.54,7.06,1.64,7.09,7.53q.11,22.68,0,45.36c0,5.47-1.49,6.82-6.83,7.23-.75.06-2-.47-2,.94s1.27.92,2,.93c8.1,0,16.19,0,24.28,0,1.76,0,3.51,0,5.27,0,.65,0,1.28-.06,1.22-1,0-.69-.52-.83-1.08-.87s-.88,0-1.32-.08c-4.79-.38-6.33-1.81-6.43-6.5-.13-6.32-.06-12.65,0-19,0-.65-.26-1.58.84-1.58,1.68,0,3.25-.32,4.56,1.61,5.82,8.57,11.86,17,17.84,25.47.57.81.91,1.92,2.28,1.91,6,0,12,0,17.94,0,.54,0,1.09,0,1.19-.75a1,1,0,0,0-1-1.26c-3-.41-4.73-2.52-6.33-4.76-5.15-7.23-10.24-14.5-15.45-21.68-1.21-1.67-.44-1.86,1-2.32,5.59-1.79,9.83-5.11,11.38-11,2.59-9.92-3.46-19-13.95-20.93C170.17,193.41,162.4,193.8,154.67,193.7Zm-61-1a29.51,29.51,0,0,0-10.15,1.18C63,200.11,55.68,222.21,63.86,240.26c8.88,19.58,29.6,21.07,43,16.62,18.92-6.27,27.55-30.3,17.47-48C117.74,197.24,107.32,192.42,93.67,192.71Zm201-18.33.11.64c5.15-.41,10.3-.85,15.45-1.22,13.07-1,26.14-1.89,39.21-2.86a7.46,7.46,0,0,1,3.58.55c5.59,2.34,11.23,4.57,16.81,6.93a8.12,8.12,0,0,0,4.84.52c23.79-4.23,47.6-8.38,71.39-12.62a3.07,3.07,0,0,1,3.5,1.46c2.66,3.71,5.56,7.25,8.22,11a3.85,3.85,0,0,0,3.91,1.87c16-1.36,32.08-2.68,48.13-3.82,2.92-.21,4-1.1,4.09-4.09,0-2.14-.23-2.84-2.56-2.83-14.33.1-28.67,0-43,0A10.12,10.12,0,0,1,464,169c-6.89-3.11-13.83-6.09-20.71-9.2a8.5,8.5,0,0,0-4.33-.71c-17.62,1.38-35.24,2.8-52.87,4-17.28,1.21-34.53,2.71-51.62,5.62-6.72,1.14-13.48,2.13-20.2,3.13C307.8,172.84,301.23,173.68,294.68,174.38Zm92.76,83.4v.1c8.53,0,17.07,0,25.6,0,1.49,0,2.16-.29,2.36-1.93.69-5.49,1.6-11,2.36-16.44.09-.65.67-1.7-.58-1.93s-1.2.83-1.43,1.53a25.36,25.36,0,0,1-3.17,6.64c-4.72,6.85-17.31,10.83-25.18,8a3.87,3.87,0,0,1-2.78-3.78c-.09-7.12-.08-14.25-.12-21.37,0-.82.2-1.33,1.18-1.29,3.55.15,6.78.87,8.91,4.15a22.86,22.86,0,0,1,3.15,8.87c.12.72-.06,1.77,1.15,1.68,1-.08.82-1,.82-1.64q.06-15,.09-30.08c0-.68.17-1.5-.87-1.59s-1,.75-1.12,1.42a28.8,28.8,0,0,1-1.83,7.12c-1.76,4.19-5,6.16-9.44,6.41-1.34.07-2.09-.1-2.07-1.8.11-7.38.11-14.77.06-22.16,0-1.37.39-1.87,1.79-1.81,2.73.1,5.46,0,8.19.07,10.14.29,14.21,3.51,16.87,13.27.2.74.12,1.71,1.27,1.64,1.31-.08.84-1.14.85-1.82,0-4.83-.06-9.67.06-14.51.05-1.83-.45-2.37-2.33-2.36-16.19,0-32.38,0-48.58-.06h-1.32c-.54,0-1.06.08-1.08.82s.41.87,1,.88a23,23,0,0,1,2.63.09c3.49.44,5.23,2.24,5.24,5.77q0,23.88-.08,47.76c0,4.79-1.79,6.32-6.64,6.6-.78.05-2.28-.69-2.19.95.08,1.31,1.39.72,2.13.72C370.71,257.79,379.08,257.78,387.44,257.78ZM19.06,193.56c-5.81,0-11,0-16.2,0-.75,0-2-.58-2.13.74s1.25.9,2,1c5.42.45,6.78,1.8,6.79,7.25q0,22.82-.06,45.63c0,5.33-1.58,6.86-6.86,7.26-.72.06-2-.61-2,.89s1.32.83,2,.83c9.5.05,19,0,28.51,0,.35,0,.7,0,1.05,0s.84-.2.85-.76-.19-.86-.71-.91-1.23-.06-1.84-.11c-4.57-.4-6.11-1.91-6.19-6.45-.11-6.15,0-12.31-.12-18.46,0-1.79.55-2.14,2.22-2.15,4.83,0,9.7,0,14.4-1.38,6.11-1.76,10.78-5.23,12.6-11.57,2.7-9.43-2.63-17.92-12.69-20.52C33.41,193,25.89,193.73,19.06,193.56ZM427.28,247.2c0,3.51,0,7,0,10.55,0,.56-.24,1.32.59,1.54a1.16,1.16,0,0,0,1.39-.49c2.38-4.3,5.75-3.39,9.3-1.82a29.38,29.38,0,0,0,15,2.24c8.23-.82,15.67-6.81,17.8-14.4s-.69-15.08-8-20.4c-5.07-3.71-10.86-6.12-16.35-9.08-2.79-1.51-5.57-3-7.6-5.56a7.46,7.46,0,0,1,.92-10.81,10.78,10.78,0,0,1,7.05-2.53c8.36-.22,16.13,6.53,18.4,16,.21.87.18,1.88,1.47,1.7s.81-1.21.8-1.89c-.13-6-.32-12-.51-17.92,0-.56.24-1.35-.63-1.5s-.9.53-1.13,1.13c-1.36,3.48-2.26,3.86-5.7,2.4-1.29-.55-2.54-1.21-3.84-1.73-6.44-2.56-12.94-2.84-19.13.49-12.51,6.74-13.13,22.61-1.34,31.38a85,85,0,0,0,12.33,7.08c3.29,1.67,6.67,3.2,9.41,5.75,6.09,5.67,4.21,13.87-3.81,16.18-5.36,1.54-10.23.08-14.67-3.11-5.29-3.8-8-9.21-9.56-15.32-.21-.81-.09-2-1.4-1.8s-.76,1.39-.77,2.14C427.24,240.69,427.28,243.94,427.28,247.2ZM230.11,193.93v-.1c-8.88,0-17.77,0-26.66,0-.82,0-2.15-.52-2.17,1.09-.05,5-.05,10-.06,15,0,.54,0,1.07.78,1.12a1,1,0,0,0,1.09-.89c.11-.51.22-1,.35-1.54,2-7.67,6.29-11,14.19-11.08a23.24,23.24,0,0,0,2.64,0c1.63-.19,2.09.46,2.08,2.08-.11,16.35-.11,32.7-.23,49.06,0,5.35-1.63,6.83-7,7.13-.68,0-1.8-.46-1.83.82s1.1.87,1.79.87q14.64.08,29.3.05c.73,0,2,.55,1.93-.95-.09-1.17-1.22-.67-1.92-.71-5.06-.26-6.77-1.86-6.8-6.95-.06-14.94,0-29.89,0-44.84,0-6.79,0-6.74,6.74-6.42,4.8.22,8.09,2.62,10.2,6.77.68,1.32,1,2.81,1.62,4.16.42.93,0,2.77,1.68,2.48s.79-1.94.82-2.93c.12-4-.06-8.09.09-12.13.07-1.85-.63-2.17-2.26-2.16C247.71,194,238.91,193.93,230.11,193.93Zm278.05.44v-.07c-8.89,0-17.77,0-26.65,0-.83,0-2.25-.58-2.29,1-.12,5.1-.09,10.2-.1,15.29,0,.46.1.89.66.95s1.06-.08,1.23-.71.37-1.53.59-2.29c2.07-7.25,6.08-10.35,13.55-10.46,1,0,1.94.07,2.9,0,1.54-.16,2.15.28,2.14,2-.08,16.35,0,32.7-.11,49,0,5.4-1.5,6.79-6.88,7.11-.75.05-2-.44-2,1s1.35.83,2.07.83q14.52.09,29,.05c.73,0,2,.57,2-.87s-1.3-.83-2-.89c-5.45-.44-6.76-1.71-6.77-7.24,0-15.12,0-30.24,0-45.36,0-5.78,0-5.76,5.88-5.62,5.62.13,9.48,2.78,11.56,8,.52,1.3.92,2.65,1.37,4,.25.71.2,1.72,1.35,1.59s.79-1.18.8-1.86c.07-4.4,0-8.79.14-13.18.07-1.92-.6-2.33-2.4-2.31C525.57,194.42,516.87,194.37,508.16,194.37Zm25.66-18.49c-.92-2.62-1.63-4.59-2.29-6.59-.22-.66-.53-1.06-1.27-1.06s-.94.57-1,1.23c-.16,2.54-.36,5.07-.52,7.61,0,.47-.24,1.19.5,1.25.93.07.78-.78.82-1.34.15-1.67.24-3.35.35-5a19.41,19.41,0,0,1,2.36,5.06c.2.54.18,1.33,1,1.27.65,0,.68-.71.86-1.18.71-1.83,1.39-3.66,2.09-5.5a23.08,23.08,0,0,1,.84,5.56c0,.51,0,1.18.7,1.19s.63-.69.61-1.18c-.11-2.45-.22-4.9-.38-7.35,0-.63.17-1.47-.9-1.59s-1.17.54-1.42,1.22C535.51,171.41,534.77,173.35,533.82,175.88Zm6.56,75.2a6,6,0,0,0-6-6.29c-3.42,0-5.91,2.76-5.86,6.41a6.14,6.14,0,0,0,6.12,6.25C537.75,257.4,540.39,254.46,540.38,251.08Zm-19.82-82.63-.48.73c4.2-.52,3.35,2.16,3.38,4.27,0,1.31,0,2.63,0,3.94,0,.46.14,1,.67,1s.65-.48.66-.93a37.31,37.31,0,0,0,0-4.73c-.25-2.26.22-3.72,2.86-3.56.06,0,.13-.29.29-.68Z"/><path class="cls-2" d="M289.48,43.13c4.58,5.24,9.86,9.76,14.83,14.6,9.57,9.33,19.25,18.54,28.86,27.82a7.77,7.77,0,0,0,4.29,2.26c7.88,1.37,15.71,3,23.59,4.41,5.85,1,11.76.12,17.64.07a11.18,11.18,0,0,1,7.3,2.18c3.94,2.94,8.09,5.6,12.16,8.37,5.08,3.46,8.91,8.24,12.84,12.81,3.48,4,7.37,6.49,12.68,6.8,4.9.27,8.93,2.4,12.82,5.41,9.74,7.52,19.75,14.69,29.62,22a7,7,0,0,0,3.36,1.31c22.73,3.2,45.38,6.95,68.35,8,1.17.05,2.32,1.35,3.54.19V160c-.11-.39-.38-.64-.77-.54-7.91,2.09-16,3.07-24.11,4.16-9.26,1.25-18.62.34-27.94.45-3.87,0-7.75-.19-11.61,0a29,29,0,0,1-13.06-2.36c-6.22-2.66-12.68-4.75-18.88-7.46-3.36-1.47-6.38-.38-9.5.19-6.4,1.15-12.72,2.73-19.15,3.71-5.48.84-11.06.16-16.6.13-11.43-.05-22.87-.42-34.3-.38-4.92,0-9.78,1.18-14.6,2.14-12.22,2.44-24.63,2.68-37,3.21-7.21.31-14.42.6-21.62,1-3.21.19-6,1.88-9,3-8.18,3-16.31,6.06-24.44,9.17a8.06,8.06,0,0,1-4.63.36c-18.62-3.74-37.24-7.43-55.85-11.19a3.71,3.71,0,0,0-3.75,1c-3.74,3.58-7.61,7-11.76,10.79,8.88,1.66,17.54,2.07,26,3.78-1.33,0-2.66,0-4,0q-29.16-.57-58.31-1.15c-13.9-.29-27.79-.79-41.69-.88-9.86-.06-19.63,1.51-29.45,2.27-6.84.53-13.66,1.3-20.51,1.79-5.75.42-11.36-1.05-17-1.71-12-1.39-23.89-3.05-35.83-4.6a7.85,7.85,0,0,1-1.06-.35c1.15-1,2.09-1.91,3.05-2.74,9.14-7.85,18.16-15.84,27.47-23.47,3.57-2.93,7.75-5,12.83-4.17,3.29.57,6.68.52,10,1.06s6.39-.8,9.45-1.8c8.94-2.89,17.88-5.81,26.78-8.82a22.29,22.29,0,0,1,12.51-.13c5.58,1.34,9.42-.49,13.57-4.16,17.17-15.22,34.66-30.08,52-45.06A9,9,0,0,1,179.14,86q18.48,9.9,36.93,19.85c2.76,1.49,5.8,2,8.75,2.81a6.7,6.7,0,0,1,4.39,3c2.18,3.59,5.75,5.25,9.65,7.23-.77-4.28-.88-7.91-5.6-10.17-11.16-5.36-21.94-11.51-32.94-17.23-1.89-1-1.67-1.5-.26-2.78,8.08-7.32,16.08-14.73,24.09-22.12.9-.83,1.72-1.75,2.57-2.63.54-.44,1.1-.86,1.61-1.33L263.5,30.44c4.54-4.15,8.13-4.08,12.63.11S284.68,39.31,289.48,43.13Z"/><path class="cls-3" d="M.59,286.11c0-4.14.07-8.27,0-12.4-.05-1.66.34-2.52,2.15-2.24a6.13,6.13,0,0,0,1,0H536.38c4,0,4,0,4,4.08,0,3.52,0,7-.07,10.55Z"/><path class="cls-3" d="M289.48,43.13c-4.8-3.82-8.88-8.41-13.35-12.58s-8.09-4.26-12.63-.11L228.33,62.61c-.51.47-1.07.89-1.61,1.33-4.6-2.61-7.55-6.75-9.93-11.24-9-17.08-2.49-37.24,15.2-47.11,19.06-10.65,44.12-3.93,54.46,14.67a32.31,32.31,0,0,1,4,20.33C290.36,41.49,290.58,42.59,289.48,43.13Z"/><path class="cls-2" d="M334.68,235q5.9-15.65,11.79-31.28a9.29,9.29,0,0,0,.57-4.15c-.26-2.86-2.4-3.37-4.68-3.67-.67-.09-1.55.1-1.56-.94s1-.8,1.58-.81c4.49,0,9,0,13.46,0,.56,0,1.32-.26,1.51.62s-.57,1.07-1.26,1.27c-2.34.67-3.53,2.46-4.35,4.59q-10,25.8-19.91,51.61c-.67,1.72-1.28,3.46-2,5.17-.31.77-.43,1.75-1.64,1.77s-1.28-1.06-1.56-1.81Q320.4,241,314.22,224.64c-.77-2-1.55-4-2.57-6.69-2.59,6.08-4.94,11.6-7.28,17.12-3.09,7.28-6.14,14.57-9.26,21.83-.38.88-.35,2.32-1.81,2.25s-1.37-1.47-1.73-2.37Q281,230.53,270.4,204.25c-.65-1.62-1.42-3.21-2.16-4.8-.84-1.85-2.07-3.28-4.22-3.56-.73-.09-1.17-.34-1.09-1.14s.72-.82,1.36-.81l24.8.14c.56,0,1.33-.23,1.4.73s-.57.89-1.2,1c-4.39,1-5.2,2.07-3.65,6.09,4.41,11.47,9,22.87,13.59,34.29a3.57,3.57,0,0,0,.57.72c3.17-7.61,6.28-15.06,9.41-22.51a3,3,0,0,0,0-2.53c-1.58-3.81-3.07-7.66-4.71-11.44-1.16-2.67-3.1-4.45-6.19-4.63-.66,0-1.56.14-1.55-.93s.94-.82,1.58-.82q13.72,0,27.45,0c.67,0,1.8-.39,1.74.92s-1.17.81-1.84.87c-4.85.46-5.8,1.77-4.1,6.3,4.1,11,8.3,21.94,12.45,32.91Z"/><path class="cls-2" d="M154.67,193.7c7.73.1,15.5-.29,23.16,1.11,10.49,1.92,16.54,11,13.95,20.93-1.55,5.92-5.79,9.24-11.38,11-1.44.46-2.21.65-1,2.32,5.21,7.18,10.3,14.45,15.45,21.68,1.6,2.24,3.34,4.35,6.33,4.76a1,1,0,0,1,1,1.26c-.1.71-.65.75-1.19.75-6,0-12,0-17.94,0-1.37,0-1.71-1.1-2.28-1.91-6-8.46-12-16.9-17.84-25.47-1.31-1.93-2.88-1.62-4.56-1.61-1.1,0-.84.93-.84,1.58,0,6.33-.08,12.66,0,19,.1,4.69,1.64,6.12,6.43,6.5.44,0,.88,0,1.32.08s1,.18,1.08.87c.06.9-.57,1-1.22,1-1.76,0-3.51,0-5.27,0-8.09,0-16.18,0-24.28,0-.75,0-2,.49-2-.93s1.27-.88,2-.94c5.34-.41,6.79-1.76,6.83-7.23q.15-22.68,0-45.36c0-5.89-1.23-7-7.09-7.53-.66-.07-1.8.48-1.76-.86s1.29-.89,2-.89C142,193.68,148.34,193.7,154.67,193.7Zm2.9,17.46v6.59c0,7.77,0,7.77,7.79,7.08,7-.61,10.7-4.19,11.44-11.12a21.59,21.59,0,0,0-.63-7.83,10.39,10.39,0,0,0-8.26-7.91c-2.78-.66-5.59-.44-8.39-.58-1.47-.07-2,.41-2,1.92C157.63,203.26,157.57,207.21,157.57,211.16Z"/><path class="cls-2" d="M93.67,192.71c13.65-.29,24.07,4.53,30.69,16.16,10.08,17.71,1.45,41.74-17.47,48-13.43,4.45-34.15,3-43-16.62-8.18-18-.85-40.15,19.66-46.37A29.51,29.51,0,0,1,93.67,192.71Zm17.66,32.57a80,80,0,0,0-1-13.12,31.79,31.79,0,0,0-1.42-5.07c-1.41-3.86-3.35-7.4-7.13-9.46-7.65-4.15-16.23-1.11-20.29,7.14a39,39,0,0,0-3.5,15c-.53,8.64-.41,17.24,3,25.42,1.77,4.26,4.38,7.82,9.11,9.24,8.43,2.52,15.54-1.56,18.78-10.75C111,237.75,111.26,231.54,111.33,225.28Z"/><path class="cls-2" d="M294.68,174.38c6.55-.7,13.12-1.54,19.62-2.5,6.72-1,13.48-2,20.2-3.13,17.09-2.91,34.34-4.41,51.62-5.62,17.63-1.24,35.25-2.66,52.87-4a8.5,8.5,0,0,1,4.33.71c6.88,3.11,13.82,6.09,20.71,9.2a10.12,10.12,0,0,0,4.32.9c14.34,0,28.68.07,43,0,2.33,0,2.59.69,2.56,2.83,0,3-1.17,3.88-4.09,4.09-16.05,1.14-32.09,2.46-48.13,3.82a3.85,3.85,0,0,1-3.91-1.87c-2.66-3.71-5.56-7.25-8.22-11a3.07,3.07,0,0,0-3.5-1.46c-23.79,4.24-47.6,8.39-71.39,12.62a8.12,8.12,0,0,1-4.84-.52c-5.58-2.36-11.22-4.59-16.81-6.93a7.46,7.46,0,0,0-3.58-.55c-13.07,1-26.14,1.89-39.21,2.86-5.15.37-10.3.81-15.45,1.22Z"/><path class="cls-2" d="M387.44,257.78c-8.36,0-16.73,0-25.09,0-.74,0-2.05.59-2.13-.72-.09-1.64,1.41-.9,2.19-.95,4.85-.28,6.6-1.81,6.64-6.6q.15-23.88.08-47.76c0-3.53-1.75-5.33-5.24-5.77a23,23,0,0,0-2.63-.09c-.6,0-1-.18-1-.88s.54-.8,1.08-.82h1.32c16.2,0,32.39.1,48.58.06,1.88,0,2.38.53,2.33,2.36-.12,4.84,0,9.68-.06,14.51,0,.68.46,1.74-.85,1.82-1.15.07-1.07-.9-1.27-1.64-2.66-9.76-6.73-13-16.87-13.27-2.73-.08-5.46,0-8.19-.07-1.4-.06-1.79.44-1.79,1.81.05,7.39.05,14.78-.06,22.16,0,1.7.73,1.87,2.07,1.8,4.44-.25,7.68-2.22,9.44-6.41a28.8,28.8,0,0,0,1.83-7.12c.1-.67.06-1.52,1.12-1.42s.87.91.87,1.59q0,15-.09,30.08c0,.67.2,1.56-.82,1.64-1.21.09-1-1-1.15-1.68a22.86,22.86,0,0,0-3.15-8.87c-2.13-3.28-5.36-4-8.91-4.15-1,0-1.18.47-1.18,1.29,0,7.12,0,14.25.12,21.37a3.87,3.87,0,0,0,2.78,3.78c7.87,2.81,20.46-1.17,25.18-8a25.36,25.36,0,0,0,3.17-6.64c.23-.7.3-1.74,1.43-1.53s.67,1.28.58,1.93c-.76,5.48-1.67,11-2.36,16.44-.2,1.64-.87,1.94-2.36,1.93-8.53-.06-17.07,0-25.6,0Z"/><path class="cls-2" d="M19.06,193.56c6.83.17,14.35-.59,21.7,1.31,10.06,2.6,15.39,11.09,12.69,20.52C51.63,221.73,47,225.2,40.85,227c-4.7,1.36-9.57,1.36-14.4,1.38-1.67,0-2.26.36-2.22,2.15.13,6.15,0,12.31.12,18.46.08,4.54,1.62,6.05,6.19,6.45.61,0,1.23,0,1.84.11s.72.42.71.91-.37.74-.85.76-.7,0-1.05,0c-9.51,0-19,0-28.51,0-.72,0-2,.63-2-.83s1.27-.83,2-.89c5.28-.4,6.84-1.93,6.86-7.26q.09-22.82.06-45.63c0-5.45-1.37-6.8-6.79-7.25-.78-.06-2.11.38-2-1s1.38-.73,2.13-.74C8.05,193.53,13.25,193.56,19.06,193.56ZM24.32,211c0,3.87.11,7.74-.05,11.6-.08,2,.69,2.34,2.43,2.32,6.2-.08,10.09-3.16,11.46-9.18a24.13,24.13,0,0,0,.37-7.34c-.59-7.38-4.93-11.27-12.31-11.23-1.48,0-2,.46-1.93,1.95C24.39,203,24.33,207,24.32,211Z"/><path class="cls-2" d="M427.28,247.2c0-3.26,0-6.51,0-9.76,0-.75-.6-1.95.77-2.14s1.19,1,1.4,1.8c1.58,6.11,4.27,11.52,9.56,15.32,4.44,3.19,9.31,4.65,14.67,3.11,8-2.31,9.9-10.51,3.81-16.18-2.74-2.55-6.12-4.08-9.41-5.75a85,85,0,0,1-12.33-7.08c-11.79-8.77-11.17-24.64,1.34-31.38,6.19-3.33,12.69-3,19.13-.49,1.3.52,2.55,1.18,3.84,1.73,3.44,1.46,4.34,1.08,5.7-2.4.23-.6.3-1.28,1.13-1.13s.61.94.63,1.5c.19,6,.38,12,.51,17.92,0,.68.42,1.73-.8,1.89s-1.26-.83-1.47-1.7c-2.27-9.49-10-16.24-18.4-16a10.78,10.78,0,0,0-7.05,2.53,7.46,7.46,0,0,0-.92,10.81c2,2.53,4.81,4.05,7.6,5.56,5.49,3,11.28,5.37,16.35,9.08,7.27,5.32,10.13,12.66,8,20.4s-9.57,13.58-17.8,14.4a29.38,29.38,0,0,1-15-2.24c-3.55-1.57-6.92-2.48-9.3,1.82a1.16,1.16,0,0,1-1.39.49c-.83-.22-.59-1-.59-1.54C427.27,254.23,427.28,250.71,427.28,247.2Z"/><path class="cls-2" d="M230.11,193.93c8.8,0,17.6,0,26.4,0,1.63,0,2.33.31,2.26,2.16-.15,4,0,8.09-.09,12.13,0,1,.72,2.66-.82,2.93s-1.26-1.55-1.68-2.48c-.61-1.35-.94-2.84-1.62-4.16-2.11-4.15-5.4-6.55-10.2-6.77-6.75-.32-6.74-.37-6.74,6.42,0,15,0,29.9,0,44.84,0,5.09,1.74,6.69,6.8,6.95.7,0,1.83-.46,1.92.71.11,1.5-1.2.95-1.93.95q-14.66,0-29.3-.05c-.69,0-1.81.4-1.79-.87s1.15-.78,1.83-.82c5.32-.3,6.91-1.78,7-7.13.12-16.36.12-32.71.23-49.06,0-1.62-.45-2.27-2.08-2.08a23.24,23.24,0,0,1-2.64,0c-7.9,0-12.2,3.41-14.19,11.08-.13.51-.24,1-.35,1.54a1,1,0,0,1-1.09.89c-.74,0-.79-.58-.78-1.12,0-5,0-10,.06-15,0-1.61,1.35-1.08,2.17-1.09,8.89,0,17.78,0,26.66,0Z"/><path class="cls-2" d="M508.16,194.37c8.71,0,17.41,0,26.12,0,1.8,0,2.47.39,2.4,2.31-.16,4.39-.07,8.78-.14,13.18,0,.68.46,1.73-.8,1.86s-1.1-.88-1.35-1.59c-.45-1.33-.85-2.68-1.37-4-2.08-5.21-5.94-7.86-11.56-8-5.88-.14-5.87-.16-5.88,5.62,0,15.12-.08,30.24,0,45.36,0,5.53,1.32,6.8,6.77,7.24.74.06,2-.52,2,.89s-1.28.87-2,.87q-14.52,0-29-.05c-.72,0-2,.59-2.07-.83s1.21-1,2-1c5.38-.32,6.86-1.71,6.88-7.11.07-16.35,0-32.7.11-49,0-1.72-.6-2.16-2.14-2-1,.09-1.93,0-2.9,0-7.47.11-11.48,3.21-13.55,10.46-.22.76-.38,1.53-.59,2.29s-.66.77-1.23.71-.67-.49-.66-.95c0-5.09,0-10.19.1-15.29,0-1.54,1.46-1,2.29-1,8.88,0,17.76,0,26.65,0Z"/><path class="cls-2" d="M533.82,175.88c.95-2.53,1.69-4.47,2.41-6.42.25-.68.48-1.32,1.42-1.22s.86,1,.9,1.59c.16,2.45.27,4.9.38,7.35,0,.49.17,1.19-.61,1.18s-.66-.68-.7-1.19a23.08,23.08,0,0,0-.84-5.56c-.7,1.84-1.38,3.67-2.09,5.5-.18.47-.21,1.13-.86,1.18-.86.06-.84-.73-1-1.27a19.41,19.41,0,0,0-2.36-5.06c-.11,1.67-.2,3.35-.35,5,0,.56.11,1.41-.82,1.34-.74-.06-.53-.78-.5-1.25.16-2.54.36-5.07.52-7.61,0-.66.11-1.23,1-1.23s1,.4,1.27,1.06C532.19,171.29,532.9,173.26,533.82,175.88Z"/><path class="cls-2" d="M540.38,251.08c0,3.38-2.63,6.32-5.74,6.37a6.14,6.14,0,0,1-6.12-6.25c0-3.65,2.44-6.38,5.86-6.41A6,6,0,0,1,540.38,251.08Zm-.81.11a5.17,5.17,0,1,0-5.36,5.35A5.29,5.29,0,0,0,539.57,251.19Z"/><path class="cls-2" d="M520.56,168.45h7.37c-.16.39-.23.68-.29.68-2.64-.16-3.11,1.3-2.86,3.56a37.31,37.31,0,0,1,0,4.73c0,.45-.12,1-.66.93s-.66-.5-.67-1c0-1.31,0-2.63,0-3.94,0-2.11.82-4.79-3.38-4.27Z"/><path class="cls-1" d="M157.57,211.16c0-3.95.06-7.9,0-11.85,0-1.51.51-2,2-1.92,2.8.14,5.61-.08,8.39.58a10.39,10.39,0,0,1,8.26,7.91,21.59,21.59,0,0,1,.63,7.83c-.74,6.93-4.46,10.51-11.44,11.12-7.79.69-7.79.69-7.79-7.08Z"/><path class="cls-1" d="M111.33,225.28c-.07,6.26-.38,12.47-2.5,18.45-3.24,9.19-10.35,13.27-18.78,10.75-4.73-1.42-7.34-5-9.11-9.24-3.39-8.18-3.51-16.78-3-25.42a39,39,0,0,1,3.5-15c4.06-8.25,12.64-11.29,20.29-7.14,3.78,2.06,5.72,5.6,7.13,9.46a31.79,31.79,0,0,1,1.42,5.07A80,80,0,0,1,111.33,225.28Z"/><path class="cls-1" d="M24.32,211c0-4,.07-7.92,0-11.88,0-1.49.45-1.94,1.93-1.95,7.38,0,11.72,3.85,12.31,11.23a24.13,24.13,0,0,1-.37,7.34c-1.37,6-5.26,9.1-11.46,9.18-1.74,0-2.51-.35-2.43-2.32C24.43,218.69,24.32,214.82,24.32,211Z"/><path class="cls-1" d="M539.57,251.19a5.29,5.29,0,0,1-5.36,5.35,5.39,5.39,0,0,1-5-5.48,5.18,5.18,0,1,1,10.33.13Zm-2.48,3.8c0-2.05-1.41-3.94-.11-5.94.37-.58-.61-1.8-1.61-1.5s-2.7-.82-2.9.5a16.43,16.43,0,0,0,.21,6.92c1.31-1-.18-2.95,1.38-3.22C536.3,251.37,535.19,254.42,537.09,255Z"/><path class="cls-2" d="M537.09,255c-1.9-.57-.79-3.62-3-3.24-1.56.27-.07,2.25-1.38,3.22a16.43,16.43,0,0,1-.21-6.92c.2-1.32,1.89-.18,2.9-.5s2,.92,1.61,1.5C535.68,251.05,537.06,252.94,537.09,255Zm-1.15-5.65a1.39,1.39,0,0,0-1.44-1.26c-1.25-.12-1.14.74-1.16,1.54s.14,1.22,1,1.14A1.56,1.56,0,0,0,535.94,249.34Z"/><path class="cls-1" d="M535.94,249.34a1.56,1.56,0,0,1-1.6,1.42c-.86.08-1-.44-1-1.14s-.09-1.66,1.16-1.54A1.39,1.39,0,0,1,535.94,249.34Z"/></g></g></svg>