<svg xmlns="http://www.w3.org/2000/svg" viewBox="0 0 595.28 214.87"><defs><style>.cls-1{fill:#fefefe;}.cls-2{fill:#2a4895;}.cls-3{fill:#5bab40;}</style></defs><g id="Calque_2" data-name="Calque 2"><g id="Calque_1-2" data-name="Calque 1"><path class="cls-1" d="M297.67,214.82q-147.88,0-295.77.05c-1.69,0-1.89-.43-1.89-2q.06-105.48,0-211C0,.3.35,0,1.94,0Q297.62.07,593.28,0c1.78,0,2,.48,2,2.07q-.06,105.5,0,211c0,1.51-.37,1.81-1.84,1.81Q445.56,214.8,297.67,214.82Zm-7.7-79h0c0,13.82,0,27.64-.05,41.47,0,1.79.54,2.22,2.23,2.22,13.32,0,26.65.28,40,0,15.1-.37,30.26,1.56,45.28-1.44a29.49,29.49,0,0,0,11.4-4.6c5.05-3.54,7.47-8.66,8.29-14.74a27.43,27.43,0,0,0-1.41-13.26,18.15,18.15,0,0,0-10.56-10.94c-2-.81-2-1.49-.27-2.77,2.87-2.19,5.45-4.64,7-8,2.32-5.2,2-10.63,1.08-16a13.92,13.92,0,0,0-4.4-8.16A25.62,25.62,0,0,0,375,93.83a100.28,100.28,0,0,0-12.85-1.18c-23.46-.42-46.92,0-70.39-.12-1.52,0-1.86.59-1.85,2Q290,115.18,290,135.81Zm-15.76-15.48c0-8.26,0-16.53,0-24.8,0-3-.07-3-3-3-9.48,0-19,.07-28.44,0-2,0-2.41.59-2.4,2.46,0,13.63,0,27.25,0,40.87a22.86,22.86,0,0,1-1.52,8.73,12.17,12.17,0,0,1-7.9,7.52c-5.36,1.6-10.86,1.22-16.29,0a2.68,2.68,0,0,1-.85-.37c-5.79-3.55-8.13-8.95-8.38-15.45-.14-3.83-.19-7.67-.2-11.5q0-15.18,0-30.36c0-1.09,0-1.88-1.52-1.87q-15.12.11-30.23.06c-1.27,0-1.7.36-1.7,1.68,0,15.61-.2,31.22.07,46.83a44.55,44.55,0,0,0,3.27,15.4c2.2,5.62,6.21,9.79,10.85,13.55a36.1,36.1,0,0,0,12.28,6.15c3.27,1,6.69,1.44,10,2.15,11.87,2.52,23.58.92,35.32-.8a2.72,2.72,0,0,0,.38-.11c3.8-1.3,7.7-2.32,11.28-4.25a34.72,34.72,0,0,0,9-6.3c5.74-6.07,8.62-13.54,9.39-21.79S274.12,128.6,274.21,120.33ZM461.82,92.47c-6.07-.15-12.7.37-19.33,0a1.49,1.49,0,0,0-1.72,1.19c-1.23,3.22-2.66,6.37-3.92,9.58-1,2.59-2.37,5.1-3.49,7.68q-9.54,21.81-19,43.65-4.9,11.25-9.82,22.51c-.94,2.16-.83,2.34,1.5,2.35,10.21,0,20.42.08,30.63.06,3.1,0,3.17-.13,4.15-3.1,1.19-3.63,2.45-7.25,3.57-10.91a2.06,2.06,0,0,1,2.26-1.71c4.05,0,8.09-.08,12.13-.09,5.64,0,11.28,0,16.91,0,1.84,0,3,.51,3.12,2.63a12.45,12.45,0,0,0,.76,3.26c.8,2.55,2,5,2.4,7.64.33,2,1.27,2.26,2.83,2.26,10.87,0,21.74,0,32.61,0,1.71,0,1.65-.54,1.11-1.83q-4.08-9.72-8-19.52c-5.85-14.74-11.92-29.4-17.88-44.1q-3.84-9.47-7.58-19a3.57,3.57,0,0,0-4-2.65C474.84,92.59,468.61,92.47,461.82,92.47ZM132.73,41.38v0H97.12c-3.88,0-7.59,1-11.28,2.08a27.3,27.3,0,0,0-13.71,9.12c-2.95,3.55-5.18,7.6-5.21,12.36-.1,18.52-.06,37.05-.11,55.57,0,1.19.36,1.69,1.57,1.69q15,0,30,.06c1.4,0,1.8-.54,1.79-1.88-.06-4.83,0-9.66,0-14.49q0-15.58.05-31.16c0-2.61,0-2.64,2.69-2.66,2.85,0,5.7,0,8.55,0q29,0,58.08.1c1.42,0,2.14-.21,2.14-1.93,0-8.86,0-17.73.18-26.59,0-1.93-.62-2.27-2.37-2.26C157.26,41.42,145,41.38,132.73,41.38Zm22.5,84c0-4.1,0-7.34,0-10.57,0-6.62,0-13.23,0-19.84,0-1.32-.13-2.35-2-2.34-10.14.08-20.28,0-30.42,0-1.31,0-1.72.45-1.7,1.73,0,4.63,0,9.26,0,13.89-.07,12.16.15,24.33-.2,36.5a10.05,10.05,0,0,1-2,5.65c-3,4.25-10,4.08-13.93,2.26a6,6,0,0,1-2.82-2.92c-1.11-2.55-2.08-5.16-1.84-8,.13-1.53-.35-2.13-2-2-2.58.15-5.17.07-7.75.07l-22.27,0c-.75,0-1.64-.27-1.64,1,0,4.56-.09,9.13.8,13.64C69,162,72.55,168.24,79.26,172.5s14.24,5.35,21.74,6.6c6.28,1.05,12.7.55,19,.22a52.19,52.19,0,0,0,10.29-1.94,41.26,41.26,0,0,0,12.43-5.44c6.67-4.38,10.7-10.44,11.46-18.27A226,226,0,0,0,155.23,125.4ZM268.85,45.12v.09c-3.11,0-6.22,0-9.34,0-1.17,0-1.6.41-1.69,1.6-.13,1.84.39,2.78,2.4,2.46.64-.1,1.33.07,2,0,1.58-.15,2.1.55,2.07,2.07-.08,4.7-.07,9.39-.12,14.08,0,3.11,0,3,3.12,3,1.29,0,1.51-.54,1.51-1.67,0-4.56,0-9.12.06-13.68,0-3.78,0-3.8,3.78-3.78,1.54,0,2.83-.12,2.74-2.15,0-.41,0-1,.66-1s.7.54.86.95a27,27,0,0,0,2.2,4.19c2.84,4.76,5.35,9.6,4.15,15.44a3.48,3.48,0,0,0,0,.79c0,.56.32.73.87.83,3.18.57,3.86,0,3.5-3.18-.39-3.47-.21-6.8,1.82-9.89,1.74-2.63,3.23-5.41,4.79-8.15.28-.5.64-1.21.47-1.63-.25-.62-1.05-.19-1.61-.25-2.33-.22-3.66.81-4.35,3-.56,1.8-1.48,3.5-2.21,5.26-.22.52-.12,1.32-.85,1.41s-1-.77-1.22-1.33c-.66-2-1.72-3.71-2.49-5.59-.91-2.26-2.45-3-4.76-2.91C274.42,45.2,271.63,45.12,268.85,45.12ZM370.78,56.84c0-.85-.06-1.64-.15-2.43a11.19,11.19,0,0,0-8.53-9.53,10.34,10.34,0,0,0-10.7,4.36c-2.19,3.46-3.45,7.14-2,11.42,2.62,7.7,9.71,9.82,16.43,6.43C370,65,370.76,61,370.78,56.84Zm98.65-5,.44-.12c1.47,2.52,2.91,5.06,4.4,7.58s3.11,5,4.55,7.63c1,1.86,2.74,1.47,4.21,1.25s.71-1.63.71-2.48c.05-6.09,0-12.17,0-18.26,0-1.1.26-2.24-1.58-2.29s-1.71,1.13-1.7,2.33c.06,4.16.12,8.33.15,12.5,0,.48.23,1.22-.41,1.38s-.93-.5-1.2-1.06c-1-2.06-2-4.15-3.16-6.14-1.53-2.68-3.15-5.32-4.82-7.91-1-1.54-2.72-1.41-4.15-1-1.2.31-.69,1.7-.7,2.59-.05,4.76,0,9.52,0,14.28,0,1.58-.27,3.16-.31,4.74s1.16,1.4,2.23,1.48,1.46-.46,1.44-1.52c-.06-3.57-.06-7.15-.08-10.72Zm-7.66,4.52c0-.66-.09-1.32-.14-2-.38-4.84-3.06-8-8.1-9.51-3.45-1-7.93.72-10.54,3.9s-2.88,7.19-2.3,11.08c1.23,8.24,9.94,10.61,16,7.34C460.91,65,462,60.93,461.77,56.41ZM242,56.63h0c0,3.31,0,6.61,0,9.92,0,1.23.28,1.82,1.64,1.8,3.71-.07,7.42-.06,11.13,0,1,0,1.64-.22,1.55-1.44s-.28-1.94-1.7-1.84A32.89,32.89,0,0,1,251,65c-4.73-.14-4.7-.15-4.38-4.9.08-1.1.47-1.52,1.57-1.49,1.65,0,3.32-.14,5,0,1.81.16,1.91-.92,1.93-2.2s-.24-2.23-1.87-2.1c-1.12.09-2.25.06-3.38.06-3.22,0-3.22,0-3.18-3.2a1.34,1.34,0,0,0,0-.2c-.14-1.25.31-1.8,1.67-1.73,2,.1,4,0,6,0,2.3.05,1.18-1.72,1.45-2.71.32-1.2-.39-1.42-1.43-1.41-3.58,0-7.17.08-10.74,0-1.35,0-1.66.48-1.63,1.72C242,50.14,242,53.39,242,56.63Zm70,.16h0c0,3.24.06,6.48,0,9.71,0,1.36.37,1.9,1.78,1.86,3.64-.09,7.28-.09,10.92-.07,1.11,0,1.74-.24,1.68-1.54S325.8,65,324.51,65a35.42,35.42,0,0,1-3.57,0c-4.76-.17-4.76-.18-4.34-4.93a1.21,1.21,0,0,0,0-.19c0-.93.42-1.26,1.33-1.25,1.79,0,3.58-.1,5.36-.08,2.08,0,1.33-1.52,1.46-2.55.13-1.19-.25-1.89-1.64-1.8-1.58.1-3.18,0-4.76.1-1.34.11-1.81-.44-1.74-1.68a8.08,8.08,0,0,0-.05-1.39c-.17-1.41.32-2.07,1.85-2,1.92.08,3.85-.07,5.76,0s1.38-1.17,1.43-2.17.13-1.93-1.46-1.87c-3.57.11-7.15.1-10.72,0-1.28,0-1.54.48-1.52,1.62C312,50.19,311.94,53.49,311.94,56.79ZM210.76,61.92c4.14.2,4.48.22,5.26,3.81.53,2.44,1.73,2.84,3.85,2.67,1.19-.1,1.54-.37,1.16-1.53-2.15-6.56-4.25-13.15-6.4-19.71a3,3,0,0,0-3.27-2c-1.38,0-2.79-.11-3.25,1.79-.4,1.65-1.08,3.24-1.62,4.85-1.65,4.93-3.31,9.86-4.92,14.81-.17.54-.56,1.3.35,1.69a3.24,3.24,0,0,0,4.19-1.92c.2-.55.51-1.07.69-1.64C207.72,61.78,207.71,61.78,210.76,61.92ZM391.54,53.5h0a61.58,61.58,0,0,0,0,6.93c.72,6.25,3.4,8.14,8.24,8,.92,0,1.85,0,2.78-.1a7.15,7.15,0,0,0,6.44-6.17c.79-5.21-.08-10.42.11-15.63.06-1.79-1.33-1.23-2.26-1.37-1.26-.19-1.37.6-1.34,1.58.07,2.38.09,4.75.12,7.13a24.37,24.37,0,0,1-.63,7.27c-.86,2.9-2.56,4.23-5.27,4-2.29-.22-3.36-1.53-3.63-4.61-.12-1.38-.14-2.77-.15-4.15,0-3-.06-6.09.06-9.12.1-2.41-1.56-1.87-2.94-2-1.6-.18-1.66.71-1.63,1.91C391.59,49.27,391.54,51.39,391.54,53.5ZM337.25,68.22c2,.43,3.34-.07,3.43-2.33a2.82,2.82,0,0,1,.3-.73c2.5-6.11,4.36-12.44,6.43-18.69.13-.39.48-.83-.23-1.14-1.47-.64-3.94.3-4.38,1.81-1.27,4.36-3.16,8.54-4,13-.12.62-.27,1.52-1,1.55s-1.06-.84-1.24-1.55c-1.06-4.16-2.37-8.24-3.77-12.3-.91-2.63-1.16-2.92-3.9-2.68-1,.09-1.32.39-1,1.35.69,2.14,1.32,4.29,2,6.41,1.42,4.25,3,8.45,4.24,12.76C334.66,67.59,335,68.94,337.25,68.22Zm-147.54.2v0c1.2,0,2.4.08,3.58,0a7,7,0,0,0,5.65-5.8c.26-3.34-1-5.3-4.37-7-1.59-.78-3.35-1.26-4.74-2.41-1.75-1.45-1.59-3,.41-4a4.59,4.59,0,0,1,4.54-.17c.83.42,2,.82,2.64-.3a2,2,0,0,0-.82-2.76,9.33,9.33,0,0,0-1-.66c-2.69-1.38-8.19-.17-10,2.24a5.1,5.1,0,0,0-1,2.54c-.4,3.87.3,5.34,3.72,7.22,1.61.89,3.36,1.57,4.89,2.58,1.81,1.2,1.61,4.57-.29,5a8.8,8.8,0,0,1-5.84-.19c-2.54-1.14-2.42-1.22-2.51,1.52-.05,1.51.58,2,2,2C187.6,68.25,188.66,68.36,189.71,68.42Zm34.71-11.8h.07q0,4.37,0,8.73c0,3.05,0,3,3,3,1.35,0,1.69-.46,1.63-1.73-.1-2.18,0-4.36-.06-6.54,0-1,.31-1.38,1.38-1.31,1.79.1,3.58,0,5.37,0,.55,0,1.16.18,1.41-.69.58-2.06-.16-3.07-2.29-3-.6,0-1.19,0-1.79,0-4.32-.06-4.28-.06-4.07-4.41.06-1.12.44-1.48,1.54-1.44,2.06.08,4.11,0,6.16,0s1.26-1.6,1.46-2.61c.23-1.19-.44-1.43-1.49-1.43-3.58,0-7.16,0-10.73-.08-1.31,0-1.68.46-1.65,1.73C224.47,50.14,224.42,53.38,224.42,56.62Zm194.22,2.19h-.19c0,2.64.05,5.29,0,7.93,0,1.2.37,1.71,1.58,1.6a8.44,8.44,0,0,1,1.59,0c1.3.14,1.7-.39,1.67-1.7-.08-4.22,0-8.45,0-12.68,0-4.61,0-4.61,4.52-4.69a1.78,1.78,0,0,1,.4,0c1.6.21,1.65-.77,1.6-2s.12-2.16-1.68-2.11c-4.77.13-9.54.1-14.3,0-1.37,0-1.61.51-1.66,1.72-.07,1.65.15,2.71,2.19,2.33a23.42,23.42,0,0,1,2.37,0c1.5-.11,2,.6,2,2C418.59,53.79,418.64,56.3,418.64,58.81Zm-44.56-2h0c0,3.31,0,6.61,0,9.92,0,1.19.35,1.66,1.58,1.63,3.64-.07,7.29-.08,10.94-.08,1.15,0,1.86-.2,1.83-1.63s-.71-1.79-2-1.73c-1.45.08-2.91,0-4.37,0-3.38,0-3.38,0-3.37-3.44,0-4.9,0-9.79,0-14.69,0-1.53-.74-1.88-1.95-1.64s-2.84-.72-2.75,1.69C374.17,50.21,374.08,53.52,374.08,56.83Zm58.79-.24h-.21c0,3.37.08,6.74,0,10.11-.05,1.76,1,1.67,2.17,1.65s2.14,0,2-1.66a34.85,34.85,0,0,1-.1-4c0-5.15-.08-10.31,0-15.46,0-1.85-1-1.94-2.36-2.07-1.66-.16-1.44.89-1.44,1.88Z"/><path class="cls-2" d="M290,135.81q0-20.64,0-41.27c0-1.42.33-2,1.85-2,23.47.08,46.93-.3,70.39.12A100.28,100.28,0,0,1,375,93.83a25.62,25.62,0,0,1,13.42,5.7,13.92,13.92,0,0,1,4.4,8.16c1,5.35,1.24,10.78-1.08,16-1.51,3.4-4.09,5.85-7,8-1.69,1.28-1.72,2,.27,2.77a18.15,18.15,0,0,1,10.56,10.94,27.43,27.43,0,0,1,1.41,13.26c-.82,6.08-3.24,11.2-8.29,14.74a29.49,29.49,0,0,1-11.4,4.6c-15,3-30.18,1.07-45.28,1.44-13.31.32-26.64,0-40,0-1.69,0-2.24-.43-2.23-2.22.09-13.83.05-27.65.05-41.47Zm51.08,21.78v-.36c4.57,0,9.14-.07,13.71,0a5.72,5.72,0,0,0,5.57-3.26c1.79-3.21.12-8.47-3.16-9.34a28.7,28.7,0,0,0-5.28-.89c-8.53-.54-17.08-.3-25.62-.35-1.52,0-2,.68-2,2q0,4.86-.07,9.72c0,1.77.71,2.47,2.5,2.44C331.51,157.54,336.28,157.59,341.05,157.59Zm-1.85-32.17v-.19c4.3,0,8.61.07,12.92,0,2.71-.06,5.26-1.76,5.72-3.54,1.22-4.77-.35-7.3-5.19-8.32a13.62,13.62,0,0,0-2.76-.34c-7.89-.06-15.77,0-23.66-.13-1.49,0-2,.61-2,2q.06,4.06,0,8.13c-.05,1.73.54,2.49,2.42,2.44C330.84,125.34,335,125.42,339.2,125.42Z"/><path class="cls-2" d="M274.21,120.33c-.09,8.27.25,16.55-.51,24.79s-3.65,15.72-9.39,21.79a34.72,34.72,0,0,1-9,6.3c-3.58,1.93-7.48,2.95-11.28,4.25a2.72,2.72,0,0,1-.38.11c-11.74,1.72-23.45,3.32-35.32.8-3.35-.71-6.77-1.13-10-2.15A36.1,36.1,0,0,1,186,170.07c-4.64-3.76-8.65-7.93-10.85-13.55a44.55,44.55,0,0,1-3.27-15.4c-.27-15.61-.09-31.22-.07-46.83,0-1.32.43-1.68,1.7-1.68q15.12,0,30.23-.06c1.51,0,1.52.78,1.52,1.87q0,15.18,0,30.36c0,3.83.06,7.67.2,11.5.25,6.5,2.59,11.9,8.38,15.45a2.68,2.68,0,0,0,.85.37c5.43,1.21,10.93,1.59,16.29,0a12.17,12.17,0,0,0,7.9-7.52,22.86,22.86,0,0,0,1.52-8.73c0-13.62.08-27.24,0-40.87,0-1.87.43-2.48,2.4-2.46,9.48.1,19,0,28.44,0,2.9,0,3,0,3,3C274.24,103.8,274.21,112.07,274.21,120.33Z"/><path class="cls-2" d="M461.82,92.47c6.79,0,13,.12,19.25-.07a3.57,3.57,0,0,1,4,2.65q3.75,9.51,7.58,19c6,14.7,12,29.36,17.88,44.1q3.9,9.81,8,19.52c.54,1.29.6,1.84-1.11,1.83-10.87-.05-21.74,0-32.61,0-1.56,0-2.5-.3-2.83-2.26-.44-2.6-1.6-5.09-2.4-7.64a12.45,12.45,0,0,1-.76-3.26c-.09-2.12-1.28-2.63-3.12-2.63-5.63,0-11.27,0-16.91,0-4,0-8.08.11-12.13.09a2.06,2.06,0,0,0-2.26,1.71c-1.12,3.66-2.38,7.28-3.57,10.91-1,3-1.05,3.1-4.15,3.1-10.21,0-20.42,0-30.63-.06-2.33,0-2.44-.19-1.5-2.35q4.89-11.26,9.82-22.51,9.51-21.83,19-43.65c1.12-2.58,2.47-5.09,3.49-7.68,1.26-3.21,2.69-6.36,3.92-9.58a1.49,1.49,0,0,1,1.72-1.19C449.12,92.84,455.75,92.32,461.82,92.47Zm-1.17,52.87v-.17h8.15c1.05,0,1.42-.43,1.07-1.5-1-2.87-1.88-5.77-2.83-8.65-1.29-3.92-2.59-7.85-3.93-11.77-.3-.87.14-2.39-1.08-2.45-1-.06-1.1,1.46-1.61,2.26a3.17,3.17,0,0,0-.18.57q-3.87,10.05-7.75,20.1c-.42,1.07-.3,1.63,1,1.62C455.88,145.32,458.27,145.34,460.65,145.34Z"/><path class="cls-3" d="M132.73,41.38c12.27,0,24.53,0,36.8,0,1.75,0,2.4.33,2.37,2.26-.17,8.86-.21,17.73-.18,26.59,0,1.72-.72,1.94-2.14,1.93q-29-.07-58.08-.1c-2.85,0-5.7,0-8.55,0-2.64,0-2.68,0-2.69,2.66q0,15.57-.05,31.16c0,4.83-.07,9.66,0,14.49,0,1.34-.39,1.89-1.79,1.88q-15-.08-30-.06c-1.21,0-1.58-.5-1.57-1.69,0-18.52,0-37,.11-55.57,0-4.76,2.26-8.81,5.21-12.36a27.3,27.3,0,0,1,13.71-9.12c3.69-1,7.4-2.08,11.28-2.08h35.61Z"/><path class="cls-2" d="M155.23,125.4a226,226,0,0,1-1,28.27c-.76,7.83-4.79,13.89-11.46,18.27a41.26,41.26,0,0,1-12.43,5.44,52.19,52.19,0,0,1-10.29,1.94c-6.35.33-12.77.83-19-.22-7.5-1.25-15.1-2.38-21.74-6.6S69,162,67.44,154.4c-.89-4.51-.78-9.08-.8-13.64,0-1.32.89-1,1.64-1l22.27,0c2.58,0,5.17.08,7.75-.07,1.63-.09,2.11.51,2,2-.24,2.86.73,5.47,1.84,8a6,6,0,0,0,2.82,2.92c3.92,1.82,11,2,13.93-2.26a10.05,10.05,0,0,0,2-5.65c.35-12.17.13-24.34.2-36.5,0-4.63,0-9.26,0-13.89,0-1.28.39-1.73,1.7-1.73,10.14.06,20.28.1,30.42,0,1.89,0,2,1,2,2.34,0,6.61,0,13.22,0,19.84C155.22,118.06,155.23,121.3,155.23,125.4Z"/><path class="cls-3" d="M268.85,45.12c2.78,0,5.57.08,8.34,0C279.5,45,281,45.74,282,48c.77,1.88,1.83,3.64,2.49,5.59.19.56.36,1.43,1.22,1.33s.63-.89.85-1.41c.73-1.76,1.65-3.46,2.21-5.26.69-2.24,2-3.27,4.35-3,.56.06,1.36-.37,1.61.25.17.42-.19,1.13-.47,1.63-1.56,2.74-3,5.52-4.79,8.15-2,3.09-2.21,6.42-1.82,9.89.36,3.13-.32,3.75-3.5,3.18-.55-.1-.85-.27-.87-.83a3.48,3.48,0,0,1,0-.79c1.2-5.84-1.31-10.68-4.15-15.44a27,27,0,0,1-2.2-4.19c-.16-.41-.29-1-.86-.95s-.68.62-.66,1c.09,2-1.2,2.16-2.74,2.15-3.74,0-3.75,0-3.78,3.78,0,4.56-.09,9.12-.06,13.68,0,1.13-.22,1.65-1.51,1.67-3.17,0-3.15.1-3.12-3,.05-4.69,0-9.38.12-14.08,0-1.52-.49-2.22-2.07-2.07-.65.07-1.34-.1-2,0-2,.32-2.53-.62-2.4-2.46.09-1.19.52-1.62,1.69-1.6,3.12.05,6.23,0,9.34,0Z"/><path class="cls-3" d="M370.78,56.84c0,4.17-.83,8.17-4.94,10.25-6.72,3.39-13.81,1.27-16.43-6.43-1.46-4.28-.2-8,2-11.42a10.34,10.34,0,0,1,10.7-4.36,11.19,11.19,0,0,1,8.53,9.53C370.72,55.2,370.73,56,370.78,56.84Zm-4.53.25a26.39,26.39,0,0,0-.27-3.34,6,6,0,0,0-4.56-5.14c-2.39-.61-4.22.41-5.71,2.21-2.18,2.63-3.63,6.41-.93,11.34a5.87,5.87,0,0,0,9.32,1.27A8.23,8.23,0,0,0,366.25,57.09Z"/><path class="cls-3" d="M469.43,51.89v4.23c0,3.57,0,7.15.08,10.72,0,1.06-.24,1.61-1.44,1.52s-2.27.11-2.23-1.48.3-3.16.31-4.74c0-4.76,0-9.52,0-14.28,0-.89-.5-2.28.7-2.59,1.43-.38,3.15-.51,4.15,1,1.67,2.59,3.29,5.23,4.82,7.91,1.14,2,2.13,4.08,3.16,6.14.27.56.51,1.23,1.2,1.06s.41-.9.41-1.38c0-4.17-.09-8.34-.15-12.5,0-1.2-.25-2.38,1.7-2.33s1.58,1.19,1.58,2.29c0,6.09.05,12.17,0,18.26,0,.85.72,2.26-.71,2.48s-3.17.61-4.21-1.25c-1.44-2.59-3.05-5.08-4.55-7.63s-2.93-5.06-4.4-7.58Z"/><path class="cls-3" d="M461.77,56.41c.25,4.52-.86,8.57-5.07,10.83-6.07,3.27-14.78.9-16-7.34-.58-3.89-.42-7.75,2.3-11.08s7.09-4.93,10.54-3.9c5,1.51,7.72,4.67,8.1,9.51C461.68,55.09,461.72,55.75,461.77,56.41Zm-4.24.7a11.07,11.07,0,0,0-.81-4.76A5.67,5.67,0,0,0,447,50.49c-2.6,2.82-3,8.17-.9,11.68a5.74,5.74,0,0,0,6.16,3c2.4-.27,3.66-1.87,4.53-3.9A8.16,8.16,0,0,0,457.53,57.11Z"/><path class="cls-3" d="M242,56.63c0-3.24,0-6.49,0-9.73,0-1.24.28-1.74,1.63-1.72,3.57.08,7.16,0,10.74,0,1,0,1.75.21,1.43,1.41-.27,1,.85,2.76-1.45,2.71-2,0-4,.06-6,0-1.36-.07-1.81.48-1.67,1.73a1.34,1.34,0,0,1,0,.2c0,3.18,0,3.18,3.18,3.2,1.13,0,2.26,0,3.38-.06,1.63-.13,1.89.84,1.87,2.1s-.12,2.36-1.93,2.2c-1.65-.14-3.32,0-5,0-1.1,0-1.49.39-1.57,1.49-.32,4.75-.35,4.76,4.38,4.9a32.89,32.89,0,0,0,3.58,0c1.42-.1,1.61.73,1.7,1.84s-.52,1.45-1.55,1.44c-3.71,0-7.42,0-11.13,0-1.36,0-1.67-.57-1.64-1.8.06-3.31,0-6.61,0-9.92Z"/><path class="cls-3" d="M311.94,56.79c0-3.3,0-6.6,0-9.91,0-1.14.24-1.64,1.52-1.62,3.57.06,7.15.07,10.72,0,1.59-.06,1.51.84,1.46,1.87s.34,2.23-1.43,2.17-3.84.09-5.76,0c-1.53-.07-2,.59-1.85,2a8.08,8.08,0,0,1,.05,1.39c-.07,1.24.4,1.79,1.74,1.68,1.58-.12,3.18,0,4.76-.1,1.39-.09,1.77.61,1.64,1.8-.13,1,.62,2.56-1.46,2.55-1.78,0-3.57.09-5.36.08-.91,0-1.37.32-1.33,1.25a1.21,1.21,0,0,1,0,.19c-.42,4.75-.42,4.76,4.34,4.93a35.42,35.42,0,0,0,3.57,0c1.29-.08,1.76.46,1.82,1.71s-.57,1.54-1.68,1.54c-3.64,0-7.28,0-10.92.07-1.41,0-1.82-.5-1.78-1.86.08-3.23,0-6.47,0-9.71Z"/><path class="cls-3" d="M210.76,61.92c-3-.14-3-.14-4,2.79-.18.57-.49,1.09-.69,1.64a3.24,3.24,0,0,1-4.19,1.92c-.91-.39-.52-1.15-.35-1.69,1.61-4.95,3.27-9.88,4.92-14.81.54-1.61,1.22-3.2,1.62-4.85.46-1.9,1.87-1.75,3.25-1.79a3,3,0,0,1,3.27,2c2.15,6.56,4.25,13.15,6.4,19.71.38,1.16,0,1.43-1.16,1.53-2.12.17-3.32-.23-3.85-2.67C215.24,62.14,214.9,62.12,210.76,61.92Zm0-12.84c-.79,2.31-.71,4.27-1.4,6.07-1.67,4.44-1.08,3.47,3,3.63,1.11,0,1.43-.44,1.2-1.45A50,50,0,0,0,210.72,49.08Z"/><path class="cls-3" d="M391.54,53.5c0-2.11,0-4.23,0-6.34,0-1.2,0-2.09,1.63-1.91,1.38.16,3-.38,2.94,2-.12,3-.07,6.08-.06,9.12,0,1.38,0,2.77.15,4.15.27,3.08,1.34,4.39,3.63,4.61,2.71.25,4.41-1.08,5.27-4a24.37,24.37,0,0,0,.63-7.27c0-2.38,0-4.75-.12-7.13,0-1,.08-1.77,1.34-1.58.93.14,2.32-.42,2.26,1.37-.19,5.21.68,10.42-.11,15.63a7.15,7.15,0,0,1-6.44,6.17c-.93.07-1.86.09-2.78.1-4.84.1-7.52-1.79-8.24-8a61.58,61.58,0,0,1,0-6.93Z"/><path class="cls-3" d="M337.25,68.22c-2.25.72-2.59-.63-3.11-2.51-1.2-4.31-2.82-8.51-4.24-12.76-.7-2.12-1.33-4.27-2-6.41-.31-1,.05-1.26,1-1.35,2.74-.24,3,.05,3.9,2.68,1.4,4.06,2.71,8.14,3.77,12.3.18.71.41,1.59,1.24,1.55s.86-.93,1-1.55c.86-4.49,2.75-8.67,4-13,.44-1.51,2.91-2.45,4.38-1.81.71.31.36.75.23,1.14-2.07,6.25-3.93,12.58-6.43,18.69a2.82,2.82,0,0,0-.3.73C340.59,68.15,339.26,68.65,337.25,68.22Z"/><path class="cls-3" d="M189.71,68.42c-1.05-.06-2.11-.17-3.17-.18-1.38,0-2-.51-2-2,.09-2.74,0-2.66,2.51-1.52a8.8,8.8,0,0,0,5.84.19c1.9-.48,2.1-3.85.29-5-1.53-1-3.28-1.69-4.89-2.58-3.42-1.88-4.12-3.35-3.72-7.22a5.1,5.1,0,0,1,1-2.54c1.81-2.41,7.31-3.62,10-2.24a9.33,9.33,0,0,1,1,.66,2,2,0,0,1,.82,2.76c-.63,1.12-1.81.72-2.64.3a4.59,4.59,0,0,0-4.54.17c-2,1.08-2.16,2.59-.41,4,1.39,1.15,3.15,1.63,4.74,2.41,3.38,1.66,4.63,3.62,4.37,7a7,7,0,0,1-5.65,5.8c-1.18.1-2.38,0-3.58,0Z"/><path class="cls-3" d="M224.42,56.62c0-3.24.05-6.48,0-9.71,0-1.27.34-1.76,1.65-1.73,3.57.08,7.15.1,10.73.08,1,0,1.72.24,1.49,1.43-.2,1,.57,2.61-1.46,2.61s-4.1.05-6.16,0c-1.1,0-1.48.32-1.54,1.44-.21,4.35-.25,4.35,4.07,4.41.6,0,1.19,0,1.79,0,2.13-.05,2.87,1,2.29,3-.25.87-.86.68-1.41.69-1.79,0-3.58.06-5.37,0-1.07-.07-1.41.28-1.38,1.31,0,2.18,0,4.36.06,6.54.06,1.27-.28,1.74-1.63,1.73-3,0-3,.05-3-3s0-5.82,0-8.73Z"/><path class="cls-3" d="M418.64,58.81c0-2.51-.05-5,0-7.53,0-1.41-.46-2.12-2-2a23.42,23.42,0,0,0-2.37,0c-2,.38-2.26-.68-2.19-2.33.05-1.21.29-1.74,1.66-1.72,4.76.07,9.53.1,14.3,0,1.8,0,1.63,1,1.68,2.11s0,2.17-1.6,2a1.78,1.78,0,0,0-.4,0c-4.5.08-4.51.08-4.52,4.69,0,4.23-.06,8.46,0,12.68,0,1.31-.37,1.84-1.67,1.7a8.44,8.44,0,0,0-1.59,0c-1.21.11-1.61-.4-1.58-1.6.07-2.64,0-5.29,0-7.93Z"/><path class="cls-3" d="M374.08,56.83c0-3.31.09-6.62,0-9.92-.09-2.41,1.67-1.48,2.75-1.69s2,.11,1.95,1.64c-.07,4.9,0,9.79,0,14.69,0,3.44,0,3.45,3.37,3.44,1.46,0,2.92,0,4.37,0,1.28-.06,2,.27,2,1.73s-.68,1.64-1.83,1.63c-3.65,0-7.3,0-10.94.08-1.23,0-1.6-.44-1.58-1.63.06-3.31,0-6.61,0-9.92Z"/><path class="cls-3" d="M432.87,56.59V47.08c0-1-.22-2,1.44-1.88,1.36.13,2.39.22,2.36,2.07-.09,5.15,0,10.31,0,15.46a34.85,34.85,0,0,0,.1,4c.18,1.63-.83,1.65-2,1.66s-2.22.11-2.17-1.65c.11-3.37,0-6.74,0-10.11Z"/><path class="cls-1" d="M341.05,157.59c-4.77,0-9.54-.05-14.31,0-1.79,0-2.54-.67-2.5-2.44q.09-4.86.07-9.72c0-1.36.44-2,2-2,8.54.05,17.09-.19,25.62.35a28.7,28.7,0,0,1,5.28.89c3.28.87,4.95,6.13,3.16,9.34a5.72,5.72,0,0,1-5.57,3.26c-4.57-.09-9.14,0-13.71,0Z"/><path class="cls-1" d="M339.2,125.42c-4.18,0-8.36-.08-12.53,0-1.88.05-2.47-.71-2.42-2.44q.09-4.06,0-8.13c0-1.41.46-2,2-2,7.89.08,15.77.07,23.66.13a13.62,13.62,0,0,1,2.76.34c4.84,1,6.41,3.55,5.19,8.32-.46,1.78-3,3.48-5.72,3.54-4.31.1-8.62,0-12.92,0Z"/><path class="cls-1" d="M460.65,145.34c-2.38,0-4.77,0-7.16,0-1.3,0-1.42-.55-1-1.62q3.9-10,7.75-20.1a3.17,3.17,0,0,1,.18-.57c.51-.8.57-2.32,1.61-2.26,1.22.06.78,1.58,1.08,2.45,1.34,3.92,2.64,7.85,3.93,11.77.95,2.88,1.86,5.78,2.83,8.65.35,1.07,0,1.5-1.07,1.5h-8.15Z"/><path class="cls-1" d="M366.25,57.09a8.23,8.23,0,0,1-2.15,6.34,5.87,5.87,0,0,1-9.32-1.27c-2.7-4.93-1.25-8.71.93-11.34C357.2,49,359,48,361.42,48.61A6,6,0,0,1,366,53.75,26.39,26.39,0,0,1,366.25,57.09Z"/><path class="cls-1" d="M457.53,57.11a8.16,8.16,0,0,1-.77,4.13c-.87,2-2.13,3.63-4.53,3.9a5.74,5.74,0,0,1-6.16-3c-2.05-3.51-1.7-8.86.9-11.68a5.67,5.67,0,0,1,9.75,1.86A11.07,11.07,0,0,1,457.53,57.11Z"/><path class="cls-1" d="M210.72,49.08a50,50,0,0,1,2.81,8.25c.23,1-.09,1.49-1.2,1.45-4.09-.16-4.68.81-3-3.63C210,53.35,209.93,51.39,210.72,49.08Z"/></g></g></svg>