<svg xmlns="http://www.w3.org/2000/svg" viewBox="0 0 453.12 140.52"><defs><style>.cls-1{fill:#fefefe;}.cls-2{fill:#292526;}.cls-3{fill:#f49525;}</style></defs><g id="Calque_2" data-name="Calque 2"><g id="Calque_1-2" data-name="Calque 1"><path class="cls-1" d="M226.53,140.48q-112.49,0-225,0c-1.37,0-1.56-.38-1.56-1.63Q.06,70.24,0,1.57C0,.21.38,0,1.63,0Q226.5.07,451.38,0c1.54,0,1.74.42,1.74,1.8q-.06,68.58,0,137.15c0,1.36-.38,1.56-1.63,1.56Q339,140.46,226.53,140.48ZM75.76,4.79c2,.26,4.13.42,6.16.8,10.7,2,20.41,6.06,28.31,13.74s11.82,16.91,11.38,27.87a40.47,40.47,0,0,1-8,22.41c-10.62,14.7-25.44,22.75-42.85,26.6-3.42.76-6.9,1.13-10.36,1.61A74.67,74.67,0,0,0,91.7,92c12.76-5.32,23.45-13.25,30.75-25.2,5.22-8.55,7.47-17.79,5.63-27.75-1.94-10.54-7.88-18.51-16.57-24.51C100.8,7.16,88.72,4.38,75.87,4.4l-6.11,0A71.1,71.1,0,0,0,52.44,6.29c-15,3.48-28,10.34-38.24,22-6.28,7.19-10.49,15.44-11.3,25-1,12.43,3.4,22.84,12.74,31,11.6,10.17,25.58,13.52,40.64,13.46-3.13-.59-6.32-.92-9.44-1.64C36.22,93.75,26.7,89.25,19.32,81c-7.79-8.71-10.9-18.89-9-30.49,1.57-9.4,6.11-17.3,12.63-24.06C35.78,13.2,51.72,6.56,69.88,4.79A10.87,10.87,0,0,1,75.76,4.79ZM324.84,41.56c1.89,3.09,4.82,3.64,8.11,3.34.68-.06,1.38,0,2.07,0,2.59,0,2.59,0,2.59,2.5q0,15.55,0,31.12a45.74,45.74,0,0,0,.38,6.72c.71,4.8,3.25,7.44,8,8.21,4,.66,8.07.36,12.1.35a5.49,5.49,0,0,0,5.48-5.53,5.56,5.56,0,0,0-5.5-5.53c-4-.17-5.19-1.17-5.24-5.2-.13-10.49-.08-21-.14-31.47,0-1.1.49-1.19,1.36-1.18,4.1,0,8.2,0,12.3,0,1.09,0,1.37.32,1.36,1.37-.06,4.21-.05,8.42,0,12.63.05,8-.17,16,.15,24,.24,6,2.54,9.34,7.46,10.39,4.56,1,9.21.59,13.82.42,2.06-.07,3.92-2.1,4.35-4.15a5.49,5.49,0,0,0-5.39-6.83c-3.74-.14-4.78-1.09-5.19-4.76a9.83,9.83,0,0,1-.08-1.21c0-10.2,0-20.41,0-30.61,0-1,.26-1.3,1.26-1.28,2.42.05,4.85.05,7.27,0a5.19,5.19,0,0,0,5.23-5.13,5.12,5.12,0,0,0-5.38-5.11c-2.31,0-4.62-.07-6.93,0-1.12,0-1.48-.28-1.46-1.43.07-5,0-9.92,0-14.87a8.71,8.71,0,0,0-.3-2.73A7.55,7.55,0,0,0,374,10.41a7.43,7.43,0,0,0-6.3,7.52c-.05,5.07,0,10.14,0,15.21,0,1.08-.22,1.51-1.42,1.48-4-.08-8.09-.07-12.13,0-1.12,0-1.5-.26-1.48-1.42.08-5,.05-9.92.07-14.87a8.58,8.58,0,0,0-.42-2.89,7.62,7.62,0,0,0-8.49-5,7.44,7.44,0,0,0-6.21,7.24c-.06,5.19,0,10.38,0,15.56,0,1-.21,1.42-1.33,1.38-2.13-.09-4.27-.06-6.41,0A5.07,5.07,0,0,0,324.81,40c0,.55.45,1.08.08,1.64A15,15,0,0,0,314.76,34a40.68,40.68,0,0,0-14.95-.68c-5.42.79-10.24,2.77-13.2,7.78-2.11,3.56-2.48,7.48-2.35,11.49a7,7,0,0,0,6.92,6.77,6.66,6.66,0,0,0,6.62-6.77,20.59,20.59,0,0,1,.34-4.29,6.29,6.29,0,0,1,5.69-5c3-.43,5.89.79,7,3,2.39,4.54.48,9.2-4.38,10.71-.6.18-1.23.28-1.84.47-4.67,1.4-9.52,2.21-13.94,4.42a13.62,13.62,0,0,0-7.65,9.45,25.28,25.28,0,0,0,.24,13c1.57,5.22,4.74,9.11,10.37,9.89,7,1,13.54,0,17.72-6.76a1.56,1.56,0,0,1,.38-.33,1,1,0,0,1,.19.25c1.13,3.87,4.43,6.16,8.14,5.63s6.11-3.59,6.11-7.6V57.1C326.2,51.88,326.54,46.63,324.84,41.56ZM214.06,87c.23.66.36,1.19.58,1.69A7.43,7.43,0,0,0,222.53,93c3.14-.54,5.9-3.32,5.91-6.34,0-12.9.16-25.81-.08-38.71-.15-7.57-3.94-12-11.16-13.85A36.93,36.93,0,0,0,199.05,34c-6.33,1.61-10.54,5.45-12,12a27.06,27.06,0,0,0-.51,6.35,7,7,0,0,0,7,7.09c3.74,0,6.55-3,6.61-7a22.87,22.87,0,0,1,.28-3.79,6.27,6.27,0,0,1,5.94-5.32c3.19-.36,5.93.94,7,3.34a9.52,9.52,0,0,1,.37,6.25c-.68,2.68-2.94,3.51-5.25,4.2-4.62,1.37-9.38,2.25-13.87,4.1-4.77,2-8.15,5.2-9.24,10.36a25,25,0,0,0,.56,13.62c1.71,4.93,5,8.27,10.29,9.12a22.45,22.45,0,0,0,8.93-.41A13.41,13.41,0,0,0,213,88.47ZM419.93,66.11c3.58,0,7.16,0,10.74,0a6.68,6.68,0,0,0,6.81-6.76A46.85,46.85,0,0,0,436,47.55c-1.83-7-5.8-12.07-13.2-13.79A31.83,31.83,0,0,0,412,33.24c-8.3.91-14.56,4.78-17,12.95a63.89,63.89,0,0,0-.23,35.43c1.73,6.49,6.38,10.54,13,12.09a35,35,0,0,0,16,0C429,92.46,433,89.4,435,84.1a24.84,24.84,0,0,0,1.46-6.72,10.73,10.73,0,0,0-.19-4.44,6.75,6.75,0,0,0-6.85-4.5,6.54,6.54,0,0,0-6.19,5.31c-.44,2.19-.5,4.46-1.37,6.56a5.7,5.7,0,0,1-5.24,3.84c-4.27.31-6.58-1.34-7.9-5.77-1.07-3.58-1-7.27-1.07-11,0-1.08.28-1.36,1.34-1.34C412.65,66.15,416.29,66.11,419.93,66.11ZM179.27,44.9c0-9.86,0-19.72,0-29.57A7.3,7.3,0,0,0,175,8.55a7.45,7.45,0,0,0-8,.53c-2.56,1.73-3.45,4.27-3.45,7.3q.06,27.15,0,54.3a32,32,0,0,1-.56,7c-.51,2.23-1.46,4.28-3.86,4.87-4.46,1.11-8.09-.08-9-5.49a48.73,48.73,0,0,1-.33-8.62,7.19,7.19,0,0,0-7.06-7.23,7.1,7.1,0,0,0-7.5,6.93,71.24,71.24,0,0,0,.36,10c1.09,8.57,6.13,14.35,14.27,15.83a36.29,36.29,0,0,0,15.62-.57,16.69,16.69,0,0,0,12.76-12.7,35.41,35.41,0,0,0,1.06-9.23C179.25,62.65,179.27,53.77,179.27,44.9Zm81.78,6.37q0,17.54,0,35.09a10.11,10.11,0,0,0,.18,2.4,7.48,7.48,0,0,0,8.44,5.73c3.76-.4,6.52-3.65,6.53-7.87q0-35.36,0-70.7c0-4.7-3.27-8-7.74-7.93s-7.41,3.34-7.41,8Q261,33.64,261.05,51.27Zm-8.66.14q0-18,0-36a7.46,7.46,0,0,0-9.68-7.12c-3.59,1.07-5.5,4-5.5,8.4l0,69.14a14.29,14.29,0,0,0,.12,2.07,7.55,7.55,0,0,0,15-1.09Q252.38,69.14,252.39,51.41ZM59.82,39.18a27.56,27.56,0,0,0,18.37-6.94c2.68-2.45,5.32-5,8-7.41,1.5-1.39,1.57-1.94,0-3.32a66.39,66.39,0,0,0-12.61-8.79,4.2,4.2,0,0,0-3.81-.15A55.77,55.77,0,0,0,62,16.25a5,5,0,0,1-5.53.07,45.51,45.51,0,0,0-7.1-3.15,3.34,3.34,0,0,0-2.85.08,58.3,58.3,0,0,0-13.06,9.89c-.94.94-.83,1.85.19,2.8,1.68,1.58,3.33,3.21,4.85,4.94C43.79,36.9,50.62,39.18,59.82,39.18ZM75.26,55.82c0,.86-.06,1.73,0,2.59.48,5.76,2.07,11.08,6.32,15.29,2.21,2.19,4.52,4.29,6.66,6.55,1.17,1.24,2.1,1.14,3.18,0a68.29,68.29,0,0,0,9.36-12.17,3.87,3.87,0,0,0,.27-3.61,59.81,59.81,0,0,0-3.33-7.39,4.37,4.37,0,0,1,0-4.43c1.11-2.14,2-4.38,3.21-6.49,1.5-2.75,1.13-5.18-.55-7.75a84.53,84.53,0,0,0-7.55-10.3c-1.38-1.55-2.11-1.48-3.48,0-2,2.23-4,4.51-6.06,6.64C77.58,40.65,75.26,47.79,75.26,55.82Zm-31.83.27c0-8.14-2.19-15.43-7.91-21.49-1.57-1.67-2.93-3.55-4.37-5.35-1.27-1.6-1.87-1.63-3.2,0a61.41,61.41,0,0,0-5.13,7.37c-3.69,6.19-3.77,6.47-.83,13.08,2.79,6.27,2.52,4.6.08,10.12-1.78,4-1.69,7.47,1.07,11,2.15,2.77,4,5.75,6.42,8.35.64.69,1.37,1.37,2.31.34,2.41-2.64,5-5.14,7.2-7.94C42.6,67.06,43.39,61.65,43.43,56.09Zm27.36,38a7.67,7.67,0,0,0,2.92-.86A64.52,64.52,0,0,0,84.5,86.41a9,9,0,0,0,1.37-1.31,1,1,0,0,0-.12-1.64C82,80.8,78.9,77.41,75,75c-6.7-4.11-14.11-4.75-21.72-3.87a21.08,21.08,0,0,0-12.21,5.19c-2,1.83-3.95,3.72-6.07,5.41-1.4,1.11-1.09,1.9,0,2.88a65.37,65.37,0,0,0,7.29,5.54c6.1,4,6.27,4.14,13,1.2,3-1.3,5.47-1.47,8.32.15A25.5,25.5,0,0,0,70.79,94.12ZM209,136.54c0,.77,0,1.11,0,1.44.1.74-.48,1.76,1.08,1.78s1.16-.91,1.16-1.7c0-7.89,0-15.77,0-23.66,0-.8.06-1.4-1.11-1.39s-1.18.48-1.17,1.35c0,2.85,0,5.69,0,8.84l-.82-.77a8.31,8.31,0,0,0-13.81,3,13.68,13.68,0,0,0,0,9.62,7.14,7.14,0,0,0,5.41,4.82C203.38,140.7,206.39,139.74,209,136.54Zm46.77.27c.64.61,1,1,1.37,1.32a8.29,8.29,0,0,0,13.18-3.07,13.74,13.74,0,0,0,.67-7c-.91-5.72-4.35-8.53-9.68-8a8.52,8.52,0,0,0-5.54,3.06c0-3.23,0-6.09,0-8.94,0-.94-.32-1.16-1.19-1.17s-1.19.19-1.19,1.14q.06,12.18,0,24.37c0,.83.13,1.23,1.12,1.22s1.34-.37,1.24-1.32C255.72,138,255.76,137.54,255.76,136.81Zm-154.94.59c1,2.25,2.41,3,4.21,2.39.69-.24.67-.69.65-1.21,0-.34,0-.82-.5-.67-2.09.61-1.84-.88-1.85-2.06,0-3.4,0-6.8,0-10.2,0-2.24-.9-4.08-3.08-4.94a10.45,10.45,0,0,0-8.55.27,5.27,5.27,0,0,0-3,3.62c-.15.56-.86,1.41.19,1.65.7.16,1.75.59,2.06-1,.41-2,2-3,4-3.16a17.77,17.77,0,0,1,2.42,0A3.44,3.44,0,0,1,101,125.8c0,1.9-.47,2.24-3.23,2.59-2.33.3-4.71.39-6.91,1.36a5.29,5.29,0,0,0,.61,10A9.47,9.47,0,0,0,100.82,137.4Zm31-6.73h4c4,0,4,0,3.16-3.95a8.06,8.06,0,0,0-6.25-6.61c-4-.69-7.46.8-9.25,4.17a12.23,12.23,0,0,0-.13,11.75c1.81,3.57,5.11,4.42,8.8,4.07a7.52,7.52,0,0,0,6.64-5.26c.16-.39.57-1-.13-1.1-.86-.1-1.94-.49-2.4.91a4.94,4.94,0,0,1-3.58,3.19,6.46,6.46,0,0,1-8.23-6.38c0-.79.42-.79,1-.79C127.59,130.68,129.72,130.67,131.86,130.67Zm164.55,0h4c4.11,0,4.11,0,3.24-4-.77-3.56-3.32-6.13-6.5-6.54-4.13-.54-7.34,1-9.12,4.42a12.6,12.6,0,0,0-.42,10.68c1.33,3.44,4.15,5,8.45,4.95a7.77,7.77,0,0,0,7.41-5.21c.44-1.1.12-1.26-.9-1.27a1.44,1.44,0,0,0-1.65,1.07,4.89,4.89,0,0,1-3.14,3,6.46,6.46,0,0,1-8.64-6.17c0-.88.43-.89,1.06-.88C292.26,130.68,294.33,130.67,296.41,130.67Zm-68.81,0c1.39,0,2.77,0,4.15,0,3.9,0,3.41.63,2.91-3.43a7.92,7.92,0,0,0-6.49-7.14c-4.4-.64-7.84,1.2-9.57,5.08a13.46,13.46,0,0,0-.83,7.28,8.28,8.28,0,0,0,6.86,7.61c4.4.73,7.92-1,9.55-4.74.2-.47,1-1.26.14-1.55-.69-.23-1.93-.65-2.34.65-.82,2.6-3.55,4.07-6.7,3.58a6.49,6.49,0,0,1-5.14-6c-.11-1,.06-1.46,1.23-1.4C223.44,130.74,225.52,130.67,227.6,130.67Zm176,0c1.38,0,2.77,0,4.15,0,3.87-.08,3.56.79,3-3.51a7.91,7.91,0,0,0-6.55-7.07c-4.32-.57-7.59,1.15-9.38,4.85a13.38,13.38,0,0,0-1,7.43c.45,4.17,3.19,7.15,7,7.71,4.39.66,7.78-1,9.41-4.68.21-.46,1.2-1.27.11-1.64-.69-.23-1.74-.52-2.32.75a5.76,5.76,0,0,1-6.9,3.45,6.68,6.68,0,0,1-4.92-6.35c0-.81.3-1,1-1C399.35,130.7,401.48,130.67,403.62,130.67Zm-48,0h3.81c4.07,0,4.07,0,3.21-4a7.92,7.92,0,0,0-6.31-6.52c-4-.63-7.41.91-9.22,4.26a12.69,12.69,0,0,0-.89,9.7,7.56,7.56,0,0,0,6.11,5.89c3.11.58,6.1.27,8.45-2.24a9.52,9.52,0,0,0,1.82-3.1c.25-.62.11-.92-.66-1-1,0-1.69.09-2.08,1.22a4.66,4.66,0,0,1-3.23,2.88c-4.1,1.35-7.56-1-8.37-5.7-.19-1.07,0-1.45,1.13-1.41C351.42,130.73,353.5,130.67,355.58,130.67Zm-273.37,3c-1,.32-2.13-.63-2.82.84a5.8,5.8,0,0,1-6.9,3.48,6.57,6.57,0,0,1-4.9-6.16c0-.95.25-1.17,1.14-1.15q5.28.06,10.56,0c3.81,0,3.28.62,2.83-3.36a7.82,7.82,0,0,0-6.76-7.23c-4.47-.48-7.82,1.41-9.42,5.34a13.89,13.89,0,0,0-.75,6.61c.42,4.43,3.2,7.6,7.15,8.07C77.39,140.69,80.61,138.67,82.21,133.65Zm76.19,3.5c0,.57,0,.74,0,.91.05.78-.35,1.72,1.15,1.7s1.19-.89,1.19-1.71V121.81c0-.67.18-1.4-1-1.4-1,0-1.39.1-1.41,1.27-.07,3.91.47,7.84-.32,11.71a5.56,5.56,0,0,1-6.42,4.67c-2.73-.28-3.95-2-4-5.66s0-7.25,0-10.88c0-.78-.15-1.2-1-1.09-.6.07-1.32-.16-1.29.88.13,4.6-.3,9.21.25,13.8a5.65,5.65,0,0,0,5.5,5A8.09,8.09,0,0,0,158.4,137.15Zm154-14c0-.68,0-.9,0-1.12-.08-.7.41-1.6-1-1.63S310,121.12,310,122c0,5.42,0,10.84,0,16.26,0,.92.06,1.48,1.26,1.48s1-.7,1.07-1.44c.13-3.85-.4-7.74.29-11.56.6-3.32,3.05-5,6.58-4.63,2.65.24,3.85,1.94,3.86,5.53s0,7.27,0,10.9c0,.68,0,1.27,1,1.17.7-.06,1.39.1,1.36-1-.12-4.55.22-9.11-.19-13.65a5.15,5.15,0,0,0-3.83-4.64C318,119.32,315,120.15,312.35,123.14ZM46,126.45a7,7,0,0,0-3-5.21A8.8,8.8,0,0,0,30.6,124.4a12.5,12.5,0,0,0-.37,11c1.41,3.42,4.52,5,9,4.71a7.74,7.74,0,0,0,6.87-5.69c.38-1.21.1-1.6-1.21-1.55-1,0-1,.65-1.23,1.31a5.31,5.31,0,0,1-4.8,3.87c-2.58.23-4.72-.61-5.93-3a10.3,10.3,0,0,1,.17-10.22,5.48,5.48,0,0,1,5.55-2.77,4.88,4.88,0,0,1,4.56,3.15C43.77,126.83,44.72,126.77,46,126.45Zm323.87,3.81c0,2,.08,4,0,6.05-.18,3.58,2.18,4.28,5.19,3.63.9-.19.84-.76.83-1.4,0-1-.71-.49-1.12-.47-2.29.07-2.52-.1-2.55-2.36,0-3.52,0-7,0-10.55,0-2.54,0-2.59,2.52-2.68.85,0,1.07-.3,1.07-1.11s-.35-.91-1-.94c-2.55-.13-2.55-.15-2.55-2.66a10.58,10.58,0,0,1,0-1.38c.15-1.07-.42-1.16-1.31-1.22-1.13-.07-1,.58-1,1.28,0,.86-.07,1.74,0,2.59.11,1.11-.24,1.56-1.4,1.42-.62-.07-1.38-.29-1.41.9s.64,1.2,1.42,1.08c1.17-.17,1.44.33,1.39,1.42C369.83,126,369.89,128.13,369.89,130.26Zm-258.23-.17v6.22c0,3.15,1.75,4.46,4.87,3.73.69-.16,1.28-.33,1.22-1.31-.07-1.18-.82-.66-1.35-.65-2.11,0-2.36-.18-2.37-2.38,0-3.39,0-6.79,0-10.19,0-1-.4-2.12.19-2.84s1.63-.21,2.47-.19.83-.52.85-1.12-.13-.92-.85-.94c-.88,0-2.09.47-2.56-.32s-.1-1.79-.11-2.71a6.17,6.17,0,0,1,0-.86c.09-.86,0-1.33-1.15-1.37s-1.29.52-1.23,1.44-.05,1.61,0,2.41c.09,1-.15,1.63-1.37,1.45-.76-.12-1.46-.15-1.43,1.06s.79,1,1.42.91c1.19-.15,1.42.37,1.38,1.44C111.61,125.94,111.66,128,111.66,130.09Zm333.13-119a7.9,7.9,0,0,0-8,7.82,8,8,0,1,0,15.93,0A7.82,7.82,0,0,0,444.79,11.05ZM170.24,123.36c0-.56,0-1.12,0-1.68,0-.75,0-1.31-1-1.27s-1.31.23-1.3,1.25c0,5.58,0,11.16,0,16.74,0,.9.15,1.33,1.22,1.36s1.1-.59,1.12-1.39c.1-3.56-.3-7.13.26-10.68.53-3.27,1.91-4.74,5.23-5.18,1.34-.17.71-1,.82-1.64.17-.88-.43-.85-1.06-.83C173.12,120.13,171.54,121.37,170.24,123.36Zm-115.19-.28c0-.34,0-.68-.06-1,0-.85.23-1.69-1.22-1.67s-1.06.88-1.06,1.6q0,8.12,0,16.23c0,.78-.22,1.57,1.14,1.55S55,139,55,138.19c0-3.33,0-6.67.16-10s1.89-5.25,5.3-5.67c1.32-.17.78-1,.88-1.62.14-.87-.4-.88-1.06-.86A6.4,6.4,0,0,0,55.05,123.08Zm328.71.55c-.05-.84-.1-1.16-.09-1.48,0-.92.22-1.81-1.32-1.75s-1,1.14-1,1.81c-.05,5.36,0,10.72,0,16.08,0,.72-.22,1.47,1,1.47s1.32-.45,1.31-1.44c0-3.22,0-6.45.07-9.67.13-3.76,1.73-5.58,5.42-6.14,1.21-.18.69-1,.79-1.52.14-.73-.16-1-.94-1C386.72,120.1,385.09,121.16,383.76,123.63Zm-103.54,6.29c0-2.76,0-5.52,0-8.28,0-.83-.14-1.24-1.12-1.23s-1.17.29-1.16,1.18q0,8.46,0,16.91c0,.82.12,1.26,1.11,1.25s1.18-.32,1.17-1.2C280.19,135.68,280.21,132.8,280.22,129.92ZM360,118.44c-1.39-1.69-2.53-3.25-3.85-4.66a2.17,2.17,0,0,0-3.09-.14,56.24,56.24,0,0,0-3.94,4.72c3.34,1,3.65-2.31,5.48-3.44a22.36,22.36,0,0,1,2,2.53C357.38,118.7,358.47,118.6,360,118.44Zm-24.05,12.74h3.44c.74,0,1.46.18,1.42-1.06,0-1-.28-1.4-1.36-1.36-2.24.08-4.48.07-6.72,0-1,0-1.41.17-1.42,1.3s.52,1.16,1.36,1.12C333.75,131.15,334.84,131.18,335.94,131.18ZM78.32,113.46c-1-.06-2.12-.66-2.86.16-1.32,1.48-2.49,3.08-3.72,4.63C75.23,118.31,76.13,115.08,78.32,113.46ZM280.4,115c0-1,.37-2-1.23-2-1.37,0-1.5.59-1.4,1.64.08.85-.35,1.84,1.24,1.81C280.35,116.43,280.58,115.89,280.4,115Z"/><path class="cls-2" d="M324.89,41.61c.37-.56-.07-1.09-.08-1.64a5.07,5.07,0,0,1,5.08-5.37c2.14,0,4.28-.07,6.41,0,1.12,0,1.35-.35,1.33-1.38-.05-5.18-.07-10.37,0-15.56a7.44,7.44,0,0,1,6.21-7.24,7.62,7.62,0,0,1,8.49,5,8.58,8.58,0,0,1,.42,2.89c0,5,0,9.91-.07,14.87,0,1.16.36,1.43,1.48,1.42,4-.07,8.09-.08,12.13,0,1.2,0,1.43-.4,1.42-1.48-.05-5.07-.07-10.14,0-15.21a7.43,7.43,0,0,1,6.3-7.52,7.55,7.55,0,0,1,8.52,5.18,8.71,8.71,0,0,1,.3,2.73c0,4.95,0,9.91,0,14.87,0,1.15.34,1.47,1.46,1.43,2.31-.09,4.62,0,6.93,0a5.12,5.12,0,0,1,5.38,5.11,5.19,5.19,0,0,1-5.23,5.13c-2.42.08-4.85.08-7.27,0-1,0-1.27.31-1.26,1.28,0,10.2,0,20.41,0,30.61a9.83,9.83,0,0,0,.08,1.21c.41,3.67,1.45,4.62,5.19,4.76a5.49,5.49,0,0,1,5.39,6.83c-.43,2-2.29,4.08-4.35,4.15-4.61.17-9.26.55-13.82-.42-4.92-1.05-7.22-4.36-7.46-10.39-.32-8-.1-16-.15-24,0-4.21,0-8.42,0-12.63,0-1.05-.27-1.39-1.36-1.37-4.1.06-8.2,0-12.3,0-.87,0-1.37.08-1.36,1.18.06,10.49,0,21,.14,31.47.05,4,1.24,5,5.24,5.2a5.56,5.56,0,0,1,5.5,5.53,5.49,5.49,0,0,1-5.48,5.53c-4,0-8.08.31-12.1-.35-4.73-.77-7.27-3.41-8-8.21a45.74,45.74,0,0,1-.38-6.72q0-15.56,0-31.12c0-2.5,0-2.5-2.59-2.5-.69,0-1.39,0-2.07,0-3.29.3-6.22-.25-8.11-3.34Z"/><path class="cls-2" d="M324.84,41.56c1.7,5.07,1.36,10.32,1.37,15.54V85.44c0,4-2.47,7.07-6.11,7.6s-7-1.76-8.14-5.63a1,1,0,0,0-.19-.25,1.56,1.56,0,0,0-.38.33c-4.18,6.75-10.7,7.74-17.72,6.76-5.63-.78-8.8-4.67-10.37-9.89a25.28,25.28,0,0,1-.24-13,13.62,13.62,0,0,1,7.65-9.45c4.42-2.21,9.27-3,13.94-4.42.61-.19,1.24-.29,1.84-.47,4.86-1.51,6.77-6.17,4.38-10.71-1.15-2.19-4-3.41-7-3a6.29,6.29,0,0,0-5.69,5,20.59,20.59,0,0,0-.34,4.29,6.66,6.66,0,0,1-6.62,6.77,7,7,0,0,1-6.92-6.77c-.13-4,.24-7.93,2.35-11.49,3-5,7.78-7,13.2-7.78a40.68,40.68,0,0,1,14.95.68,15,15,0,0,1,10.13,7.57ZM311.67,63.92a23.39,23.39,0,0,1-7.84,3.25c-2.83.75-5.29,2.15-6.32,5.08a12.23,12.23,0,0,0,.25,8.77,4.76,4.76,0,0,0,3.28,3c5,1.25,10.45-2.81,10.6-7.95C311.77,72.16,311.67,68.19,311.67,63.92Z"/><path class="cls-2" d="M214.06,87l-1,1.48a13.41,13.41,0,0,1-7.93,5.44,22.45,22.45,0,0,1-8.93.41c-5.29-.85-8.58-4.19-10.29-9.12a25,25,0,0,1-.56-13.62c1.09-5.16,4.47-8.4,9.24-10.36,4.49-1.85,9.25-2.73,13.87-4.1,2.31-.69,4.57-1.52,5.25-4.2a9.52,9.52,0,0,0-.37-6.25c-1.05-2.4-3.79-3.7-7-3.34a6.27,6.27,0,0,0-5.94,5.32,22.87,22.87,0,0,0-.28,3.79c-.06,4-2.87,6.93-6.61,7a7,7,0,0,1-7-7.09A27.06,27.06,0,0,1,187,46c1.47-6.52,5.68-10.36,12-12a36.93,36.93,0,0,1,18.15.13c7.22,1.8,11,6.28,11.16,13.85.24,12.9.12,25.81.08,38.71,0,3-2.77,5.8-5.91,6.34a7.43,7.43,0,0,1-7.89-4.34C214.42,88.18,214.29,87.65,214.06,87Zm-.13-23a25.2,25.2,0,0,1-7.83,3.2c-3.14.84-5.73,2.48-6.54,5.91a12.78,12.78,0,0,0,.49,7.94,4.79,4.79,0,0,0,3.3,3c4.92,1.22,10.38-2.74,10.55-7.77C214,72.28,213.93,68.26,213.93,64Z"/><path class="cls-2" d="M419.93,66.11c-3.64,0-7.28,0-10.92,0-1.06,0-1.35.26-1.34,1.34,0,3.69,0,7.38,1.07,11,1.32,4.43,3.63,6.08,7.9,5.77a5.7,5.7,0,0,0,5.24-3.84c.87-2.1.93-4.37,1.37-6.56a6.54,6.54,0,0,1,6.19-5.31,6.75,6.75,0,0,1,6.85,4.5,10.73,10.73,0,0,1,.19,4.44A24.84,24.84,0,0,1,435,84.1c-2,5.3-6,8.36-11.37,9.59a35,35,0,0,1-16,0c-6.6-1.55-11.25-5.6-13-12.09a63.89,63.89,0,0,1,.23-35.43c2.47-8.17,8.73-12,17-12.95a31.83,31.83,0,0,1,10.84.52c7.4,1.72,11.37,6.78,13.2,13.79a46.85,46.85,0,0,1,1.47,11.79,6.68,6.68,0,0,1-6.81,6.76C427.09,66.13,423.51,66.11,419.93,66.11Zm-5.28-9h0c2,0,3.92,0,5.88,0,1.64,0,2.48-.85,2.38-2.46a28.7,28.7,0,0,0-1-6.44c-.86-2.88-2.66-4.61-5.74-4.9a6.66,6.66,0,0,0-6.78,3.76c-1.52,2.89-1.66,6-1.71,9.21,0,.9.5.84,1.1.84C410.74,57.12,412.69,57.13,414.65,57.13Z"/><path class="cls-2" d="M179.27,44.9c0,8.87,0,17.75,0,26.62a35.41,35.41,0,0,1-1.06,9.23,16.69,16.69,0,0,1-12.76,12.7,36.29,36.29,0,0,1-15.62.57c-8.14-1.48-13.18-7.26-14.27-15.83a71.24,71.24,0,0,1-.36-10,7.1,7.1,0,0,1,7.5-6.93,7.19,7.19,0,0,1,7.06,7.23,48.73,48.73,0,0,0,.33,8.62c.9,5.41,4.53,6.6,9,5.49,2.4-.59,3.35-2.64,3.86-4.87a32,32,0,0,0,.56-7q0-27.15,0-54.3c0-3,.89-5.57,3.45-7.3a7.45,7.45,0,0,1,8-.53,7.3,7.3,0,0,1,4.29,6.78C179.29,25.18,179.27,35,179.27,44.9Z"/><path class="cls-2" d="M261.05,51.27q0-17.64,0-35.27c0-4.67,3.07-8,7.41-8s7.73,3.23,7.74,7.93q0,35.36,0,70.7c0,4.22-2.77,7.47-6.53,7.87a7.48,7.48,0,0,1-8.44-5.73,10.11,10.11,0,0,1-.18-2.4Q261,68.81,261.05,51.27Z"/><path class="cls-2" d="M252.39,51.41q0,17.72,0,35.44a7.55,7.55,0,0,1-15,1.09,14.29,14.29,0,0,1-.12-2.07l0-69.14c0-4.44,1.91-7.33,5.5-8.4a7.46,7.46,0,0,1,9.68,7.12Q252.41,33.44,252.39,51.41Z"/><path class="cls-3" d="M59.82,39.18c-9.2,0-16-2.28-21.34-8.3-1.52-1.73-3.17-3.36-4.85-4.94-1-1-1.13-1.86-.19-2.8A58.3,58.3,0,0,1,46.5,13.25a3.34,3.34,0,0,1,2.85-.08,45.51,45.51,0,0,1,7.1,3.15A5,5,0,0,0,62,16.25a55.77,55.77,0,0,1,7.82-3.68,4.2,4.2,0,0,1,3.81.15,66.39,66.39,0,0,1,12.61,8.79c1.54,1.38,1.47,1.93,0,3.32-2.68,2.46-5.32,5-8,7.41A27.56,27.56,0,0,1,59.82,39.18Z"/><path class="cls-3" d="M75.26,55.82c0-8,2.32-15.17,8.07-21,2.1-2.13,4.06-4.41,6.06-6.64,1.37-1.51,2.1-1.58,3.48,0a84.53,84.53,0,0,1,7.55,10.3c1.68,2.57,2,5,.55,7.75-1.16,2.11-2.1,4.35-3.21,6.49a4.37,4.37,0,0,0,0,4.43,59.81,59.81,0,0,1,3.33,7.39,3.87,3.87,0,0,1-.27,3.61,68.29,68.29,0,0,1-9.36,12.17c-1.08,1.12-2,1.22-3.18,0C86.11,78,83.8,75.89,81.59,73.7c-4.25-4.21-5.84-9.53-6.32-15.29C75.2,57.55,75.26,56.68,75.26,55.82Z"/><path class="cls-3" d="M43.43,56.09c0,5.56-.83,11-4.36,15.5-2.2,2.8-4.79,5.3-7.2,7.94-.94,1-1.67.35-2.31-.34-2.39-2.6-4.27-5.58-6.42-8.35-2.76-3.57-2.85-7-1.07-11C24.51,54.28,24.78,56,22,49.68c-2.94-6.61-2.86-6.89.83-13.08A61.41,61.41,0,0,1,28,29.23c1.33-1.61,1.93-1.58,3.2,0,1.44,1.8,2.8,3.68,4.37,5.35C41.24,40.66,43.45,48,43.43,56.09Z"/><path class="cls-3" d="M70.79,94.12a25.5,25.5,0,0,1-7.17-2.59c-2.85-1.62-5.36-1.45-8.32-.15-6.71,2.94-6.88,2.78-13-1.2A65.37,65.37,0,0,1,35,84.64c-1.11-1-1.42-1.77,0-2.88,2.12-1.69,4.08-3.58,6.07-5.41a21.08,21.08,0,0,1,12.21-5.19c7.61-.88,15-.24,21.72,3.87,3.89,2.38,7,5.77,10.74,8.43a1,1,0,0,1,.12,1.64,9,9,0,0,1-1.37,1.31,64.52,64.52,0,0,1-10.79,6.85A7.67,7.67,0,0,1,70.79,94.12Z"/><path class="cls-2" d="M69.9,4.79C51.72,6.56,35.78,13.2,23,26.47c-6.52,6.76-11.06,14.66-12.63,24.06-1.93,11.6,1.18,21.78,9,30.49,7.38,8.23,16.9,12.73,27.52,15.19,3.12.72,6.31,1.05,9.44,1.64-15.06.06-29-3.29-40.64-13.46C6.3,76.21,1.85,65.8,2.9,53.37c.81-9.61,5-17.86,11.3-25,10.21-11.69,23.26-18.55,38.24-22A71.08,71.08,0,0,1,69.75,4.43C69.44,4.69,69.83,4.67,69.9,4.79Z"/><path class="cls-2" d="M75.87,4.4c12.85,0,24.93,2.76,35.64,10.15,8.69,6,14.63,14,16.57,24.51,1.84,10-.41,19.2-5.63,27.75-7.3,12-18,19.88-30.75,25.2a74.67,74.67,0,0,1-31.35,5.81c3.46-.48,6.94-.85,10.36-1.61,17.41-3.85,32.23-11.9,42.85-26.6a40.47,40.47,0,0,0,8-22.41c.44-11-3.54-20.26-11.38-27.87S92.62,7.56,81.92,5.59c-2-.38-4.11-.54-6.16-.8C75.85,4.67,76.24,4.63,75.87,4.4Z"/><path class="cls-2" d="M209,136.54c-2.6,3.2-5.61,4.16-9.19,3.35a7.14,7.14,0,0,1-5.41-4.82,13.68,13.68,0,0,1,0-9.62,8.31,8.31,0,0,1,13.81-3l.82.77c0-3.15,0-6,0-8.84,0-.87.07-1.34,1.17-1.35s1.11.59,1.11,1.39c0,7.89,0,15.77,0,23.66,0,.79.35,1.72-1.16,1.7s-1-1-1.08-1.78C209,137.65,209,137.31,209,136.54Zm-13-6.29c.09.84.13,1.7.28,2.55a6.27,6.27,0,0,0,5.59,5.26,6,6,0,0,0,6.44-4.12,10.68,10.68,0,0,0-.12-7.9,6.11,6.11,0,0,0-11.59.46A16.77,16.77,0,0,0,196,130.25Z"/><path class="cls-2" d="M255.76,136.81c0,.73,0,1.18,0,1.62.1.95-.22,1.32-1.24,1.32s-1.12-.39-1.12-1.22q0-12.19,0-24.37c0-1,.32-1.14,1.19-1.14s1.21.23,1.19,1.17c-.06,2.85,0,5.71,0,8.94a8.52,8.52,0,0,1,5.54-3.06c5.33-.52,8.77,2.29,9.68,8a13.74,13.74,0,0,1-.67,7,8.29,8.29,0,0,1-13.18,3.07C256.75,137.79,256.4,137.42,255.76,136.81ZM268.68,130a9.91,9.91,0,0,0-.66-3.66,5.84,5.84,0,0,0-5.33-4.19,5.89,5.89,0,0,0-6.13,3.81,10.6,10.6,0,0,0,.07,8.53,5.59,5.59,0,0,0,5,3.61,6,6,0,0,0,5.84-2.92A9.41,9.41,0,0,0,268.68,130Z"/><path class="cls-2" d="M100.82,137.4a9.47,9.47,0,0,1-9.4,2.38,5.29,5.29,0,0,1-.61-10c2.2-1,4.58-1.06,6.91-1.36,2.76-.35,3.25-.69,3.23-2.59a3.44,3.44,0,0,0-3.52-3.66,17.77,17.77,0,0,0-2.42,0c-2.05.14-3.62,1.13-4,3.16-.31,1.54-1.36,1.11-2.06,1-1-.24-.34-1.09-.19-1.65a5.27,5.27,0,0,1,3-3.62,10.45,10.45,0,0,1,8.55-.27c2.18.86,3.06,2.7,3.08,4.94,0,3.4,0,6.8,0,10.2,0,1.18-.24,2.67,1.85,2.06.52-.15.49.33.5.67,0,.52,0,1-.65,1.21C103.23,140.41,101.78,139.65,100.82,137.4Zm.06-7.68a16.57,16.57,0,0,1-3.69.8c-1.75.25-3.58.16-5.22,1a3.44,3.44,0,0,0-.78,5.72c2.82,2.23,9,.12,9.65-3.38A23.49,23.49,0,0,0,100.88,129.72Z"/><path class="cls-2" d="M131.86,130.67c-2.14,0-4.27,0-6.41,0-.56,0-1,0-1,.79a6.46,6.46,0,0,0,8.23,6.38,4.94,4.94,0,0,0,3.58-3.19c.46-1.4,1.54-1,2.4-.91.7.09.29.71.13,1.1a7.52,7.52,0,0,1-6.64,5.26c-3.69.35-7-.5-8.8-4.07a12.23,12.23,0,0,1,.13-11.75c1.79-3.37,5.28-4.86,9.25-4.17a8.06,8.06,0,0,1,6.25,6.61c.8,3.95.8,3.95-3.16,3.95Zm-7.32-1.95H135c.29,0,.58,0,.87,0,.46,0,1,.2,1-.7a5.94,5.94,0,0,0-5.75-5.92C127.48,122,125.24,124.21,124.54,128.72Z"/><path class="cls-2" d="M296.41,130.67c-2.08,0-4.15,0-6.23,0-.63,0-1.07,0-1.06.88a6.46,6.46,0,0,0,8.64,6.17,4.89,4.89,0,0,0,3.14-3,1.44,1.44,0,0,1,1.65-1.07c1,0,1.34.17.9,1.27a7.77,7.77,0,0,1-7.41,5.21c-4.3.06-7.12-1.51-8.45-4.95a12.6,12.6,0,0,1,.42-10.68c1.78-3.45,5-5,9.12-4.42,3.18.41,5.73,3,6.5,6.54.87,4,.87,4-3.24,4Zm5.08-1.95c-.19-3.78-1.93-6.13-4.76-6.57A6.52,6.52,0,0,0,289.2,128c-.08.71.21.74.74.73Z"/><path class="cls-2" d="M227.6,130.67c-2.08,0-4.16.07-6.23,0-1.17-.06-1.34.4-1.23,1.4a6.49,6.49,0,0,0,5.14,6c3.15.49,5.88-1,6.7-3.58.41-1.3,1.65-.88,2.34-.65.86.29.06,1.08-.14,1.55-1.63,3.74-5.15,5.47-9.55,4.74a8.28,8.28,0,0,1-6.86-7.61,13.46,13.46,0,0,1,.83-7.28c1.73-3.88,5.17-5.72,9.57-5.08a7.92,7.92,0,0,1,6.49,7.14c.5,4.06,1,3.38-2.91,3.43C230.37,130.69,229,130.67,227.6,130.67Zm-1.43-1.95h3.45c3.09,0,3.47-.63,2.1-3.48a5.26,5.26,0,0,0-1.47-1.89,5.9,5.9,0,0,0-6.33-.74c-2.32,1-3.26,3.1-3.76,5.43-.15.71.35.68.83.68Z"/><path class="cls-2" d="M403.62,130.67c-2.14,0-4.27,0-6.41,0-.71,0-1,.14-1,1a6.68,6.68,0,0,0,4.92,6.35,5.76,5.76,0,0,0,6.9-3.45c.58-1.27,1.63-1,2.32-.75,1.09.37.1,1.18-.11,1.64-1.63,3.69-5,5.34-9.41,4.68-3.77-.56-6.51-3.54-7-7.71a13.38,13.38,0,0,1,1-7.43c1.79-3.7,5.06-5.42,9.38-4.85a7.91,7.91,0,0,1,6.55,7.07c.58,4.3.89,3.43-3,3.51C406.39,130.7,405,130.67,403.62,130.67Zm-1.21-1.95h5.19c.56,0,.94,0,.93-.8a5.8,5.8,0,0,0-3.94-5.51C400,121,397.06,124,396.26,128c-.17.88.49.7,1,.71Z"/><path class="cls-2" d="M355.58,130.67c-2.08,0-4.16.06-6.23,0-1.16,0-1.32.34-1.13,1.41.81,4.66,4.27,7.05,8.37,5.7a4.66,4.66,0,0,0,3.23-2.88c.39-1.13,1.07-1.26,2.08-1.22.77,0,.91.33.66,1a9.52,9.52,0,0,1-1.82,3.1c-2.35,2.51-5.34,2.82-8.45,2.24a7.56,7.56,0,0,1-6.11-5.89,12.69,12.69,0,0,1,.89-9.7c1.81-3.35,5.21-4.89,9.22-4.26a7.92,7.92,0,0,1,6.31,6.52c.86,4,.86,4-3.21,4Zm-7.41-1.95h11.47c.45,0,.86.1.9-.65a6,6,0,0,0-5.16-5.94C351.41,121.78,349,123.92,348.17,128.72Z"/><path class="cls-2" d="M82.21,133.65c-1.6,5-4.82,7-9.87,6.45-4-.47-6.73-3.64-7.15-8.07a13.89,13.89,0,0,1,.75-6.61c1.6-3.93,5-5.82,9.42-5.34a7.82,7.82,0,0,1,6.76,7.23c.45,4,1,3.32-2.83,3.36q-5.28,0-10.56,0c-.89,0-1.19.2-1.14,1.15a6.57,6.57,0,0,0,4.9,6.16,5.8,5.8,0,0,0,6.9-3.48C80.08,133,81.16,134,82.21,133.65Zm-8.44-4.93c1.61,0,3.23-.08,4.83,0,1.14.07,1.33-.32,1.21-1.36-.37-3.35-2.88-5.45-6.42-5.28A6.58,6.58,0,0,0,67.61,128c0,.87.5.72,1,.72Z"/><path class="cls-2" d="M158.4,137.15a8.09,8.09,0,0,1-7.26,3,5.65,5.65,0,0,1-5.5-5c-.55-4.59-.12-9.2-.25-13.8,0-1,.69-.81,1.29-.88.89-.11,1,.31,1,1.09,0,3.63,0,7.25,0,10.88s1.23,5.38,4,5.66a5.56,5.56,0,0,0,6.42-4.67c.79-3.87.25-7.8.32-11.71,0-1.17.45-1.26,1.41-1.27,1.14,0,1,.73,1,1.4v16.24c0,.82.27,1.7-1.19,1.71s-1.1-.92-1.15-1.7C158.43,137.89,158.43,137.72,158.4,137.15Z"/><path class="cls-2" d="M312.35,123.14c2.69-3,5.65-3.82,9-2.7a5.15,5.15,0,0,1,3.83,4.64c.41,4.54.07,9.1.19,13.65,0,1.1-.66.94-1.36,1-1,.1-1-.49-1-1.17,0-3.63,0-7.27,0-10.9s-1.21-5.29-3.86-5.53c-3.53-.33-6,1.31-6.58,4.63-.69,3.82-.16,7.71-.29,11.56,0,.74.17,1.44-1.07,1.44s-1.26-.56-1.26-1.48c0-5.42,0-10.84,0-16.26,0-.9-.12-1.65,1.28-1.63s.95.93,1,1.63C312.38,122.24,312.35,122.46,312.35,123.14Z"/><path class="cls-2" d="M46,126.45c-1.3.32-2.25.38-2.86-1.21a4.88,4.88,0,0,0-4.56-3.15,5.48,5.48,0,0,0-5.55,2.77,10.3,10.3,0,0,0-.17,10.22c1.21,2.37,3.35,3.21,5.93,3a5.31,5.31,0,0,0,4.8-3.87c.22-.66.22-1.27,1.23-1.31,1.31,0,1.59.34,1.21,1.55a7.74,7.74,0,0,1-6.87,5.69c-4.43.28-7.54-1.29-8.95-4.71a12.5,12.5,0,0,1,.37-11A8.8,8.8,0,0,1,43,121.24,7,7,0,0,1,46,126.45Z"/><path class="cls-2" d="M369.89,130.26c0-2.13-.06-4.27,0-6.4,0-1.09-.22-1.59-1.39-1.42-.78.12-1.45.12-1.42-1.08s.79-1,1.41-.9c1.16.14,1.51-.31,1.4-1.42-.09-.85,0-1.73,0-2.59,0-.7-.12-1.35,1-1.28.89.06,1.46.15,1.31,1.22a10.58,10.58,0,0,0,0,1.38c0,2.51,0,2.53,2.55,2.66.69,0,1.05.13,1,.94s-.22,1.08-1.07,1.11c-2.52.09-2.52.14-2.52,2.68,0,3.51,0,7,0,10.55,0,2.26.26,2.43,2.55,2.36.41,0,1.1-.53,1.12.47,0,.64.07,1.21-.83,1.4-3,.65-5.37-.05-5.19-3.63C370,134.3,369.89,132.28,369.89,130.26Z"/><path class="cls-2" d="M111.66,130.09c0-2.07,0-4.15,0-6.22,0-1.07-.19-1.59-1.38-1.44-.63.09-1.38.26-1.42-.91s.67-1.18,1.43-1.06c1.22.18,1.46-.4,1.37-1.45-.08-.8,0-1.61,0-2.41s0-1.48,1.23-1.44,1.24.51,1.15,1.37a6.17,6.17,0,0,0,0,.86c0,.92-.3,2,.11,2.71s1.68.29,2.56.32c.72,0,.88.31.85.94s.06,1.14-.85,1.12-2-.42-2.47.19-.18,1.88-.19,2.84c0,3.4,0,6.8,0,10.19,0,2.2.26,2.42,2.37,2.38.53,0,1.28-.53,1.35.65.06,1-.53,1.15-1.22,1.31-3.12.73-4.82-.58-4.87-3.73v-6.22Z"/><path class="cls-2" d="M444.79,11.05a7.82,7.82,0,0,1,7.95,7.82,8,8,0,1,1-7.95-7.82Zm-6.29,7.87A6.27,6.27,0,1,0,451,19a6.28,6.28,0,0,0-6.22-6.45A6.35,6.35,0,0,0,438.5,18.92Z"/><path class="cls-2" d="M170.24,123.36c1.3-2,2.88-3.23,5.26-3.32.63,0,1.23-.05,1.06.83-.11.6.52,1.47-.82,1.64-3.32.44-4.7,1.91-5.23,5.18-.56,3.55-.16,7.12-.26,10.68,0,.8.05,1.42-1.12,1.39s-1.22-.46-1.22-1.36c0-5.58,0-11.16,0-16.74,0-1,.36-1.22,1.3-1.25s1.07.52,1,1.27C170.21,122.24,170.24,122.8,170.24,123.36Z"/><path class="cls-2" d="M55.05,123.08a6.4,6.4,0,0,1,5.22-3c.66,0,1.2,0,1.06.86-.1.62.44,1.45-.88,1.62-3.41.42-5.12,2.24-5.3,5.67s-.12,6.67-.16,10c0,.81.16,1.55-1.15,1.58s-1.14-.77-1.14-1.55q0-8.11,0-16.23c0-.72-.36-1.58,1.06-1.6s1.21.82,1.22,1.67C55,122.4,55,122.74,55.05,123.08Z"/><path class="cls-2" d="M383.76,123.63c1.33-2.47,3-3.53,5.26-3.61.78,0,1.08.24.94,1-.1.57.42,1.34-.79,1.52-3.69.56-5.29,2.38-5.42,6.14-.11,3.22-.1,6.45-.07,9.67,0,1-.18,1.43-1.31,1.44s-1-.75-1-1.47c0-5.36,0-10.72,0-16.08,0-.67-.61-1.75,1-1.81s1.33.83,1.32,1.75C383.66,122.47,383.71,122.79,383.76,123.63Z"/><path class="cls-2" d="M280.21,129.92c0,2.88,0,5.76,0,8.63,0,.88-.24,1.19-1.17,1.2s-1.11-.43-1.11-1.25q0-8.44,0-16.91c0-.89.24-1.17,1.16-1.18s1.13.4,1.12,1.23C280.19,124.4,280.22,127.16,280.21,129.92Z"/><path class="cls-2" d="M360,118.44c-1.52.16-2.61.26-3.36-1a22.36,22.36,0,0,0-2-2.53c-1.83,1.13-2.14,4.4-5.48,3.44a56.24,56.24,0,0,1,3.94-4.72,2.17,2.17,0,0,1,3.09.14C357.46,115.19,358.6,116.75,360,118.44Z"/><path class="cls-2" d="M335.94,131.18c-1.1,0-2.19,0-3.28,0-.84,0-1.36,0-1.36-1.12s.42-1.33,1.42-1.3c2.24.06,4.48.07,6.72,0,1.08,0,1.33.32,1.36,1.36,0,1.24-.68,1.07-1.42,1.06Z"/><path class="cls-2" d="M78.32,113.46c-2.19,1.62-3.09,4.85-6.58,4.79,1.23-1.55,2.4-3.15,3.72-4.63C76.2,112.8,77.29,113.4,78.32,113.46Z"/><path class="cls-2" d="M280.4,115c.18.89,0,1.43-1.39,1.45-1.59,0-1.16-1-1.24-1.81-.1-1,0-1.63,1.4-1.64C280.77,113,280.35,114,280.4,115Z"/><path class="cls-3" d="M75.87,4.4c.37.23,0,.27-.11.39a10.84,10.84,0,0,0-5.87,0c-.06-.12-.45-.1-.14-.36Z"/><path class="cls-1" d="M311.67,63.92c0,4.27.1,8.24,0,12.2-.15,5.14-5.63,9.2-10.6,7.95a4.76,4.76,0,0,1-3.28-3,12.23,12.23,0,0,1-.25-8.77c1-2.93,3.49-4.33,6.32-5.08A23.39,23.39,0,0,0,311.67,63.92Z"/><path class="cls-1" d="M213.93,64c0,4.28.11,8.3,0,12.32-.17,5-5.63,9-10.55,7.77a4.79,4.79,0,0,1-3.3-3,12.78,12.78,0,0,1-.49-7.94c.81-3.43,3.4-5.07,6.54-5.91A25.2,25.2,0,0,0,213.93,64Z"/><path class="cls-1" d="M414.65,57.13c-2,0-3.91,0-5.87,0-.6,0-1.11.06-1.1-.84.05-3.17.19-6.32,1.71-9.21a6.66,6.66,0,0,1,6.78-3.76c3.08.29,4.88,2,5.74,4.9a28.7,28.7,0,0,1,1,6.44c.1,1.61-.74,2.43-2.38,2.46-2,0-3.92,0-5.88,0Z"/><path class="cls-1" d="M196,130.25a16.77,16.77,0,0,1,.6-3.75,6.11,6.11,0,0,1,11.59-.46,10.68,10.68,0,0,1,.12,7.9,6,6,0,0,1-6.44,4.12,6.27,6.27,0,0,1-5.59-5.26C196.09,132,196.05,131.09,196,130.25Z"/><path class="cls-1" d="M268.68,130a9.41,9.41,0,0,1-1.17,5.18,6,6,0,0,1-5.84,2.92,5.59,5.59,0,0,1-5-3.61,10.6,10.6,0,0,1-.07-8.53,5.89,5.89,0,0,1,6.13-3.81A5.84,5.84,0,0,1,268,126.3,9.91,9.91,0,0,1,268.68,130Z"/><path class="cls-1" d="M100.88,129.72a23.49,23.49,0,0,1,0,4.13c-.65,3.5-6.83,5.61-9.65,3.38a3.44,3.44,0,0,1,.78-5.72c1.64-.83,3.47-.74,5.22-1A16.57,16.57,0,0,0,100.88,129.72Z"/><path class="cls-1" d="M124.54,128.72c.7-4.51,2.94-6.7,6.62-6.62a5.94,5.94,0,0,1,5.75,5.92c0,.9-.56.66-1,.7-.29,0-.58,0-.87,0Z"/><path class="cls-1" d="M301.49,128.72H289.94c-.53,0-.82,0-.74-.73a6.52,6.52,0,0,1,7.53-5.84C299.56,122.59,301.3,124.94,301.49,128.72Z"/><path class="cls-1" d="M226.17,128.72H221c-.48,0-1,0-.83-.68.5-2.33,1.44-4.43,3.76-5.43a5.9,5.9,0,0,1,6.33.74,5.26,5.26,0,0,1,1.47,1.89c1.37,2.85,1,3.48-2.1,3.48Z"/><path class="cls-1" d="M402.41,128.72h-5.18c-.48,0-1.14.17-1-.71.8-4,3.75-7,8.33-5.6a5.8,5.8,0,0,1,3.94,5.51c0,.82-.37.81-.93.8Z"/><path class="cls-1" d="M348.17,128.72c.83-4.8,3.24-6.94,7.21-6.59a6,6,0,0,1,5.16,5.94c0,.75-.45.65-.9.65Z"/><path class="cls-1" d="M73.77,128.72H68.6c-.49,0-1,.15-1-.72a6.58,6.58,0,0,1,5.78-5.89c3.54-.17,6,1.93,6.42,5.28.12,1-.07,1.43-1.21,1.36C77,128.64,75.38,128.72,73.77,128.72Z"/><path class="cls-1" d="M438.5,18.92a6.35,6.35,0,0,1,6.32-6.39A6.28,6.28,0,0,1,451,19a6.27,6.27,0,1,1-12.54-.06Zm9.7,4.15c-.29-.56-.53-1.07-.8-1.56-.55-1-1.29-1.87.16-2.79.51-.32.56-1.1.46-1.75a2.47,2.47,0,0,0-1.75-2.13,9.32,9.32,0,0,0-4.07-.11c-.1,0-.2.5-.2.76,0,2.3,0,4.6,0,6.89,0,.7.24.86.9.86s.84-.36.81-1,0-1.15,0-1.72c0-.27,0-.6.36-.67a.64.64,0,0,1,.74.3,13.93,13.93,0,0,1,.9,1.65A1.72,1.72,0,0,0,448.2,23.07Z"/><path class="cls-2" d="M448.2,23.07a1.72,1.72,0,0,1-2.51-1.23,13.93,13.93,0,0,0-.9-1.65.64.64,0,0,0-.74-.3c-.39.07-.35.4-.36.67,0,.57,0,1.15,0,1.72s-.07,1-.81,1-.91-.16-.9-.86c0-2.29,0-4.59,0-6.89,0-.26.1-.74.2-.76a9.32,9.32,0,0,1,4.07.11A2.47,2.47,0,0,1,448,17c.1.65.05,1.43-.46,1.75-1.45.92-.71,1.82-.16,2.79C447.67,22,447.91,22.51,448.2,23.07Zm-4.5-5.84c-.06.71-.13,1.38,1,1.28.86-.07,1.7-.18,1.72-1.2s-.8-1.2-1.66-1.3C443.68,15.9,443.6,16.47,443.7,17.23Z"/><path class="cls-1" d="M443.7,17.23c-.1-.76,0-1.33,1-1.22.86.1,1.67.31,1.66,1.3s-.86,1.13-1.72,1.2C443.57,18.61,443.64,17.94,443.7,17.23Z"/></g></g></svg>