<svg xmlns="http://www.w3.org/2000/svg" viewBox="0 0 1414.18 558.57"><defs><style>.cls-1{fill:#07252c;}.cls-2{fill:#fefefe;}.cls-3{fill:#e84b16;}</style></defs><g id="Calque_2" data-name="Calque 2"><g id="Calque_1-2" data-name="Calque 1"><path class="cls-1" d="M1413.41,558.51q-705.3,0-1410.6.06c-2.29,0-2.81-.52-2.81-2.81Q.09,278.22.06.67,704.9.67,1409.73.6c3,0,3.76.67,3.76,3.74Q1413.36,281.43,1413.41,558.51ZM407.2,213.18c0-4-.24-8,.06-11.92.47-6.11-2.31-10.28-7.09-13.58a84.47,84.47,0,0,0-18.24-9c-26.34-10.07-53.55-17.27-80.79-24.35a7.16,7.16,0,0,0-3.62,0c-26.34,6.86-52.65,13.87-78.21,23.36-7.81,2.9-15.58,6-22.26,11.18a13.64,13.64,0,0,0-5.58,11.56,436.09,436.09,0,0,0,5.78,70.53c3.57,21.61,8.87,42.77,17.7,62.91,8.22,18.77,18.88,35.85,35.3,48.64,17.12,13.35,36.55,19.45,58.24,16.81,22.42-2.74,40.29-13.91,54.59-31.08,12.89-15.47,21.27-33.35,27.49-52.31C401.51,282.52,405.64,248.06,407.2,213.18Zm595.58,36.08c0,18.14.05,36.28-.06,54.41,0,2.47.7,3,3,3,12.54-.11,25.08-.07,37.62,0a83.65,83.65,0,0,0,15.8-1.32c14.49-2.76,27.27-8.73,37.08-20.08,10.58-12.26,13.6-26.79,12.22-42.47-1.85-21.08-12.2-36.23-31.9-44.59a78.43,78.43,0,0,0-28.83-6c-14.06-.35-28.14-.08-42.2-.23-2.35,0-2.84.64-2.83,2.89C1002.82,213,1002.78,231.13,1002.78,249.26Zm-196.31,9c4.47-1,8.52-2.35,12.06-4.83,8.64-6.06,12.14-14.83,12.56-24.93.46-11.05-2.2-21.05-11.46-28.21-7.57-5.85-16.55-7.88-25.78-8.1-16.1-.39-32.22-.13-48.33-.24-2,0-2.31.66-2.31,2.46q.07,54.87,0,109.73c0,2.14.73,2.49,2.62,2.47,6.73-.1,13.46-.16,20.18,0,2.37.06,2.84-.67,2.82-2.9-.1-13.45,0-26.9-.1-40.35,0-2.08.45-2.92,2.67-2.73a39.19,39.19,0,0,0,7,0c2.08-.19,3,.67,3.92,2.43q10.68,20.72,21.59,41.3c.47.89.58,2.21,2.16,2.21,9.65,0,19.3,0,29.47,0C825.77,290.35,816.26,274.54,806.47,258.29Zm334.55-9q0,27.36,0,54.73c0,1.83.25,2.61,2.41,2.6q38.08-.12,76.18,0c1.86,0,2.43-.42,2.39-2.34-.14-6-.19-12,0-18,.09-2.53-.56-3.18-3.13-3.16-16.63.13-33.25,0-49.87.11-2,0-2.64-.5-2.6-2.53.12-5.91.17-11.82,0-17.73-.08-2.41.62-3,3-3,14.69.12,29.37,0,44.06.12,2.31,0,2.91-.58,2.84-2.86-.18-5.8-.2-11.62,0-17.42.09-2.56-.62-3.21-3.16-3.18-14.58.12-29.17,0-43.75.12-2.49,0-3.07-.73-3-3.07.17-5.09.23-10.2,0-15.28-.13-2.69.82-3.1,3.24-3.08,15.61.11,31.21,0,46.81.1,2.09,0,2.77-.44,2.71-2.64-.16-5.9-.22-11.82,0-17.72.1-2.7-.84-3.09-3.25-3.08q-36,.14-71.9,0c-2.29,0-3,.44-3,2.92C1141.08,213,1141,231.18,1141,249.32ZM597,306.6c9.16,0,17.92,0,26.68,0,1.59,0,1.72-1.09,2.12-2.1,2.61-6.61,5.29-13.18,7.78-19.83a3.14,3.14,0,0,1,3.53-2.4q19.57.13,39.15,0c2.14,0,3,.75,3.77,2.6,2.59,6.61,5.33,13.17,8,19.76.42,1.06.68,2,2.21,2,9-.07,17.93,0,27.1,0-.25-.77-.38-1.35-.61-1.88q-24.12-55.41-48.22-110.81a2.66,2.66,0,0,0-2.9-1.93c-5.3.11-10.61.18-15.9,0-2.39-.09-3.52.63-4.49,2.88q-20.31,47.26-40.81,94.45C601.9,295,599.51,300.63,597,306.6Zm379.86,0c-.21-.67-.29-1.06-.44-1.41Q952.16,249.5,928,193.81a2.66,2.66,0,0,0-3-1.82c-5.41.09-10.82.16-16.21,0-2.23-.07-3.16.75-4,2.7Q882,247.51,859.16,300.29c-.85,2-2,3.91-2.37,6.31,8.56,0,16.91-.08,25.26.06,2,0,2.8-.76,3.46-2.49,2.47-6.55,5.14-13,7.61-19.58a3,3,0,0,1,3.29-2.29q19.73.12,39.46,0a3.21,3.21,0,0,1,3.56,2.41c2.58,6.62,5.31,13.17,8,19.75.4,1,.48,2.17,2.08,2.16C958.55,306.57,967.6,306.6,976.82,306.6ZM502.69,249.29c0,18,.05,36.06-.05,54.1,0,2.39.34,3.37,3.06,3.28,6.62-.22,13.25-.16,19.87,0,2.16.05,2.71-.59,2.69-2.71-.1-12.84,0-25.68-.11-38.51,0-2.65.46-3.6,3.41-3.57,8.75.08,17.53.56,26.26-.61,9.29-1.24,17.94-3.92,24.18-11.47,7.17-8.68,7.74-19,6.69-29.53a28.07,28.07,0,0,0-10-19.25c-7.71-6.51-17.09-8.52-26.74-8.77-15.69-.41-31.39-.13-47.09-.25-2.2,0-2.16,1-2.16,2.6Q502.72,221.93,502.69,249.29Zm6,114.68c7.83,5.77,16,5.65,21.67-.12,5.3-5.37,6-15.39,1.36-21.63a14.28,14.28,0,0,0-11.16-6c-4.5-.27-8.42,1.1-12.23,4.95,1.48-4.84-1.32-3.91-3.45-4.16-3.05-.35-2.28,1.73-2.28,3.29,0,13.95,0,27.91-.07,41.86,0,2.36.3,3.39,3,3.31,2.46-.07,3.29-.5,3.19-3.14C508.56,376.36,508.72,370.35,508.72,364Zm159.77-23.49c-7.36-5.74-15.88-5.59-21.5.09s-6,15.92-1,22.09a14.74,14.74,0,0,0,9.54,5.46c4.85.77,9.14-.73,13.19-4.47-1.25,4.68,1.61,3.82,3.89,4,3.27.2,2-2.23,2-3.56.08-14.05,0-28.1.09-42.15,0-2.13-.17-3.32-2.85-3.15-2.24.13-3.49.17-3.37,3C668.67,327.87,668.49,334,668.49,340.48Zm85.59,23.32c7.34,5.73,15.48,5.75,21.12.34s6.5-15.54,1.57-22.09a14.08,14.08,0,0,0-11-5.69c-4.44-.26-8.24,1.12-11.95,4.76,1.25-4.55-1.31-3.9-3.56-4.09-3.15-.27-2.18,1.9-2.18,3.37-.05,14.17,0,28.34-.1,42.5,0,2.51,1.12,2.53,2.93,2.44s3.34.37,3.24-2.49C753.92,376.65,754.08,370.44,754.08,363.8Zm447.09-21.65c-1.91-4.06-5.31-5.47-9.3-5.54s-7.18,1.65-9.93,4.91c-.13-1.1-.26-1.79-.28-2.48-.07-2.43-1.9-1.47-3.12-1.64-1.7-.24-1.73.86-1.72,2.09.09,8.55.23,17.1.17,25.65,0,2.07.82,2.27,2.52,2.27s2.79-.17,2.68-2.42c-.21-4.07,0-8.15-.07-12.22a16.05,16.05,0,0,1,1.15-6.25,8.25,8.25,0,0,1,9.14-5c2.95.57,4.37,2.89,4.4,7.39,0,5.4.14,10.8,0,16.19-.09,2.36,1.09,2.3,2.77,2.36,1.84,0,2.75-.25,2.67-2.46-.18-4.88-.09-9.77,0-14.66,0-5.28,3.09-8.83,7.58-8.92s7.14,2.95,7.18,8.62c0,5.19.09,10.39,0,15.58,0,1.93,1,1.92,2.3,1.78,1.13-.12,2.79.72,2.76-1.63-.1-6.52.11-13-.17-19.55-.24-5.53-3.2-8.38-8.67-9.33C1208.05,336,1204.13,337.6,1201.17,342.15ZM713.55,361.86c-3.83-3.27-3.83-3.27-7.61-.6-4.48,3.16-11.76,1.41-14.24-3.42-1.35-2.62-.91-3.38,2-3.38h18.95c1.21,0,2.26.24,2.39-1.73.72-11.56-9.18-19.39-20-15.72-6.65,2.25-10.6,7.83-10.62,15,0,7.55,3.67,13.2,10.05,15.39A17,17,0,0,0,713.55,361.86ZM900,354.31h10.4c.94,0,1.78.12,1.8-1.33,0-4.62-.76-8.92-4.08-12.4-4.58-4.79-10.27-5.24-16.09-3.35-6.34,2.06-9.54,6.95-10.18,13.52-.7,7.09,2.72,13.37,8.7,16,6.27,2.8,14.5,1.34,18.95-3.4.46-.5,1.64-1,.86-1.85a11.88,11.88,0,0,0-3.62-2.74c-1.09-.49-1.53,1-2.24,1.65-5,4.31-13.22,2.73-15.8-3.09-.83-1.88-1.16-3.28,1.82-3.1C893.69,354.46,896.86,354.31,900,354.31Zm-272.67,9.34a8.85,8.85,0,0,1,.12,1.38c-.45,3.09,1.75,2.39,3.51,2.58,2.44.28,2-1.32,2-2.69,0-5.91,0-11.83,0-17.74,0-5.41-2.32-8.63-7.42-10.17a18.72,18.72,0,0,0-14.45,1.41c-3.54,1.83-3.51,2.51-.68,5.2,1.46,1.39,2.14.17,3-.41,4.57-2.93,10-2.71,12.47.53a4.6,4.6,0,0,1,1.1,3.95c-.47,1.49-2.12.72-3.22.74-4.7.09-9.36.2-13.47,2.91-3.51,2.31-4.36,5.69-3.76,9.59.56,3.63,3,5.73,6.29,6.7C618.23,369.18,623.07,368.18,627.35,363.65Zm-63,.1a7.14,7.14,0,0,1,.13,1.32c-.37,3,1.79,2.36,3.54,2.54,2.46.27,1.94-1.36,1.94-2.7,0-6.11,0-12.22,0-18.32a9.33,9.33,0,0,0-4-8.1c-5-3.52-15.22-2.84-19.77,1.24-.44.39-1.26.64-.75,1.67,1.2,2.42,3.16,3.06,5.38,1.67a13.78,13.78,0,0,1,2.69-1.34c4.07-1.42,8.1-.38,9.81,2.52.69,1.15,1.29,2.51.65,3.73-.52,1-1.87.46-2.84.47-4.27,0-8.53.13-12.46,2.12a8.94,8.94,0,0,0-5.16,9.47c.4,4,2.61,6.51,6.73,7.64C555.46,369.14,560.14,368.1,564.31,363.75ZM1016,336.38c-9.16,0-16.28,6.91-16.3,15.82a16.18,16.18,0,0,0,32.35-.11A15.73,15.73,0,0,0,1016,336.38Zm-185.43,0c-9.15,0-16.29,6.89-16.34,15.81a16.15,16.15,0,0,0,16.25,16,15.93,15.93,0,0,0,16.1-16.08A15.69,15.69,0,0,0,830.59,336.38Zm335.62,16c0-9.2-6.52-15.69-15.82-15.78s-16.12,6.65-16.1,15.87,6.64,15.68,15.88,15.75C1159.57,368.26,1166.23,361.68,1166.21,352.35Zm-117.75-11.69c-.2-.37-.39-.54-.36-.67.79-3.37-1.54-2.75-3.53-3-2.85-.29-2.18,1.59-2.18,3.09,0,8.14.08,16.29-.07,24.43,0,2.28.53,3,2.85,2.9,2.1-.07,3-.31,3-2.79,0-5.37-.64-10.79.38-16.14.91-4.77,4.21-7.1,9-6.6,3.69.39,5.71,3.19,5.73,8,0,5.2.1,10.39,0,15.58-.06,2.2,1.26,2,2.53,1.81s3.35,1.12,3.34-1.67c0-6.51.13-13-.09-19.54-.17-4.83-3-8.35-7.36-9.35C1056.65,335.61,1052,336.44,1048.46,340.66Zm-111.78-4.28c-7.39-.05-13.17,3.9-15.22,10.42-2.2,6.94,0,14.69,5.34,18.4,5.73,4,14.22,4,19.48-.07.6-.47,1.9-.95,1.48-1.65a15,15,0,0,0-3.22-3.59c-1.24-1.06-1.73.55-2.43,1a9.49,9.49,0,0,1-12.28-1.13c-3.59-3.71-3.84-10.39-.54-14.61,2.77-3.54,8.08-4.78,11.74-1.95,2.87,2.24,4.16.95,6.1-.89,1.32-1.25.65-1.83-.25-2.55A15.74,15.74,0,0,0,936.68,336.38ZM873.25,362c-.49.07-1,.13-1.46.23-5,1-6.79-.41-6.82-5.52,0-2.75,0-5.5,0-8.25,0-6.14,0-6.26,6.2-6.34,2.28,0,2-1.24,2.08-2.69s0-2.53-2-2.42-4.66.94-5.85-.35-.25-4.08-.42-6.18c-.06-.66.36-1.75-.49-1.87a12.75,12.75,0,0,0-4.85.05c-1.36.35-.48,1.92-.66,2.93a5.12,5.12,0,0,0,0,1.83c.62,3.16-.76,4.21-3.74,3.64-2.3-.43-2.84.5-2.89,2.78-.06,3.14,2,2.29,3.48,2.15,2.55-.25,3.28.59,3.2,3.15-.16,5-.08,10,.18,15,.31,5.7,2.88,8,8.51,8.07S873.76,367.7,873.25,362Zm99.13.05c-.49.07-1,.12-1.45.21-5,1-6.72-.44-6.8-5.62,0-3,0-5.9,0-8.86,0-5.66,0-5.72,5.64-5.69,1.82,0,2.72-.21,2.71-2.42s-.65-2.7-2.75-2.66c-5.58.11-5.68,0-5.55-5.67,0-2.12-.3-2.87-2.72-3-3-.12-3.29,1-3.2,3.47.16,4.91,0,4.95-4.87,5.18-1.21.06-1.76.24-1.87,1.65-.18,2.47.26,4,3.21,3.38s3.74.67,3.66,3.6c-.15,5.49-.46,11,.2,16.48.53,4.36,4.54,6.64,10.06,5.95C972.88,367.58,972.92,367.52,972.38,362.07ZM1100.47,352c0,6.83,2.43,12,8.5,14.68,5.9,2.59,11.69,2.07,17-2,1.11-.86,1.59-1.77.12-2.48-1.13-.55-1.23-3.51-3.6-1.46-4.27,3.7-9.83,3.51-13.42-.23-3.9-4.07-4.1-11.9-.43-16s9.19-4.29,13.66-.57c2.54,2.11,2.93-.94,4.17-1.67,1.79-1.06.11-1.84-.65-2.4a15.83,15.83,0,0,0-16.71-1.75C1103,340.84,1100.54,345.94,1100.47,352ZM587.29,340.82a6.64,6.64,0,0,1-.21-1.23c.58-3.76-2.26-2.19-3.89-2.51-2.45-.48-2.25,1.1-2.24,2.7,0,8.44.14,16.89-.06,25.33-.06,2.84,1.51,2.46,3.24,2.48s3.14.3,3-2.34c-.23-4.57-.14-9.15,0-13.73.12-5.42,2.82-8.54,7.63-8.89a26.44,26.44,0,0,1,4,.32,30.07,30.07,0,0,1,0-4c.33-2.27-.82-2.75-2.74-2.69A11.09,11.09,0,0,0,587.29,340.82Zm209.16-.09c-.19-.53-.34-.73-.31-.9.59-3.48-1.91-2.55-3.78-2.78-2.63-.33-2.07,1.45-2.07,2.87,0,8.35.11,16.71-.07,25.06-.06,2.58,1.22,2.41,3,2.42s3.06.08,3-2.46a149.38,149.38,0,0,1,.22-15.26c.34-4.66,3.36-7.43,7.94-7,3.46.34,3.29-1.38,3.46-3.69s-.61-2.76-2.72-2.7C801.56,336.43,798.89,338,796.45,340.73Zm192.68,11.66c0-4.37-.18-8.76.06-13.12.15-2.56-1.31-2.27-2.83-2.17s-3.28-.85-3.22,2.08q.24,13,0,25.93c0,2.46,1.23,2.35,2.83,2.25s3.35.7,3.22-2.16C989,360.94,989.13,356.66,989.13,352.39Zm-258.59,2.42c2.14,0,4.28-.1,6.41,0,2.5.14,1.78-1.64,1.8-2.9s.63-2.95-1.83-2.88c-4.16.11-8.34.14-12.5,0-2.67-.09-1.9,1.71-2,3.07s-.36,2.93,2,2.73C726.46,354.67,728.51,354.81,730.54,354.81ZM990.45,326.4a4.13,4.13,0,0,0-4.11-4.3,4.18,4.18,0,0,0-4.46,4,4.07,4.07,0,0,0,4.28,4.38A4,4,0,0,0,990.45,326.4Zm91.07,37.51c.25,2.11,1.33,3.67,3.79,3.74a3.5,3.5,0,0,0,4-3.69c.1-2.42-1.24-3.84-3.7-3.91S1081.82,361.31,1081.52,363.91Z"/><path class="cls-2" d="M1413.41,558.51q0-277.08.08-554.17c0-3.07-.71-3.75-3.76-3.74Q704.9.71.06.67C.19.48-.25,0,.36.05c.82,0,1.64,0,2.45,0Q707,.06,1411.27,0c2.29,0,2.81.52,2.81,2.81q-.09,276.48-.09,553C1414,556.65,1414.69,557.83,1413.41,558.51Z"/><path class="cls-2" d="M407.2,213.18c-1.56,34.88-5.69,69.34-16.63,102.69-6.22,19-14.6,36.84-27.49,52.31-14.3,17.17-32.17,28.34-54.59,31.08-21.69,2.64-41.12-3.46-58.24-16.81-16.42-12.79-27.08-29.87-35.3-48.64-8.83-20.14-14.13-41.3-17.7-62.91a436.09,436.09,0,0,1-5.78-70.53,13.64,13.64,0,0,1,5.58-11.56c6.68-5.19,14.45-8.28,22.26-11.18,25.56-9.49,51.87-16.5,78.21-23.36a7.16,7.16,0,0,1,3.62,0c27.24,7.08,54.45,14.28,80.79,24.35a84.47,84.47,0,0,1,18.24,9c4.78,3.3,7.56,7.47,7.09,13.58C407,205.21,407.2,209.2,407.2,213.18Zm-96.91,61.28a8,8,0,0,0,1,.22c23.35,0,46.71,0,70.06.06,1.82,0,2.34-.56,2.65-2.33a403.85,403.85,0,0,0,6-59.49c.1-3.84,1.52-8.26-.19-11.36s-6.41-4-10-5.45c-25.81-10.43-52.61-17.64-79.49-24.6a5.23,5.23,0,0,0-2.69.2c-19.17,4.73-38.15,10.09-56.9,16.29-10,3.32-20,6.78-29.51,11.54-2.07,1-3.38,2.19-3.1,4.85.4,3.74.35,7.52.48,11.29a419.78,419.78,0,0,0,5.81,56.14c.37,2.14,1,2.95,3.4,2.94q38.08-.17,76.18,0a4.1,4.1,0,0,0,4-2c1.52-2.41,3.28-4.66,4.94-7,7.15-10,14.28-20.08,21.48-30.08,2-2.82,5.11-3.38,7.74-1.61s3.1,5,1.27,7.82c-.6.94-1.29,1.83-1.95,2.74Zm-21.6,11.36c-.87-.11-1.24-.2-1.62-.2q-33.79,0-67.61-.05c-2,0-2,.58-1.64,2.26a224.33,224.33,0,0,0,13.52,41.39c6.51,14.43,14.6,27.82,27,38,17.1,14.18,36.46,19.37,58.2,13.11,15.39-4.42,27.22-14,36.63-26.66C367.87,333.88,375.41,311,381,287.26c.58-2.47-1.13-1.62-2.05-1.62-24.78,0-49.56,0-74.34-.08a4,4,0,0,0-3.7,2c-3.13,4.52-6.35,9-9.55,13.44q-8.43,11.82-16.88,23.61c-1.86,2.58-4.35,3.3-6.91,2.15a5.38,5.38,0,0,1-3.08-6.31,8.55,8.55,0,0,1,1.77-3.17Z"/><path class="cls-2" d="M1002.78,249.26c0-18.13,0-36.27,0-54.4,0-2.25.48-2.92,2.83-2.89,14.06.15,28.14-.12,42.2.23a78.43,78.43,0,0,1,28.83,6c19.7,8.36,30.05,23.51,31.9,44.59,1.38,15.68-1.64,30.21-12.22,42.47-9.81,11.35-22.59,17.32-37.08,20.08a83.65,83.65,0,0,1-15.8,1.32c-12.54,0-25.08-.07-37.62,0-2.35,0-3.07-.51-3-3C1002.83,285.54,1002.78,267.4,1002.78,249.26Zm25.52,0c0,10.49.06,21,0,31.46,0,2,.58,2.58,2.56,2.52,6.51-.2,13,.25,19.53-.56,7.77-1,15.29-2.78,21.33-8.1,10.65-9.4,12.45-21.68,9.68-34.62-2.69-12.6-11.83-19.37-23.82-22.73-8.69-2.44-17.57-1.66-26.41-1.88-2.18-.06-2.92.36-2.88,2.76C1028.39,228.46,1028.3,238.84,1028.3,249.23Z"/><path class="cls-2" d="M806.47,258.29c9.79,16.25,19.3,32.06,29.08,48.3-10.17,0-19.82,0-29.47,0-1.58,0-1.69-1.32-2.16-2.21q-10.86-20.61-21.59-41.3c-.91-1.76-1.84-2.62-3.92-2.43a39.19,39.19,0,0,1-7,0c-2.22-.19-2.68.65-2.67,2.73.09,13.45,0,26.9.1,40.35,0,2.23-.45,3-2.82,2.9-6.72-.18-13.45-.12-20.18,0-1.89,0-2.63-.33-2.62-2.47q.1-54.85,0-109.73c0-1.8.33-2.47,2.31-2.46,16.11.11,32.23-.15,48.33.24,9.23.22,18.21,2.25,25.78,8.1,9.26,7.16,11.92,17.16,11.46,28.21-.42,10.1-3.92,18.87-12.56,24.93C815,255.94,810.94,257.26,806.47,258.29Zm-37.7-32.09c0,3.57.08,7.14,0,10.7-.06,1.72.19,2.54,2.25,2.47,4.68-.18,9.38,0,14.07-.08,4.36-.07,8.77,0,12.89-1.86,3.45-1.56,5.83-4,6.48-7.85,1.39-8.36-2.71-14.06-11.13-15.45-7.6-1.26-15.26-.44-22.88-.72-1.41,0-1.69.53-1.67,1.79C768.81,218.87,768.77,222.53,768.77,226.2Z"/><path class="cls-2" d="M1141,249.32c0-18.14.06-36.28-.06-54.42,0-2.48.74-2.93,3-2.92q36,.12,71.9,0c2.41,0,3.35.38,3.25,3.08-.24,5.9-.18,11.82,0,17.72.06,2.2-.62,2.66-2.71,2.64-15.6-.08-31.2,0-46.81-.1-2.42,0-3.37.39-3.24,3.08.24,5.08.18,10.19,0,15.28-.07,2.34.51,3.09,3,3.07,14.58-.13,29.17,0,43.75-.12,2.54,0,3.25.62,3.16,3.18-.2,5.8-.18,11.62,0,17.42.07,2.28-.53,2.87-2.84,2.86-14.69-.12-29.37,0-44.06-.12-2.39,0-3.09.58-3,3,.18,5.91.13,11.82,0,17.73,0,2,.6,2.54,2.6,2.53,16.62-.08,33.24,0,49.87-.11,2.57,0,3.22.63,3.13,3.16-.2,6-.15,12,0,18,0,1.92-.53,2.34-2.39,2.34q-38.08-.09-76.18,0c-2.16,0-2.42-.77-2.41-2.6Q1141.07,276.69,1141,249.32Z"/><path class="cls-2" d="M597,306.6c2.55-6,4.94-11.65,7.39-17.31q20.43-47.22,40.81-94.45c1-2.25,2.1-3,4.49-2.88,5.29.2,10.6.13,15.9,0a2.66,2.66,0,0,1,2.9,1.93q24.07,55.43,48.22,110.81c.23.53.36,1.11.61,1.88-9.17,0-18.14,0-27.1,0-1.53,0-1.79-.93-2.21-2-2.65-6.59-5.39-13.15-8-19.76-.72-1.85-1.63-2.62-3.77-2.6q-19.58.18-39.15,0a3.14,3.14,0,0,0-3.53,2.4c-2.49,6.65-5.17,13.22-7.78,19.83-.4,1-.53,2.11-2.12,2.1C614.88,306.56,606.12,306.6,597,306.6Zm73.19-46-13.86-35c-4.73,12.11-9.17,23.46-13.69,35Z"/><path class="cls-2" d="M976.82,306.6c-9.22,0-18.27,0-27.31,0-1.6,0-1.68-1.18-2.08-2.16-2.69-6.58-5.42-13.13-8-19.75a3.21,3.21,0,0,0-3.56-2.41q-19.73.13-39.46,0a3,3,0,0,0-3.29,2.29c-2.47,6.55-5.14,13-7.61,19.58-.66,1.73-1.42,2.52-3.46,2.49-8.35-.14-16.7-.06-25.26-.06.35-2.4,1.52-4.31,2.37-6.31q22.8-52.82,45.61-105.63c.84-1.95,1.77-2.77,4-2.7,5.39.19,10.8.12,16.21,0a2.66,2.66,0,0,1,3,1.82q24.18,55.69,48.43,111.38C976.53,305.54,976.61,305.93,976.82,306.6ZM902.1,260.72h26.19c1.82,0,1-1.11.71-1.82-.92-2.47-1.92-4.9-2.89-7.34-3.33-8.41-6.67-16.81-10.17-25.63-.42.75-.65,1.06-.79,1.4C910.84,238.34,906.54,249.35,902.1,260.72Z"/><path class="cls-2" d="M502.69,249.29q0-27.36,0-54.71c0-1.58,0-2.62,2.16-2.6,15.7.12,31.4-.16,47.09.25,9.65.25,19,2.26,26.74,8.77a28.07,28.07,0,0,1,10,19.25c1,10.53.48,20.85-6.69,29.53-6.24,7.55-14.89,10.23-24.18,11.47-8.73,1.17-17.51.69-26.26.61-2.95,0-3.43.92-3.41,3.57.13,12.83,0,25.67.11,38.51,0,2.12-.53,2.76-2.69,2.71-6.62-.14-13.25-.2-19.87,0-2.72.09-3.08-.89-3.06-3.28C502.74,285.35,502.69,267.32,502.69,249.29Zm25.52-22.35c0,3.87,0,7.74,0,11.6,0,.83-.37,2,1.18,1.9,7.61-.29,15.3.85,22.83-.83,5.08-1.13,8.9-4,10.15-9.38,1.87-8-2.88-14.57-11.64-16.06-7-1.19-14-.56-21-.76-1.58,0-1.51.86-1.51,1.93C528.22,219.21,528.21,223.08,528.21,226.94Z"/><path class="cls-2" d="M508.72,364c0,6.38-.16,12.39.07,18.39.1,2.64-.73,3.07-3.19,3.14-2.74.08-3.06-.95-3-3.31.11-13.95.05-27.91.07-41.86,0-1.56-.77-3.64,2.28-3.29,2.13.25,4.93-.68,3.45,4.16,3.81-3.85,7.73-5.22,12.23-4.95a14.28,14.28,0,0,1,11.16,6c4.61,6.24,3.94,16.26-1.36,21.63C524.68,369.62,516.55,369.74,508.72,364Zm19.6-11.64c.06-6.05-3.83-10.3-9.47-10.37-5.94-.07-10.06,4-10.13,10.13s4.17,10.51,9.87,10.45S528.27,358.34,528.32,352.33Z"/><path class="cls-2" d="M668.49,340.48c0-6.49.18-12.61-.07-18.7-.12-2.87,1.13-2.91,3.37-3,2.68-.17,2.86,1,2.85,3.15-.08,14.05,0,28.1-.09,42.15,0,1.33,1.29,3.76-2,3.56-2.28-.13-5.14.73-3.89-4-4,3.74-8.34,5.24-13.19,4.47a14.74,14.74,0,0,1-9.54-5.46c-4.91-6.17-4.46-16.53,1-22.09S661.13,334.74,668.49,340.48Zm0,11.87c0-6.21-3.7-10.33-9.4-10.39-5.94-.06-10.3,4-10.12,10.09.16,5.75,2.92,10.27,9.81,10.46C664.51,362.66,668.47,358.4,668.49,352.35Z"/><path class="cls-2" d="M754.08,363.8c0,6.64-.16,12.85.07,19.05.1,2.86-1.52,2.41-3.24,2.49s-2.95.07-2.93-2.44c.14-14.16,0-28.33.1-42.5,0-1.47-1-3.64,2.18-3.37,2.25.19,4.81-.46,3.56,4.09,3.71-3.64,7.51-5,11.95-4.76a14.08,14.08,0,0,1,11,5.69c4.93,6.55,4.19,16.58-1.57,22.09S761.42,369.53,754.08,363.8Zm0-11.92c-.1,6.28,3.7,10.62,9.45,10.8s10.18-4.23,10.23-10.44c0-6-3.87-10.26-9.56-10.35C758.1,341.79,754.18,345.66,754.08,351.88Z"/><path class="cls-2" d="M1201.17,342.15c3-4.55,6.88-6.19,11.93-5.31,5.47,1,8.43,3.8,8.67,9.33.28,6.51.07,13,.17,19.55,0,2.35-1.63,1.51-2.76,1.63-1.29.14-2.34.15-2.3-1.78.12-5.19.08-10.39,0-15.58,0-5.67-2.6-8.71-7.18-8.62s-7.54,3.64-7.58,8.92c0,4.89-.13,9.78,0,14.66.08,2.21-.83,2.51-2.67,2.46-1.68-.06-2.86,0-2.77-2.36.19-5.39.09-10.79,0-16.19,0-4.5-1.45-6.82-4.4-7.39a8.25,8.25,0,0,0-9.14,5,16.05,16.05,0,0,0-1.15,6.25c0,4.07-.14,8.15.07,12.22.11,2.25-.89,2.42-2.68,2.42s-2.54-.2-2.52-2.27c.06-8.55-.08-17.1-.17-25.65,0-1.23,0-2.33,1.72-2.09,1.22.17,3-.79,3.12,1.64,0,.69.15,1.38.28,2.48,2.75-3.26,6-5,9.93-4.91S1199.26,338.09,1201.17,342.15Z"/><path class="cls-2" d="M713.55,361.86a17,17,0,0,1-19.11,5.53c-6.38-2.19-10.07-7.84-10.05-15.39,0-7.17,4-12.75,10.62-15,10.85-3.67,20.75,4.16,20,15.72-.13,2-1.18,1.73-2.39,1.73H693.7c-2.91,0-3.35.76-2,3.38,2.48,4.83,9.76,6.58,14.24,3.42C709.72,358.59,709.72,358.59,713.55,361.86Zm-13.86-12.45c2,0,4.09-.14,6.11,0,2.56.24,3-.82,2.23-3-1.3-3.75-4.46-5.55-9.23-5.18-3.44.27-7.06,3.34-7.68,6.41-.29,1.41.21,1.78,1.55,1.74C695,349.35,697.35,349.41,699.69,349.41Z"/><path class="cls-2" d="M900,354.31c-3.16,0-6.33.15-9.48-.05-3-.18-2.65,1.22-1.82,3.1,2.58,5.82,10.82,7.4,15.8,3.09.71-.61,1.15-2.14,2.24-1.65a11.88,11.88,0,0,1,3.62,2.74c.78.83-.4,1.35-.86,1.85-4.45,4.74-12.68,6.2-18.95,3.4-6-2.67-9.4-9-8.7-16,.64-6.57,3.84-11.46,10.18-13.52,5.82-1.89,11.51-1.44,16.09,3.35,3.32,3.48,4.13,7.78,4.08,12.4,0,1.45-.86,1.33-1.8,1.33ZM897,349.63c2.44,0,4.88-.08,7.32,0,1.67.08,1.8-.64,1.51-2-.89-4.19-4.09-6.68-8.59-6.58-4.17.1-8.34,3.38-9,7-.2,1.21.17,1.64,1.4,1.61C892.09,349.58,894.53,349.62,897,349.63Z"/><path class="cls-2" d="M627.35,363.65c-4.28,4.53-9.12,5.53-14.5,4-3.34-1-5.73-3.07-6.29-6.7-.6-3.9.25-7.28,3.76-9.59,4.11-2.71,8.77-2.82,13.47-2.91,1.1,0,2.75.75,3.22-.74a4.6,4.6,0,0,0-1.1-3.95c-2.44-3.24-7.9-3.46-12.47-.53-.9.58-1.58,1.8-3,.41-2.83-2.69-2.86-3.37.68-5.2A18.72,18.72,0,0,1,625.53,337c5.1,1.54,7.38,4.76,7.42,10.17,0,5.91,0,11.83,0,17.74,0,1.37.46,3-2,2.69-1.76-.19-4,.51-3.51-2.58A8.85,8.85,0,0,0,627.35,363.65Zm-8.56-.26a8.49,8.49,0,0,0,8.45-9.15c0-.91-.33-1.25-1.23-1.27-3.56-.1-7.11-.06-10.44,1.37a4.59,4.59,0,0,0-3.13,4.12,4,4,0,0,0,2.24,4A8.67,8.67,0,0,0,618.79,363.39Z"/><path class="cls-2" d="M564.31,363.75c-4.17,4.35-8.85,5.39-14.15,3.93-4.12-1.13-6.33-3.67-6.73-7.64a8.94,8.94,0,0,1,5.16-9.47c3.93-2,8.19-2.09,12.46-2.12,1,0,2.32.53,2.84-.47.64-1.22,0-2.58-.65-3.73-1.71-2.9-5.74-3.94-9.81-2.52a13.78,13.78,0,0,0-2.69,1.34c-2.22,1.39-4.18.75-5.38-1.67-.51-1,.31-1.28.75-1.67,4.55-4.08,14.76-4.76,19.77-1.24a9.33,9.33,0,0,1,4,8.1c0,6.1,0,12.21,0,18.32,0,1.34.52,3-1.94,2.7-1.75-.18-3.91.5-3.54-2.54A7.14,7.14,0,0,0,564.31,363.75ZM558.86,353a14.5,14.5,0,0,0-7.14,1.9,4.36,4.36,0,0,0-.46,7.32c4.32,2.95,11.33.33,12.53-4.69C564.86,353.08,564.75,352.94,558.86,353Z"/><path class="cls-2" d="M1016,336.38a15.73,15.73,0,0,1,16,15.71,16.18,16.18,0,0,1-32.35.11C999.74,343.29,1006.86,336.37,1016,336.38Zm-.11,5.51c-5.92,0-9.84,4.11-9.86,10.34,0,6.06,4.16,10.47,9.89,10.45s9.92-4.48,9.91-10.48S1021.81,341.89,1015.91,341.89Z"/><path class="cls-2" d="M830.59,336.38a15.69,15.69,0,0,1,16,15.73,15.93,15.93,0,0,1-16.1,16.08,16.15,16.15,0,0,1-16.25-16C814.3,343.27,821.44,336.36,830.59,336.38Zm-.1,5.51c-6,0-10,4.21-9.9,10.39s4.28,10.48,10,10.4,9.66-4.35,9.75-10.37S836.4,341.9,830.49,341.89Z"/><path class="cls-2" d="M1166.21,352.35c0,9.33-6.64,15.91-16,15.84-9.24-.07-15.86-6.64-15.88-15.75s6.82-16,16.1-15.87S1166.2,343.15,1166.21,352.35Zm-5.51.37c.11-6.55-4-11.2-10.16-11.35s-10.67,4.51-10.74,10.86,4.28,11.09,10.39,11.16S1160.6,359,1160.7,352.72Z"/><path class="cls-2" d="M1048.46,340.66c3.55-4.22,8.19-5.05,13.2-3.9,4.36,1,7.19,4.52,7.36,9.35.22,6.51.06,13,.09,19.54,0,2.79-2.1,1.49-3.34,1.67s-2.59.39-2.53-1.81c.14-5.19.06-10.38,0-15.58,0-4.82-2-7.62-5.73-8-4.8-.5-8.1,1.83-9,6.6-1,5.35-.42,10.77-.38,16.14,0,2.48-.89,2.72-3,2.79-2.32.07-2.89-.62-2.85-2.9.15-8.14,0-16.29.07-24.43,0-1.5-.67-3.38,2.18-3.09,2,.21,4.32-.41,3.53,3C1048.07,340.12,1048.26,340.29,1048.46,340.66Z"/><path class="cls-2" d="M936.68,336.38a15.74,15.74,0,0,1,10.2,3.42c.9.72,1.57,1.3.25,2.55-1.94,1.84-3.23,3.13-6.1.89-3.66-2.83-9-1.59-11.74,1.95-3.3,4.22-3,10.9.54,14.61a9.49,9.49,0,0,0,12.28,1.13c.7-.49,1.19-2.1,2.43-1a15,15,0,0,1,3.22,3.59c.42.7-.88,1.18-1.48,1.65-5.26,4.07-13.75,4.08-19.48.07-5.29-3.71-7.54-11.46-5.34-18.4C923.51,340.28,929.29,336.33,936.68,336.38Z"/><path class="cls-2" d="M873.25,362c.51,5.68,0,6.25-5.56,6.17s-8.2-2.37-8.51-8.07c-.26-5-.34-10-.18-15,.08-2.56-.65-3.4-3.2-3.15-1.44.14-3.54,1-3.48-2.15,0-2.28.59-3.21,2.89-2.78,3,.57,4.36-.48,3.74-3.64a5.12,5.12,0,0,1,0-1.83c.18-1-.7-2.58.66-2.93a12.75,12.75,0,0,1,4.85-.05c.85.12.43,1.21.49,1.87.17,2.1-.88,4.77.42,6.18s3.86.45,5.85.35,2.07.94,2,2.42.2,2.66-2.08,2.69c-6.21.08-6.2.2-6.2,6.34,0,2.75,0,5.5,0,8.25,0,5.11,1.82,6.56,6.82,5.52C872.27,362.15,872.76,362.09,873.25,362Z"/><path class="cls-2" d="M972.38,362.07c.54,5.45.5,5.51-3.73,6-5.52.69-9.53-1.59-10.06-5.95-.66-5.47-.35-11-.2-16.48.08-2.93-.69-4.21-3.66-3.6s-3.39-.91-3.21-3.38c.11-1.41.66-1.59,1.87-1.65,4.92-.23,5-.27,4.87-5.18-.09-2.45.24-3.59,3.2-3.47,2.42.09,2.76.84,2.72,3-.13,5.67,0,5.78,5.55,5.67,2.1,0,2.73.49,2.75,2.66s-.89,2.43-2.71,2.42c-5.64,0-5.64,0-5.64,5.69,0,3,0,5.91,0,8.86.08,5.18,1.82,6.6,6.8,5.62C971.41,362.19,971.89,362.14,972.38,362.07Z"/><path class="cls-2" d="M1100.47,352c.07-6.06,2.53-11.16,8.59-13.86a15.83,15.83,0,0,1,16.71,1.75c.76.56,2.44,1.34.65,2.4-1.24.73-1.63,3.78-4.17,1.67-4.47-3.72-10.07-3.42-13.66.57s-3.47,11.92.43,16c3.59,3.74,9.15,3.93,13.42.23,2.37-2.05,2.47.91,3.6,1.46,1.47.71,1,1.62-.12,2.48-5.26,4.06-11.05,4.58-17,2C1102.9,364,1100.5,358.83,1100.47,352Z"/><path class="cls-2" d="M587.29,340.82a11.09,11.09,0,0,1,8.7-4.6c1.92-.06,3.07.42,2.74,2.69a30.07,30.07,0,0,0,0,4,26.44,26.44,0,0,0-4-.32c-4.81.35-7.51,3.47-7.63,8.89-.1,4.58-.19,9.16,0,13.73.14,2.64-1.33,2.37-3,2.34s-3.3.36-3.24-2.48c.2-8.44.09-16.89.06-25.33,0-1.6-.21-3.18,2.24-2.7,1.63.32,4.47-1.25,3.89,2.51A6.64,6.64,0,0,0,587.29,340.82Z"/><path class="cls-2" d="M796.45,340.73c2.44-2.77,5.11-4.3,8.62-4.4,2.11-.06,2.87.51,2.72,2.7s0,4-3.46,3.69c-4.58-.47-7.6,2.3-7.94,7a149.38,149.38,0,0,0-.22,15.26c.07,2.54-1.21,2.47-3,2.46s-3,.16-3-2.42c.18-8.35.06-16.71.07-25.06,0-1.42-.56-3.2,2.07-2.87,1.87.23,4.37-.7,3.78,2.78C796.11,340,796.26,340.2,796.45,340.73Z"/><path class="cls-2" d="M989.13,352.39c0,4.27-.15,8.55,0,12.81.13,2.86-1.75,2.07-3.22,2.16s-2.88.21-2.83-2.25q.24-13,0-25.93c-.06-2.93,1.81-2,3.22-2.08s3-.39,2.83,2.17C989,343.63,989.13,348,989.13,352.39Z"/><path class="cls-2" d="M730.54,354.81c-2,0-4.08-.14-6.09,0-2.36.2-2.07-1.32-2-2.73s-.7-3.16,2-3.07c4.16.15,8.34.12,12.5,0,2.46-.07,1.85,1.6,1.83,2.88s.7,3-1.8,2.9C734.82,354.71,732.68,354.81,730.54,354.81Z"/><path class="cls-2" d="M990.45,326.4a4,4,0,0,1-4.29,4.05,4.07,4.07,0,0,1-4.28-4.38,4.18,4.18,0,0,1,4.46-4A4.13,4.13,0,0,1,990.45,326.4Z"/><path class="cls-2" d="M1081.52,363.91c.3-2.6,1.61-3.93,4-3.86s3.8,1.49,3.7,3.91a3.5,3.5,0,0,1-4,3.69C1082.85,367.58,1081.77,366,1081.52,363.91Z"/><path class="cls-3" d="M310.29,274.46l21.28-29.83c.66-.91,1.35-1.8,1.95-2.74,1.83-2.87,1.3-6.1-1.27-7.82s-5.72-1.21-7.74,1.61c-7.2,10-14.33,20-21.48,30.08-1.66,2.32-3.42,4.57-4.94,7a4.1,4.1,0,0,1-4,2q-38.1-.09-76.18,0c-2.38,0-3-.8-3.4-2.94a419.78,419.78,0,0,1-5.81-56.14c-.13-3.77-.08-7.55-.48-11.29-.28-2.66,1-3.81,3.1-4.85,9.49-4.76,19.48-8.22,29.51-11.54,18.75-6.2,37.73-11.56,56.9-16.29a5.23,5.23,0,0,1,2.69-.2c26.88,7,53.68,14.17,79.49,24.6,3.57,1.44,8.22,2.3,10,5.45s.29,7.52.19,11.36a403.85,403.85,0,0,1-6,59.49c-.31,1.77-.83,2.33-2.65,2.33-23.35-.07-46.71-.05-70.06-.06A8,8,0,0,1,310.29,274.46Z"/><path class="cls-3" d="M288.69,285.82l-22.45,31.5a8.55,8.55,0,0,0-1.77,3.17,5.38,5.38,0,0,0,3.08,6.31c2.56,1.15,5.05.43,6.91-2.15q8.48-11.77,16.88-23.61c3.2-4.47,6.42-8.92,9.55-13.44a4,4,0,0,1,3.7-2c24.78.07,49.56,0,74.34.08.92,0,2.63-.85,2.05,1.62-5.57,23.72-13.11,46.62-27.86,66.46-9.41,12.66-21.24,22.24-36.63,26.66-21.74,6.26-41.1,1.07-58.2-13.11-12.35-10.23-20.44-23.62-27-38a224.33,224.33,0,0,1-13.52-41.39c-.39-1.68-.33-2.27,1.64-2.26q33.81.09,67.61.05C287.45,285.62,287.82,285.71,288.69,285.82Z"/><path class="cls-1" d="M1028.3,249.23c0-10.39.09-20.77-.06-31.15,0-2.4.7-2.82,2.88-2.76,8.84.22,17.72-.56,26.41,1.88,12,3.36,21.13,10.13,23.82,22.73,2.77,12.94,1,25.22-9.68,34.62-6,5.32-13.56,7.13-21.33,8.1-6.49.81-13,.36-19.53.56-2,.06-2.58-.49-2.56-2.52C1028.36,270.2,1028.3,259.72,1028.3,249.23Z"/><path class="cls-1" d="M768.77,226.2c0-3.67,0-7.33,0-11,0-1.26.26-1.84,1.67-1.79,7.62.28,15.28-.54,22.88.72,8.42,1.39,12.52,7.09,11.13,15.45-.65,3.88-3,6.29-6.48,7.85-4.12,1.88-8.53,1.79-12.89,1.86-4.69.08-9.39-.1-14.07.08-2.06.07-2.31-.75-2.25-2.47C768.85,233.34,768.77,229.77,768.77,226.2Z"/><path class="cls-1" d="M670.15,260.62H642.6c4.52-11.55,9-22.9,13.69-35Z"/><path class="cls-1" d="M902.1,260.72c4.44-11.37,8.74-22.38,13-33.39.14-.34.37-.65.79-1.4,3.5,8.82,6.84,17.22,10.17,25.63,1,2.44,2,4.87,2.89,7.34.27.71,1.11,1.82-.71,1.82Z"/><path class="cls-1" d="M528.21,226.94c0-3.86,0-7.73,0-11.6,0-1.07-.07-2,1.51-1.93,7,.2,14.06-.43,21,.76,8.76,1.49,13.51,8,11.64,16.06-1.25,5.38-5.07,8.25-10.15,9.38-7.53,1.68-15.22.54-22.83.83-1.55.06-1.17-1.07-1.18-1.9C528.2,234.68,528.21,230.81,528.21,226.94Z"/><path class="cls-1" d="M528.32,352.33c-.05,6-4,10.14-9.73,10.21s-9.94-4.43-9.87-10.45,4.19-10.2,10.13-10.13C524.49,342,528.38,346.28,528.32,352.33Z"/><path class="cls-1" d="M668.49,352.35c0,6-4,10.31-9.71,10.16-6.89-.19-9.65-4.71-9.81-10.46-.18-6.05,4.18-10.15,10.12-10.09C664.79,342,668.52,346.14,668.49,352.35Z"/><path class="cls-1" d="M754.08,351.88c.1-6.22,4-10.09,10.12-10,5.69.09,9.61,4.33,9.56,10.35,0,6.21-4.37,10.62-10.23,10.44S754,358.16,754.08,351.88Z"/><path class="cls-1" d="M699.69,349.41c-2.34,0-4.68-.06-7,0-1.34,0-1.84-.33-1.55-1.74.62-3.07,4.24-6.14,7.68-6.41,4.77-.37,7.93,1.43,9.23,5.18.75,2.16.33,3.22-2.23,3C703.78,349.27,701.73,349.41,699.69,349.41Z"/><path class="cls-1" d="M897,349.63c-2.43,0-4.87-.05-7.31,0-1.23,0-1.6-.4-1.4-1.61.61-3.59,4.78-6.87,9-7,4.5-.1,7.7,2.39,8.59,6.58.29,1.37.16,2.09-1.51,2C901.84,349.55,899.4,349.63,897,349.63Z"/><path class="cls-1" d="M618.79,363.39a8.67,8.67,0,0,1-4.11-.93,4,4,0,0,1-2.24-4,4.59,4.59,0,0,1,3.13-4.12c3.33-1.43,6.88-1.47,10.44-1.37.9,0,1.18.36,1.23,1.27A8.49,8.49,0,0,1,618.79,363.39Z"/><path class="cls-1" d="M558.86,353c5.89,0,6,.1,4.93,4.53-1.2,5-8.21,7.64-12.53,4.69a4.36,4.36,0,0,1,.46-7.32A14.5,14.5,0,0,1,558.86,353Z"/><path class="cls-1" d="M1015.91,341.89c5.9,0,9.93,4.19,9.94,10.31s-4.21,10.46-9.91,10.48-9.9-4.39-9.89-10.45C1006.07,346,1010,341.88,1015.91,341.89Z"/><path class="cls-1" d="M830.49,341.89c5.91,0,10,4.3,9.89,10.42s-4.11,10.29-9.75,10.37-10-4.28-10-10.4S824.54,341.88,830.49,341.89Z"/><path class="cls-1" d="M1160.7,352.72c-.1,6.31-4.45,10.73-10.51,10.67s-10.46-4.74-10.39-11.16,4.68-11,10.74-10.86S1160.81,346.17,1160.7,352.72Z"/></g></g></svg>