<svg xmlns="http://www.w3.org/2000/svg" viewBox="0 0 837 601.5"><defs><style>.cls-1{fill:#fff;}.cls-2{fill:#040404;}.cls-3{fill:#ea6831;}</style></defs><g id="Calque_2" data-name="Calque 2"><g id="Calque_1-2" data-name="Calque 1"><path class="cls-1" d="M418.5,601.44q-207.48,0-415,.06c-2.7,0-3.51-.43-3.51-3.38Q.15,300.85,0,3.58C0,.44.77,0,3.7,0Q418.5.12,833.29,0c2.92,0,3.71.41,3.71,3.57q-.15,297.27,0,594.55c0,2.92-.79,3.38-3.5,3.38Q626,601.4,418.5,601.44ZM479.59,192c-.45,7.68-1,16-3.1,24-3.33,12.5-9.08,23.57-19.52,31.83-8.08,6.4-9.89,12.38-6.05,22.82,3.54,9.63,8.4,18.69,12.54,28.05,2.72,6.15,5.2,12.44,8.45,18.29,4.2,7.56,8.35,7.48,14,1.19a27.37,27.37,0,0,0,4.25-6.85c7.69-16.79,15.55-33.5,23.25-50.29,9.07-19.76,18-39.57,27-59.35,2.24-4.92,3.48-9.86,1.19-15.12-.83-1.9-1.52-3.85-2.36-5.74Q516.52,129.36,493.73,78c-2.08-4.68-4.12-9.43-8.06-13-4.13-3.79-7.39-3.62-10.86.82-2.89,3.71-4.29,8.19-6.23,12.38-5.61,12.06-11.88,23.82-16.75,36.22-3.31,8.42-1.88,17,5.52,22a36.66,36.66,0,0,1,8.54,8.76C476.16,158.9,478.94,174.83,479.59,192ZM342.45,288.88c-.21,2.52.56,5.14,1.25,7.74,2.56,9.6,7.51,18.21,11.5,27.21,5.93,13.41,11.92,26.79,18.09,40.09,5.34,11.49,13.51,12.15,21.12,2.1,5.3-7,8.06-15.27,12.08-22.91a6.33,6.33,0,0,0,.13-6.18c-7-15.34-14.14-30.63-20.86-46.1-6.86-15.78-5.14-32.19,8.81-43.62a57.34,57.34,0,0,0,9.12-8.77c10.6-13.52,12.81-29.56,13.61-45.93A86.46,86.46,0,0,0,415.06,170c-2.68-12.4-7.68-23.58-17.9-31.88a41,41,0,0,1-8.5-8.83c-7.54-11.26-7.34-23.14-2.18-35,5.63-13,11.86-25.7,17.82-38.54,1.8-3.87,4.94-7.75,5-11.64s-3-8-4.72-12C401.68,25.51,398.68,19,393.39,14s-11.09-4.48-15.3,1.64a35.76,35.76,0,0,0-3.91,6.62c-3.81,9.46-8.75,18.39-12.86,27.71C356,62.05,349,73.5,345.2,86.29c-3.07,10.28-1.37,19.4,7.58,26.46a63.92,63.92,0,0,1,9.89,9.07c14.19,17.12,20.41,37.27,21.65,59.05.95,16.6-.12,33.18-5.24,49.15-4.85,15.1-12.49,28.59-25.3,38.55C347.16,273.71,342.35,279.77,342.45,288.88ZM432.81,39.66c-4.33.66-6.82,3.77-8.57,7.31Q417.7,60.2,411.69,73.69c-4.16,9.29-9.23,18.17-12.7,27.77s-2.11,17.88,6.11,24.54a55.24,55.24,0,0,1,8.23,7.58c12.74,15.52,17.39,33.82,18.26,53.39a115.48,115.48,0,0,1-2.3,27.71c-3.11,15.67-9.65,29.62-21.78,40.47-2.78,2.48-6,4.56-8.1,7.66-5,7.35-3.69,15.13-.48,22.54,6.52,15,13.46,29.87,20.26,44.77,1.61,3.54,2.82,7.28,5.19,10.45,3,4,7.32,4.81,11.09,2a23.28,23.28,0,0,0,5.58-6c4.94-7.64,7.9-16.25,12-24.31.74-1.49-.26-2.38-.72-3.4-4.73-10.57-9.86-21-14.24-31.69-6.33-15.47-4.1-29.37,9.51-40.21,7.88-6.27,12.32-14.45,14.76-23.92,3-11.55,3.05-23.23,1.53-35-1.6-12.44-6.29-23.38-16.32-31.2-10.75-8.38-14.2-22.41-10-35,3.82-11.47,9.76-22,14.85-32.88,1.88-4,2.41-7.38.19-11.42-3.8-7-5.85-14.82-10.65-21.29C439.6,43.18,436.93,40.52,432.81,39.66Zm112.64,390c-2-.12-3.93-.37-5.89-.35-16,.16-31.95.32-47.92.62a11.65,11.65,0,0,0-10.25,6.14q-12.9,22.47-25.61,45.06c-2,3.5-2.64,7.25-.43,10.89q14.29,23.57,28.71,47.07a10.38,10.38,0,0,0,9.8,5.44c8.85-.17,17.71,0,26.58.33s17.5.07,26.58.07c-2-1.39-3.61-2.61-4.65-4.57q-4.53-8.58-9.39-17c-2.26-3.93-3.52-7.94-1.65-12.67-4,1.82-7.66,3-11.76,2.63C508,512.19,501,505.22,497.25,495c-3.25-8.93-1.53-20,7.25-27.06,6.93-5.59,14.44-6.91,22.86-5.19,1,.19,3.15.81,2.14-1.44s-.12-3.88.73-5.57q4.65-9.39,9.56-18.64C541.21,434.45,542.5,431.58,545.45,429.71ZM679.1,489.53a3,3,0,0,1,.59-.41c15.77-6.92,19.21-20.26,16.9-34.45-2.45-15.07-14.1-24.2-29.8-25.32-10.44-.74-21-.11-31.45-.2-1.8,0-2.35.49-2.3,2.3.11,4.86.14,9.73,0,14.59-.07,2.14.58,2.71,2.69,2.67,6.74-.13,13.48,0,20.22-.07,9.76-.14,16.51,5,16.35,16.31-.15,10.59-6.15,15.78-16,15.9-6.87.08-13.74.1-20.6,0-2.17,0-2.71.64-2.63,2.73.17,4.11.22,8.24,0,12.34-.15,2.62.86,3,3.17,3,6.61-.13,13.23-.18,19.85,0,5.93.18,10.51,2.62,13.14,8.37,2.78,6.1,3.05,12.61,3.62,19.06.44,4.93.72,9.85,2.09,14.65.39,1.4.79,2.1,2.4,2.09,7.45-.08,14.91,0,22.78,0a35.65,35.65,0,0,1-3.27-11.54c-1.06-7.83-.48-15.8-2.2-23.58C692.63,499,688.17,492.37,679.1,489.53Zm-296.66-23.6.66.07c1.18,4.56,2.41,9.1,3.54,13.67q7.53,30.4,15,60.83c.47,1.92,1.25,2.62,3.25,2.57,5.12-.14,10.24-.1,15.35,0,2.12,0,2.62-.2,2-2.7-4.52-17.73-8.74-35.53-13.1-53.3-4.48-18.26-9-36.51-13.5-54.79-.57-2.33-1.49-3.3-4.15-3.16-5.73.29-11.48.13-17.22.07-1.9,0-2.88.12-3.48,2.58-4.51,18.48-9.37,36.88-14,55.33-1.05,4.21-3.24,8.31-2.24,12.84,3,13.91,6.19,27.8,9.35,42Zm210.27,23.61c.17-1.86-.87-3.73-1.87-5.53-9-16.17-18-32.3-27-48.47-1.93-3.48-4.7-6-8.62-6s-6.7,2.85-8.51,6.27c-3.25,6.15-6.41,12.34-9.59,18.52-2.75,5.37-2,8.71,2.73,12.05,16.2,11.4,14.36,33.06.45,42.62-3.92,2.7-5,6.47-3,10.22,3.84,7.32,7.72,14.63,11.82,21.81,3.29,5.76,10.23,5.7,13.7.09,8.59-13.86,17.24-27.67,25.73-41.59C590.37,496.56,592.72,493.7,592.71,489.54Zm-461.5-20.27h0c0-12.34-.08-24.69.07-37,0-2.59-.83-3.13-3.17-3.08-5.86.13-11.73.24-17.58,0-3.29-.15-4.16.75-4.14,4.09.15,23.57.22,47.13,0,70.7-.08,7.81-2.25,15.05-10.17,18.82a27.85,27.85,0,0,1-9.76,2.21c-2,.17-2.45.89-2.41,2.72.09,4.86.14,9.73,0,14.59-.09,2.52.84,3.11,3.24,3.11a51.26,51.26,0,0,0,8.51-.88c9-1.46,17.17-4.72,23.84-11.13,8.21-7.89,11.25-18,11.54-28.92C131.45,492.72,131.21,481,131.21,469.27Zm-71.92-1.41h0c0-11.85-.08-23.7.07-35.55,0-2.49-.65-3.22-3.1-3.16-6.11.15-12.24.23-18.34,0-2.95-.12-3.46.92-3.45,3.59q.15,35.37,0,70.74a51.5,51.5,0,0,0,2.13,13.94c5.44,19.71,23.13,26.89,39.64,27.89,2,.12,2.57-.76,2.53-2.62-.08-4.49-.22-9,0-13.47.16-3.15-.66-4.48-4.06-5.12-7.22-1.34-12.33-5.67-14.3-13a36.51,36.51,0,0,1-1.19-9.58C59.31,490.32,59.29,479.09,59.29,467.86Zm212.2,18.34c0,17.83,0,35.65-.05,53.47,0,2.45.44,3.54,3.23,3.44,6.36-.22,12.72-.14,19.08,0,2.14,0,2.84-.74,2.79-2.81-.1-4.61,0-9.22,0-13.84q0-46.54,0-93.11c0-2.72-.18-4.4-3.71-4.21a166.09,166.09,0,0,1-17.57,0c-3.3-.17-3.87,1.06-3.85,4C271.54,450.8,271.48,468.5,271.49,486.2Zm355.65-.1c0-18,0-35.94.06-53.91,0-2.45-.62-3.13-3.06-3.06-6.37.18-12.74.15-19.1,0-2.14-.05-2.67.59-2.67,2.69q.11,54.29,0,108.57c0,2.13.57,2.72,2.68,2.67,6.24-.14,12.49-.21,18.73,0,2.83.11,3.46-.68,3.44-3.46C627.07,521.79,627.14,504,627.14,486.1Zm115.38.38c0-18.09,0-36.19.05-54.28,0-2.44-.6-3.14-3.06-3.07-6.36.18-12.73.15-19.09,0-2.13-.05-2.68.57-2.68,2.68q.1,54.29,0,108.57c0,2.11.55,2.73,2.68,2.68,6.23-.14,12.49-.21,18.72,0,2.82.11,3.47-.66,3.45-3.45C742.44,521.93,742.52,504.2,742.52,486.48ZM247.94,543a9.42,9.42,0,0,0-1.66-3.62q-4-6.25-7.91-12.57-29.7-48-59.4-95.9c-.48-.78-.77-1.77-2.12-1.76-7.4.06-14.8,0-22.72,0,.88,1.62,1.35,2.61,1.92,3.53Q189.65,487,223.23,541.2c.63,1,1.05,1.86,2.45,1.85C233,543,240.34,543,247.94,543Zm60.39-113.84c.31,1.41.52,2.5.8,3.57Q316,458.93,323,485.11c4.81,18.31,9.54,36.63,14.45,54.91.3,1.13-.11,3.24,2.62,3.09,5.36-.29,10.74-.16,16.1-.05,2,0,2.36-.68,1.9-2.42-1.48-5.56-2.44-11.25-3.69-16.87-6.86-30.9-13.92-61.75-20.8-92.64-.37-1.68-1-2-2.4-2C323.66,429.21,316.17,429.19,308.33,429.19Zm149.42,0c-7.08,0-13.82.24-20.53-.1-3.36-.17-4.24,1.14-4.91,4.06-4.05,17.6-8.41,35.13-12.39,52.74-1,4.37-3.38,8.65-2.34,13.27,2,8.91,4.33,17.76,6.56,26.63,1.12,4.47,2.34,8.92,3.77,14.35C438,502.57,447.82,466.09,457.75,429.19Zm-304.37,9.72c-.11,1.38-.17,1.83-.18,2.27q0,49.6,0,99.22c0,2.23.92,2.7,2.92,2.67,5.49-.1,11-.24,16.47,0,3.24.17,3.94-1,3.91-4-.13-15.23-.52-30.48.09-45.68.45-11.28-.59-21.73-8.38-30.56-.16-.18-.19-.47-.32-.68C163.19,454.7,158.53,447.2,153.38,438.91Zm95.17,93.65c1.06-1.31.75-2.48.75-3.55,0-10.1,0-20.2,0-30.31,0-21.95-.07-43.91.07-65.87,0-3-.89-3.82-3.77-3.7a135.34,135.34,0,0,1-15.34,0c-3.57-.26-4,1.13-4,4.21.13,18.71.19,37.42,0,56.14-.06,4.77.66,9,3.53,12.86,2.12,2.88,3.79,6.07,5.68,9.12Zm499.37-31.49,70-71.88c-10,0-19,0-28,0-1.16,0-2.33-.31-3.41.86Q768,450,749.32,469.88a3.54,3.54,0,0,0-1.41,2.49C747.93,481.65,747.92,490.94,747.92,501.07Zm29.69-21.68c-5.38,5.15-10.75,10.34-16.19,15.45-1.43,1.35-.65,2.25.17,3.47,7.74,11.52,15.41,23.08,23.12,34.63,2.18,3.26,3.73,7.54,6.77,9.45,3.26,2.05,8,.54,12,.61,6.26.1,12.52,0,19.2,0ZM70.69,577.44a59.43,59.43,0,0,1,3.75,10.77c.38,1.39,1.11,2.42,2.87,2,1.54-.36,3.57.86,4.42-1.58,2.41-6.93,4.9-13.83,7.29-20.77.28-.8.83-1.88-.72-2.36-3.06-.94-5.48.26-6.55,3.35s-2.16,6.11-3.55,10c-1.31-4.08-2.36-7.31-3.38-10.55-.62-2-1.57-2.94-4-3s-3.32,1.06-4,3c-1.08,3.18-2.15,6.35-3.49,10.33-1.54-4.36-2.78-7.79-4-11.23s-4.12-2.09-6-1.74c-2.26.42-.54,2.42-.14,3.57,2.13,6.23,4.65,12.33,6.52,18.64.82,2.76,2.51,2,4.23,2.31,2.16.36,2.73-1,3.25-2.56C68.36,584.49,69.41,581.3,70.69,577.44Zm311.47,1.77a14.86,14.86,0,0,1-3.08-3.37c-1.86-2.9-4-5.64-5.91-8.49-1.65-2.45-4.19-2.14-6.39-1.71s-1,2.7-1.06,4.08c-.16,5.48-.08,11-.06,16.47,0,2.11-.77,4.28,3.12,4.19,3.6-.09,2.89-2,2.9-4v-9.12a2.51,2.51,0,0,1,2.14,1.44c2.52,3.49,5,7,7.51,10.49,1.59,2.17,3.9.72,5.87,1,1.36.17.94-1.18.94-1.94,0-6.86-.07-13.73.06-20.59.06-2.88-1.89-1.92-3.3-2.07-1.62-.17-2.9-.1-2.78,2.22C382.29,571.34,382.16,575,382.16,579.21Zm65,2.93c-2.39,2.26-5.12,2.78-7.54,1.45-3.39-1.87-4.55-5.73-2.65-8.8,2.29-3.69,6.4-4.66,9.8-1.61,3.06,2.74,4.77-.06,6.08-1.33s-.8-2.79-1.95-3.74c-4.09-3.35-11.35-3.59-15.6-.67a12.51,12.51,0,0,0-5.16,14.18c1.92,5.91,6.06,8.51,12.19,9.18,4.8.53,10.33-3.51,12.07-8.15,1.88-5,.78-6.68-4.39-6.68-1.62,0-3.24,0-4.86,0-1.46,0-3.3-.69-3.17,2.14.09,2.14.19,3.66,2.92,3.16A1.85,1.85,0,0,1,447.2,582.14ZM215,589.89c-.52-1.53-1.61-2.38-2.45-3.43-1.8-2.26-3.56-4-.59-7.35,4-4.6,1-11.22-5-13C203,565,199,565.77,195,565.54c-1.29-.08-1.66.8-1.66,2,0,7,0,14,0,21,0,1.64.75,1.69,2,1.79,3,.23,5.49.1,4.75-4.09-.16-.94-.67-2.44.86-2.88s2.2.74,2.78,1.86C206.13,589.71,209.8,591.34,215,589.89Zm412.08-12c0-3.25,0-6.49,0-9.74,0-1.87-.7-2.54-2.63-2.72-3.18-.3-4.34.54-4.14,4,.35,5.76.07,5.49-4.3,5.86-3.84.32-5.28-.91-4.61-4.69.15-.85-.07-1.76,0-2.61.26-2-.49-2.77-2.48-2.51-1.67.22-3.94-.82-3.9,2.38.08,6.74,0,13.48,0,20.22,0,1.56.62,2.07,2.23,2.16,2.89.18,4.91-.12,4.15-3.82a16.38,16.38,0,0,1,0-3.36,1.76,1.76,0,0,1,1.47-1.86c5.15-1.5,7.49.21,7.51,5.53,0,.12,0,.25,0,.37-.35,2.28.29,3.27,2.91,3.18s4.05-.32,3.79-3.41S627.05,580.9,627.05,577.91ZM139.94,565.49c-7.25,0-12.17,5.13-12.58,12.22-.39,6.64,5.58,13.27,12.73,13s12.1-4.71,12.48-12.57C152.91,571.16,147.08,565.49,139.94,565.49ZM693.1,578.07c0-7.47-5.05-12.58-12.4-12.58s-12.48,5.25-12.54,12.53c-.07,7.49,5.86,12.54,12.69,12.78C687.49,591,693.1,584.82,693.1,578.07Zm41.17-.4c0,3.49.08,7,0,10.47-.06,1.64.44,2.14,2.09,2.1,4.74-.1,9.48-.11,14.22,0,2.65.07,2.2-1.7,2.27-3.27s0-2.94-2.3-2.8c-2.73.17-5.48,0-8.22,0a1.45,1.45,0,0,1-1.67-1.55c0-1.09.6-1.51,1.66-1.5,2.24,0,4.5-.12,6.73,0,2.85.19,2.36-1.73,2.5-3.45.15-1.89-.38-2.72-2.44-2.55s-4.23,0-6.35,0c-1.36,0-2.13-.54-2.12-2s.9-1.82,2.21-1.79c2.37,0,4.75-.08,7.11,0,1.92.1,3.06-.2,2.93-2.56-.11-2.09-.17-3.61-3-3.49-4.36.2-8.73.14-13.09,0-1.9-.05-2.68.42-2.58,2.47C734.39,571.18,734.27,574.43,734.27,577.67ZM277,589.78c-2.37-3.56-5.52-6.51-8.61-9.5-1.37-1.34-1.83-2.26-.26-3.92a86.13,86.13,0,0,0,6.54-8.08c.48-.64,2.1-2.28.33-2.48-2.58-.3-5.68-1.42-7.77,1.76-1.56,2.38-3.5,4.52-5.72,7.33,0-2.79-.12-4.77,0-6.73.2-2.66-1.43-2.7-3.34-2.66s-3.51-.24-3.47,2.53c.11,6.72,0,13.45,0,20.18,0,.81-.2,1.63,1.06,2,3.76,1.12,5.67-.19,5.67-4.1v-4.92C265.92,586.9,269.33,592.53,277,589.78Zm526.38-24.29c-.86,0-1.49,0-2.11,0-4.17.31-7.53,3.32-7.85,7-.29,3.3,2.33,6.67,6.15,7.74a35.1,35.1,0,0,0,5.09,1c1.08.13,2.15.34,2.16,1.54,0,1.62-1.36,1.39-2.47,1.51a9.71,9.71,0,0,1-6.31-1.68c-2.9-1.87-2.92,1.31-4,2.31-1.4,1.29-.47,2.29,1,3.11,3.72,2.07,7.44,3.4,11.86,2.3,4.16-1,6.44-2.94,6.78-6.57s-1.58-6.35-5.52-7.72c-1.94-.68-4-.94-5.95-1.63-.76-.27-2.28-.37-1.92-1.75.29-1.12,1.45-1.09,2.49-1.16a7.78,7.78,0,0,1,4.87,1.46c1.52,1,2.1.56,3.21-.71,2.3-2.64,2.28-4.1-1.3-5.36C807.45,566.09,805.45,565.31,803.42,565.49Zm-249.39,0c-.82,0-1.32,0-1.81,0-4.33.2-7.53,2.88-8.1,6.74-.49,3.41,2.17,6.94,6.23,8.06a33.34,33.34,0,0,0,5.08.9c1.13.14,2,.49,2,1.72-.08,1.39-1.26,1.2-2.25,1.32a9.36,9.36,0,0,1-6.32-1.6c-1.49-1-2.15-.6-3.26.76-2,2.45-1.78,3.88,1.07,5.31a24.51,24.51,0,0,0,7.34,2.11c4.85.75,9.53-2.37,10.2-6.46.73-4.42-2.27-8-7.61-9.13a25.11,25.11,0,0,1-4.22-1.08c-.53-.21-1.68-.19-1.55-1.23s.87-1.35,1.86-1.44a10.84,10.84,0,0,1,5.66,1.34c.69.32,1.36,1.53,2.21.44,1.05-1.34,2.37-2.72,2.7-4.27.22-1-1.74-1.45-2.8-2C558.33,565.91,556.14,565.12,554,565.49ZM323.62,577.86c0-3.37,0-6.73,0-10.1,0-2.88-2.22-2-3.81-2.18s-2.88,0-2.85,2.28c.1,6.73.17,13.47,0,20.2-.08,2.51,1.31,2.29,2.78,2.11s4.06,1.18,3.95-2.21S323.63,581.22,323.62,577.86Z"/><path class="cls-2" d="M479.59,192c-.65-17.17-3.43-33.1-13.7-46.86a36.66,36.66,0,0,0-8.54-8.76c-7.4-5-8.83-13.62-5.52-22,4.87-12.4,11.14-24.16,16.75-36.22,1.94-4.19,3.34-8.67,6.23-12.38,3.47-4.44,6.73-4.61,10.86-.82,3.94,3.61,6,8.36,8.06,13q22.86,51.37,45.53,102.84c.84,1.89,1.53,3.84,2.36,5.74,2.29,5.26,1,10.2-1.19,15.12-9,19.78-18,39.59-27,59.35-7.7,16.79-15.56,33.5-23.25,50.29a27.37,27.37,0,0,1-4.25,6.85c-5.62,6.29-9.77,6.37-14-1.19-3.25-5.85-5.73-12.14-8.45-18.29-4.14-9.36-9-18.42-12.54-28.05-3.84-10.44-2-16.42,6.05-22.82,10.44-8.26,16.19-19.33,19.52-31.83C478.62,208,479.14,199.68,479.59,192Z"/><path class="cls-2" d="M342.45,288.88c-.1-9.11,4.71-15.17,11.33-20.31,12.81-10,20.45-23.45,25.3-38.55,5.12-16,6.19-32.55,5.24-49.15-1.24-21.78-7.46-41.93-21.65-59.05a63.92,63.92,0,0,0-9.89-9.07c-8.95-7.06-10.65-16.18-7.58-26.46C349,73.5,356,62.05,361.32,49.92c4.11-9.32,9.05-18.25,12.86-27.71a35.76,35.76,0,0,1,3.91-6.62C382.3,9.47,388,8.84,393.39,14s8.29,11.56,11.15,18.13c1.74,4,4.74,8,4.72,12s-3.16,7.77-5,11.64c-6,12.84-12.19,25.56-17.82,38.54-5.16,11.89-5.36,23.77,2.18,35a41,41,0,0,0,8.5,8.83c10.22,8.3,15.22,19.48,17.9,31.88a86.46,86.46,0,0,1,2.24,22.48c-.8,16.37-3,32.41-13.61,45.93a57.34,57.34,0,0,1-9.12,8.77c-13.95,11.43-15.67,27.84-8.81,43.62,6.72,15.47,13.84,30.76,20.86,46.1a6.33,6.33,0,0,1-.13,6.18c-4,7.64-6.78,15.91-12.08,22.91-7.61,10.05-15.78,9.39-21.12-2.1-6.17-13.3-12.16-26.68-18.09-40.09-4-9-8.94-17.61-11.5-27.21C343,294,342.24,291.4,342.45,288.88Z"/><path class="cls-2" d="M432.81,39.66c4.12.86,6.79,3.52,9.1,6.63,4.8,6.47,6.85,14.33,10.65,21.29,2.22,4,1.69,7.4-.19,11.42-5.09,10.89-11,21.41-14.85,32.88-4.19,12.56-.74,26.59,10,35,10,7.82,14.72,18.76,16.32,31.2,1.52,11.78,1.44,23.46-1.53,35-2.44,9.47-6.88,17.65-14.76,23.92-13.61,10.84-15.84,24.74-9.51,40.21,4.38,10.71,9.51,21.12,14.24,31.69.46,1,1.46,1.91.72,3.4-4.06,8.06-7,16.67-12,24.31a23.28,23.28,0,0,1-5.58,6c-3.77,2.83-8.11,2-11.09-2-2.37-3.17-3.58-6.91-5.19-10.45-6.8-14.9-13.74-29.75-20.26-44.77-3.21-7.41-4.51-15.19.48-22.54,2.11-3.1,5.32-5.18,8.1-7.66,12.13-10.85,18.67-24.8,21.78-40.47a115.48,115.48,0,0,0,2.3-27.71c-.87-19.57-5.52-37.87-18.26-53.39A55.24,55.24,0,0,0,405.1,126c-8.22-6.66-9.55-15-6.11-24.54s8.54-18.48,12.7-27.77q6-13.47,12.55-26.72C426,43.43,428.48,40.32,432.81,39.66Z"/><path class="cls-2" d="M545.45,429.71c-3,1.87-4.24,4.74-5.66,7.41q-4.92,9.24-9.56,18.64c-.85,1.69-1.72,3.35-.73,5.57s-1.17,1.63-2.14,1.44c-8.42-1.72-15.93-.4-22.86,5.19-8.78,7.09-10.5,18.13-7.25,27.06,3.72,10.2,10.78,17.17,22.32,18.35,4.1.42,7.76-.81,11.76-2.63-1.87,4.73-.61,8.74,1.65,12.67q4.85,8.42,9.39,17c1,2,2.62,3.18,4.65,4.57-9.08,0-17.84.25-26.58-.07s-17.73-.5-26.58-.33a10.38,10.38,0,0,1-9.8-5.44q-14.37-23.53-28.71-47.07c-2.21-3.64-1.55-7.39.43-10.89q12.75-22.57,25.61-45.06A11.65,11.65,0,0,1,491.64,430c16-.3,32-.46,47.92-.62C541.52,429.34,543.48,429.59,545.45,429.71Z"/><path class="cls-2" d="M679.1,489.53c9.07,2.84,13.53,9.5,15.49,18.37,1.72,7.78,1.14,15.75,2.2,23.58A35.65,35.65,0,0,0,700.06,543c-7.87,0-15.33,0-22.78,0-1.61,0-2-.69-2.4-2.09-1.37-4.8-1.65-9.72-2.09-14.65-.57-6.45-.84-13-3.62-19.06-2.63-5.75-7.21-8.19-13.14-8.37-6.62-.2-13.24-.15-19.85,0-2.31.05-3.32-.37-3.17-3,.24-4.1.19-8.23,0-12.34-.08-2.09.46-2.77,2.63-2.73,6.86.14,13.73.12,20.6,0,9.87-.12,15.87-5.31,16-15.9.16-11.35-6.59-16.45-16.35-16.31-6.74.1-13.48-.06-20.22.07-2.11,0-2.76-.53-2.69-2.67.16-4.86.13-9.73,0-14.59,0-1.81.5-2.31,2.3-2.3,10.48.09,21-.54,31.45.2,15.7,1.12,27.35,10.25,29.8,25.32,2.31,14.19-1.13,27.53-16.9,34.45A3,3,0,0,0,679.1,489.53Z"/><path class="cls-2" d="M382.44,465.93l-18.61,75.95c-3.16-14.16-6.31-28-9.35-42-1-4.53,1.19-8.63,2.24-12.84,4.64-18.45,9.5-36.85,14-55.33.6-2.46,1.58-2.6,3.48-2.58,5.74.06,11.49.22,17.22-.07,2.66-.14,3.58.83,4.15,3.16,4.46,18.28,9,36.53,13.5,54.79,4.36,17.77,8.58,35.57,13.1,53.3.64,2.5.14,2.73-2,2.7-5.11-.08-10.23-.12-15.35,0-2,0-2.78-.65-3.25-2.57q-7.39-30.43-15-60.83c-1.13-4.57-2.36-9.11-3.54-13.67Z"/><path class="cls-2" d="M592.71,489.54c0,4.16-2.34,7-4.16,10-8.49,13.92-17.14,27.73-25.73,41.59-3.47,5.61-10.41,5.67-13.7-.09-4.1-7.18-8-14.49-11.82-21.81-2-3.75-.9-7.52,3-10.22,13.91-9.56,15.75-31.22-.45-42.62-4.74-3.34-5.48-6.68-2.73-12.05,3.18-6.18,6.34-12.37,9.59-18.52,1.81-3.42,4.47-6.28,8.51-6.27s6.69,2.52,8.62,6c9,16.17,18,32.3,27,48.47C591.84,485.81,592.88,487.68,592.71,489.54Z"/><path class="cls-3" d="M131.21,469.27c0,11.72.24,23.45-.07,35.16-.29,11-3.33,21-11.54,28.92-6.67,6.41-14.88,9.67-23.84,11.13a51.26,51.26,0,0,1-8.51.88c-2.4,0-3.33-.59-3.24-3.11.17-4.86.12-9.73,0-14.59,0-1.83.37-2.55,2.41-2.72a27.85,27.85,0,0,0,9.76-2.21c7.92-3.77,10.09-11,10.17-18.82.25-23.57.18-47.13,0-70.7,0-3.34.85-4.24,4.14-4.09,5.85.28,11.72.17,17.58,0,2.34-.05,3.21.49,3.17,3.08-.15,12.34-.07,24.69-.07,37Z"/><path class="cls-3" d="M59.29,467.86c0,11.23,0,22.46,0,33.69a36.51,36.51,0,0,0,1.19,9.58c2,7.28,7.08,11.61,14.3,13,3.4.64,4.22,2,4.06,5.12-.22,4.48-.08,9,0,13.47,0,1.86-.48,2.74-2.53,2.62-16.51-1-34.2-8.18-39.64-27.89a51.5,51.5,0,0,1-2.13-13.94q.09-35.37,0-70.74c0-2.67.5-3.71,3.45-3.59,6.1.25,12.23.17,18.34,0,2.45-.06,3.13.67,3.1,3.16-.15,11.85-.07,23.7-.07,35.55Z"/><path class="cls-3" d="M271.48,486.2c0-17.7.06-35.4-.06-53.1,0-2.94.55-4.17,3.85-4a166.09,166.09,0,0,0,17.57,0c3.53-.19,3.72,1.49,3.71,4.21q-.09,46.56,0,93.11c0,4.62-.08,9.23,0,13.84,0,2.07-.65,2.84-2.79,2.81-6.36-.11-12.72-.19-19.08,0-2.79.1-3.24-1-3.23-3.44C271.53,521.85,271.49,504,271.48,486.2Z"/><path class="cls-2" d="M627.14,486.1c0,17.85-.07,35.69.08,53.54,0,2.78-.61,3.57-3.44,3.46-6.24-.24-12.49-.17-18.73,0-2.11,0-2.68-.54-2.68-2.67q.11-54.28,0-108.57c0-2.1.53-2.74,2.67-2.69,6.36.14,12.73.17,19.1,0,2.44-.07,3.08.61,3.06,3.06C627.09,450.16,627.14,468.13,627.14,486.1Z"/><path class="cls-2" d="M742.52,486.48c0,17.72-.08,35.45.07,53.17,0,2.79-.63,3.56-3.45,3.45-6.23-.24-12.49-.17-18.72,0-2.13,0-2.68-.57-2.68-2.68q.1-54.28,0-108.57c0-2.11.55-2.73,2.68-2.68,6.36.14,12.73.17,19.09,0,2.46-.07,3.08.63,3.06,3.07C742.47,450.29,742.52,468.39,742.52,486.48Z"/><path class="cls-3" d="M247.94,543c-7.6,0-14.93,0-22.26,0-1.4,0-1.82-.84-2.45-1.85Q189.68,487,156.05,432.74c-.57-.92-1-1.91-1.92-3.53,7.92,0,15.32,0,22.72,0,1.35,0,1.64,1,2.12,1.76q29.72,47.94,59.4,95.9,3.9,6.31,7.91,12.57A9.42,9.42,0,0,1,247.94,543Z"/><path class="cls-2" d="M308.33,429.19c7.84,0,15.33,0,22.81,0,1.43,0,2,.28,2.4,2,6.88,30.89,13.94,61.74,20.8,92.64,1.25,5.62,2.21,11.31,3.69,16.87.46,1.74.08,2.46-1.9,2.42-5.36-.11-10.74-.24-16.1.05-2.73.15-2.32-2-2.62-3.09-4.91-18.28-9.64-36.6-14.45-54.91q-6.87-26.17-13.83-52.35C308.85,431.69,308.64,430.6,308.33,429.19Z"/><path class="cls-2" d="M457.75,429.19c-9.93,36.9-19.73,73.38-29.84,111-1.43-5.43-2.65-9.88-3.77-14.35-2.23-8.87-4.55-17.72-6.56-26.63-1-4.62,1.35-8.9,2.34-13.27,4-17.61,8.34-35.14,12.39-52.74.67-2.92,1.55-4.23,4.91-4.06C443.93,429.43,450.67,429.19,457.75,429.19Z"/><path class="cls-3" d="M153.38,438.91c5.15,8.29,9.81,15.79,14.46,23.29.13.21.16.5.32.68,7.79,8.83,8.83,19.28,8.38,30.56-.61,15.2-.22,30.45-.09,45.68,0,3-.67,4.16-3.91,4-5.48-.28-11-.14-16.47,0-2,0-2.93-.44-2.92-2.67q.07-49.61,0-99.22C153.21,440.74,153.27,440.29,153.38,438.91Z"/><path class="cls-3" d="M248.55,532.56l-13.09-21.12c-1.89-3.05-3.56-6.24-5.68-9.12-2.87-3.9-3.59-8.09-3.53-12.86.2-18.72.14-37.43,0-56.14,0-3.08.42-4.47,4-4.21a135.34,135.34,0,0,0,15.34,0c2.88-.12,3.79.66,3.77,3.7-.14,22-.08,43.92-.07,65.87,0,10.11,0,20.21,0,30.31C249.3,530.08,249.61,531.25,248.55,532.56Z"/><path class="cls-2" d="M747.92,501.07c0-10.13,0-19.42,0-28.7a3.54,3.54,0,0,1,1.41-2.49Q768,450,786.57,430.07c1.08-1.17,2.25-.85,3.41-.86,9,0,17.95,0,28,0Z"/><path class="cls-2" d="M777.61,479.39,822.72,543c-6.68,0-12.94.08-19.2,0-4.07-.07-8.78,1.44-12-.61-3-1.91-4.59-6.19-6.77-9.45-7.71-11.55-15.38-23.11-23.12-34.63-.82-1.22-1.6-2.12-.17-3.47C766.86,489.73,772.23,484.54,777.61,479.39Z"/><path class="cls-2" d="M70.69,577.44c-1.28,3.86-2.33,7-3.38,10.24-.52,1.56-1.09,2.92-3.25,2.56-1.72-.28-3.41.45-4.23-2.31-1.87-6.31-4.39-12.41-6.52-18.64-.4-1.15-2.12-3.15.14-3.57,1.88-.35,4.84-1.67,6,1.74s2.42,6.87,4,11.23c1.34-4,2.41-7.15,3.49-10.33.64-1.89,1.55-3,4-3s3.34,1,4,3c1,3.24,2.07,6.47,3.38,10.55,1.39-3.94,2.48-7,3.55-10s3.49-4.29,6.55-3.35c1.55.48,1,1.56.72,2.36-2.39,6.94-4.88,13.84-7.29,20.77-.85,2.44-2.88,1.22-4.42,1.58-1.76.41-2.49-.62-2.87-2A59.43,59.43,0,0,0,70.69,577.44Z"/><path class="cls-2" d="M382.16,579.21c0-4.25.13-7.87,0-11.47-.12-2.32,1.16-2.39,2.78-2.22,1.41.15,3.36-.81,3.3,2.07-.13,6.86,0,13.73-.06,20.59,0,.76.42,2.11-.94,1.94-2-.23-4.28,1.22-5.87-1-2.54-3.47-5-7-7.51-10.49a2.51,2.51,0,0,0-2.14-1.44v9.12c0,2,.7,3.93-2.9,4-3.89.09-3.11-2.08-3.12-4.19,0-5.49-.1-11,.06-16.47,0-1.38-1.26-3.63,1.06-4.08s4.74-.74,6.39,1.71c1.94,2.85,4.05,5.59,5.91,8.49A14.86,14.86,0,0,0,382.16,579.21Z"/><path class="cls-2" d="M447.2,582.15a1.85,1.85,0,0,0-2.26-.87c-2.73.5-2.83-1-2.92-3.16-.13-2.83,1.71-2.09,3.17-2.14,1.62-.05,3.24,0,4.86,0,5.17,0,6.27,1.67,4.39,6.68-1.74,4.64-7.27,8.68-12.07,8.15-6.13-.67-10.27-3.27-12.19-9.18a12.51,12.51,0,0,1,5.16-14.18c4.25-2.92,11.51-2.68,15.6.67,1.15.95,3.26,2.48,1.95,3.74s-3,4.07-6.08,1.33c-3.4-3-7.51-2.08-9.8,1.61-1.9,3.07-.74,6.93,2.65,8.8C442.08,584.92,444.81,584.4,447.2,582.15Z"/><path class="cls-2" d="M215,589.89c-5.17,1.45-8.84-.18-11.21-4.75-.58-1.12-1.29-2.29-2.78-1.86s-1,1.94-.86,2.88c.74,4.19-1.7,4.32-4.75,4.09-1.28-.1-2.05-.15-2-1.79.08-7,0-14,0-21,0-1.16.37-2,1.66-2,3.95.23,7.94-.56,11.88.58,6,1.77,9.05,8.39,5,13-3,3.38-1.21,5.09.59,7.35C213.36,587.51,214.45,588.36,215,589.89Zm-14.86-15.81c-.31,2.09.13,3.48,2.67,3.22,1.88-.2,3.95-.14,4-2.73.08-2.38-1.47-3.09-3.63-3.11C201.28,571.44,199.53,571.37,200.11,574.08Z"/><path class="cls-2" d="M627.05,577.91c0,3-.19,6,.05,9s-1.27,3.32-3.79,3.41-3.26-.9-2.91-3.18c0-.12,0-.25,0-.37,0-5.32-2.36-7-7.51-5.53a1.76,1.76,0,0,0-1.47,1.86,16.38,16.38,0,0,0,0,3.36c.76,3.7-1.26,4-4.15,3.82-1.61-.09-2.24-.6-2.23-2.16,0-6.74.06-13.48,0-20.22,0-3.2,2.23-2.16,3.9-2.38,2-.26,2.74.55,2.48,2.51-.11.85.11,1.76,0,2.61-.67,3.78.77,5,4.61,4.69,4.37-.37,4.65-.1,4.3-5.86-.2-3.46,1-4.3,4.14-4,1.93.18,2.67.85,2.63,2.72C627,571.42,627.05,574.66,627.05,577.91Z"/><path class="cls-2" d="M139.94,565.49c7.14,0,13,5.67,12.63,12.64-.38,7.86-5.37,12.29-12.48,12.57s-13.12-6.35-12.73-13C127.77,570.62,132.69,565.49,139.94,565.49Zm.19,18.73a6,6,0,0,0,6-6.43,6.79,6.79,0,0,0-6.4-6.31c-3.19.06-6.18,3.29-6.11,6.6A6.47,6.47,0,0,0,140.13,584.22Z"/><path class="cls-2" d="M693.1,578.07c0,6.75-5.61,13-12.25,12.73-6.83-.24-12.76-5.29-12.69-12.78.06-7.28,5.25-12.53,12.54-12.53S693.09,570.6,693.1,578.07Zm-12.61,6.14a6.66,6.66,0,0,0,6.58-6.12c.09-3.1-3.1-6.51-6.18-6.61-3.24-.1-6.63,3.32-6.54,6.62A6.39,6.39,0,0,0,680.49,584.21Z"/><path class="cls-2" d="M734.27,577.67c0-3.24.12-6.49,0-9.72-.1-2.05.68-2.52,2.58-2.47,4.36.12,8.73.18,13.09,0,2.8-.12,2.86,1.4,3,3.49.13,2.36-1,2.66-2.93,2.56-2.36-.12-4.74,0-7.11,0-1.31,0-2.2.29-2.21,1.79s.76,2,2.12,2c2.12,0,4.25.14,6.35,0s2.59.66,2.44,2.55c-.14,1.72.35,3.64-2.5,3.45-2.23-.14-4.49,0-6.73,0-1.06,0-1.69.41-1.66,1.5a1.45,1.45,0,0,0,1.67,1.55c2.74,0,5.49.13,8.22,0,2.29-.14,2.38,1.16,2.3,2.8s.38,3.34-2.27,3.27c-4.74-.11-9.48-.1-14.22,0-1.65,0-2.15-.46-2.09-2.1C734.35,584.65,734.27,581.16,734.27,577.67Z"/><path class="cls-2" d="M277,589.78c-7.71,2.75-11.12-2.88-15.49-8.59v4.92c0,3.91-1.91,5.22-5.67,4.1-1.26-.37-1.06-1.19-1.06-2,0-6.73.06-13.46,0-20.18,0-2.77,1.68-2.5,3.47-2.53s3.54,0,3.34,2.66c-.15,2,0,3.94,0,6.73,2.22-2.81,4.16-4.95,5.72-7.33,2.09-3.18,5.19-2.06,7.77-1.76,1.77.2.15,1.84-.33,2.48a86.13,86.13,0,0,1-6.54,8.08c-1.57,1.66-1.11,2.58.26,3.92C271.52,583.27,274.67,586.22,277,589.78Z"/><path class="cls-2" d="M803.42,565.49c2-.18,4,.6,6.15,1.35,3.58,1.26,3.6,2.72,1.3,5.36-1.11,1.27-1.69,1.72-3.21.71a7.78,7.78,0,0,0-4.87-1.46c-1,.07-2.2,0-2.49,1.16-.36,1.38,1.16,1.48,1.92,1.75,1.93.69,4,.95,5.95,1.63,3.94,1.37,5.84,4.15,5.52,7.72s-2.62,5.54-6.78,6.57c-4.42,1.1-8.14-.23-11.86-2.3-1.45-.82-2.38-1.82-1-3.11,1.09-1,1.11-4.18,4-2.31a9.71,9.71,0,0,0,6.31,1.68c1.11-.12,2.49.11,2.47-1.51,0-1.2-1.08-1.41-2.16-1.54a35.1,35.1,0,0,1-5.09-1c-3.82-1.07-6.44-4.44-6.15-7.74.32-3.69,3.68-6.7,7.85-7C801.93,565.45,802.56,565.49,803.42,565.49Z"/><path class="cls-2" d="M554,565.49c2.11-.37,4.3.42,6.4,1.5,1.06.54,3,1,2.8,2-.33,1.55-1.65,2.93-2.7,4.27-.85,1.09-1.52-.12-2.21-.44a10.84,10.84,0,0,0-5.66-1.34c-1,.09-1.73.47-1.86,1.44s1,1,1.55,1.23a25.11,25.11,0,0,0,4.22,1.08c5.34,1.13,8.34,4.71,7.61,9.13-.67,4.09-5.35,7.21-10.2,6.46a24.51,24.51,0,0,1-7.34-2.11c-2.85-1.43-3-2.86-1.07-5.31,1.11-1.36,1.77-1.73,3.26-.76a9.36,9.36,0,0,0,6.32,1.6c1-.12,2.17.07,2.25-1.32.06-1.23-.84-1.58-2-1.72a33.34,33.34,0,0,1-5.08-.9c-4.06-1.12-6.72-4.65-6.23-8.06.57-3.86,3.77-6.54,8.1-6.74C552.71,565.47,553.21,565.49,554,565.49Z"/><path class="cls-2" d="M323.62,577.86c0,3.36-.08,6.73,0,10.1s-2.39,2-3.95,2.21-2.86.4-2.78-2.11c.2-6.73.13-13.47,0-20.2,0-2.24,1.19-2.43,2.85-2.28s3.8-.7,3.81,2.18C323.63,571.13,323.62,574.49,323.62,577.86Z"/><path class="cls-1" d="M200.11,574.08c-.58-2.71,1.17-2.64,3.08-2.62,2.16,0,3.71.73,3.63,3.11-.09,2.59-2.16,2.53-4,2.73C200.24,577.56,199.8,576.17,200.11,574.08Z"/><path class="cls-1" d="M140.13,584.22a6.47,6.47,0,0,1-6.47-6.14c-.07-3.31,2.92-6.54,6.11-6.6a6.79,6.79,0,0,1,6.4,6.31A6,6,0,0,1,140.13,584.22Z"/><path class="cls-1" d="M680.49,584.21a6.39,6.39,0,0,1-6.14-6.11c-.09-3.3,3.3-6.72,6.54-6.62,3.08.1,6.27,3.51,6.18,6.61A6.66,6.66,0,0,1,680.49,584.21Z"/></g></g></svg>