<svg width="601" height="136" viewBox="0 0 601 136" fill="none" xmlns="http://www.w3.org/2000/svg">
<path d="M0.799805 43.1002C0.799805 19.7002 87.1998 0.700195 130.6 0.700195C168 0.700195 56.3998 12.1002 56.3998 42.4002C56.3998 73.6002 161.1 86.8002 130.6 86.8002C87.1998 86.8002 0.799805 66.5002 0.799805 43.1002Z" fill="#E30613"/>
<path fill-rule="evenodd" clip-rule="evenodd" d="M583.5 20.1H585.6V14.6H586.8C588.4 14.6 589 15.2 590.7 18.1L591.8 20.1H594.4L592.8 17.6C591.7 15.9 590.9 14.8 589.8 14.4V14.3C592 14.2 593.5 12.7 593.5 10.6C593.5 9.20001 592.4 7.20001 589.2 7.20001H583.5V20.1V20.1ZM585.6 12.9V9H589C590.4 9 591.3 9.69999 591.3 10.9C591.3 12.2 590.2 12.9 588.6 12.9H585.6ZM598.8 13.5C598.8 19.1 594.3 23.6 588.7 23.6C583.1 23.6 578.6 19.1 578.6 13.5C578.6 7.9 583.1 3.39999 588.7 3.39999C594.3 3.39999 598.8 7.9 598.8 13.5ZM600.8 13.5C600.8 6.8 595.4 1.5 588.7 1.5C582 1.5 576.7 6.9 576.7 13.5C576.7 20.2 582.1 25.6 588.7 25.6C595.4 25.5 600.8 20.1 600.8 13.5ZM225.6 45.3C225.6 64.1 240.6 80.2 270 80.2C301.1 80.2 314.4 62.6 314.4 45.3C314.4 27.7 300.7 10.4 270 10.4C239.6 10.4 225.6 27.2 225.6 45.3ZM254.2 45.3C254.2 36.1 260.2 30.3 270 30.3C279.7 30.3 285.8 36.1 285.8 45.3C285.8 54.5 279.7 60.3 270 60.3C260.2 60.2 254.2 54.5 254.2 45.3ZM326.4 11.3H386V25.7H355V38H384.1V52.4H355V79.3H326.4V11.3ZM402.2 79.3H430.8V50.9H438.6C446.4 50.9 450.9 57.6 456.9 69.3L462 79.4H490.1L480.4 61.4C476 53.3 472.9 48.6 467 46.5C475.7 43.3 480.2 37.9 480.2 30.7C480.2 20 470.7 11.3 448.7 11.3H402.1V79.3H402.2ZM430.8 40.4V22.2H439.2C448.2 22.2 453.2 25.2 453.2 31.2C453.2 37.2 447.8 40.4 438.6 40.4H430.8ZM496.3 79.3H524.7L530.1 68.2H567L572.4 79.3H600.8L563.6 11.3H533.7L496.3 79.3ZM535.9 56L548.5 29.1L560.9 56H535.9ZM200.3 35.7C194 32.8 184.8 31 174.6 31C155.4 31 139.9 37.4 139.9 45.3C139.9 53.2 155.4 59.6 174.6 59.6C184.7 59.6 193.7 57.8 200.1 55L216.6 67.3C203.1 75 183 79.9 160.6 79.9C120.1 79.9 87.2998 64 87.2998 44.4C87.2998 24.8 120.1 8.89999 160.6 8.89999C183.9 8.89999 204.6 14.1 218 22.3L200.3 35.7ZM162.8 127.6C162.8 129.9 162.1 131.8 160.8 133.1C159.5 134.4 157.6 135.1 155.2 135.1H146C145.7 135.1 145.6 135 145.6 134.7V109.7C145.6 109.4 145.7 109.3 146 109.3H155.2C157.6 109.3 159.4 110 160.8 111.4C162.1 112.7 162.8 114.6 162.9 117V117.4C162.9 117.9 162.8 118.4 162.7 118.9C162.5 119.4 162.3 119.8 162 120.2C161.1 121.3 160.6 122 160.6 122.1C160.6 122.2 160.7 122.4 161 122.7C161.3 123 161.6 123.4 162 124C162.3 124.5 162.5 125 162.7 125.5C162.9 126 163 126.6 163 127.1V127.6H162.8ZM158.1 116.9V116.5C158.1 115.7 157.8 115 157.2 114.4C156.6 113.8 155.9 113.5 155.1 113.5H150.6C150.3 113.5 150.2 113.6 150.2 113.9V119.4C150.2 119.7 150.3 119.8 150.6 119.8H155.1C155.9 119.8 156.6 119.5 157.2 118.9C157.8 118.5 158.1 117.8 158.1 116.9ZM158.1 127.9V127.1C158.1 126.3 157.8 125.6 157.3 125C156.8 124.5 156.1 124.2 155.2 124.2H150.7C150.4 124.2 150.3 124.3 150.3 124.6V130.4C150.3 130.7 150.4 130.8 150.7 130.8H155.2C156 130.8 156.7 130.5 157.3 129.9C157.8 129.4 158.1 128.7 158.1 127.9ZM194.5 128.3C194.5 130.5 193.8 132.3 192.4 133.5C191 134.8 189.2 135.5 186.9 135.5H184.9C182.6 135.5 180.7 134.8 179.4 133.5C178 132.2 177.3 130.5 177.3 128.3V116.2C177.3 114 178 112.2 179.4 111C180.8 109.7 182.6 109 184.9 109H186.9C189.2 109 191.1 109.7 192.4 111C193.8 112.3 194.5 114 194.5 116.2V128.3ZM189.8 128.3V116.2C189.8 115.3 189.5 114.6 189 114.1C188.5 113.6 187.8 113.3 186.9 113.3H184.9C184.1 113.3 183.4 113.6 182.8 114.2C182.2 114.8 182 115.5 181.9 116.3V128.4C181.9 129.2 182.2 129.9 182.8 130.5C183.4 131.1 184.1 131.3 184.9 131.4H186.9C187.7 131.4 188.4 131.1 189 130.6C189.5 129.8 189.8 129.1 189.8 128.3ZM227.5 134.6C227.5 134.7 227.5 134.8 227.5 134.8C227.5 135 227.4 135.1 227.1 135.1H222.9C222.8 135.1 222.7 135 222.5 134.8L218.9 124.4L218.6 124.2H215C214.7 124.2 214.6 124.3 214.6 124.6V134.7C214.6 135 214.5 135.1 214.2 135.1H210.3C210 135.1 209.9 135 209.9 134.7V109.7C209.9 109.4 210 109.3 210.3 109.3H219.5C221.9 109.3 223.7 110 225.1 111.4C226.4 112.7 227.1 114.6 227.2 117V117.4C227.2 118.4 227 119.2 226.6 120C226.2 120.7 225.8 121.3 225.4 121.8C225 122.2 224.6 122.5 224.3 122.7C223.9 123 223.8 123.2 223.7 123.4L227.5 134.6ZM222.4 116.9V116.5C222.4 115.7 222.1 115 221.5 114.4C220.9 113.8 220.2 113.5 219.4 113.5H215C214.7 113.5 214.6 113.6 214.6 113.9V119.3C214.6 119.6 214.7 119.7 215 119.7H219.5C220.3 119.7 221 119.4 221.6 118.8C222.1 118.5 222.4 117.8 222.4 116.9ZM259.1 134.7C259.1 135 259 135.1 258.7 135.1H255.3L254.9 134.9L246.5 118.4L246.7 134.7C246.7 135 246.6 135.1 246.3 135.1H242.5C242.2 135.1 242.1 135 242.1 134.7V109.7C242.1 109.4 242.2 109.3 242.5 109.3H245.9L246.3 109.5L254.7 126.1L254.5 109.7C254.5 109.4 254.6 109.3 254.9 109.3H258.7C259 109.3 259.1 109.4 259.1 109.7V134.7ZM324.3 113.2C324.3 113.5 324.2 113.6 323.9 113.6H319.4C319.1 113.6 319 113.7 319 114V134.7C319 135 318.9 135.1 318.6 135.1H314.7C314.4 135.1 314.3 135 314.3 134.7V114C314.3 113.7 314.2 113.6 313.9 113.6H309.4C309.1 113.6 309 113.5 309 113.2V109.7C309 109.4 309.1 109.3 309.4 109.3H323.8C324.1 109.3 324.2 109.4 324.2 109.7V113.2H324.3ZM353.8 128.3C353.8 130.5 353.1 132.3 351.7 133.5C350.3 134.8 348.5 135.5 346.2 135.5H344.2C341.9 135.5 340 134.8 338.7 133.5C337.3 132.2 336.6 130.5 336.6 128.3V116.2C336.6 114 337.3 112.2 338.7 111C340.1 109.7 341.9 109 344.2 109H346.2C348.5 109 350.4 109.7 351.7 111C353.1 112.3 353.8 114 353.8 116.2V128.3ZM349 128.3V116.2C349 115.3 348.7 114.6 348.2 114.1C347.7 113.6 347 113.3 346.1 113.3H344.1C343.3 113.3 342.6 113.6 342 114.2C341.4 114.8 341.2 115.5 341.1 116.3V128.4C341.1 129.2 341.4 129.9 342 130.5C342.6 131.1 343.3 131.3 344.1 131.4H346.1C346.9 131.4 347.6 131.1 348.2 130.6C348.7 129.8 349 129.1 349 128.3ZM429.3 109.8L423.9 134.8C423.8 135 423.7 135.1 423.5 135.1H420.5C420.3 135.1 420.1 135 420.1 134.8L416 118.6L411.9 134.8C411.9 135 411.7 135.1 411.5 135.1H408.5C408.3 135.1 408.1 135 408.1 134.8L402.7 109.8C402.7 109.7 402.7 109.7 402.7 109.6C402.7 109.4 402.8 109.3 403.1 109.3H407.3C407.5 109.3 407.7 109.4 407.7 109.6L410.7 126.3L414.6 109.5C414.6 109.3 414.8 109.2 415 109.2H417.1C417.3 109.2 417.5 109.3 417.5 109.5L421.4 126.3L424.4 109.6C424.5 109.4 424.6 109.3 424.8 109.3H429C429.3 109.3 429.4 109.4 429.4 109.6C429.3 109.7 429.3 109.8 429.3 109.8ZM459.5 128.3C459.5 130.5 458.8 132.3 457.4 133.5C456 134.8 454.2 135.5 451.9 135.5H449.9C447.6 135.5 445.7 134.8 444.4 133.5C443 132.2 442.3 130.5 442.3 128.3V116.2C442.3 114 443 112.2 444.4 111C445.8 109.7 447.6 109 449.9 109H451.9C454.2 109 456.1 109.7 457.4 111C458.8 112.3 459.5 114 459.5 116.2V128.3ZM454.8 128.3V116.2C454.8 115.3 454.5 114.6 454 114.1C453.5 113.6 452.8 113.3 451.9 113.3H449.9C449.1 113.3 448.4 113.6 447.8 114.2C447.2 114.8 447 115.5 446.9 116.3V128.4C446.9 129.2 447.2 129.9 447.8 130.5C448.4 131.1 449.1 131.3 449.9 131.4H451.9C452.7 131.4 453.4 131.1 454 130.6C454.5 129.8 454.7 129.1 454.8 128.3ZM492.4 134.6C492.4 134.7 492.4 134.8 492.4 134.8C492.4 135 492.3 135.1 492 135.1H487.8C487.7 135.1 487.6 135 487.4 134.8L483.8 124.4L483.5 124.2H479.9C479.6 124.2 479.5 124.3 479.5 124.6V134.7C479.5 135 479.4 135.1 479.1 135.1H475.2C474.9 135.1 474.8 135 474.8 134.7V109.7C474.8 109.4 474.9 109.3 475.2 109.3H484.4C486.8 109.3 488.6 110 490 111.4C491.3 112.7 492 114.6 492.1 117V117.4C492.1 118.4 491.9 119.2 491.5 120C491.1 120.7 490.7 121.3 490.3 121.8C489.9 122.2 489.5 122.5 489.2 122.7C488.8 123 488.7 123.2 488.6 123.4L492.4 134.6ZM487.4 116.9V116.5C487.4 115.7 487.1 115 486.5 114.4C485.9 113.8 485.2 113.5 484.4 113.5H479.9C479.6 113.5 479.5 113.6 479.5 113.9V119.3C479.5 119.6 479.6 119.7 479.9 119.7H484.4C485.2 119.7 485.9 119.4 486.5 118.8C487 118.5 487.3 117.8 487.4 116.9ZM526 134.5C526 134.6 526.1 134.7 526.1 134.8C526.1 135 526 135.1 525.7 135.1H520.9L520.6 134.9L514.2 124.6C514.1 124.4 514 124.4 513.9 124.4C513.7 124.4 513.6 124.4 513.5 124.6L511.9 126.8V134.8C511.9 135.1 511.8 135.2 511.5 135.2H507.6C507.3 135.2 507.2 135.1 507.2 134.8V109.8C507.2 109.5 507.3 109.4 507.6 109.4H511.5C511.8 109.4 511.9 109.5 511.9 109.8V118.9C511.9 119.2 512 119.4 512.3 119.4C512.4 119.4 512.5 119.3 512.7 119.2L520 109.6L520.3 109.4H525C525.3 109.4 525.4 109.5 525.4 109.7C525.4 109.8 525.4 109.9 525.3 110L517.3 119.8C517.3 119.9 517.2 119.9 517.2 120C517.2 120.1 517.2 120.2 517.3 120.2L526 134.5Z" fill="black"/>
</svg>
