<svg width="81" height="47" viewBox="0 0 81 47" fill="none" xmlns="http://www.w3.org/2000/svg">
<path d="M10.1532 30.266C10.2982 30.5561 10.3465 30.7979 10.4432 31.088C10.4432 31.1847 10.3949 31.2814 10.2982 31.3297C10.1048 31.378 9.91141 31.4264 9.71801 31.4264L8.84774 31.4747V32.0549C9.95975 32.0066 10.83 32.0066 11.5069 32.0066C12.2321 32.0066 12.9574 32.0066 13.7309 32.0549V31.4747C13.4408 31.4747 13.1024 31.4264 12.8123 31.3297C12.6673 31.2814 12.5706 31.1363 12.4739 31.0396C12.2321 30.6045 12.0387 30.2177 11.8453 29.7342L7.25225 19.2426H6.62372C6.38198 19.9195 5.94684 20.9832 5.26997 22.4336L2.8042 27.9937C2.36906 28.9606 1.93393 29.9276 1.49879 30.7495C1.4021 30.9429 1.3054 31.1363 1.11201 31.2814C0.870264 31.3781 0.580176 31.4264 0.290086 31.4264H0V32.0066C0.676877 31.9582 1.4021 31.9582 2.27237 31.9582C2.9976 31.9582 3.62612 31.9582 4.2063 32.0066V31.4264L3.33603 31.3297C3.14264 31.3297 2.94925 31.2814 2.75585 31.1847C2.65916 31.1363 2.61081 30.9913 2.65916 30.8946C2.8042 30.266 2.99759 29.6859 3.28768 29.154L3.91621 27.7036H9.13783L10.1532 30.266ZM6.57537 21.7084L8.84774 27.0751H4.303L6.57537 21.7084Z" fill="white"/>
<path d="M18.6624 32.0549C18.3723 31.2814 18.1306 30.5078 17.8405 29.8309L14.6012 21.9018C14.3594 21.2732 14.0694 20.6447 13.7793 20.0162C13.6826 19.9195 13.4408 19.8711 13.0057 19.8711H12.6189V19.291C13.5375 19.3393 14.3594 19.3393 15.0363 19.3393C15.7132 19.3393 16.5835 19.3393 17.5504 19.291V19.8711H16.6802C16.4868 19.8711 16.2934 19.8711 16.1 19.9678C16.0033 20.0162 15.9549 20.1129 15.9549 20.2096C15.9549 20.3063 15.9549 20.403 16.0033 20.4513L17.1636 23.4973L19.6294 29.6375L22.0468 23.7874C22.8204 21.8051 23.2555 20.6931 23.2555 20.3546C23.2555 20.0645 23.1105 19.9678 22.772 19.9195L22.3853 19.8711L21.6117 19.7745V19.1943C22.3853 19.2426 23.0621 19.2426 23.594 19.2426C24.1258 19.2426 24.8027 19.2426 25.6246 19.1943V19.7745H25.2862C25.0444 19.7745 24.851 19.8228 24.6576 19.9678C24.3675 20.403 24.1258 20.8865 23.9808 21.37L20.9348 28.6705C20.4513 29.7342 20.0645 30.8462 19.7261 31.9582L18.6624 32.0549Z" fill="white"/>
<path d="M29.1057 31.5231H29.6859C30.2661 31.5231 30.6045 31.3781 30.7012 31.1364C30.7979 30.8946 30.8463 29.5892 30.8463 27.2685V24.2225C30.8463 21.8535 30.7979 20.4997 30.7012 20.258C30.6045 20.0162 30.3144 19.8712 29.8309 19.8712H29.1057V19.291C30.121 19.3394 31.088 19.3394 32.055 19.3394C32.8769 19.3394 33.6021 19.3394 34.279 19.291V19.8712H33.6021C33.312 19.8228 33.0219 19.8712 32.7802 20.0162C32.6351 20.258 32.5868 20.4997 32.5868 20.7898C32.5384 21.4183 32.5384 22.5787 32.5384 24.2225V27.3168C32.5384 29.6376 32.5868 30.943 32.6835 31.1364C32.7802 31.3781 33.1186 31.4748 33.6505 31.4748H34.2306V32.055C33.5054 32.0066 32.6835 32.0066 31.8132 32.0066C30.7979 32.0066 29.8793 32.0066 29.0574 32.055L29.1057 31.5231Z" fill="white"/>
<path d="M41.5795 20.3063C41.5311 21.1766 41.5311 22.0952 41.5311 23.0622V28.1871C41.5311 29.976 41.5795 30.9913 41.6762 31.1847C41.7729 31.3781 42.1597 31.5231 42.7399 31.5231H43.3684V32.1033C42.3047 32.055 41.4345 32.055 40.8543 32.055C40.3224 32.055 39.3555 32.055 37.9534 32.1033V31.5231H38.7753C39.017 31.5715 39.3071 31.5231 39.5005 31.3781C39.6456 31.2331 39.6939 31.0397 39.6939 30.7979C39.7423 30.5078 39.7423 29.6376 39.7906 28.1871V23.4006L39.7422 21.5634C39.7422 20.7898 39.6456 20.3063 39.5005 20.1613C39.3555 19.9679 38.9687 19.9195 38.3885 19.9195H37.9534V19.3394C38.7269 19.3877 39.6456 19.3877 40.8059 19.3877C41.4828 19.3877 42.2564 19.3877 43.0783 19.3394C43.6101 19.291 44.0453 19.291 44.3353 19.291C45.7858 19.291 46.8495 19.5328 47.5263 20.0646C48.1549 20.5964 48.5417 21.37 48.4933 22.1919C48.4933 22.8688 48.2999 23.4973 47.9131 24.0775C47.5263 24.706 46.9462 25.1895 46.3176 25.5279C45.6408 25.9147 44.8672 26.0598 44.0936 26.0598C43.6585 26.0598 43.175 26.0114 42.7399 25.8664L42.5465 25.1895C42.9816 25.2862 43.4167 25.3829 43.8519 25.3829C44.5771 25.4313 45.3023 25.1412 45.8341 24.6093C46.366 24.0292 46.6077 23.3039 46.5594 22.5304C46.6077 21.8051 46.3176 21.0799 45.7858 20.5481C45.1089 20.0162 44.287 19.7745 43.4651 19.8229C42.8849 19.9679 42.208 20.0646 41.5795 20.3063Z" fill="white"/>
<path d="M51.5876 19.8712V19.291C52.8447 19.3394 53.715 19.3394 54.2952 19.3394C54.8753 19.3394 55.7456 19.3394 56.906 19.291V19.8712H56.2291C55.6489 19.8712 55.3105 19.9679 55.2138 20.2096C55.1171 20.403 55.0204 21.37 55.0204 23.1105V26.5916C54.972 27.4619 55.0687 28.3805 55.2138 29.2508C55.4072 29.7826 55.794 30.2661 56.3258 30.5078C57.051 30.8946 57.8729 31.0397 58.6949 31.0397C59.5651 31.088 60.4837 30.8946 61.2573 30.5078C61.7408 30.2661 62.1276 29.831 62.321 29.3475C62.6111 28.3805 62.7078 27.3168 62.6594 26.3015V22.9655C62.6594 21.4183 62.6111 20.5481 62.466 20.3063C62.321 20.0646 61.9342 19.9679 61.3057 19.9679H60.8222V19.3877C62.0792 19.4361 62.8528 19.4361 63.1913 19.4361C63.7231 19.4361 64.4 19.4361 65.2219 19.3877V19.9679H64.5934C64.1099 19.9679 63.8198 20.1129 63.6747 20.3547C63.5297 20.5964 63.4813 21.4667 63.4813 23.0138V26.3499C63.5297 27.3652 63.433 28.4289 63.2396 29.3958C63.0946 29.9276 62.8045 30.4111 62.4177 30.8463C61.9826 31.2814 61.4024 31.6682 60.7738 31.8616C60.0003 32.1033 59.1783 32.2484 58.4048 32.2484C57.5828 32.2484 56.7126 32.1517 55.939 31.9099C55.3588 31.7649 54.827 31.4748 54.3435 31.088C54.0051 30.7496 53.715 30.3628 53.5699 29.8793C53.3765 29.1057 53.2798 28.2838 53.3282 27.4619V25.7697V23.0622C53.3282 21.4183 53.2798 20.4514 53.1832 20.258C53.0865 20.0646 52.748 19.9679 52.2162 19.9679L51.5876 19.8712Z" fill="white"/>
<path d="M75.3752 25.6246C75.9553 26.4465 76.6806 27.4134 77.5508 28.5738L79.2914 30.7978C79.4848 31.0396 79.6782 31.2813 79.9199 31.4747C80.0166 31.5231 80.1133 31.5714 80.2583 31.5714H80.5001V32.1516C80.0166 32.1032 79.5815 32.1032 79.1947 32.1032C78.8562 32.1032 78.4695 32.1032 78.131 32.1516L74.94 27.8486C74.3598 27.075 73.683 26.3014 73.0061 25.5279L73.1028 25.2378C73.4412 25.2861 73.7313 25.2861 73.8764 25.2861C74.7466 25.3345 75.5685 25.0444 76.2454 24.5125C76.8256 23.9807 77.1157 23.2071 77.1157 22.4336C77.1641 21.7567 76.874 21.0798 76.3905 20.6447C75.8103 20.1612 75.0367 19.9195 74.3115 20.0162C73.683 20.0162 73.0061 20.1128 72.3776 20.3546C72.2809 21.3216 72.2809 22.3369 72.2809 23.4005V27.7519C72.2809 29.8792 72.3292 31.0396 72.4259 31.2813C72.5226 31.5231 72.861 31.6198 73.4412 31.6198H74.1665V32.1999C73.1511 32.1516 72.3292 32.1516 71.7007 32.1516C71.1689 32.1516 70.2502 32.1516 68.8965 32.1999V31.6198H69.5734C70.1052 31.6198 70.3953 31.5231 70.492 31.2813C70.5887 31.0396 70.637 29.8792 70.637 27.7519V23.4489C70.637 21.6116 70.5887 20.548 70.492 20.3546C70.3953 20.1128 70.0085 20.0162 69.4283 20.0162H68.9448V19.436C70.0568 19.4843 70.9271 19.4843 71.5073 19.4843C71.8941 19.4843 72.4743 19.4843 73.2478 19.436C74.1181 19.3876 74.7466 19.3876 75.1334 19.3876C75.9553 19.3393 76.7289 19.4843 77.5025 19.7261C78.5178 20.1128 79.1947 21.0798 79.1463 22.1435C79.1463 22.9654 78.8079 23.7873 78.2277 24.3675C77.3091 24.996 76.3905 25.4795 75.3752 25.6246Z" fill="white"/>
<path d="M41.3863 2.17568C40.8544 1.45045 39.549 0 38.9205 0C38.6787 0 38.4854 0.193394 38.4854 0.435136C38.4854 0.580181 38.5337 0.773575 38.6304 0.870272C40.3226 3.19099 41.1929 5.9952 41.1445 8.84775C41.1929 11.5069 40.4193 14.1177 39.0172 16.3417C38.9205 16.4868 38.8238 16.6802 38.7271 16.8252C38.6304 16.9703 38.582 17.1153 38.582 17.3087C38.582 17.5505 38.7271 17.7438 38.9688 17.7438C38.9688 17.7438 38.9688 17.7438 39.0172 17.7438C39.7424 17.7438 41.1929 15.955 41.5313 15.4715C42.7883 13.5375 43.4652 11.2652 43.3685 8.94444C43.4169 6.57538 42.74 4.15796 41.3863 2.17568Z" fill="#80D63A"/>
<path d="M32.7319 9.66961C32.8286 9.66961 32.9736 9.76631 32.9736 9.863C32.9736 9.9597 32.8769 10.1047 32.7803 10.1047C32.7803 10.1047 32.7802 10.1047 32.7319 10.1047H26.4466C26.3016 10.1047 26.1565 10.2498 26.1565 10.3948C26.1565 10.5399 26.3016 10.6849 26.4466 10.6849H32.3935C32.5385 10.6849 32.6836 10.7816 32.6836 10.8783C32.6836 10.975 32.5869 11.0717 32.3935 11.0717H26.8818C26.7367 11.0717 26.5917 11.2168 26.5917 11.3618C26.5917 11.5068 26.7367 11.6519 26.8818 11.6519H31.9583C32.055 11.6519 32.2001 11.7486 32.2001 11.8453C32.2001 11.942 32.1034 12.087 32.0067 12.087C32.0067 12.087 32.0067 12.087 31.9583 12.087H27.607C27.4619 12.087 27.3169 12.2321 27.3169 12.3771C27.3169 12.5222 27.4619 12.6672 27.607 12.6672H31.1848C31.2815 12.6672 31.4265 12.7639 31.4265 12.8606C31.4265 12.9573 31.3298 13.1023 31.2331 13.1023C31.2331 13.1023 31.2331 13.1023 31.1848 13.1023H28.719C28.5739 13.1023 28.4289 13.2474 28.4289 13.3924C28.4289 13.5375 28.5739 13.6825 28.719 13.6825H29.7343C29.831 13.6825 29.9761 13.7792 29.9761 13.8759C29.9761 13.9726 29.8794 14.1177 29.7827 14.1177C29.7827 14.1177 29.7827 14.1177 29.7343 14.1177L29.686 14.166L29.7343 14.2144C32.5869 15.3747 35.8262 13.9726 36.9866 11.1201C38.1469 8.26751 36.7448 5.02817 33.8923 3.86781C32.5869 3.33598 31.0881 3.33598 29.7343 3.86781L29.686 3.91615L29.7343 3.96451C29.831 3.96451 29.9761 4.0612 29.9761 4.1579C29.9761 4.25459 29.8794 4.39964 29.7827 4.39964C29.7827 4.39964 29.7827 4.39964 29.7343 4.39964H28.719C28.5739 4.39964 28.4289 4.54469 28.4289 4.68973C28.4289 4.83478 28.5739 4.97982 28.719 4.97982H31.1364C31.2331 4.97982 31.3782 5.07652 31.3782 5.17321C31.3782 5.26991 31.2815 5.41496 31.1848 5.41496C31.1848 5.41496 31.1848 5.41496 31.1364 5.41496H27.5586C27.4136 5.41496 27.2685 5.56 27.2685 5.70505C27.2685 5.85009 27.4136 5.99514 27.5586 5.99514H31.91C32.0067 5.99514 32.1517 6.09183 32.1517 6.18853C32.1517 6.28523 32.055 6.43027 31.9583 6.43027C31.9583 6.43027 31.9583 6.43027 31.91 6.43027H26.8334C26.6884 6.43027 26.5433 6.57532 26.5433 6.72036C26.5433 6.86541 26.6884 7.01045 26.8334 7.01045H32.3935C32.4902 7.01045 32.6352 7.10715 32.6352 7.20384C32.6352 7.30054 32.5385 7.44559 32.4418 7.44559C32.4418 7.44559 32.4418 7.44559 32.3935 7.44559H26.3983C26.2532 7.44559 26.1082 7.59063 26.1082 7.73567C26.1082 7.88072 26.2532 8.02576 26.3983 8.02576H32.6836C32.7803 8.02576 32.9253 8.12246 32.9253 8.21916C32.9253 8.31586 32.8286 8.4609 32.7319 8.4609C32.7319 8.4609 32.7319 8.4609 32.6836 8.4609H26.2049C26.0598 8.4609 25.9148 8.60594 25.9148 8.75099C25.9148 8.89603 26.0598 9.04108 26.2049 9.04108H32.8286C32.9253 9.04108 33.0703 9.13778 33.0703 9.23447C33.0703 9.33117 32.9737 9.47621 32.877 9.47621C32.877 9.47621 32.877 9.47621 32.8286 9.47621H26.2049C26.0598 9.47621 25.9148 9.62126 25.9148 9.76631C25.9148 9.91135 26.0598 10.0564 26.2049 10.0564L32.7319 9.66961Z" fill="#B9170F"/>
<path d="M12.9573 39.0172H15.133C15.7131 39.0172 16.1483 39.1623 16.4384 39.404C16.7768 39.6941 16.9218 40.0325 16.9218 40.516C16.9218 40.9995 16.7768 41.3863 16.4384 41.628C16.0999 41.9181 15.6648 42.0632 15.133 42.0632H13.5858V44.4806H12.9573V39.0172ZM15.0846 41.5797C15.4714 41.5797 15.8098 41.483 16.0032 41.3379C16.1966 41.1445 16.2933 40.9028 16.2933 40.5644C16.2933 40.2259 16.1966 39.9842 16.0032 39.7908C15.8098 39.5974 15.4714 39.549 15.0846 39.549H13.5858V41.5797H15.0846Z" fill="#80D63A"/>
<path d="M17.8889 44.5289V38.8238H18.5174V44.5289H17.8889Z" fill="#80D63A"/>
<path d="M23.0138 40.661V44.5289H22.3852V43.852C22.2402 44.0938 22.0952 44.2871 21.8534 44.3838C21.6117 44.5289 21.3699 44.5772 21.0798 44.5772C20.6447 44.5772 20.2579 44.4322 20.0162 44.1904C19.7744 43.9487 19.6777 43.5619 19.6777 43.0301V40.6127H20.3063V43.0301C20.3063 43.3685 20.3546 43.6586 20.4997 43.8037C20.6447 43.9487 20.8864 44.0454 21.1765 44.0454C21.515 44.0454 21.8051 43.9487 21.9985 43.707C22.1919 43.4652 22.3369 43.1751 22.3369 42.8367V40.661H23.0138V40.661Z" fill="#80D63A"/>
<path d="M23.9807 44.0938L24.1741 43.6104C24.3675 43.7554 24.6092 43.9004 24.8026 43.9488C24.996 43.9971 25.2378 44.0455 25.5279 44.0455C25.8179 44.0455 26.0597 43.9971 26.2047 43.9004C26.3498 43.8037 26.4465 43.6587 26.4465 43.4653C26.4465 43.3203 26.3981 43.1752 26.3014 43.0785C26.2047 42.9818 26.0113 42.9335 25.7696 42.8851L25.0927 42.7401C24.7543 42.6917 24.5125 42.5467 24.3191 42.3533C24.1257 42.1599 24.029 41.9665 24.029 41.6764C24.029 41.338 24.1741 41.0479 24.4158 40.8545C24.7059 40.6611 25.0444 40.5161 25.4795 40.5161C25.7696 40.5161 26.0113 40.5644 26.2531 40.6611C26.4948 40.7578 26.6882 40.8545 26.8816 41.0479L26.6882 41.483C26.3014 41.1929 25.9146 41.0479 25.5279 41.0479C25.2378 41.0479 25.0444 41.0962 24.8993 41.1929C24.7543 41.2896 24.6576 41.4347 24.6576 41.6281C24.6576 41.7731 24.7059 41.9182 24.8026 42.0149C24.8993 42.1116 25.0444 42.1599 25.2861 42.2082L25.963 42.3533C26.3014 42.45 26.5915 42.5467 26.7849 42.7401C26.9783 42.9335 27.0267 43.1269 27.0267 43.417C27.0267 43.7554 26.8816 43.9971 26.6399 44.2389C26.3981 44.4806 26.0113 44.529 25.5279 44.529C24.851 44.5773 24.3675 44.4323 23.9807 44.0938Z" fill="#80D63A"/>
<path d="M32.9251 40.8061C33.1668 40.9995 33.4085 41.1929 33.5536 41.5314C33.6986 41.8215 33.747 42.2082 33.747 42.595C33.747 42.9818 33.6986 43.3686 33.5536 43.6587C33.4085 43.9488 33.2152 44.1905 32.9251 44.3356C32.6833 44.4806 32.3449 44.5773 32.0064 44.5773C31.7164 44.5773 31.4263 44.529 31.2329 44.3839C30.9911 44.2389 30.8461 44.0455 30.701 43.8037V46.1728H30.0725V41.7248C30.0725 41.338 30.0725 40.9512 30.0242 40.6128H30.6043L30.6527 41.3863C30.7494 41.0962 30.9428 40.9028 31.1845 40.7578C31.4263 40.6127 31.7164 40.5161 32.0064 40.5161C32.3449 40.5644 32.635 40.6128 32.9251 40.8061ZM32.78 43.6587C32.9734 43.417 33.0701 43.0302 33.0701 42.5467C33.0701 42.0632 32.9734 41.7248 32.7317 41.4347C32.5383 41.1929 32.2482 41.0479 31.8614 41.0479C31.4746 41.0479 31.1845 41.1929 30.9911 41.4347C30.7977 41.6764 30.701 42.0632 30.701 42.5467C30.701 43.0302 30.7977 43.417 30.9911 43.6587C31.1845 43.9004 31.4746 44.0455 31.8614 44.0455C32.2482 44.0455 32.5383 43.9488 32.78 43.6587Z" fill="#80D63A"/>
<path d="M37.9535 40.661V44.5289H37.3249V43.852C37.1799 44.0938 37.0348 44.2871 36.7931 44.3838C36.5514 44.5289 36.3096 44.5772 36.0195 44.5772C35.5844 44.5772 35.1976 44.4322 34.9559 44.1904C34.7141 43.9487 34.6174 43.5619 34.6174 43.0301V40.6127H35.246V43.0301C35.246 43.3685 35.2943 43.6586 35.4393 43.8037C35.5844 43.9487 35.8261 44.0454 36.1162 44.0454C36.4547 44.0454 36.7448 43.9487 36.9381 43.707C37.1315 43.4652 37.2766 43.1751 37.2766 42.8367V40.661H37.9535V40.661Z" fill="#80D63A"/>
<path d="M41.3378 40.6126V41.1928C41.2411 41.1444 41.096 41.1444 40.951 41.1444C40.5642 41.1444 40.2741 41.2411 40.1291 41.4829C39.9357 41.7246 39.839 42.0147 39.839 42.3532V44.5772H39.2105V41.773C39.2105 41.3862 39.2105 40.9994 39.1621 40.661H39.7423L39.7906 41.3862C39.8873 41.1444 40.0324 40.9027 40.2741 40.806C40.4675 40.661 40.7576 40.6126 40.9993 40.6126C41.096 40.5643 41.2411 40.5643 41.3378 40.6126Z" fill="#80D63A"/>
<path d="M45.1574 42.5467H42.3048C42.3048 43.0302 42.4015 43.4169 42.6432 43.6587C42.885 43.9004 43.1751 44.0455 43.6102 44.0455C44.0453 44.0455 44.4805 43.9004 44.8673 43.6103L45.0607 44.0455C44.8673 44.1905 44.6739 44.3356 44.3838 44.4323C44.142 44.529 43.852 44.5773 43.5619 44.5773C42.9333 44.5773 42.4982 44.3839 42.1114 44.0455C41.7246 43.707 41.5796 43.1752 41.5796 42.595C41.5796 42.2082 41.6763 41.8698 41.8213 41.5314C41.9664 41.2413 42.2081 40.9995 42.4499 40.8061C42.7399 40.6127 43.03 40.5644 43.4168 40.5644C43.9487 40.5644 44.3354 40.7094 44.6255 41.0479C44.9156 41.3863 45.0607 41.8698 45.0607 42.45V42.5467H45.1574ZM42.6916 41.338C42.4982 41.5314 42.3532 41.8215 42.3048 42.1599H44.5772C44.5288 41.7731 44.4321 41.5314 44.2387 41.338C44.0454 41.1446 43.8036 41.0479 43.4652 41.0479C43.1751 41.0479 42.885 41.1446 42.6916 41.338Z" fill="#80D63A"/>
<path d="M48.1067 44.5289V38.8238H48.7352V44.5289H48.1067Z" fill="#80D63A"/>
<path d="M53.3766 40.6611V44.529H52.7481V43.8037C52.6514 44.0455 52.458 44.2389 52.2163 44.3839C51.9745 44.529 51.7328 44.5773 51.3943 44.5773C51.0559 44.5773 50.7658 44.4806 50.4757 44.3356C50.234 44.1905 49.9922 43.9488 49.8955 43.6587C49.7505 43.3686 49.7021 42.9818 49.7021 42.595C49.7021 42.2082 49.7505 41.8214 49.8955 41.5314C50.0406 41.2413 50.234 40.9995 50.5241 40.8061C50.7658 40.6127 51.1043 40.5644 51.4427 40.5644C51.7328 40.5644 52.0229 40.6127 52.2163 40.7578C52.458 40.9028 52.6031 41.0962 52.7481 41.338V40.6611H53.3766ZM52.458 43.6587C52.6514 43.4169 52.7481 43.0302 52.7481 42.5467C52.7481 42.0632 52.6514 41.6764 52.458 41.4347C52.2646 41.1929 51.9745 41.0479 51.5877 41.0479C51.2009 41.0479 50.9109 41.1929 50.7175 41.4347C50.5241 41.6764 50.379 42.0632 50.379 42.5467C50.379 43.0302 50.4757 43.3686 50.7175 43.6587C50.9592 43.9488 51.2493 44.0455 51.6361 44.0455C51.9745 44.0455 52.2646 43.9488 52.458 43.6587Z" fill="#80D63A"/>
<path d="M59.42 40.6611H60.0485L58.3563 44.529H57.7762L56.1323 40.6611H56.8092L58.1146 43.8521L59.42 40.6611Z" fill="#80D63A"/>
<path d="M60.6772 39.0172H61.4508V39.7424H60.6772V39.0172ZM60.7256 44.5289V40.6611H61.3541V44.5289H60.7256Z" fill="#80D63A"/>
<path d="M65.8022 42.5467H62.9496C62.9496 43.0302 63.0463 43.4169 63.288 43.6587C63.5298 43.9004 63.8199 44.0455 64.255 44.0455C64.6901 44.0455 65.1253 43.9004 65.5121 43.6103L65.7055 44.0455C65.5121 44.1905 65.3187 44.3356 65.0286 44.4323C64.7868 44.529 64.4967 44.5773 64.2067 44.5773C63.5781 44.5773 63.143 44.3839 62.7562 44.0455C62.3694 43.707 62.2244 43.1752 62.2244 42.595C62.2244 42.2082 62.3211 41.8698 62.4661 41.5314C62.6112 41.2413 62.8529 40.9995 63.0946 40.8061C63.3847 40.6127 63.6748 40.5644 64.0616 40.5644C64.5934 40.5644 64.9802 40.7094 65.2703 41.0479C65.5604 41.3863 65.7055 41.8698 65.7055 42.45V42.5467H65.8022ZM63.3847 41.338C63.1913 41.5314 63.0463 41.8215 62.9979 42.1599H65.2703C65.222 41.7731 65.1253 41.5314 64.9319 41.338C64.7385 41.1446 64.4967 41.0479 64.1583 41.0479C63.8682 41.0479 63.5781 41.1446 63.3847 41.338Z" fill="#80D63A"/>
</svg>
