<svg width="479" height="296" viewBox="0 0 479 296" fill="none" xmlns="http://www.w3.org/2000/svg">
<path fill-rule="evenodd" clip-rule="evenodd" d="M75.3587 0.436176C80.0129 -5.06601 137.858 42.4345 139.359 89.4362C139.741 89.5888 140.24 89.8467 140.867 90.1705C144.339 91.9642 151.729 95.7815 164.859 94.9362C169.804 94.6178 167.324 88.8765 164.943 83.3671C163.636 80.3412 162.359 77.3853 162.359 75.4362C162.629 75.6389 163.193 76.1985 163.982 76.9826C169.028 81.9941 183.306 96.1756 189.359 84.9362C193.812 93.8441 193.571 98.0547 193.46 99.9844C193.409 100.871 193.386 101.276 193.858 101.434C196.625 101.91 198.691 100.835 201.115 99.5725C201.518 99.3627 201.931 99.1479 202.358 98.9341C210.358 123.934 170.858 159.432 141.858 157.434C162.358 140.434 169.894 118.934 158.358 110.434C106.858 86.9341 62.3585 145.934 90.8587 225.436C97.3584 253.434 100.858 280.934 92.8584 282.934C88.7296 283.966 80.9175 279.662 71.1871 274.302C58.5288 267.328 42.624 258.566 27.3587 257.436C34.7904 246.464 49.1833 253.778 56.9974 257.749C60.2233 259.389 62.328 260.458 62.3587 259.436C62.3586 255.239 58.3883 253.008 53.9534 250.516C49.9332 248.257 45.5313 245.783 43.3587 241.436C42.3244 239.367 48.3073 240.638 54.0858 241.865C59.4828 243.012 64.7015 244.12 63.8585 242.434C62.4859 239.689 60.037 237.903 57.5582 236.095C54.6189 233.951 51.6375 231.776 50.3587 227.936C50.0774 227.092 55.9619 228.145 61.5226 229.14C65.851 229.915 69.9832 230.654 70.8587 230.436C70.2564 223.058 70.4248 213.337 70.5995 203.256C71.0049 179.86 71.4438 154.531 62.3585 152.07C55.9177 150.326 50.7611 151.41 45.7857 152.456C41.8211 153.29 37.9716 154.099 33.679 153.434C20.37 149.301 15.9917 137.317 12.0454 126.515C10.2629 121.636 8.56851 116.998 6.17907 113.434C5.46373 112.367 4.34907 111.156 3.2623 109.976C0.775398 107.274 -1.56545 104.731 1.35905 104.434C30.8584 101.434 69.8579 143.934 70.8587 148.936C72.8594 148.434 80.1125 141.998 81.3587 135.436C81.8688 132.751 82.9298 125.434 71.3584 119.434C31.0964 98.5575 31.3539 89.0461 32.3411 52.5856C32.347 52.3701 32.3528 52.1536 32.3587 51.9362C32.407 50.1488 30.7874 48.0558 28.904 45.6219C26.5702 42.6058 23.8313 39.0663 23.3587 34.9362C23.1493 33.1057 23.2121 31.8918 23.2934 30.3184C23.3155 29.8907 23.339 29.4365 23.3587 28.9362C37.3584 26.4341 85.3584 80.4341 101.359 107.936C102.529 106.809 103.748 105.829 104.917 104.89C108.357 102.127 111.359 99.7168 111.359 94.9362C111.359 93.0521 108.6 91.6412 105.258 89.9316C101.5 88.0097 97.0045 85.7102 94.8587 81.9362C85.2715 65.0749 85.9574 51.055 86.5113 39.7334C86.7951 33.9314 87.0443 28.8381 85.8585 24.4341C84.7952 20.4852 82.0136 16.2777 79.4753 12.4382C76.0454 7.24995 73.0598 2.73378 75.3587 0.436176ZM172.358 128.436C171.858 131.436 169.858 134.936 167.358 137.436C173.858 141.436 185.858 131.434 179.358 127.934C177.358 132.934 174.358 133.936 174.358 133.936C174.358 133.936 174.358 129.436 172.358 128.436Z" fill="url(#paint0_linear_289_763)"/>
<path d="M119.53 256.09H139.296C139.41 256.104 139.468 256.161 139.468 256.262V259.27C139.468 259.384 139.41 259.441 139.296 259.441H122.968V267.691H138.265C138.379 267.706 138.437 267.763 138.437 267.863V270.871C138.437 270.986 138.379 271.043 138.265 271.043H122.968V280.582H139.812C139.926 280.596 139.983 280.654 139.983 280.754V283.762C139.983 283.876 139.926 283.934 139.812 283.934H119.53C119.416 283.934 119.358 283.876 119.358 283.762V256.262C119.373 256.147 119.43 256.09 119.53 256.09ZM146.92 256.09H168.748C168.863 256.104 168.92 256.161 168.92 256.262V259.27C168.92 259.384 168.863 259.441 168.748 259.441H159.639V283.762C159.639 283.876 159.582 283.934 159.467 283.934H156.202C156.087 283.934 156.03 283.876 156.03 283.762V259.441H146.92C146.806 259.441 146.748 259.384 146.748 259.27V256.262C146.763 256.147 146.82 256.09 146.92 256.09ZM186.704 255.918H199.079C200.053 255.932 201.142 256.104 202.345 256.434C203.261 256.548 204.407 257.178 205.782 258.324C206.871 259.828 207.472 261.031 207.587 261.934C207.644 261.934 207.73 262.507 207.845 263.652V264.426C207.845 265.457 207.53 266.746 206.899 268.293L205.524 270.184C204.493 271.186 203.118 271.874 201.399 272.246C200.096 272.475 199.179 272.59 198.649 272.59H190.399V283.676C190.399 283.762 190.314 283.848 190.142 283.934H186.704C186.618 283.934 186.532 283.848 186.446 283.676V256.176C186.446 256.09 186.532 256.004 186.704 255.918ZM190.399 259.441V269.066H198.134C199.896 268.895 201.156 268.579 201.915 268.121C203.118 267.161 203.72 266.13 203.72 265.027C203.834 265.027 203.892 264.741 203.892 264.168C203.892 263.452 203.634 262.535 203.118 261.418C202.488 260.573 201.772 260.029 200.97 259.785C200.97 259.742 200.282 259.628 198.907 259.441H190.399ZM216.181 255.918H230.274C232.094 256.09 233.497 256.405 234.485 256.863C235.86 257.565 236.892 258.711 237.579 260.301C237.923 260.974 238.181 262.062 238.353 263.566C238.209 265.07 237.952 266.188 237.579 266.918C237.149 267.792 236.462 268.651 235.517 269.496C235.416 269.496 235.216 269.611 234.915 269.84C233.941 270.456 232.566 270.943 230.79 271.301V271.387C231.864 271.63 233.44 273.12 235.517 275.855C236.104 276.901 237.737 279.479 240.415 283.59V283.676C240.415 283.762 240.329 283.848 240.157 283.934H235.86C235.058 282.845 234.027 281.27 232.767 279.207C231.12 276.586 229.773 274.667 228.728 273.449C227.453 272.189 226.25 271.559 225.118 271.559H219.79V283.676C219.79 283.762 219.704 283.848 219.532 283.934H216.181C216.066 283.934 216.009 283.876 216.009 283.762V256.09C216.023 255.975 216.08 255.918 216.181 255.918ZM219.79 259.441V268.035H228.47C231.521 267.863 233.325 266.975 233.884 265.371C233.984 265.371 234.127 264.913 234.314 263.996V263.137C234.142 262.292 233.798 261.576 233.282 260.988C232.308 260.072 231.22 259.613 230.017 259.613C230.017 259.513 229.73 259.456 229.157 259.441H219.79ZM258.878 254.887H261.37C262.817 255.059 264.192 255.402 265.495 255.918C266.426 256.247 267.715 257.107 269.362 258.496C270.766 260.1 271.654 261.418 272.026 262.449C272.599 263.652 273.058 265.428 273.401 267.777V270.527C273.229 272.59 272.914 274.165 272.456 275.254C272.17 276.285 271.539 277.517 270.565 278.949C269.047 281.055 266.813 282.544 263.862 283.418C263.361 283.59 262.502 283.762 261.284 283.934H258.792C257.159 283.805 255.383 283.26 253.464 282.301C252.733 281.928 251.731 281.155 250.456 279.98C248.651 277.846 247.506 275.526 247.019 273.02C246.789 271.63 246.675 270.599 246.675 269.926V269.324C246.675 267.233 247.133 264.913 248.05 262.363C248.637 261.275 249.21 260.358 249.769 259.613C251.129 257.995 252.533 256.849 253.979 256.176C254.996 255.66 256.371 255.259 258.104 254.973C258.319 254.915 258.577 254.887 258.878 254.887ZM250.714 270.871C250.886 271.945 250.972 272.576 250.972 272.762V273.02C251.315 274.108 251.688 275.053 252.089 275.855C253.364 278.018 255.111 279.393 257.331 279.98C257.517 280.081 258.176 280.224 259.308 280.41H260.769C262.158 280.238 263.447 279.866 264.636 279.293C265.767 278.648 266.827 277.617 267.815 276.199C268.718 274.466 269.233 272.747 269.362 271.043V267.863C269.019 265.414 268.446 263.609 267.644 262.449C266.584 260.716 264.979 259.513 262.831 258.84C262.502 258.725 261.843 258.582 260.854 258.41H259.308C257.302 258.754 255.985 259.184 255.354 259.699C254.581 259.971 253.607 260.831 252.433 262.277C251.616 263.48 251.043 265.486 250.714 268.293V270.871ZM280.202 256.09H302.031C302.145 256.104 302.202 256.161 302.202 256.262V259.27C302.202 259.384 302.145 259.441 302.031 259.441H292.921V283.762C292.921 283.876 292.864 283.934 292.749 283.934H289.484C289.369 283.934 289.312 283.876 289.312 283.762V259.441H280.202C280.088 259.441 280.031 259.384 280.031 259.27V256.262C280.045 256.147 280.102 256.09 280.202 256.09ZM309.646 256.09H329.412C329.527 256.104 329.584 256.161 329.584 256.262V259.27C329.584 259.384 329.527 259.441 329.412 259.441H313.084V267.691H328.381C328.495 267.706 328.553 267.763 328.553 267.863V270.871C328.553 270.986 328.495 271.043 328.381 271.043H313.084V280.582H329.928C330.042 280.596 330.099 280.654 330.099 280.754V283.762C330.099 283.876 330.042 283.934 329.928 283.934H309.646C309.532 283.934 309.474 283.876 309.474 283.762V256.262C309.489 256.147 309.546 256.09 309.646 256.09ZM349.336 254.887H351.57C353.174 254.973 354.864 255.488 356.64 256.434C358.717 257.694 360.207 259.556 361.109 262.02C361.338 262.435 361.453 262.836 361.453 263.223C360.894 263.452 359.806 263.738 358.187 264.082H357.844C357.7 264.01 357.414 263.38 356.984 262.191C356.368 261.103 355.652 260.272 354.836 259.699C354.177 259.155 353.117 258.754 351.656 258.496C351.441 258.439 351.212 258.41 350.969 258.41H349.765C348.018 258.553 346.443 259.069 345.039 259.957C344.137 260.673 343.449 261.418 342.976 262.191C342.489 262.865 342.031 264.182 341.601 266.145C341.372 267.648 341.258 268.651 341.258 269.152V269.41C341.429 271.931 341.745 273.764 342.203 274.91C342.833 276.643 343.693 277.875 344.781 278.605C345.798 279.436 347.144 280.009 348.82 280.324L349.422 280.41H350.625C351.513 280.41 352.659 280.095 354.062 279.465C354.65 279.336 355.538 278.534 356.726 277.059C357.113 276.443 357.629 275.24 358.273 273.449H358.531L361.883 274.309V274.91C360.923 278.247 359.29 280.654 356.984 282.129C355.924 282.874 354.492 283.418 352.687 283.762C352.444 283.876 351.985 283.934 351.312 283.934H348.992C346.543 283.661 344.681 283.117 343.406 282.301C342.131 281.542 341.014 280.453 340.054 279.035C339.195 277.846 338.479 276.214 337.906 274.137C337.62 273.077 337.419 271.616 337.304 269.754V268.465C337.419 266.56 337.706 264.898 338.164 263.48C339.081 261.103 339.969 259.613 340.828 259.012C341.831 257.766 342.89 256.906 344.008 256.434C345.841 255.517 347.617 255.001 349.336 254.887ZM368.434 256.09H390.263C390.377 256.104 390.434 256.161 390.434 256.262V259.27C390.434 259.384 390.377 259.441 390.263 259.441H381.153V283.762C381.153 283.876 381.096 283.934 380.981 283.934H377.716C377.601 283.934 377.544 283.876 377.544 283.762V259.441H368.434C368.32 259.441 368.263 259.384 368.263 259.27V256.262C368.277 256.147 368.334 256.09 368.434 256.09ZM397.438 256.09H400.962C401.076 256.104 401.134 256.161 401.134 256.262V283.762C401.134 283.876 401.076 283.934 400.962 283.934H397.438C397.324 283.934 397.267 283.876 397.267 283.762V256.262C397.281 256.147 397.338 256.09 397.438 256.09ZM421.626 254.887H424.119C425.565 255.059 426.94 255.402 428.244 255.918C429.175 256.247 430.464 257.107 432.111 258.496C433.514 260.1 434.402 261.418 434.775 262.449C435.348 263.652 435.806 265.428 436.15 267.777V270.527C435.978 272.59 435.663 274.165 435.204 275.254C434.918 276.285 434.288 277.517 433.314 278.949C431.796 281.055 429.561 282.544 426.611 283.418C426.109 283.59 425.25 283.762 424.033 283.934H421.54C419.908 283.805 418.132 283.26 416.212 282.301C415.482 281.928 414.479 281.155 413.204 279.98C411.4 277.846 410.254 275.526 409.767 273.02C409.538 271.63 409.423 270.599 409.423 269.926V269.324C409.423 267.233 409.882 264.913 410.798 262.363C411.385 261.275 411.958 260.358 412.517 259.613C413.878 257.995 415.281 256.849 416.728 256.176C417.745 255.66 419.12 255.259 420.853 254.973C421.068 254.915 421.326 254.887 421.626 254.887ZM413.462 270.871C413.634 271.945 413.72 272.576 413.72 272.762V273.02C414.064 274.108 414.436 275.053 414.837 275.855C416.112 278.018 417.859 279.393 420.079 279.98C420.266 280.081 420.925 280.224 422.056 280.41H423.517C424.906 280.238 426.195 279.866 427.384 279.293C428.516 278.648 429.576 277.617 430.564 276.199C431.466 274.466 431.982 272.747 432.111 271.043V267.863C431.767 265.414 431.194 263.609 430.392 262.449C429.332 260.716 427.728 259.513 425.579 258.84C425.25 258.725 424.591 258.582 423.603 258.41H422.056C420.051 258.754 418.733 259.184 418.103 259.699C417.329 259.971 416.356 260.831 415.181 262.277C414.365 263.48 413.792 265.486 413.462 268.293V270.871ZM444.357 255.918H447.966C448.41 256.319 449.384 257.723 450.888 260.129C451.046 260.286 452.936 263.122 456.56 268.637L462.318 277.316H462.404V256.176C462.404 256.09 462.49 256.004 462.662 255.918H465.927C466.013 255.918 466.099 256.004 466.185 256.176V283.676C466.185 283.762 466.099 283.848 465.927 283.934H462.404C462.017 283.633 461.473 282.859 460.771 281.613C452.449 269.167 448.181 262.721 447.966 262.277H447.88V283.676C447.88 283.762 447.794 283.848 447.622 283.934H444.357C444.271 283.934 444.185 283.848 444.099 283.676V256.176C444.099 256.09 444.185 256.004 444.357 255.918Z" fill="black"/>
<path d="M216.53 115.918H220.226C220.44 115.918 220.698 116.491 220.999 117.637C221.114 117.694 221.457 118.668 222.03 120.559C222.116 120.559 222.374 121.246 222.804 122.621C226.871 133.85 228.905 139.694 228.905 140.152H228.991C229.679 137.818 231.541 132.69 234.577 124.77C236.009 120.688 236.812 118.568 236.983 118.41C237.313 117.15 237.628 116.319 237.929 115.918H241.538C241.624 115.918 241.71 116.004 241.796 116.176C241.452 116.921 240.765 118.639 239.733 121.332L233.89 136.199C232.285 140.267 231.397 142.587 231.226 143.16C230.953 143.676 230.782 143.934 230.71 143.934H227.187C227.043 143.934 226.843 143.475 226.585 142.559C226.513 142.559 226.084 141.47 225.296 139.293C223.806 135.641 222.718 132.805 222.03 130.785C221.873 130.599 221.386 129.396 220.569 127.176C219.825 125.371 219.08 123.423 218.335 121.332C218.235 121.332 218.063 120.902 217.819 120.043C217.762 120.043 217.647 119.785 217.476 119.27C217.075 118.152 216.702 117.236 216.358 116.52V116.09C216.373 115.975 216.43 115.918 216.53 115.918ZM247.812 116.09H267.577C267.692 116.104 267.749 116.161 267.749 116.262V119.27C267.749 119.384 267.692 119.441 267.577 119.441H251.249V127.691H266.546C266.66 127.706 266.718 127.763 266.718 127.863V130.871C266.718 130.986 266.66 131.043 266.546 131.043H251.249V140.582H268.093C268.207 140.596 268.265 140.654 268.265 140.754V143.762C268.265 143.876 268.207 143.934 268.093 143.934H247.812C247.697 143.934 247.64 143.876 247.64 143.762V116.262C247.654 116.147 247.711 116.09 247.812 116.09ZM272.562 116.09H294.39C294.504 116.104 294.562 116.161 294.562 116.262V119.27C294.562 119.384 294.504 119.441 294.39 119.441H285.28V143.762C285.28 143.876 285.223 143.934 285.108 143.934H281.843C281.728 143.934 281.671 143.876 281.671 143.762V119.441H272.562C272.447 119.441 272.39 119.384 272.39 119.27V116.262C272.404 116.147 272.461 116.09 272.562 116.09ZM300.465 116.09H320.231C320.346 116.104 320.403 116.161 320.403 116.262V119.27C320.403 119.384 320.346 119.441 320.231 119.441H303.903V127.691H319.2C319.314 127.706 319.372 127.763 319.372 127.863V130.871C319.372 130.986 319.314 131.043 319.2 131.043H303.903V140.582H320.747C320.861 140.596 320.919 140.654 320.919 140.754V143.762C320.919 143.876 320.861 143.934 320.747 143.934H300.465C300.351 143.934 300.294 143.876 300.294 143.762V116.262C300.308 116.147 300.365 116.09 300.465 116.09ZM328.821 115.918H334.149C334.293 115.918 334.665 116.921 335.267 118.926L338.189 127.605L340.767 135.254L341.798 138.52C341.87 138.921 341.955 139.121 342.056 139.121H342.228V138.863L349.446 117.379C349.647 116.777 349.847 116.29 350.048 115.918H355.032C355.118 115.918 355.204 116.004 355.29 116.176V143.676C355.29 143.762 355.204 143.848 355.032 143.934H351.767C351.681 143.934 351.595 143.848 351.509 143.676V120.73H351.423C351.423 120.96 351.337 121.303 351.165 121.762L348.931 128.293C345.952 137.145 344.376 141.728 344.204 142.043C343.975 143.174 343.717 143.805 343.431 143.934H340.337C340.122 143.934 339.864 143.332 339.564 142.129C337.558 136.357 335.524 130.341 333.462 124.082C332.774 122.249 332.431 121.16 332.431 120.816H332.345V143.676C332.345 143.762 332.259 143.848 332.087 143.934H328.821C328.735 143.934 328.649 143.848 328.564 143.676V116.176C328.564 116.09 328.649 116.004 328.821 115.918ZM362.964 116.09H382.73C382.845 116.104 382.902 116.161 382.902 116.262V119.27C382.902 119.384 382.845 119.441 382.73 119.441H366.402V127.691H381.699C381.813 127.706 381.871 127.763 381.871 127.863V130.871C381.871 130.986 381.813 131.043 381.699 131.043H366.402V140.582H383.246C383.36 140.596 383.417 140.654 383.417 140.754V143.762C383.417 143.876 383.36 143.934 383.246 143.934H362.964C362.85 143.934 362.792 143.876 362.792 143.762V116.262C362.807 116.147 362.864 116.09 362.964 116.09ZM390.66 115.918H394.27C394.714 116.319 395.688 117.723 397.192 120.129C397.349 120.286 399.24 123.122 402.863 128.637L408.621 137.316H408.707V116.176C408.707 116.09 408.793 116.004 408.965 115.918H412.231C412.317 115.918 412.402 116.004 412.488 116.176V143.676C412.488 143.762 412.402 143.848 412.231 143.934H408.707C408.32 143.633 407.776 142.859 407.074 141.613C398.753 129.167 394.484 122.721 394.27 122.277H394.184V143.676C394.184 143.762 394.098 143.848 393.926 143.934H390.66C390.574 143.934 390.488 143.848 390.402 143.676V116.176C390.402 116.09 390.488 116.004 390.66 115.918ZM418.901 116.09H440.729C440.844 116.104 440.901 116.161 440.901 116.262V119.27C440.901 119.384 440.844 119.441 440.729 119.441H431.62V143.762C431.62 143.876 431.563 143.934 431.448 143.934H428.182C428.068 143.934 428.01 143.876 428.01 143.762V119.441H418.901C418.786 119.441 418.729 119.384 418.729 119.27V116.262C418.744 116.147 418.801 116.09 418.901 116.09ZM454.718 114.887H457.21C459.788 115.216 461.536 115.732 462.452 116.434C463.34 116.849 464.286 117.737 465.288 119.098C466.033 120.73 466.406 121.934 466.406 122.707V123.051C466.406 123.137 466.32 123.223 466.148 123.309H462.882C462.71 123.309 462.596 122.965 462.538 122.277C461.794 120.444 461.135 119.527 460.562 119.527C460.232 119.126 459.23 118.783 457.554 118.496C457.339 118.439 457.11 118.41 456.867 118.41H455.234C451.624 118.754 449.82 120.129 449.82 122.535C449.82 123.953 450.507 124.927 451.882 125.457C452.842 125.973 455.334 126.66 459.359 127.52C459.745 127.691 460.633 127.978 462.023 128.379L463.484 129.152C465.231 130.126 466.377 131.501 466.921 133.277C467.093 133.793 467.179 134.079 467.179 134.137V136.715C467.021 137.589 466.678 138.505 466.148 139.465C465.374 140.84 464.114 141.957 462.367 142.816C461.178 143.389 459.745 143.762 458.07 143.934H455.577C454.288 143.934 452.598 143.561 450.507 142.816C449.462 142.272 448.545 141.613 447.757 140.84C446.411 139.451 445.523 137.674 445.093 135.512V134.137C445.107 134.022 445.165 133.965 445.265 133.965H448.445C448.659 133.965 448.831 134.509 448.96 135.598C449.146 136.156 449.404 136.729 449.734 137.316C450.292 138.233 451.18 138.949 452.398 139.465C453.2 139.909 454.432 140.224 456.093 140.41H457.382C459.001 140.238 460.232 139.923 461.077 139.465C462.682 138.648 463.484 137.388 463.484 135.684C463.484 134.137 462.682 133.02 461.077 132.332C460.505 131.988 459.215 131.559 457.21 131.043C454.045 130.355 451.667 129.639 450.077 128.895C448.989 128.293 448.273 127.72 447.929 127.176C447.141 126.531 446.626 125.729 446.382 124.77L446.124 123.91V121.59C446.253 120.272 446.969 118.897 448.273 117.465C449.447 116.362 450.908 115.617 452.656 115.23C453.715 115.001 454.403 114.887 454.718 114.887Z" fill="black"/>
<path d="M253.358 112.934L257.358 108.934L261.358 112.934" stroke="black" stroke-width="2" stroke-linecap="square" stroke-linejoin="bevel"/>
<path fill-rule="evenodd" clip-rule="evenodd" d="M86.3584 162.437C86.3584 162.437 105.358 157.936 116.858 155.935C134.858 152.804 144.928 160.934 147.858 173.437C152.358 205.437 116.358 206.434 114.858 206.434L116.858 240.437L103.358 242.937L98.8584 167.937L87.3584 169.437L86.3584 162.437ZM112.358 164.937C112.358 164.937 134.858 159.434 134.858 179.937C134.858 198.437 114.358 198.434 114.358 198.434L112.358 164.937Z" fill="#02529F"/>
<path d="M164.358 158.932C158.612 158.932 149.858 161.432 149.858 161.432C149.858 161.432 149.858 164.434 149.858 166.434C155.358 165.934 156.358 165.934 158.358 167.432L157.358 237.934C157.358 243.434 168.358 239.934 168.358 237.934L168.858 200.934H196.358V232.934C196.358 244.934 208.358 243.434 218.358 236.432C218.083 234.089 216.358 230.934 216.358 230.934C216.358 230.934 209.858 233.434 207.358 230.934V159.434C207.358 156.934 197.358 156.934 197.358 160.434C196.858 163.435 196.358 192.932 196.358 192.932H168.858V164.934C168.858 163.434 168.858 158.932 164.358 158.932Z" fill="#02529F"/>
<path fill-rule="evenodd" clip-rule="evenodd" d="M273.124 178.526C269.893 165.659 262.776 156.433 249.359 156.433C228.884 156.432 220.858 179.433 219.859 199.433C218.828 220.043 228.223 242.433 248.858 242.433C261.039 242.433 268.342 233.339 272.109 221.712C271.87 229.836 271.614 236.959 271.358 241.434C282.526 238.881 286.567 239.586 291.407 240.431C294.152 240.91 297.154 241.434 301.858 241.434C309.858 241.434 313.358 235.434 312.858 220.434C312.792 218.435 306.858 218.434 306.858 220.434C307.21 232.044 302.611 231.771 294.453 231.287C291.018 231.083 286.951 230.841 282.358 231.434L282.858 202.934H299.358C306.858 202.934 305.358 192.934 301.858 194.434C298.858 195.434 282.858 194.934 282.858 194.934L283.358 165.934C283.358 165.934 292.858 165.434 298.358 165.434C301.409 165.434 303.358 168.884 303.358 171.934V178.934C303.358 180.934 309.358 180.934 309.358 178.934C309.358 178.925 309.364 178.813 309.373 178.61C309.455 176.823 309.858 168.046 309.858 162.434C309.858 159.934 307.858 158.433 304.358 158.434C300.054 158.434 296.674 158.559 293.303 158.685C289.947 158.809 286.6 158.934 282.358 158.934C273.358 158.933 264.358 161.434 264.358 161.434L268.358 165.934H273.358C273.358 165.934 273.272 170.972 273.124 178.526ZM266.358 199.432C266.392 187.433 261.358 163.639 248.358 163.933C232.992 164.282 230.358 190.933 230.358 199.432C230.358 207.433 234.358 234.433 248.358 234.433C261.862 234.433 266.32 212.933 266.358 199.432Z" fill="#02529F"/>
<path d="M331.859 158.433C325.859 158.433 316.859 160.935 316.859 160.935V166.935H325.359C325.359 166.935 325.858 203.434 323.358 221.934C321.245 237.571 316.358 239.434 320.859 241.434C324.359 241.934 329.859 240.934 330.359 234.934C330.859 221.433 331.859 178.434 331.859 178.434L364.359 239.435H371.359C371.359 239.435 372.859 181.934 374.359 169.934C374.859 163.434 381.859 157.434 369.359 158.935C365.237 159.43 364.859 176.933 364.859 176.933L364.358 218.434C364.358 218.434 335.858 157.934 331.859 158.433Z" fill="#02529F"/>
<path d="M396.858 158.934C390.949 158.933 381.858 160.934 381.858 160.934V166.434C381.858 166.434 386.858 165.434 390.358 166.434L389.858 240.934C389.858 241.934 399.858 241.725 399.858 237.934L401.358 164.934C401.242 163.94 401.358 158.934 396.858 158.934Z" fill="#02529F"/>
<path d="M424.358 158.434C415.858 158.934 410.858 161.434 410.858 161.434V167.434C410.858 167.434 419.358 165.433 420.358 167.933L432.358 199.934C432.358 199.934 406.858 239.784 408.358 239.934C408.858 240.934 418.356 240.934 420.856 237.934C423.356 234.934 435.858 207.934 435.858 207.934C435.858 207.934 445.858 238.934 449.858 240.434C455.858 241.934 461.358 240.434 465.858 236.434C466.983 235.434 466.078 230.574 464.358 231.434C463.358 231.934 456.358 233.934 454.858 231.434L441.858 196.434L463.358 162.434C464.913 158.433 455.269 157.435 453.858 159.434C447.859 167.935 438.858 189.435 438.858 189.435C438.858 189.435 429.358 158.14 424.358 158.434Z" fill="#02529F"/>
<defs>
<linearGradient id="paint0_linear_289_763" x1="0" y1="0" x2="102" y2="142" gradientUnits="userSpaceOnUse">
<stop offset="0.0447648" stop-color="#DADADA"/>
<stop offset="0.8959" stop-color="#02529F"/>
</linearGradient>
</defs>
</svg>
